<svg xmlns="http://www.w3.org/2000/svg" width="214.976" height="240.246" viewBox="0 0 214.976 240.246"><g transform="translate(0 0)"><ellipse style="fill:#f2f2f2;" cx="58.102" cy="9.968" rx="58.102" ry="9.968" transform="translate(84.438 220.31)"/><path style="fill:#f2f2f2;" d="M503.869,800.055c-40.273,0-71.82-5.53-71.82-12.589s31.547-12.589,71.82-12.589,71.82,5.53,71.82,12.589S544.142,800.055,503.869,800.055Zm0-24.532c-38.58,0-71.174,5.469-71.174,11.943s32.594,11.943,71.174,11.943,71.174-5.469,71.174-11.943S542.45,775.523,503.869,775.523Z" transform="translate(-372.143 -562.714)"/><path style="fill:#f2f2f2;" d="M435.574,154.907a97.922,97.922,0,0,1-1.892,19.219q-.29,1.462-.629,2.912-.2.872-.416,1.737-.14.562-.291,1.123a98.017,98.017,0,0,1-51.491,62.833,96.2,96.2,0,0,1-12.769,5.187q-1,.324-2,.629h0a97.7,97.7,0,0,1-28.308,4.164q-2.063,0-4.067-.094a81.087,81.087,0,0,1-10.784-1.2c-43.8-7.915-65.254-51.045-82.952-96.513q-.658-1.69-1.294-3.357l-.31-.823C191.286,26.248,242.338-5.253,337.77,57.1,382.989,86.647,435.574,100.892,435.574,154.907Z" transform="translate(-220.597 -26)"/><path style="fill:#f2f2f2;" d="M679.4,318.2l-.447-.465c.07-.067,7.055-6.909,9.715-19.692,2.457-11.807,1.622-31.246-16.3-56.808-13.749-19.6-19.313-36.733-16.536-50.909,2.439-12.454,10.732-17.925,10.816-17.978l.35.542c-.081.052-8.158,5.394-10.536,17.58-2.731,13.993,2.8,30.948,16.436,50.394,7.975,11.372,13.284,22.509,15.78,33.1a55.64,55.64,0,0,1,.619,24.251C686.583,311.179,679.473,318.132,679.4,318.2Z" transform="translate(-532.026 -130.886)"/><path style="fill:#f2f2f2;" d="M292.079,245.793a119.649,119.649,0,0,0-8.47,13.909l-.31-.823a122.429,122.429,0,0,1,8.25-13.457c13.638-19.448,19.167-36.4,16.436-50.393-2.379-12.188-10.455-17.53-10.536-17.582l.349-.542c.084.055,8.38,5.526,10.817,17.979C311.391,209.059,305.826,226.186,292.079,245.793Z" transform="translate(-265.535 -134.151)"/><path style="fill:#fff" d="M422.342,329.012l-.447-.465c.089-.085,8.894-8.708,12.25-24.821,3.1-14.879,2.052-39.377-20.534-71.584-9.437-13.457-15.873-26.171-19.128-37.789-2.66-9.493-3.223-18.318-1.674-26.229,3.063-15.642,13.473-22.509,13.578-22.577l.35.542c-.1.066-10.3,6.8-13.3,22.178-3.445,17.638,3.52,39,20.7,63.5,10.033,14.306,16.711,28.315,19.85,41.637a69.955,69.955,0,0,1,.779,30.49C431.363,320.192,422.432,328.925,422.342,329.012Z" transform="translate(-343.408 -111.678)"/><circle style="fill:#fff" cx="24.988" cy="24.988" r="24.988" transform="translate(32.274 19.919)"/><path style="fill:#fff" d="M357.383,94.423a34.047,34.047,0,1,1,34.047-34.047A34.047,34.047,0,0,1,357.383,94.423Zm0-67.448a33.4,33.4,0,1,0,33.4,33.4,33.4,33.4,0,0,0-33.4-33.4Z" transform="translate(-294.229 -26.237)"/><circle style="fill:#fff" cx="20.722" cy="20.722" r="20.722" transform="translate(61.528 80.866)"/><circle style="fill:#fff" cx="20.722" cy="20.722" r="20.722" transform="translate(50.964 152.783)"/><path style="fill:#a1a1a1" d="M667.75,375.506q-.324-1.675-.668-3.305h0v0c-2.9-13.754-6.8-25.032-11.43-34.231l-12.256-4.216,9.238-1.32a73.407,73.407,0,0,0-12.224-15.739L617.9,319.264l16.991-7.282c-31.226-23.489-72.165-4.622-83.321,1.307-1.53.81-2.5,1.382-2.808,1.565,0,0,0,0-.006,0l-.1.061,6.333,3.289h0L667.459,376.63Z" transform="translate(-455.711 -222.733)"/><path style="fill:#3f3d56" d="M623.8,398.076q.218-.867.416-1.737c-.329-.481-.691-1.007-1.085-1.569h0v0c-12.969-18.544-60.509-79.137-115.27-58.57h0q-1.52.571-3.047,1.227s0,0-.006,0q-1.39.6-2.782,1.265c-.471.223-.939.455-1.411.691-.41.207-.817.416-1.227.633a13.735,13.735,0,0,0-4.942,2.786c-5.129,4.332-11.346,14.916-3.108,39.628,0,0,7.314,20.474,3.657,29.983s19.019,20.471,25.594,0a232.705,232.705,0,0,0,8.78-40.222s7.566,15.942,6.82,31.93a61.329,61.329,0,0,0,2.043,19.422c.181.662.378,1.323.575,1.995a145.775,145.775,0,0,0,11.559,28.205,95.164,95.164,0,0,0,8.89,13.476,96.206,96.206,0,0,0,12.769-5.187A98.017,98.017,0,0,0,623.51,399.2Z" transform="translate(-411.761 -245.303)"/><path style="fill:#3f3d56" d="M309.611,299.081l-2.925-24.132,12.432,17.55Z" transform="translate(-219.799 -197.054)"/><path style="fill:#3f3d56" d="M287.112,305.217l-2.925-24.132,12.432,17.55Z" transform="translate(-203.674 -201.451)"/><path style="fill:#a1a1a1" d="M193.024,342.931l-31.234-40.6,31.633,28.405Z" transform="translate(-115.953 -216.679)"/><circle style="fill:#f2f2f2;" cx="4.842" cy="4.842" r="4.842" transform="translate(140.736 15.286)"/></g></svg>