<svg xmlns="http://www.w3.org/2000/svg" width="203.967" height="203.975" viewBox="0 0 203.967 203.975"><g transform="translate(0)"><path style="fill:#a1a1a1" d="M465.967,213.984a101.638,101.638,0,0,1-8.213,40.16l-.338.778a102.152,102.152,0,0,1-111.129,59.516q-.919-.163-1.835-.338a101.072,101.072,0,0,1-18.448-5.44q-1.453-.584-2.885-1.21c-.652-.284-1.3-.576-1.949-.878a101.994,101.994,0,1,1,144.8-92.588Z" transform="translate(-262 -112)"/><path style="opacity:0.2" d="M441.176,465.509q-.919-.163-1.835-.338a419.361,419.361,0,0,0-6.427-60.131c-2.55-13.6-6.089-27.539-11-40a124.492,124.492,0,0,0-5.754-12.624c-4.96-9.369-10.977-17.256-18.273-22.6l1.074-1.466q9.1,6.671,16.36,18.731,2.177,3.612,4.182,7.706,2.15,4.381,4.1,9.3,1.245,3.132,2.4,6.481a235.243,235.243,0,0,1,8.587,33.184q.783,4.119,1.491,8.439A427.9,427.9,0,0,1,441.176,465.509Z" transform="translate(-356.888 -263.071)"/><path style="opacity:0.2" d="M420.572,644.506c-.652-.284-1.3-.576-1.949-.878a148.136,148.136,0,0,0-3.907-23.411,76.8,76.8,0,0,0-3.563-10.621c-2.417-5.657-5.546-10.467-9.592-13.433l1.074-1.463c4.236,3.1,7.5,8,10.029,13.741a94.253,94.253,0,0,1,6.007,21.172C419.609,634.95,420.2,640.107,420.572,644.506Z" transform="translate(-359.451 -449.057)"/><circle style="opacity:0.2" cx="9.079" cy="9.079" r="9.079" transform="translate(21.777 48.546)"/><circle style="opacity:0.2" cx="9.079" cy="9.079" r="9.079" transform="translate(24.7 126.696)"/><path style="opacity:0.2" d="M482.556,310.392c-1.925,10.861,2.325,20.7,2.325,20.7s7.371-7.775,9.3-18.636-2.325-20.7-2.325-20.7S484.481,299.53,482.556,310.392Z" transform="translate(-415.659 -237.518)"/><path style="opacity:0.2" d="M344.963,408.587a40.526,40.526,0,0,0,20.77,1.357,36.976,36.976,0,0,0-37.516-13.718A40.525,40.525,0,0,0,344.963,408.587Z" transform="translate(-308.238 -309.931)"/><path style="opacity:0.2" d="M350.755,646.932a28.265,28.265,0,0,0,14.568.923,25.759,25.759,0,0,0-26.3-9.615A28.264,28.264,0,0,0,350.755,646.932Z" transform="translate(-315.787 -479.072)"/><circle style="fill:#d0cde1" cx="39.759" cy="39.759" r="39.759" transform="translate(62.016 45.05)"/><path style="fill:#d0cde1" d="M547.833,465.211s4.97,23.607,4.97,26.092,23.607,13.667,23.607,13.667l21.122-3.727,7.455-22.364s-12.425-18.637-12.425-26.092Z" transform="translate(-461.59 -349.962)"/><path style="fill:#2f2e41" d="M545.206,537.14l-.338.778a102.152,102.152,0,0,1-111.129,59.516q-.919-.163-1.835-.338a101.072,101.072,0,0,1-18.448-5.44q-1.453-.584-2.885-1.21c-.652-.284-1.3-.576-1.949-.878a101.863,101.863,0,0,1-16.67-9.74l-4.713-13.671,2.649-2.022,5.449-4.161,5.814-4.438,1.512-1.156,22.814-17.416,1.684-1.285,11.858-9.052,0,0s12.823,20.895,31.461,14.682a25.7,25.7,0,0,0,18.23-24.026Z" transform="translate(-349.452 -394.996)"/><path style="fill:#2f2e41" d="M463.4,236.039s12.623-27.35,36.818-21.039,37.87,15.779,38.922,25.246-.526,23.668-.526,23.668-2.63-19.461-19.461-15.253-43.129,1.052-43.129,1.052l-4.208,37.87s-4.734-6.838-9.993-2.63S446.564,244.454,463.4,236.039Z" transform="translate(-396.1 -183.262)"/><path style="fill:#2f2e41" d="M401.782,704.769q-1.453-.584-2.885-1.21c-.652-.284-1.3-.576-1.949-.878A102.237,102.237,0,0,1,370.52,684.97a35.755,35.755,0,0,1,5.045-5.7H394.2l2.794,9.4Z" transform="translate(-337.777 -508.11)"/><path style="fill:#2f2e41" d="M854.037,576.32l15.989,2.824A101.965,101.965,0,0,1,852.9,605.868Z" transform="translate(-674.61 -436.222)"/></g></svg>