<svg xmlns="http://www.w3.org/2000/svg" width="288.372" height="182.49" viewBox="0 0 288.372 182.49"><g transform="translate(0.023 -0.01)"><path style="fill:#3f3d56" d="M301.6,394.469c-2.65.977-7.3,1.779-12.691,2.425-14.647,1.758-34.719,2.382-34.719,2.382S151,407.833,73.666,376.005c0,0-11.248-5.9-.814-13.833a33.981,33.981,0,0,1,5.1-3.114l.127-.128a27.1,27.1,0,0,1,3.833-2.954,26.8,26.8,0,0,1,19.006-4.269l203.113,32.85S311.455,390.826,301.6,394.469Z" transform="translate(-68.44 -286.87)"/><path style="fill:#3f3d56" d="M778.88,374.348,821.4,344.18l18.74,3.241-18.35,31.9S779.368,379.664,778.88,374.348Z" transform="translate(-586.194 -281.637)"/><path style="fill:#3f3d56" d="M315.78,210.383l84.7-23.753,13.652,2.853-38.259,17.21-11.956,13.378Z" transform="translate(-230.143 -136)"/><path style="fill:#a1a1a1" d="M288.9,425.942c-14.647,1.758-34.719,2.382-34.719,2.382S151,436.881,73.666,405.053c0,0-11.248-5.9-.814-13.833l.035.146S89.575,402.645,169.3,412.06Z" transform="translate(-68.44 -315.918)"/><path style="fill:#3f3d56" d="M830.609,504.513l37.866,15.461,9.513-1.055L855.338,501.9S827.943,496.05,830.609,504.513Z" transform="translate(-623.759 -395.14)"/><path style="fill:#a1a1a1" d="M112.63,376.374c-1.806.03-5.946-3-8.52-5.04a27.1,27.1,0,0,1,3.833-2.954c2.075,1.592,5.767,4.169,7.82,4.069C118.727,372.327,115.35,376.325,112.63,376.374Z" transform="translate(-94.452 -299.273)"/><path style="fill:#3f3d56" d="M470.117,549.741,445.8,551.014l-68.353-46.09-12.689-8.558-6.163-4.158c11.563-9.765,58.741,3.7,58.741,3.7a4.163,4.163,0,0,1,1.15,3.429,21.188,21.188,0,0,1-1.785,6.8c-.114.271-.184.415-.184.415Z" transform="translate(-279.913 -386.925)"/><path style="fill:#f2f2f2" d="M390.029,600.895l-4.218,2.669,2.555-4.646a4.164,4.164,0,0,0-2.544-.909h-.068a4.663,4.663,0,0,1-.873-.065l-1.427.906.61-1.112a5.094,5.094,0,0,1-2.5-1.9l-2.552,1.627,1.611-2.935a7.467,7.467,0,0,0-5.721-2.891,7.838,7.838,0,0,0-6.548,4.042,4.9,4.9,0,0,1-4.34,2.333h-.141c-2.932,0-5.308,3.323-5.308,7.424s2.376,7.424,5.308,7.424a3.96,3.96,0,0,0,1.847-.464,7.671,7.671,0,0,1,6.426-.125,6.7,6.7,0,0,0,5.463,0,7.668,7.668,0,0,1,6.366.122,3.992,3.992,0,0,0,1.831.453c2.932,0,5.308-3.323,5.308-7.424A9.432,9.432,0,0,0,390.029,600.895Z" transform="translate(-279.891 -461.975)"/><path style="opacity:0.03" d="M382.146,637.746a7.866,7.866,0,0,0-4.549.494,6.681,6.681,0,0,1-5.46,0,7.651,7.651,0,0,0-6.426.125,4,4,0,0,1-1.85.464c-2.6,0-4.771-2.626-5.221-6.087a4.952,4.952,0,0,0,1.3-1.4,7.326,7.326,0,0,1,13.069-.052,5.018,5.018,0,0,0,4.326,2.379h.068C379.477,633.661,381.273,635.321,382.146,637.746Z" transform="translate(-279.942 -487.963)"/><path style="fill:#f2f2f2" d="M829.029,587.895l-4.218,2.669,2.555-4.646a4.163,4.163,0,0,0-2.544-.909h-.068a4.668,4.668,0,0,1-.873-.065l-1.427.906.61-1.112a5.094,5.094,0,0,1-2.5-1.9l-2.552,1.628,1.611-2.935a7.467,7.467,0,0,0-5.721-2.891,7.838,7.838,0,0,0-6.548,4.042,4.9,4.9,0,0,1-4.34,2.333h-.141c-2.932,0-5.308,3.323-5.308,7.424s2.376,7.424,5.308,7.424a3.96,3.96,0,0,0,1.847-.464,7.671,7.671,0,0,1,6.426-.125,6.7,6.7,0,0,0,5.463,0,7.668,7.668,0,0,1,6.366.122,3.992,3.992,0,0,0,1.831.453c2.932,0,5.308-3.323,5.308-7.424A9.431,9.431,0,0,0,829.029,587.895Z" transform="translate(-599.815 -452.502)"/><path style="opacity:0.03" d="M821.146,624.746a7.866,7.866,0,0,0-4.549.494,6.681,6.681,0,0,1-5.46,0,7.652,7.652,0,0,0-6.426.125,4,4,0,0,1-1.85.464c-2.6,0-4.771-2.626-5.221-6.087a4.953,4.953,0,0,0,1.3-1.4,7.326,7.326,0,0,1,13.069-.052,5.018,5.018,0,0,0,4.34,2.379h.068C818.477,620.661,820.273,622.321,821.146,624.746Z" transform="translate(-599.866 -478.489)"/><path style="fill:#f2f2f2" d="M829.029,259.895l-4.218,2.669,2.555-4.646a4.164,4.164,0,0,0-2.544-.909h-.068a4.665,4.665,0,0,1-.873-.065l-1.427.906.61-1.112a5.094,5.094,0,0,1-2.5-1.9l-2.552,1.627,1.611-2.935a7.466,7.466,0,0,0-5.721-2.891,7.838,7.838,0,0,0-6.548,4.042,4.9,4.9,0,0,1-4.34,2.333h-.141c-2.932,0-5.308,3.323-5.308,7.424s2.376,7.424,5.308,7.424a3.96,3.96,0,0,0,1.847-.464,7.671,7.671,0,0,1,6.426-.125,6.7,6.7,0,0,0,5.463.014,7.668,7.668,0,0,1,6.366.122,3.993,3.993,0,0,0,1.831.453c2.932,0,5.308-3.323,5.308-7.424A9.431,9.431,0,0,0,829.029,259.895Z" transform="translate(-599.815 -213.47)"/><path style="opacity:0.03" d="M821.146,296.746a7.866,7.866,0,0,0-4.549.494,6.68,6.68,0,0,1-5.46,0,7.652,7.652,0,0,0-6.426.125,4,4,0,0,1-1.85.464c-2.6,0-4.771-2.626-5.221-6.087a4.952,4.952,0,0,0,1.3-1.4,7.326,7.326,0,0,1,13.069-.052,5.018,5.018,0,0,0,4.34,2.379h.068C818.477,292.661,820.273,294.321,821.146,296.746Z" transform="translate(-599.866 -239.457)"/><path style="fill:#f2f2f2" d="M229.423,237l-2.1,1.332,1.275-2.316a2.067,2.067,0,0,0-1.269-.456h-.033a2.588,2.588,0,0,1-.437-.033l-.711.45.3-.542a2.539,2.539,0,0,1-1.245-.947l-1.272.814.814-1.462a3.719,3.719,0,0,0-2.853-1.443,3.879,3.879,0,0,0-3.255,2.015,2.441,2.441,0,0,1-2.17,1.164H216.4c-1.462,0-2.647,1.66-2.647,3.705s1.185,3.7,2.647,3.7a1.986,1.986,0,0,0,.922-.231,3.816,3.816,0,0,1,3.206-.062,3.339,3.339,0,0,0,2.712,0,3.819,3.819,0,0,1,3.176.062,2.013,2.013,0,0,0,.911.225c1.462,0,2.647-1.657,2.647-3.7a4.725,4.725,0,0,0-.551-2.276Z" transform="translate(-174.352 -200.177)"/><path style="opacity:0.03" d="M225.429,255.336a3.9,3.9,0,0,0-2.27.247,3.375,3.375,0,0,1-1.356.288,3.326,3.326,0,0,1-1.37-.3,3.824,3.824,0,0,0-3.206.065,1.975,1.975,0,0,1-.92.231c-1.3,0-2.382-1.31-2.607-3.035a2.55,2.55,0,0,0,.651-.7,3.646,3.646,0,0,1,6.51-.024,2.5,2.5,0,0,0,2.17,1.185h.035A2.73,2.73,0,0,1,225.429,255.336Z" transform="translate(-174.316 -213.091)"/><path style="fill:#f2f2f2" d="M919.422,726l-2.1,1.332,1.275-2.316a2.066,2.066,0,0,0-1.269-.456h-.033a2.589,2.589,0,0,1-.437-.033l-.711.45.3-.542a2.539,2.539,0,0,1-1.245-.947l-1.272.814.814-1.462a3.719,3.719,0,0,0-2.854-1.443,3.879,3.879,0,0,0-3.255,2.015,2.441,2.441,0,0,1-2.17,1.164H906.4c-1.462,0-2.647,1.66-2.647,3.705s1.185,3.7,2.647,3.7a1.985,1.985,0,0,0,.922-.231,3.816,3.816,0,0,1,3.206-.062,3.339,3.339,0,0,0,2.712,0,3.819,3.819,0,0,1,3.176.062,2.013,2.013,0,0,0,.911.225c1.462,0,2.647-1.657,2.647-3.7a4.725,4.725,0,0,0-.551-2.276Z" transform="translate(-677.194 -556.539)"/><path style="opacity:0.03" d="M915.429,744.336a3.9,3.9,0,0,0-2.27.247,3.374,3.374,0,0,1-1.356.288,3.327,3.327,0,0,1-1.37-.3,3.825,3.825,0,0,0-3.206.065,1.975,1.975,0,0,1-.919.231c-1.3,0-2.382-1.31-2.607-3.035a2.55,2.55,0,0,0,.651-.7,3.646,3.646,0,0,1,6.51-.024,2.5,2.5,0,0,0,2.17,1.185h.035A2.73,2.73,0,0,1,915.429,744.336Z" transform="translate(-677.158 -569.452)"/><path style="fill:#f2f2f2" d="M199.422,752l-2.1,1.332,1.275-2.316a2.067,2.067,0,0,0-1.269-.456h-.033a2.6,2.6,0,0,1-.437-.033l-.711.45.3-.542a2.539,2.539,0,0,1-1.245-.947l-1.272.814.814-1.462a3.719,3.719,0,0,0-2.853-1.443,3.879,3.879,0,0,0-3.255,2.015,2.441,2.441,0,0,1-2.17,1.164H186.4c-1.462,0-2.647,1.66-2.647,3.705s1.185,3.7,2.647,3.7a1.986,1.986,0,0,0,.922-.231,3.816,3.816,0,0,1,3.206-.062,3.339,3.339,0,0,0,2.712,0,3.819,3.819,0,0,1,3.176.062,2.012,2.012,0,0,0,.911.225c1.462,0,2.647-1.657,2.647-3.7a4.725,4.725,0,0,0-.551-2.276Z" transform="translate(-152.49 -575.486)"/><path style="opacity:0.03" d="M195.429,770.336a3.9,3.9,0,0,0-2.27.247,3.374,3.374,0,0,1-1.356.287,3.326,3.326,0,0,1-1.37-.3,3.825,3.825,0,0,0-3.206.065,1.975,1.975,0,0,1-.92.231c-1.3,0-2.382-1.31-2.607-3.035a2.549,2.549,0,0,0,.651-.7,3.646,3.646,0,0,1,6.51-.024,2.5,2.5,0,0,0,2.17,1.185h.035A2.73,2.73,0,0,1,195.429,770.336Z" transform="translate(-152.453 -588.4)"/><path style="fill:#f2f2f2" d="M515.029,122.895l-4.218,2.669,2.555-4.646a4.164,4.164,0,0,0-2.544-.909h-.068a4.668,4.668,0,0,1-.873-.065l-1.427.906.61-1.112a5.094,5.094,0,0,1-2.5-1.9l-2.552,1.627,1.611-2.935a7.466,7.466,0,0,0-5.721-2.891,7.838,7.838,0,0,0-6.548,4.042,4.9,4.9,0,0,1-4.34,2.333h-.141c-2.932,0-5.308,3.323-5.308,7.424s2.376,7.424,5.308,7.424a3.96,3.96,0,0,0,1.847-.464,7.671,7.671,0,0,1,6.426-.125,6.7,6.7,0,0,0,5.463.014,7.668,7.668,0,0,1,6.366.122,3.993,3.993,0,0,0,1.831.453c2.932,0,5.308-3.323,5.308-7.424a9.431,9.431,0,0,0-1.09-4.543Z" transform="translate(-370.985 -113.63)"/><path style="opacity:0.03" d="M507.146,159.746a7.866,7.866,0,0,0-4.549.494,6.681,6.681,0,0,1-5.46,0,7.652,7.652,0,0,0-6.426.125,4,4,0,0,1-1.85.464c-2.6,0-4.771-2.626-5.221-6.087a4.953,4.953,0,0,0,1.3-1.4,7.326,7.326,0,0,1,13.069-.052,5.018,5.018,0,0,0,4.34,2.379h.068C504.477,155.661,506.273,157.321,507.146,159.746Z" transform="translate(-371.036 -139.617)"/><path style="fill:#f2f2f2" d="M1087.422,307l-2.1,1.332,1.275-2.316a2.067,2.067,0,0,0-1.269-.456h-.033a2.591,2.591,0,0,1-.437-.033l-.711.45.3-.542a2.539,2.539,0,0,1-1.245-.947l-1.272.814.814-1.462a3.719,3.719,0,0,0-2.853-1.443,3.879,3.879,0,0,0-3.255,2.015,2.441,2.441,0,0,1-2.17,1.164h-.071c-1.462,0-2.647,1.66-2.647,3.705s1.185,3.7,2.647,3.7a1.986,1.986,0,0,0,.922-.231,3.816,3.816,0,0,1,3.206-.062,3.339,3.339,0,0,0,2.712,0,3.819,3.819,0,0,1,3.176.062,2.013,2.013,0,0,0,.911.225c1.462,0,2.647-1.657,2.647-3.7A4.725,4.725,0,0,0,1087.422,307Z" transform="translate(-799.625 -251.19)"/><path style="opacity:0.03" d="M1083.465,325.336a3.9,3.9,0,0,0-2.27.247,3.374,3.374,0,0,1-1.356.288,3.326,3.326,0,0,1-1.356-.3,3.824,3.824,0,0,0-3.206.065,1.974,1.974,0,0,1-.92.231c-1.3,0-2.382-1.31-2.607-3.035a2.552,2.552,0,0,0,.651-.7,3.646,3.646,0,0,1,6.51-.024,2.5,2.5,0,0,0,2.156,1.185h.035A2.73,2.73,0,0,1,1083.465,325.336Z" transform="translate(-799.625 -264.104)"/></g></svg>