<svg xmlns="http://www.w3.org/2000/svg" width="168.972" height="131.135" viewBox="0 0 168.972 131.135"><defs><style>.a{fill:#c9e7fb;}.b{fill:#e5f4ff;}.c{fill:#f89d1f;}.d{fill:#a9d9f9;}.e{fill:#f4c5bf;}.f{fill:#3e3e3e;}.g{fill:#81ccff;}.h{fill:#6a80f7;}.i{fill:#5ab7f6;}.j{fill:#f5ccc1;}.k{fill:#fbfbfb;}.l{fill:#f77d0c;}.m{fill:#f59cb3;}.n{fill:#3c56f0;}</style></defs><path class="a" d="M218.857,14.548V5.066a4.382,4.382,0,0,1,4.768-4.75q33.479,0,66.939.018c.605,0,1.32-.293,1.779.422a2.692,2.692,0,0,0-.587,2.714A8.54,8.54,0,0,0,293.535,6.9c.165.2.642.348.22.734-1.43,1.3-.7,2.7-.2,4.108-.037.55-.128,1.1-.128,1.632,0,1.174.128,2.292,1.375,2.861a14.706,14.706,0,0,0,1.687,5.3v5.3c-1.651.825-3.3,1.651-4.952,2.494a14.257,14.257,0,0,0-6.346,5.612c-1.009,1.816-2.311,3.485-3.374,5.263-.605,1.009-.99.9-1.687.11-1.54-1.724-3.154-3.411-4.787-5.043-.844-.844-1.467-1.926-2.623-2.4-.458-.9-1.009-1.669-2.219-1.284-.092-.55-.2-1.119-.293-1.669a11.549,11.549,0,0,0-.513-3.961c-.275-.917-.88-1.394-1.761-.862-.99.587-1.559.165-2.072-.605A20.192,20.192,0,0,0,263,21.48a1.342,1.342,0,0,0-1.522-.422c-.568.257-.513.844-.458,1.339.183,1.742.513,3.466.569,5.227.11,3.576,2.366,5.392,5.245,6.767a4.585,4.585,0,0,0,.128.477c-.5.293-.917.715-.4,1.192.532.514.679,1.3,1.357,1.669a13.053,13.053,0,0,1,1.889,2.366c1.907,2.678,3.631,5.465,5.777,7.978,3.319,3.87,6.309,4.181,9.738,1.045,1.742-1.394,3.154-3.173,5.007-4.457.312,4.108.569,8.216.972,12.306.238,2.439.238,4.9.715,7.3,0,.458.018.935.018,1.394-.018.752-.037,1.485-.018,2.237q.193,12.682.385,25.382a4.609,4.609,0,0,0-2.054-.257h-69.6c-.55,0-1.119.037-1.669.055-.165-.4-.312-.789-.477-1.192.4-.385.257-.862.257-1.32V71.529q15.433,0,30.847-.018c2.641,0,3.8-1.174,3.8-3.833V45.78c0-2.659-1.155-3.833-3.8-3.833q-15.433,0-30.847-.018Zm60.851,46.326c-1.669-1.559-3.741-1.669-5.85-1.651a11.6,11.6,0,0,0-7.813,3.723,11.292,11.292,0,0,0,.807,15.845c.33.257.642.532.972.789,4.328,3.246,11.077,2.623,14.433-1.339,4.218-3.631,4.457-11.1.44-15.277C281.871,62.066,281.1,61,279.707,60.873ZM251.52,32.135c.5.037.752-.293,1.027-.605a15.2,15.2,0,0,0,3.7-8.931c.092-.9-.348-1.082-1.155-1.082-4.64.037-9.28.018-13.9.037-.458-.4-.275-.954-.293-1.449-.018-3.906,0-7.813,0-11.719,0-1.687-.2-1.871-1.816-1.632A15.337,15.337,0,0,0,226.064,21.81a15.023,15.023,0,0,0,18.761,14.507,12.412,12.412,0,0,0,1.981-.624C248.6,34.831,250.621,34.208,251.52,32.135Zm-.128-13.388h4.75c3.283,0,3.283,0,2.659-3.264-1.137-6.052-7.556-11.517-13.516-11.572-.917-.018-1.32.165-1.32,1.21.055,4.145.055,8.271,0,12.416-.018,1.009.348,1.265,1.3,1.229C247.3,18.711,249.337,18.748,251.391,18.748ZM276.663,9.8c-3.026,0-6.052.037-9.06-.018-.954-.018-1.3.257-1.3,1.247.018.954.257,1.3,1.265,1.284q9.133-.055,18.285,0c.972,0,1.467-.22,1.449-1.32-.018-1.045-.55-1.21-1.43-1.21C282.788,9.816,279.726,9.8,276.663,9.8ZM237.838,77.654c-3.063,0-6.144.018-9.207-.018-.862,0-1.412.165-1.412,1.21-.018,1.1.5,1.32,1.449,1.32,6.089-.018,12.177-.037,18.285,0,1.009,0,1.247-.348,1.265-1.284.018-.99-.348-1.265-1.3-1.247C243.89,77.691,240.864,77.654,237.838,77.654Zm5.777,8.656c1.119,0,2.237-.055,3.338.018,1.027.073,1.247-.367,1.247-1.3-.018-.862-.2-1.265-1.155-1.247-2.311.055-4.64.037-6.951,0-.825-.018-1.174.238-1.137,1.1.018.844.128,1.467,1.192,1.412C241.3,86.274,242.46,86.31,243.615,86.31Zm27.454-70.369c-1.3,0-2.6.018-3.888,0-.954-.018-.844.642-.844,1.247.018.569-.165,1.284.807,1.265,2.513-.018,5.007.018,7.519-.018,1.064-.018.844-.88.9-1.541.055-.752-.312-.972-.99-.954C273.38,15.978,272.225,15.942,271.069,15.942Zm9.555,2.513c.422,0,.844-.018,1.247,0,.954.073,1.559-.037,1.54-1.3-.018-1.174-.569-1.265-1.467-1.229-.917.055-1.852.037-2.788,0-.9-.037-1.394.2-1.394,1.229,0,.972.385,1.357,1.339,1.284C279.6,18.417,280.111,18.454,280.624,18.454ZM234.39,86.31c.348,0,.568-.018.807,0,.88.055,1.522-.055,1.541-1.21.018-1.247-.66-1.357-1.614-1.3a5.7,5.7,0,0,1-1.119,0c-1.284-.2-1.6.4-1.5,1.577C232.63,86.989,233.859,86,234.39,86.31Z" transform="translate(-178.536 -0.215)"/><path class="b" d="M40.466,78.1v27.363c-2.751,0-5.484-.018-8.234.018-2.347.037-3.521,1.229-3.521,3.5v22.594c0,2.329,1.137,3.466,3.521,3.485,2.751.018,5.484.018,8.234.018v19.036c0,.44.147.935-.257,1.32a6.419,6.419,0,0,0-5.447.844c-2.109,1.192-2.568,3.246-1.32,5.337a1.623,1.623,0,0,1,.257,1.43c-1.467,5.1-1.559,10.325-1.6,15.57H30.911c-.073-2.054-.165-4.09-.238-6.144a5.385,5.385,0,0,0-.293-3.925c.183-1.357-.257-2.678-.257-4.016,0-.4-.073-.77.514-.972,1.852-.642,2.054-1.21,1.8-3.228-.183-1.412-.715-1.816-2-1.21-.532.257-.789.2-.935-.477-.183-.862-.22-1.375.715-1.907,2.072-1.192,2.439-3.374,1.082-5.373a9.881,9.881,0,0,0-3.356-2.861,1.1,1.1,0,0,0-1.669.385,9.665,9.665,0,0,0-1.706,3.778c-.367,2.091.312,3.723,1.962,4.273a1.7,1.7,0,0,1,1.3,1.669c.33,3.319.624,6.639.917,9.958-1.779,1.265-1.779,1.265-2.549-.734a9.59,9.59,0,0,0-.642-1.394,2.071,2.071,0,0,1-.055-2.347,3.132,3.132,0,0,0,.073-2.934c-.679-1.541-4.071-3.595-5.74-3.448-.569.055-.734.385-.954.844a9.619,9.619,0,0,0-.5,4.255,3.412,3.412,0,0,0,4.2,3.393,1.009,1.009,0,0,1,1.339.587,31.927,31.927,0,0,1,3.118,10.747c.073.587.055,1.174-.789,1.119a6.372,6.372,0,0,0-1.522-3.063,1.4,1.4,0,0,1-.11-1.742,3.517,3.517,0,0,0-1.5-4.988,7.312,7.312,0,0,0-2.366-.77c-3.283-.55-3.631-.22-3.5,3.081a3.246,3.246,0,0,0,.018.422c.257,2.751,1.944,4.952,4.915,4.181.5-.128.734.037.862.422.2.624-.385.514-.66.605-.917.312-1.449.789-1.155,1.834a2.744,2.744,0,0,0-2.953,1.3,2.368,2.368,0,0,0,.2,2.714,2.683,2.683,0,0,0,2.714,1.009,5.147,5.147,0,0,0,.532,2c.11,1.192.128,2.4.348,3.558.367,1.816.293,3.8,1.651,5.318-.348.44-.862.293-1.3.293-7.024,0-14.048.018-21.072,0-.422,0-1.064.293-1.192-.312-.092-.422.477-.587.789-.862,2.513-2.182,5.007-4.4,7.519-6.584,1.229-1.064,2.458-2.109,3.7-3.154.9-.734,1.174-1.32.147-2.329a27.516,27.516,0,0,1-8.179-17.184,27.134,27.134,0,0,1,7.684-22.319,26.812,26.812,0,0,1,9-6.382c.99-.422,1.082-.972.587-1.834A26.414,26.414,0,0,1,18.092,122.1a27.858,27.858,0,0,1,5.318-18.248,22.443,22.443,0,0,1,3.521-3.925,4.806,4.806,0,0,0,1.486-2.586,38.414,38.414,0,0,1,7.648-14.672c1.045-1.3,2.146-2.549,3.246-3.8C39.623,78.485,39.916,78.1,40.466,78.1Z" transform="translate(-0.146 -63.767)"/><path class="a" d="M754.444,416.16a27.042,27.042,0,0,1-7.7,19.238c-.844.9-.569,1.229.348,1.669a17.195,17.195,0,0,1,4.915,27.4c-.917.972-.88,1.192.33,1.8,3.374,1.632,6.932,2.861,10.417,4.328H734.271c.037-.605.11-1.32-.367-1.706a18.034,18.034,0,0,1-2.7-3.448c-.092-.238-.183-.5-.257-.734a2.175,2.175,0,0,0-.312-1.43c-.128-3.815-.7-7.593-1.174-11.371-.293-3.613-.605-7.226-.9-10.839-.5-5.8-.972-11.591-1.467-17.368.642-.055.954-.532,1.284-.972a14.232,14.232,0,0,1,4.713-4.016c3.76-2.072,7.868-2.531,12.049-2.824C748.264,415.683,751.345,416.178,754.444,416.16Z" transform="translate(-593.78 -339.564)"/><path class="c" d="M492.466,145.662c1.155.5,1.779,1.577,2.623,2.4,1.632,1.651,3.228,3.319,4.787,5.043.7.789,1.082.9,1.687-.11,1.064-1.8,2.347-3.448,3.374-5.263a13.95,13.95,0,0,1,6.345-5.612c1.651-.825,3.3-1.651,4.952-2.494.44,0,.459.33.569.642.477,1.357,1.009,2.678,1.485,4.035.238.679.477.752,1.027.2.807-.807,1.394-2.4,2.384-2.274.88.128,1.632,1.5,2.347,2.4.605.77.807.385,1.082-.22.935-2.017,1.889-4.016,2.824-6.015,3.063,1.541,6.107,3.118,9.206,4.622a7.988,7.988,0,0,1,3.686,3.65,26.131,26.131,0,0,1,2.219,7.849c.4,2.366.458,4.787,1.284,7.061-.037.275.037.477.348.514-.293.128-.238.367-.165.587a2.758,2.758,0,0,0,.128,1.761c.037.7.073,1.394.092,2.072.092,2.219-.642,3.173-2.806,3.76a5.068,5.068,0,0,1-2.861-.165c-2.788-.807-5.465-2.017-8.326-2.6-.99-1.045-2.366-1.376-3.576-2.036-.715-.385-.66.22-.55.624.99,3.595,2.017,7.171,3.026,10.765a3,3,0,0,1-1.5.128q-8.2.027-16.4.018c-.477-2.421-.477-4.878-.715-7.3-.385-4.09-.642-8.216-.972-12.306a32.661,32.661,0,0,0-.99-4.732c-.9,2-1.669,3.668-2.384,5.392-.532,1.284-1.449,2.384-1.614,3.815-3.43,3.154-6.437,2.824-9.738-1.045-2.146-2.494-3.87-5.3-5.777-7.978a13.055,13.055,0,0,0-1.889-2.366c-.055-.569.4-.789.734-1.1C489.734,148.157,491.091,146.928,492.466,145.662Zm39.925,14.066a13.843,13.843,0,0,0,3.521,1.3c-.44-2.292-.844-4.438-1.247-6.566-2.311.88-4.071,2.568-6.345,3.961A20.748,20.748,0,0,0,532.392,159.729Zm-8.088,3.319.092.037a.462.462,0,0,1-.037.275c-.624,1.3.5,1.265,1.192,1.559,1.064.44,1.009-.44,1.192-.99.422-1.375.789-2.769,1.192-4.145.2-.715.532-1.3-.532-1.779-1.027-.44-1.3.11-1.651.77a37.732,37.732,0,0,0-3.98-2.788,1.512,1.512,0,0,0-2,.165A16.337,16.337,0,0,0,517,159.436c-1.1,1.651-1.045,2.072.349,3.466.257.257.55.5.807.752.77.715,1.522.844,2.237-.073C521.553,162.26,522.965,162.975,524.3,163.048Z" transform="translate(-398.264 -113.009)"/><path class="b" d="M198.858,566.45H192.9c-.44,0-.935.147-1.3-.293a5.326,5.326,0,0,0,1.265-2.879c.147-2.017.9-3.961.715-6.015.4-.605.257-1.339.514-1.981a2.666,2.666,0,0,0,2.549-.77,2.43,2.43,0,0,0,.5-2.824,2.534,2.534,0,0,0-2.347-1.449c-.458-.018-1.394.238-1.339-.275.22-2.054-1.174-1.6-2.256-1.632-.66-.018-1.229-.165-.9-.917.257-.587-.293-1.907,1.32-1.485a3.389,3.389,0,0,0,4.31-2.494,9.29,9.29,0,0,0-.22-4.952,1.259,1.259,0,0,0-1.706-.954,9.65,9.65,0,0,0-3.815,1.614,3.808,3.808,0,0,0-.458-.275c-.569-.275-1.394.587-1.687-.11-.238-.55.11-1.339.238-2.017a8.88,8.88,0,0,1,.348-1.192c.128-.367.349-.7.807-.587,1.816.458,2.934-.642,4.071-1.76.605.018,1.21.055,1.8.055h31.471c.128.954.073,1.981,1.1,2.549-.055.825.587,1.21,1.064,1.669.348.33.954.44.917,1.1-.477,1.3-1.339,2.458-1.449,3.888a2.333,2.333,0,0,0-.807,1.265l-6.987,16.065c-2.494.514-4.915,1.3-7.428,1.706-3.741.605-7.519,1.155-11,2.751C200.967,564.762,199.591,565.148,198.858,566.45Z" transform="translate(-153.512 -435.404)"/><path class="a" d="M481.458,599.03c-.513,1.229-1.577,1.082-2.622,1.064-3.576-.018-7.134-.018-10.71-.018a4.454,4.454,0,0,0-.513-2.421c-2.164-4.97-4.365-9.922-6.455-14.928-.789-1.907-2.036-3.65-2.256-5.8a2.181,2.181,0,0,1,1.21-.605,27.863,27.863,0,0,1,7.941-1.027c6.932-.22,13.883.22,20.779-.9q.138,3.494.275,6.987a113.56,113.56,0,0,0,.257,11.444v1.394a1.309,1.309,0,0,0-.807.99,7.421,7.421,0,0,1-5.154,2.366A1.876,1.876,0,0,0,481.458,599.03Z" transform="translate(-374.767 -469.048)"/><path class="b" d="M718.517,283.712c2.861.587,5.539,1.8,8.326,2.6a4.9,4.9,0,0,0,2.861.165c2.146-.605,2.9-1.559,2.806-3.76-.037-.7-.055-1.394-.092-2.072a2,2,0,0,1,1.321.348,28.19,28.19,0,0,1,8.583,8.711,29.805,29.805,0,0,1,4.328,11.884,31.488,31.488,0,0,1,.073,4.163c-3.1,0-6.2-.5-9.3-.275-4.163.293-8.271.752-12.049,2.824a14.415,14.415,0,0,0-4.713,4.016c-.33.44-.642.917-1.284.972-.495-5.74-.972-11.481-1.467-17.221-.11-1.009-.22-2.036-.312-3.044C717.893,289.929,718.205,286.829,718.517,283.712Z" transform="translate(-586.022 -229.16)"/><path class="d" d="M372.407,553.072c.22,2.127,1.467,3.888,2.256,5.8,2.072,5.007,4.291,9.958,6.456,14.929a4.623,4.623,0,0,1,.514,2.421h-3.888c-1.706-3.191-2.934-6.6-4.456-9.885-1.155-2.494-2.219-5.025-3.393-7.684a2.594,2.594,0,0,0-.238,1.577c-.018,4.75,0,9.482,0,14.231a2.933,2.933,0,0,1-.293,1.761c-1.394,0-2.788,0-4.163-.018V558.592a1.57,1.57,0,0,0-.293.018q-3.906,8.8-7.831,17.606h-3.906a1.348,1.348,0,0,1-.018-1.412c.77-1.742,1.5-3.521,2.237-5.282l6.987-16.065c.2-.458.312-.972.807-1.265.77,1.651,1.027,3.466,1.632,5.117.293.037.33-.128.33-.257.018-2.7.018-5.392.037-8.088,0-.385-.147-.623-.55-.66.018-.642-.569-.752-.917-1.1-.5-.459-1.119-.844-1.064-1.669a31.373,31.373,0,0,1,9.537-.018c-.165,1.375-1.449,1.706-2.256,2.494-.293.22-.275.55-.275.88v7.483c0,.238-.11.568.367.715a32.2,32.2,0,0,1,1.577-4.878Z" transform="translate(-288.255 -445.171)"/><path class="a" d="M662.611,556.288c-.092.037-.238.073-.238.11-.018,1.962-1.449,1.559-2.622,1.559H649c-.092-1.119-.183-2.237-.257-3.338.33-.33.44-.605-.147-.752l.037.037c.037-.605.073-1.21.128-1.8,0-.458.018-.9.018-1.357.092-.165.238-.312.257-.477.385-3.668.734-7.336,1.1-11,.018-.128.055-.275.073-.4.44-3.778.862-7.538,1.3-11.315,1.522-1.394,2.347-3.338,3.851-4.75.128.5.275.972.4,1.467l3.8,15.02c.128.679.22,1.375.4,2.036.88,3.118,1.339,6.327,2.494,9.371v1.394c.11.605.2,1.229.312,1.834C662.7,554.711,662.667,555.5,662.611,556.288Z" transform="translate(-529.676 -426.911)"/><path class="b" d="M715.123,113.477c-.055-.238-.11-.458.165-.587-.11-.165-.238-.348-.349-.513-.825-2.274-.9-4.713-1.284-7.061a25.829,25.829,0,0,0-2.219-7.849,8.076,8.076,0,0,0-3.686-3.65c-3.081-1.5-6.126-3.081-9.207-4.622A3.792,3.792,0,0,0,696.6,87.05c.018-1.339.018-2.659.037-4,1.247-.7,1.082-1.926,1.155-3.063.44-.624.862-1.265,1.3-1.889,2.457.165,4.475,1.522,6.455,2.751A25.677,25.677,0,0,1,716.9,95.908a26.263,26.263,0,0,1-.458,16.1C716.205,112.615,716.223,113.569,715.123,113.477Z" transform="translate(-568.873 -63.767)"/><path class="e" d="M642.992,49.961c-.018,1.339-.018,2.659-.037,4a2.322,2.322,0,0,1-.917,2.182c-.825.734-1.559,1.577-2.384,2.347-.4.367-.825,1.229-1.449.569-.66-.715-2.2-1.045-1.449-2.586,2.549,0,4.163-2,4.273-5.465a7.239,7.239,0,0,1-3.943,3.5c-1.816-.037-2.916-1.192-3.925-2.494a14.954,14.954,0,0,1-1.687-5.3,12.416,12.416,0,0,1-.33-3.191c-.073-1.467-.147-2.953-.2-4.42-.018-.33-.092-.88.5-.715,2.879.77,5.575-.037,8.289-.789a.961.961,0,0,0,.184.2c-.422,2.384.514,4.328,1.962,6.162,1.816-2.549,1.816-2.549,3.558-1.742v2.788c-.44.624-.862,1.265-1.3,1.889-.807-.037-1.174.33-1.119,1.137C643.047,48.7,643.01,49.337,642.992,49.961Zm1.651-6.877c-1.394.128-1.412,1.064-1.651,1.8-.092.257-.183.715.22.825.422.11.678-.275.77-.624C644.184,44.459,643.964,43.744,644.642,43.084Z" transform="translate(-515.247 -30.695)"/><path class="d" d="M136.2,664.4c.183,2.054-.568,4-.715,6.015a5.386,5.386,0,0,1-1.265,2.879,6.763,6.763,0,0,1-2.182.312c-3.393-.018-6.767-.018-10.16,0a6.764,6.764,0,0,1-2.182-.312c-1.357-1.522-1.284-3.5-1.651-5.318a32.9,32.9,0,0,1-.348-3.558Q126.971,664.418,136.2,664.4Z" transform="translate(-96.141 -542.542)"/><path class="f" d="M628.159,6.853c-2.714.752-5.429,1.577-8.29.789-.605-.165-.513.385-.5.715.055,1.467.128,2.953.2,4.42-.7-.165-.55-.917-.935-1.32-.5-1.394-1.229-2.806.2-4.108.422-.385-.055-.55-.22-.734a8.774,8.774,0,0,1-1.779-3.429A2.683,2.683,0,0,1,617.43.471a4.767,4.767,0,0,1,3.65-.293,22.094,22.094,0,0,0,7.006.9c2.824-.055,4.071,1.375,3.778,4.163-.018.257-.257.514.165.66,2.458.917,2.238,2.861,1.889,4.878-.037.22-.055.458-.092.7-1.724-.807-1.724-.807-3.558,1.742-1.449-1.834-2.366-3.778-1.962-6.162.018-.073.055-.147.073-.2Z" transform="translate(-503.642 0.052)"/><path class="a" d="M269.169,678c-.734,1.761-1.467,3.54-2.237,5.282a1.31,1.31,0,0,0,.018,1.412H247.4c.734-1.32,2.109-1.706,3.338-2.256,3.5-1.577,7.263-2.127,11-2.751C264.272,679.284,266.693,678.513,269.169,678Z" transform="translate(-202.055 -553.648)"/><path class="a" d="M375.3,636.024q3.906-8.8,7.831-17.606a1.575,1.575,0,0,0,.293-.018v17.606C380.71,636.006,378,636.024,375.3,636.024Z" transform="translate(-306.498 -504.979)"/><path class="a" d="M442.3,636.27a3.077,3.077,0,0,0,.293-1.761V620.277a2.593,2.593,0,0,1,.238-1.577c1.174,2.677,2.237,5.208,3.393,7.684,1.522,3.283,2.751,6.694,4.457,9.885Z" transform="translate(-361.211 -505.224)"/><path class="f" d="M593.708,687.368c.092,1.119.183,2.237.257,3.338-4.2,0-8.381,0-12.581.018-.055-.165-.128-.312-.183-.477.037-.2.073-.4.11-.587a1.883,1.883,0,0,1,1.962-1.449,7.457,7.457,0,0,0,5.154-2.366,2.8,2.8,0,0,1,2.879-.11,10.541,10.541,0,0,0,2.274.917l-.037-.037C593.6,686.873,593.653,687.129,593.708,687.368Z" transform="translate(-474.637 -559.678)"/><path class="f" d="M724.8,688.881c.037-.789.074-1.6.128-2.384a6.991,6.991,0,0,0,2.036-.825,2.176,2.176,0,0,1,2.366-.275,18.036,18.036,0,0,0,2.7,3.448c.477.385.4,1.1.367,1.706l-6.785.055C724.051,690.623,725.188,689.413,724.8,688.881Z" transform="translate(-591.868 -559.504)"/><path class="a" d="M581.3,712c.055.165.128.312.183.477C581.41,712.312,581.355,712.147,581.3,712Z" transform="translate(-474.719 -581.413)"/><path class="g" d="M167.656,256.9c-2.751,0-5.484,0-8.234-.018-2.384-.018-3.521-1.137-3.521-3.485V230.8c0-2.274,1.174-3.485,3.521-3.5,2.733-.037,5.484-.018,8.234-.018q15.433,0,30.847.018c2.623,0,3.8,1.174,3.8,3.833v21.9c0,2.659-1.174,3.833-3.8,3.833Q183.07,256.889,167.656,256.9ZM164.3,246c-.88,1.339-2.384,2.036-3.411,3.246-.5.569-.715,1.082-.128,1.687.624.642,1.045.165,1.522-.257.66-.569,1.064-1.43,2.017-1.651-.055.862.018,1.486,1.21,1.449s1.045-.734,1.045-1.467v-1.926a12.809,12.809,0,0,1,6.144-3.338c0,1.889.037,3.8-.018,5.685-.018.935.44,1.045,1.192,1.045.77,0,1.082-.238,1.064-1.045-.037-1.889-.018-3.778-.018-5.685a5.081,5.081,0,0,1,1.449.348c1.779,1.045,3.5,2.164,5.245,3.264a16.874,16.874,0,0,1-.018,1.926c-.073.917.312,1.174,1.192,1.174s1.137-.367,1.064-1.155c-.037-.458-.018-.917-.018-1.376a11.437,11.437,0,0,0,6.676-1.412c0,.972.055,1.944.018,2.916-.037.807.312,1.027,1.064,1.027.77,0,1.229-.128,1.192-1.045-.055-1.706-.018-3.43-.018-5.135a2.126,2.126,0,0,1,1.8-.844c.569-.055.734-.477.715-.99,0-.532-.238-.9-.807-.917-.55-.018-1.1,0-1.651,0-.018-2.127-.055-4.255-.037-6.382,0-.77-.147-1.192-1.064-1.192-.9,0-1.21.275-1.192,1.192.037,2.678,0,5.355,0,8.051-.055.679-.605.972-1.064,1.357-1.669,1.431-3.65,1.577-5.7,1.376.018-3.576.018-7.152.073-10.729.018-.862-.165-1.247-1.137-1.247-1.009,0-1.119.477-1.1,1.284.018,3.209,0,6.4,0,9.61-2.256-1.1-4.163-2.9-6.731-3.393,0-2.091-.037-4.181,0-6.272.018-.9-.238-1.229-1.174-1.229-.9.018-1.082.385-1.064,1.192.037,2.146.018,4.273.018,6.419a35.389,35.389,0,0,0-3.741,1.394c-.77.4-1.375,1.137-2.347,1.082-.018-2.971-.055-5.924-.037-8.895,0-.77-.147-1.192-1.064-1.192s-1.192.293-1.192,1.192C164.336,238.779,164.3,242.391,164.3,246Z" transform="translate(-127.335 -185.584)"/><path class="h" d="M635.173,403.813l-3.8-15.02c-.129-.5-.275-.972-.4-1.467-.734-3.191-1.394-6.382-2.421-9.5-.5-2.916-1.43-5.74-2.182-8.583-.238-.88-.917-.66-1.467-.587-.789.092-.385.642-.33,1.064.5,3.521.9,7.042,1.485,10.545.44,2.714.624,5.483,1.32,8.161-.092,1.229-.183,2.439-.275,3.668-.44,3.778-.862,7.538-1.3,11.315a2.627,2.627,0,0,1-.073.4h-6.089q-.138-3.494-.275-6.987c-.037-2.513-.073-5.025-.092-7.538a27.625,27.625,0,0,0-.11-4.768q-.192-12.682-.385-25.382c-.018-.734.018-1.486.018-2.237,3.98.275,7.959.477,11.921.844,2.164.2,4.365-.018,6.474.605.5,5.74.972,11.48,1.467,17.221.5,5.8.972,11.591,1.467,17.368q.468,5.419.9,10.839C639.079,403.794,637.135,403.794,635.173,403.813Z" transform="translate(-505.319 -291.437)"/><path class="d" d="M278.156,64.854a15.023,15.023,0,0,1-18.761-14.507A15.337,15.337,0,0,1,272.416,35.29c1.614-.257,1.816-.055,1.816,1.632V48.642c0,.5-.165,1.045.293,1.449,0,.073-.018.147-.018.22a8.751,8.751,0,0,0,.183,1.21Q276.4,58.178,278.156,64.854Z" transform="translate(-211.849 -28.734)"/><path class="d" d="M291.972,506.269a25.87,25.87,0,0,1,.11,4.768H219.9c-.605,0-1.21-.037-1.8-.055a24.423,24.423,0,0,0,.55-4.9c.55-.018,1.119-.055,1.669-.055h69.6A4.329,4.329,0,0,1,291.972,506.269Z" transform="translate(-178.128 -413.204)"/><path class="i" d="M364.243,34.937c-2.054,0-4.09-.037-6.144.018-.935.018-1.3-.22-1.3-1.229.055-4.145.055-8.271,0-12.416-.018-1.027.4-1.21,1.32-1.21,5.96.055,12.379,5.52,13.516,11.572.624,3.264.624,3.264-2.659,3.264Z" transform="translate(-291.389 -16.404)"/><path class="d" d="M465.418,341.168a11.275,11.275,0,0,1-.807-15.845,11.6,11.6,0,0,1,7.813-3.723v4.475a6.856,6.856,0,0,0-4.2,11.737C467.472,339.078,465.932,339.7,465.418,341.168Z" transform="translate(-377.085 -262.61)"/><path class="i" d="M182.9,499.714c.165,1.669-.367,3.264-.55,4.9-1.137,1.119-2.256,2.237-4.071,1.761-.458-.11-.679.2-.807.587a8.892,8.892,0,0,0-.348,1.192c-.128.679-.459,1.467-.238,2.017.293.7,1.119-.183,1.687.11a3.8,3.8,0,0,1,.458.275c.44,1.706.734,3.356-1.119,4.493-1.027-.147-1.742-.22-1.816,1.32-.073,1.779-.018,3.576-.128,5.355H174.3c.037-5.245.128-10.472,1.6-15.57a1.737,1.737,0,0,0-.257-1.431,3.54,3.54,0,0,1,1.32-5.337,6.356,6.356,0,0,1,5.447-.844C182.571,498.925,182.736,499.31,182.9,499.714Z" transform="translate(-142.361 -406.851)"/><path class="g" d="M341.8,116.357c0-.073.018-.147.018-.22,4.64,0,9.28,0,13.9-.037.789,0,1.229.165,1.155,1.082a15.2,15.2,0,0,1-3.7,8.931c-.275.312-.55.642-1.027.605C348.787,123.179,345.321,119.75,341.8,116.357Z" transform="translate(-279.142 -94.798)"/><path class="g" d="M542.981,330.7c1.394.128,2.164,1.174,3.008,2.072,4.016,4.181,3.778,11.646-.44,15.277-1.21-.789-2.641-1.247-3.668-2.292.44-1.137,1.577-1.761,2-2.953,1.174-3.283.293-6.015-2.879-8.454C541.66,333.121,542.321,331.91,542.981,330.7Z" transform="translate(-441.81 -270.042)"/><path class="j" d="M455.568,126.467c-2.879-1.394-5.117-3.209-5.245-6.767-.055-1.742-.4-3.485-.568-5.227-.055-.5-.11-1.082.458-1.339a1.342,1.342,0,0,1,1.522.422,19.3,19.3,0,0,1,2.861,3.008c.513.752,1.082,1.192,2.072.605.9-.532,1.485-.055,1.761.862a11.116,11.116,0,0,1,.514,3.961,16.05,16.05,0,0,0-2.769,4.2h0C455.99,126.265,455.788,126.375,455.568,126.467Z" transform="translate(-367.271 -92.291)"/><path class="b" d="M341.8,117.5c3.521,3.374,6.987,6.8,10.343,10.362-.9,2.072-2.916,2.7-4.713,3.576a13.837,13.837,0,0,1-1.981.624q-1.733-6.657-3.466-13.333A9.007,9.007,0,0,1,341.8,117.5Z" transform="translate(-279.142 -95.942)"/><path class="i" d="M493.537,410.513c1.045,1.064,2.458,1.5,3.668,2.292-3.356,3.961-10.105,4.6-14.433,1.339-.33-.257-.642-.532-.972-.789.514-1.467,2.036-2.091,2.806-3.356a8.192,8.192,0,0,0,5.41,1.706C491.337,411.614,492.364,410.88,493.537,410.513Z" transform="translate(-393.467 -334.798)"/><path class="d" d="M489.059,52.115c3.063,0,6.144.018,9.206-.018.862,0,1.412.165,1.431,1.21.018,1.1-.5,1.32-1.449,1.32-6.089-.018-12.177-.037-18.285,0-1.009,0-1.247-.33-1.265-1.284-.018-.99.33-1.265,1.3-1.247C483.007,52.151,486.033,52.115,489.059,52.115Z" transform="translate(-390.932 -42.532)"/><path class="d" d="M276.135,422.115c3.026,0,6.052.037,9.06-.018.954-.018,1.3.257,1.3,1.247-.018.954-.257,1.3-1.265,1.284q-9.133-.055-18.285,0c-.972,0-1.467-.22-1.449-1.32.018-1.045.55-1.21,1.412-1.21C269.991,422.133,273.072,422.115,276.135,422.115Z" transform="translate(-216.833 -344.675)"/><path class="k" d="M646.976,129.313c-.77,1.541.789,1.871,1.449,2.586.605.66,1.045-.183,1.449-.569.807-.752,1.559-1.6,2.384-2.347a2.339,2.339,0,0,0,.917-2.182,3.79,3.79,0,0,1,1.944,2.146c-.935,2-1.889,4-2.824,6.015-.275.605-.477.99-1.082.22-.715-.9-1.467-2.292-2.347-2.4-.99-.128-1.577,1.467-2.384,2.274-.55.55-.77.477-1.027-.2-.477-1.357-1.009-2.678-1.485-4.035-.11-.312-.128-.642-.569-.642v-.569c.4,0,.642-.293.935-.514a5.644,5.644,0,0,1,2.916-1.449C647.141,128.194,647.068,128.762,646.976,129.313Z" transform="translate(-525.43 -103.536)"/><path class="k" d="M637.213,351.426c-2.109-.642-4.31-.4-6.474-.605-3.962-.367-7.941-.569-11.921-.844,0-.458-.018-.935-.018-1.394q8.2,0,16.4-.018a3.219,3.219,0,0,0,1.5-.128.651.651,0,0,0,.183-.037C637.011,349.39,637.121,350.417,637.213,351.426Z" transform="translate(-505.342 -284.495)"/><path class="d" d="M334.173,458.29c-1.155,0-2.329-.037-3.484.018-1.064.037-1.174-.569-1.192-1.412-.018-.862.312-1.119,1.137-1.1,2.311.037,4.64.055,6.951,0,.972-.018,1.155.385,1.155,1.247.018.935-.22,1.375-1.247,1.3A28.514,28.514,0,0,0,334.173,458.29Z" transform="translate(-269.095 -372.195)"/><path class="d" d="M483.492,85.614c1.155,0,2.311.018,3.485-.018.7-.018,1.064.2.99.954-.055.66.183,1.522-.9,1.541-2.513.037-5.007,0-7.519.018-.972,0-.789-.7-.807-1.265-.018-.605-.128-1.265.844-1.247C480.888,85.65,482.19,85.614,483.492,85.614Z" transform="translate(-390.959 -69.887)"/><path class="b" d="M525.75,323.269c-.66,1.21-1.32,2.421-2,3.631a9.556,9.556,0,0,0-3.851-.825V321.6C522.027,321.6,524.1,321.728,525.75,323.269Z" transform="translate(-424.579 -262.61)"/><path class="k" d="M485.321,171.786c-1.357,1.247-2.733,2.494-4.071,3.76-.33.293-.789.532-.734,1.1-.679-.367-.825-1.155-1.357-1.669-.514-.5-.092-.917.4-1.192.257-.183.587-.348.5-.77h0c1.394-.385,2.182-1.5,3.063-2.531C484.312,170.117,484.844,170.887,485.321,171.786Z" transform="translate(-391.119 -139.132)"/><path class="l" d="M582.5,225.606c.183-1.43,1.1-2.531,1.614-3.815.715-1.706,1.5-3.393,2.384-5.392a33.183,33.183,0,0,1,.99,4.732C585.654,222.434,584.242,224.213,582.5,225.606Z" transform="translate(-475.699 -176.704)"/><path class="d" d="M543.979,88.163c-.514,0-1.027-.037-1.541,0-.954.073-1.32-.312-1.339-1.284,0-1.027.513-1.265,1.394-1.229.935.037,1.852.037,2.788,0,.9-.055,1.449.055,1.467,1.229.018,1.265-.587,1.375-1.541,1.3A9.062,9.062,0,0,0,543.979,88.163Z" transform="translate(-441.891 -69.924)"/><path class="d" d="M296.324,458.042c-.55-.312-1.761.679-1.871-.935-.073-1.174.22-1.779,1.5-1.577a4.563,4.563,0,0,0,1.119,0c.935-.055,1.614.055,1.614,1.3-.018,1.174-.66,1.265-1.541,1.21C296.911,458.024,296.673,458.042,296.324,458.042Z" transform="translate(-240.47 -371.947)"/><path class="b" d="M647.151,119.069a5.643,5.643,0,0,0-2.916,1.449c-.293.2-.532.514-.935.514V116.3c1.009,1.3,2.109,2.458,3.925,2.494C647.206,118.886,647.17,118.978,647.151,119.069Z" transform="translate(-525.348 -94.962)"/><path class="m" d="M488.063,163.569c-.88,1.027-1.669,2.146-3.063,2.531a16.356,16.356,0,0,1,2.769-4.2C487.861,162.45,487.971,163.019,488.063,163.569Z" transform="translate(-396.08 -132.199)"/><path class="m" d="M626.71,62.8c.367.385.22,1.155.935,1.32a12.425,12.425,0,0,0,.33,3.191c-1.265-.569-1.375-1.706-1.375-2.861C626.6,63.882,626.673,63.35,626.71,62.8Z" transform="translate(-511.711 -51.273)"/><path class="m" d="M482.305,184.7c.092.422-.238.569-.5.77-.037-.165-.073-.312-.11-.477C481.9,184.9,482.1,184.792,482.305,184.7Z" transform="translate(-393.385 -150.817)"/><path class="d" d="M114.933,526c1.834-1.137,1.559-2.806,1.119-4.493a9.923,9.923,0,0,1,3.815-1.614,1.259,1.259,0,0,1,1.706.954,9.68,9.68,0,0,1,.22,4.952,3.377,3.377,0,0,1-4.31,2.494c-1.6-.4-1.064.917-1.32,1.485-.33.77.238.9.9.917,1.082.037,2.476-.4,2.256,1.632-.055.514.862.275,1.339.275A2.516,2.516,0,0,1,123,534.049a2.43,2.43,0,0,1-.5,2.824,2.692,2.692,0,0,1-2.549.77h-19.55a2.683,2.683,0,0,1-2.714-1.009,2.371,2.371,0,0,1-.2-2.714,2.692,2.692,0,0,1,2.953-1.3h5.025c.862.055.862-.532.789-1.119a31.511,31.511,0,0,0-3.118-10.747c-.312-.605-.66-.715-1.339-.587a3.412,3.412,0,0,1-4.2-3.393,9.619,9.619,0,0,1,.5-4.255c.2-.459.385-.807.954-.844,1.669-.128,5.062,1.926,5.74,3.448a3.081,3.081,0,0,1-.073,2.934,2.072,2.072,0,0,0,.055,2.348,7.4,7.4,0,0,1,.642,1.394c.77,2.017.77,2.017,2.549.734H109.6a5.3,5.3,0,0,1,.293,3.925c-.624,0-.99.734-1.651.55-.348.147-1.155-.293-.972.532.367,1.614.147,3.338.972,4.842.587.385,1.265.11,1.889.2h2.861c1.009.11,1.467-.33,1.375-1.375a10.763,10.763,0,0,1,.514-3.411A2.506,2.506,0,0,0,114.933,526Z" transform="translate(-79.363 -417.821)"/><path class="i" d="M138.653,480.984H137.02c-.312-3.319-.605-6.639-.917-9.958a1.7,1.7,0,0,0-1.3-1.669c-1.651-.55-2.347-2.182-1.962-4.273a9.936,9.936,0,0,1,1.706-3.778,1.119,1.119,0,0,1,1.669-.385,10.088,10.088,0,0,1,3.356,2.861c1.357,2,.99,4.2-1.082,5.373-.935.532-.9,1.064-.715,1.907.147.679.385.734.935.477,1.284-.605,1.816-.2,2,1.21.257,2.017.055,2.586-1.8,3.228-.587.2-.514.569-.514.972C138.4,478.307,138.836,479.627,138.653,480.984Z" transform="translate(-108.419 -376.201)"/><path class="i" d="M102.308,578.287H97.283c-.312-1.045.238-1.541,1.155-1.834.275-.092.88,0,.66-.605-.128-.385-.367-.55-.862-.422-2.971.77-4.64-1.449-4.915-4.182a3.245,3.245,0,0,1-.018-.422c-.128-3.3.22-3.631,3.5-3.081a6.414,6.414,0,0,1,2.366.77,3.531,3.531,0,0,1,1.5,4.988,1.4,1.4,0,0,0,.11,1.742A6.313,6.313,0,0,1,102.308,578.287Z" transform="translate(-76.2 -463.435)"/><path class="g" d="M114.8,653.6h19.55c-.257.642-.11,1.375-.513,1.981-6.162,0-12.343,0-18.5.018A5.662,5.662,0,0,1,114.8,653.6Z" transform="translate(-93.773 -533.723)"/><path class="i" d="M159.507,598.925c-.624-.092-1.3.183-1.889-.2,0-1.8,0-3.576-.018-5.373.679.183,1.045-.55,1.651-.55C159.342,594.836,159.434,596.871,159.507,598.925Z" transform="translate(-128.724 -484.074)"/><path class="n" d="M708.2,612.618c1.944,0,3.906-.018,5.85-.018.477,3.778,1.045,7.556,1.174,11.37l-4.145.055c-1.155-3.044-1.614-6.254-2.494-9.371C708.42,613.976,708.347,613.3,708.2,612.618Z" transform="translate(-578.346 -500.242)"/><path class="j" d="M724,674.655l4.145-.055a2.176,2.176,0,0,1,.312,1.43h-4.438C724,675.572,724,675.114,724,674.655Z" transform="translate(-591.248 -550.872)"/><path class="b" d="M724,682.4h4.438c.092.238.183.5.257.734a2.217,2.217,0,0,0-2.366.275,6.994,6.994,0,0,1-2.036.825C724.22,683.629,724.11,683.024,724,682.4Z" transform="translate(-591.248 -557.241)"/><path class="j" d="M647.577,240.519c-.715.935-1.467.807-2.238.073-.275-.257-.55-.5-.807-.752-1.394-1.394-1.449-1.816-.349-3.466a15.757,15.757,0,0,1,2.769-3.283,1.493,1.493,0,0,1,2-.165,35.211,35.211,0,0,1,3.98,2.788,22.2,22.2,0,0,1-1.357,4.31l-.092-.037a5.188,5.188,0,0,0-1.614-1.21c-.532-.348-1.064-1.027-1.8-.458A1.674,1.674,0,0,0,647.577,240.519Z" transform="translate(-525.444 -189.947)"/><path class="l" d="M702.935,297.237c-.055.018-.128.018-.183.037-1.009-3.595-2.017-7.171-3.026-10.765-.11-.4-.147-.99.55-.624,1.21.642,2.6.99,3.576,2.036C703.559,291.02,703.247,294.119,702.935,297.237Z" transform="translate(-571.376 -233.351)"/><path class="k" d="M686.916,249.676a22.185,22.185,0,0,0,1.357-4.31c.367-.66.624-1.21,1.651-.77,1.082.458.752,1.064.532,1.779-.4,1.376-.77,2.769-1.192,4.145-.165.55-.128,1.449-1.192.99-.715-.293-1.816-.257-1.192-1.559A.462.462,0,0,0,686.916,249.676Z" transform="translate(-560.785 -199.599)"/><path class="l" d="M713.371,231.263a18.551,18.551,0,0,1-4.071-1.3c2.274-1.412,4.053-3.081,6.345-3.961C714.894,227.742,714.123,229.5,713.371,231.263Z" transform="translate(-579.244 -184.543)"/><path class="b" d="M731.5,231.182c.752-1.761,1.522-3.521,2.274-5.282.4,2.127.807,4.273,1.247,6.566A13.163,13.163,0,0,1,731.5,231.182Z" transform="translate(-597.373 -184.461)"/><path class="m" d="M665.156,264.994a1.66,1.66,0,0,1,.477-2.182c.752-.569,1.266.092,1.8.458a4.983,4.983,0,0,1,1.614,1.21C667.723,264.389,666.311,263.674,665.156,264.994Z" transform="translate(-543.023 -214.422)"/><path class="k" d="M796.556,265c.11.165.238.348.349.514C796.574,265.477,796.519,265.275,796.556,265Z" transform="translate(-650.49 -216.391)"/><path class="g" d="M399.6,533.3h11.737c-.293.88-.165,1.926-1.082,2.531a30.8,30.8,0,0,0-9.537.018C399.673,535.3,399.728,534.254,399.6,533.3Z" transform="translate(-326.342 -435.486)"/><path class="g" d="M409.949,562.3c.4.037.55.293.55.66,0,2.7-.018,5.392-.037,8.088,0,.11-.037.293-.33.257-.605-1.65-.862-3.466-1.632-5.117C408.628,564.758,409.472,563.6,409.949,562.3Z" transform="translate(-333.61 -459.167)"/><path class="b" d="M447.392,535.831c.917-.605.789-1.651,1.082-2.531h28.977c.037,2.512.073,5.025.092,7.538-6.9,1.119-13.846.679-20.779.9a27.861,27.861,0,0,0-7.941,1.027,2.181,2.181,0,0,0-1.21.605c-.275-.293-.55-.569-.825-.862a16.256,16.256,0,0,0-1.687-4.181C445.944,537.537,447.246,537.206,447.392,535.831Z" transform="translate(-363.497 -435.486)"/><path class="n" d="M623.475,612.5h6.089q-.55,5.5-1.1,11c-.018.165-.165.312-.257.477l-4.493-.055C623.384,620.148,623.439,616.315,623.475,612.5Z" transform="translate(-509.137 -500.161)"/><path class="e" d="M625,674.9l4.493.055c0,.458-.018.9-.018,1.357h-4.456C625,675.835,625,675.377,625,674.9Z" transform="translate(-510.404 -551.117)"/><path class="k" d="M621.325,682.5h4.456c-.037.605-.073,1.21-.128,1.8a11.555,11.555,0,0,1-2.274-.917,2.8,2.8,0,0,0-2.879.11A1.447,1.447,0,0,1,621.325,682.5Z" transform="translate(-506.73 -557.323)"/><path class="g" d="M444.108,560.7a16.259,16.259,0,0,1,1.687,4.182,32.2,32.2,0,0,0-1.577,4.878c-.477-.128-.367-.458-.367-.715-.018-2.494,0-4.988,0-7.483A.916.916,0,0,1,444.108,560.7Z" transform="translate(-362.468 -457.861)"/><path class="b" d="M664.4,485.15c.092-1.229.183-2.439.275-3.668.385-3.521.789-7.061,1.174-10.582,1.009,3.118,1.687,6.309,2.421,9.5C666.747,481.812,665.9,483.756,664.4,485.15Z" transform="translate(-542.579 -384.529)"/><path class="k" d="M648.747,692.852c-.055-.257-.11-.5-.147-.752C649.187,692.247,649.077,692.54,648.747,692.852Z" transform="translate(-529.676 -565.162)"/><path class="f" d="M696.7,91.433c.018-.642.055-1.284.037-1.907-.037-.825.33-1.174,1.119-1.137C697.782,89.507,697.947,90.754,696.7,91.433Z" transform="translate(-568.955 -72.167)"/><path class="m" d="M663.075,114.578l.055-.275a7.365,7.365,0,0,0,3.943-3.5c-.092,3.466-1.724,5.465-4.273,5.465C662.91,115.7,662.983,115.128,663.075,114.578Z" transform="translate(-541.272 -90.47)"/><path class="m" d="M698.081,67.5c-.679.679-.458,1.375-.642,2-.092.348-.349.734-.77.624-.4-.11-.312-.55-.22-.825C696.669,68.564,696.687,67.628,698.081,67.5Z" transform="translate(-568.685 -55.111)"/><path class="e" d="M679.1,37.6h.257c-.018.073-.055.147-.073.2A.962.962,0,0,1,679.1,37.6Z" transform="translate(-554.583 -30.695)"/><path class="i" d="M212.853,304.673c.55,0,1.1-.018,1.651,0,.569.018.789.385.807.917,0,.514-.147.935-.715.99a2.08,2.08,0,0,0-1.8.844,13.018,13.018,0,0,0-2.256,2.237,11.438,11.438,0,0,1-6.676,1.412c-.752-.183-1.486-.385-2.237-.569-1.742-1.1-3.466-2.219-5.245-3.264a5.235,5.235,0,0,0-1.449-.348,2.311,2.311,0,0,0-2.237,0,12.81,12.81,0,0,0-6.144,3.338,7.188,7.188,0,0,0-2.256,1.944c-.935.2-1.357,1.082-2.017,1.651-.477.4-.9.9-1.522.257-.587-.605-.348-1.119.128-1.687,1.027-1.21,2.531-1.907,3.411-3.246a3.938,3.938,0,0,0,2.274-1.962c.972.055,1.6-.7,2.347-1.082,1.192-.624,2.513-.9,3.741-1.394l2.219-.11c2.568.5,4.457,2.311,6.731,3.393a2.313,2.313,0,0,0,1.669.9c.11.073.22.128.33.2.055,0,.11-.018.183-.018,2.054.2,4.035.055,5.7-1.375.44-.385,1.009-.679,1.064-1.357A8.176,8.176,0,0,0,212.853,304.673Z" transform="translate(-147.352 -248.728)"/><path class="b" d="M297.769,275.59a2.313,2.313,0,0,1-1.669-.9c0-3.209.018-6.4,0-9.61,0-.807.092-1.3,1.1-1.284.972,0,1.155.4,1.137,1.247-.055,3.576-.055,7.152-.073,10.729a.686.686,0,0,0-.183.018C297.989,275.719,297.879,275.664,297.769,275.59Z" transform="translate(-241.823 -215.409)"/><path class="b" d="M203.971,273.865a4,4,0,0,1-2.274,1.962c0-3.613.037-7.226,0-10.839-.018-.917.275-1.21,1.192-1.192.917,0,1.064.4,1.064,1.192C203.916,267.941,203.952,270.912,203.971,273.865Z" transform="translate(-164.732 -215.407)"/><path class="b" d="M347.089,271.274a8.554,8.554,0,0,1-2.292,1.669c0-2.678.037-5.355,0-8.051-.018-.917.293-1.192,1.192-1.192.917,0,1.064.4,1.064,1.192C347.034,267.038,347.071,269.165,347.089,271.274Z" transform="translate(-281.589 -215.329)"/><path class="b" d="M249.532,271.3l-2.219.11c0-2.146.018-4.273-.018-6.419-.018-.789.165-1.174,1.064-1.192.935-.018,1.192.33,1.174,1.229C249.477,267.1,249.532,269.207,249.532,271.3Z" transform="translate(-201.968 -215.408)"/><path class="d" d="M247.391,315.844a2.36,2.36,0,0,1,2.237,0c0,1.889-.018,3.778.018,5.685.018.789-.293,1.045-1.064,1.045-.752,0-1.229-.11-1.192-1.045C247.428,319.641,247.391,317.733,247.391,315.844Z" transform="translate(-202.046 -257.68)"/><path class="d" d="M344.7,322.337a12.4,12.4,0,0,1,2.256-2.237c0,1.706-.037,3.43.018,5.135.037.917-.422,1.045-1.192,1.045-.752,0-1.1-.22-1.064-1.027C344.755,324.281,344.718,323.309,344.7,322.337Z" transform="translate(-281.51 -261.386)"/><path class="d" d="M296.061,336.9c.752.183,1.486.385,2.237.569,0,.458-.018.917.018,1.375.073.789-.183,1.155-1.064,1.155s-1.265-.257-1.192-1.174C296.116,338.184,296.061,337.542,296.061,336.9Z" transform="translate(-241.784 -275.104)"/><path class="d" d="M201.543,337.344A7.187,7.187,0,0,1,203.8,335.4v1.926c0,.734.147,1.43-1.045,1.467C201.561,338.811,201.488,338.206,201.543,337.344Z" transform="translate(-164.597 -273.88)"/><path class="n" d="M653.8,429.773c-.385,3.521-.789,7.061-1.174,10.582-.7-2.678-.862-5.447-1.321-8.161-.587-3.5-.99-7.024-1.485-10.545-.055-.422-.458-.972.33-1.064.55-.055,1.229-.293,1.467.587A86.816,86.816,0,0,1,653.8,429.773Z" transform="translate(-530.552 -343.384)"/><path class="a" d="M492.422,345.992a9.042,9.042,0,0,1,3.851.825c3.173,2.439,4.071,5.172,2.879,8.454-.422,1.174-1.559,1.816-2,2.953a15.215,15.215,0,0,1-3.5,1.21,8.064,8.064,0,0,1-5.41-1.706,7.029,7.029,0,0,1-.624-9.115A6.933,6.933,0,0,1,492.422,345.992Z" transform="translate(-397.083 -282.509)"/><path class="b" d="M185.444,589.477a2.785,2.785,0,0,1-.055,1.889,10.764,10.764,0,0,0-.514,3.411c.073,1.045-.367,1.467-1.375,1.376.11-1.779.055-3.558.128-5.355C183.7,589.257,184.417,589.331,185.444,589.477Z" transform="translate(-149.874 -481.301)"/><path class="b" d="M153.232,595.785c0,1.8,0,3.576.018,5.374-.825-1.5-.624-3.228-.972-4.842C152.1,595.473,152.884,595.913,153.232,595.785Z" transform="translate(-124.356 -486.508)"/><path class="g" d="M305.2,328.1c.11.073.22.128.33.2C305.42,328.228,305.31,328.173,305.2,328.1Z" transform="translate(-249.254 -267.918)"/></svg>