<svg xmlns="http://www.w3.org/2000/svg" xmlns:xlink="http://www.w3.org/1999/xlink" preserveAspectRatio="none"
     viewBox="0 0 310.001 199">
    <defs>
        <style>
            .a{fill:url(#a);}.b{opacity:0.6;}.aa,.c,.d,.e,.f,.g,.h,.i,.j,.k,.l,.m,.n,.o,.p,.q,.r,.s,.t,.u,.v,.w,.x,.y,.z{fill:#f77d0c;}.c{opacity:0.835;}.d{opacity:0.7;}.e{opacity:0.98;}.f{opacity:0.317;}.g{opacity:0.651;}.h{opacity:0.895;}.i{opacity:0.854;}.j{opacity:0.936;}.k{opacity:0.463;}.l{opacity:0.736;}.m{opacity:0.486;}.n{opacity:0.339;}.o{opacity:0.943;}.p{opacity:0.915;}.q{opacity:0.546;}.r{opacity:0.918;}.s{opacity:0.679;}.t{opacity:0.254;}.u{opacity:0.948;}.v{opacity:0.954;}.w{opacity:0.389;}.x{opacity:0.984;}.y{opacity:0.245;}.z{opacity:0.425;}.aa{opacity:0.299;}
        </style>
        <linearGradient id="a" x1="1.149" y1="-0.203" x2="-0.135" y2="1.457" gradientUnits="objectBoundingBox">
            <stop offset="0" stop-color="#fbc638"/>
            <stop offset="1" stop-color="#f77d0c"/>
        </linearGradient>
    </defs>
    <g transform="translate(-301 -3521.47)">
        <g transform="translate(301 3521.47)">
            <rect class="a" width="310" height="199" rx="10"/>
        </g>
        <g class="b" transform="translate(276 834.939)">
            <rect class="c" width="3.839" height="8.062"
                  transform="matrix(0.883, 0.469, -0.469, 0.883, 92.608, 2710.538)"/>
            <rect class="d" width="6.444" height="13.533" transform="translate(44.37 2727.93) rotate(101)"/>
            <rect class="e" width="5.159" height="10.833" transform="translate(49.872 2842.85) rotate(68)"/>
            <rect class="f" width="4.085" height="8.578"
                  transform="matrix(0.454, -0.891, 0.891, 0.454, 91.597, 2757.725)"/>
            <rect class="g" width="9.506" height="19.964" transform="translate(225.867 2824.168) rotate(-103)"/>
            <rect class="h" width="5.589" height="11.737" transform="translate(231.378 2779.88) rotate(-16)"/>
            <rect class="i" width="6.874" height="14.435" transform="translate(214.24 2851.044) rotate(-74)"/>
            <path class="j" d="M0,9.415V0H16.4V9.415Z" transform="translate(318.603 2711.662)"/>
            <rect class="k" width="6.009" height="12.62" transform="translate(292.446 2843.163) rotate(169)"/>
            <path class="l" d="M0,4.439,1.528,0,5.616,1.408V6.372Z" transform="translate(329.384 2741.569)"/>
            <rect class="m" width="7.752" height="16.279"
                  transform="matrix(-0.809, 0.588, -0.588, -0.809, 221.023, 2876.23)"/>
            <rect class="n" width="9.091" height="19.092" transform="translate(246.206 2764.738) rotate(77)"/>
            <rect class="o" width="5.328" height="11.189" transform="translate(178.337 2784.879) rotate(-25)"/>
            <rect class="p" width="7.913" height="16.616"
                  transform="matrix(-0.438, -0.899, 0.899, -0.438, 164.257, 2703.951)"/>
            <rect class="q" width="5.993" height="12.585"
                  transform="matrix(0.588, -0.809, 0.809, 0.588, 90.418, 2878.133)"/>
            <path class="r" d="M0,6.282V5.813a23.2,23.2,0,0,1,.191-2.98L6.554,0l7.3,16.387-7.8,3.474Z"
                  transform="translate(25 2705.187)"/>
            <rect class="s" width="6.21" height="13.042"
                  transform="matrix(0.848, -0.53, 0.53, 0.848, 97.539, 2760.844)"/>
            <rect class="t" width="4.427" height="9.297"
                  transform="matrix(-0.07, -0.998, 0.998, -0.07, 85.427, 2691.596)"/>
            <path class="u" d="M0,6.248V0L6.281.11,6.172,6.356Z" transform="translate(25 2807.118)"/>
            <rect class="v" width="8.956" height="18.807"
                  transform="matrix(-0.995, -0.105, 0.105, -0.995, 127.867, 2799.934)"/>
            <rect class="w" width="9.434" height="19.812" transform="translate(126.615 2724.35) rotate(71)"/>
            <rect class="x" width="4.397" height="9.234" transform="translate(171.629 2711.29) rotate(-103)"/>
            <rect class="y" width="3.325" height="6.982"
                  transform="matrix(-0.469, -0.883, 0.883, -0.469, 274.167, 2821.56)"/>
            <rect class="z" width="3.261" height="6.848"
                  transform="matrix(-0.891, -0.454, 0.454, -0.891, 330.002, 2849.522)"/>
            <rect class="aa" width="4.501" height="9.452"
                  transform="matrix(-0.848, -0.53, 0.53, -0.848, 315.798, 2725.454)"/>
        </g>
    </g>
</svg>
