<svg xmlns="http://www.w3.org/2000/svg" width="175.583" height="171.814" viewBox="0 0 175.583 171.814"><defs><style>.a,.j{fill:#e5f4ff;}.a,.k{stroke:rgba(0,0,0,0);}.a{stroke-miterlimit:10;}.b{fill:#263238;}.c{fill:#5ab7f6;}.d{fill:#465d84;}.e,.k{fill:#c9e7fb;}.f{fill:#455a64;}.g{fill:#f89d1f;}.h{fill:#f77d0c;}.i{fill:#fff;}.l{fill:none;stroke:#e5f4ff;stroke-linecap:round;stroke-linejoin:round;}.m{opacity:0.38;}.n{fill:#ffbe9d;}.o{fill:#eb996e;}</style></defs><g transform="translate(0.501)"><g transform="translate(-656.524 -714)"><path class="a" d="M123.268,0H14.411a58.207,58.207,0,0,0-8.5,11.843A48.423,48.423,0,0,0,.657,26.675l-.016.014-.019.016a36.062,36.062,0,0,0-.531,4.109l0,.03c0,.018,0,.033-.005.049h0a36.005,36.005,0,0,0,.472,8.8L.551,39.7l-.018.015A23.045,23.045,0,0,0,3.6,47.685a18.277,18.277,0,0,0,13.649,8.392,21.614,21.614,0,0,1,8.327,3.2A51.9,51.9,0,0,1,39.548,74.848l0,.018v0l0,.009c.838,1.376,1.6,2.612,2.274,3.673l.076.127.011.019.01.016.106.177c.369.589.769,1.2,1.189,1.822l.016.024.029.044h0A61.815,61.815,0,0,0,151.808,68.939l0,0c.02-.051.04-.1.06-.154l.051-.133c.069-.177.141-.362.219-.566l0-.01v0c.074-.194.151-.394.224-.592l.02-.052,0,0,.024-.063h0A61.774,61.774,0,0,0,156.011,51l0,0v-.018c0-.025,0-.047,0-.071a40.933,40.933,0,0,0-1.652-15.439,44.907,44.907,0,0,0-2.843-7.055,52.241,52.241,0,0,0-3.983-6.6A69.437,69.437,0,0,0,136.766,9.97,101.874,101.874,0,0,0,123.268,0Z" transform="translate(812.686 885.314) rotate(180)"/><g transform="translate(661.693 714)"><g transform="translate(0 170.922)"><path class="b" d="M214.854,465.354c0,.06-38.04.108-84.952.108-46.929,0-84.961-.048-84.961-.108s38.031-.108,84.961-.108C176.815,465.246,214.854,465.294,214.854,465.354Z" transform="translate(-44.941 -465.246)"/></g><g transform="translate(113.184 61.74)"><path class="c" d="M326.648,251.014c-7.146-4.993-8.768-14.26-8.485-22.59.047-1.39-.106-2.857.556-4.077a2.832,2.832,0,0,1,3.45-1.467c1.032.486,1.482,1.687,2.06,2.681a8.136,8.136,0,0,0,3.261,3.115,3.1,3.1,0,0,0,2.855.259c1.2-.662,1.341-2.319,1.332-3.7q-.024-3.867-.048-7.733a12.889,12.889,0,0,1,.417-4.107,4.288,4.288,0,0,1,2.7-2.9,2.6,2.6,0,0,1,3.22,1.743,12.816,12.816,0,0,1,.039,1.722,1.454,1.454,0,0,0,.851,1.369,1.673,1.673,0,0,0,1.519-.635,18.393,18.393,0,0,0,3.3-4.984,25.5,25.5,0,0,1,3.079-5.144,7.478,7.478,0,0,1,5.067-2.842,4.478,4.478,0,0,1,4.591,3.055c.5,1.95-.636,3.928-1.873,5.506a30.858,30.858,0,0,1-6.427,6.127,2.543,2.543,0,0,0-1.075,1.156c-.3.922.573,1.838,1.484,2.141a15.982,15.982,0,0,0,3.228.363,3.111,3.111,0,0,1,2.654,1.622c.566,1.413-.616,2.9-1.779,3.865a26.444,26.444,0,0,1-7.827,4.518,8.925,8.925,0,0,0-2.908,1.414,2.56,2.56,0,0,0-.82,2.932,2.606,2.606,0,0,0,2.834,1.089,18.441,18.441,0,0,0,3.035-1.159c1.9-.718,4.355-.587,5.572,1.056a4.377,4.377,0,0,1,.466,3.87,10.085,10.085,0,0,1-2.1,3.418,26.6,26.6,0,0,1-11.355,7.98c-4.409,1.529-8.494,1.942-12.875.34" transform="translate(-318.133 -201.714)"/><g transform="translate(8.203 1.165)"><path class="b" d="M366.01,204.526a.976.976,0,0,1-.134.131l-.411.366c-.362.32-.9.793-1.567,1.419a51.875,51.875,0,0,0-5.282,5.7c-1.029,1.281-2.1,2.733-3.218,4.312s-2.3,3.279-3.477,5.11a62.651,62.651,0,0,0-3.412,5.911c-.533,1.057-1.008,2.163-1.493,3.291l-1.467,3.43a126.974,126.974,0,0,0-4.929,13.308,61.74,61.74,0,0,0-2.3,11.348,45.215,45.215,0,0,0-.13,7.811c.072.921.142,1.635.208,2.117.027.231.048.413.064.55a1.079,1.079,0,0,1,.014.189.98.98,0,0,1-.039-.185c-.022-.136-.051-.317-.089-.547-.081-.481-.168-1.194-.256-2.116a43.253,43.253,0,0,1,.05-7.837,60.7,60.7,0,0,1,2.26-11.4,123.919,123.919,0,0,1,4.919-13.342q.745-1.737,1.469-3.431c.485-1.125.966-2.241,1.5-3.3a61.9,61.9,0,0,1,3.439-5.927c1.185-1.832,2.376-3.528,3.5-5.1s2.209-3.024,3.25-4.3a49.065,49.065,0,0,1,5.356-5.661c.682-.616,1.227-1.078,1.6-1.385l.427-.347A1.042,1.042,0,0,1,366.01,204.526Z" transform="translate(-337.932 -204.525)"/></g><g transform="translate(16.605 8.777)"><path class="b" d="M360.237,238.113a2.781,2.781,0,0,1-.135-.59c-.073-.382-.159-.938-.257-1.627-.2-1.377-.4-3.287-.619-5.4s-.45-4.011-.666-5.381c-.106-.685-.2-1.239-.266-1.621a2.75,2.75,0,0,1-.077-.6,2.765,2.765,0,0,1,.174.58c.1.376.217.927.346,1.611.263,1.367.524,3.274.742,5.385.21,2.081.4,3.962.545,5.4.07.649.129,1.2.176,1.635A2.794,2.794,0,0,1,360.237,238.113Z" transform="translate(-358.213 -222.898)"/></g><g transform="translate(18.629 20.651)"><path class="b" d="M380.88,251.576a3.792,3.792,0,0,1-.709.085c-.456.041-1.117.1-1.93.19-1.629.176-3.87.5-6.327.96s-4.663.985-6.247,1.406c-.794.2-1.432.387-1.874.511a3.835,3.835,0,0,1-.694.17,3.812,3.812,0,0,1,.665-.266c.433-.153,1.066-.363,1.856-.592,1.576-.466,3.783-1.014,6.248-1.483a62.727,62.727,0,0,1,6.356-.888c.819-.071,1.483-.1,1.942-.109A3.81,3.81,0,0,1,380.88,251.576Z" transform="translate(-363.099 -251.558)"/></g><g transform="translate(1.93 21.041)"><path class="b" d="M331.746,275.21a.9.9,0,0,1-.122-.217l-.3-.643c-.262-.56-.619-1.38-1.047-2.4-.858-2.037-1.954-4.888-3.122-8.05s-2.236-6.021-3.051-8.073l-.971-2.427-.261-.662a.9.9,0,0,1-.075-.238.933.933,0,0,1,.122.217l.3.643c.261.56.619,1.38,1.047,2.4.858,2.037,1.954,4.888,3.122,8.052s2.236,6.019,3.05,8.072l.972,2.427.261.662A.948.948,0,0,1,331.746,275.21Z" transform="translate(-322.792 -252.501)"/></g><g transform="translate(10.884 36.133)"><path class="b" d="M368.032,288.931a.979.979,0,0,1-.234.1l-.687.23-2.53.82c-2.136.693-5.076,1.684-8.323,2.783s-6.2,2.064-8.351,2.713c-1.076.325-1.948.579-2.555.742l-.7.184a.916.916,0,0,1-.249.047.982.982,0,0,1,.234-.1l.686-.23,2.53-.82c2.137-.693,5.076-1.684,8.324-2.783s6.2-2.064,8.349-2.713c1.076-.325,1.948-.578,2.556-.742l.7-.184A.911.911,0,0,1,368.032,288.931Z" transform="translate(-344.404 -288.928)"/></g></g><g transform="translate(120.919 101.373)"><path class="d" d="M351.559,305.327a4.106,4.106,0,0,0,3.563-2.074,5.452,5.452,0,0,0,.433-4.191,2.3,2.3,0,0,0-1.127-1.573,1.756,1.756,0,0,0-1.75.326,3.565,3.565,0,0,0-1.01,1.548c-.755,2-1.118,4.077-.109,5.963" transform="translate(-345.084 -297.376)"/><path class="d" d="M350.305,325.848a9.6,9.6,0,0,1,7.947,3.722,2.024,2.024,0,0,1,.473,2.134,1.988,1.988,0,0,1-2.1.6,8.206,8.206,0,0,1-6.51-6.366" transform="translate(-344.6 -314.047)"/><path class="d" d="M376.572,310.159a4.812,4.812,0,0,0-3.263-1.884,8.5,8.5,0,0,0-3.816.434,15,15,0,0,0-6.2,4.532c2.2,1.687,5.419,1.528,7.046,1.344,2.57-.29,7.04-2.376,6.233-4.426" transform="translate(-352.319 -303.72)"/><g transform="translate(0.068 3.467)"><path class="b" d="M336.967,314.3a9.961,9.961,0,0,0,1.2-.361,17.618,17.618,0,0,0,4.049-2.424,8.834,8.834,0,0,0,2.738-3.832,5.78,5.78,0,0,0,.3-1.407,1.612,1.612,0,0,0-.007-.527,12.271,12.271,0,0,1-.477,1.867,9.269,9.269,0,0,1-2.732,3.685,20.425,20.425,0,0,1-3.954,2.46" transform="translate(-336.967 -305.745)"/></g><g transform="translate(0 7.721)"><path class="b" d="M336.83,320.319l2.3-.508c1.942-.434,4.626-1.026,7.6-1.642s5.671-1.136,7.626-1.508l2.314-.447a5.15,5.15,0,0,0,.844-.2,5.146,5.146,0,0,0-.862.09c-.552.075-1.348.2-2.33.359-1.965.323-4.672.813-7.648,1.429s-5.656,1.24-7.588,1.723c-.966.242-1.745.445-2.282.6" transform="translate(-336.804 -316.012)"/></g><g transform="translate(0 11.378)"><path class="b" d="M348.075,329.138a1.738,1.738,0,0,0-.276-.421,4.02,4.02,0,0,0-.375-.456,6.742,6.742,0,0,0-.545-.562,10.127,10.127,0,0,0-1.615-1.244,10.8,10.8,0,0,0-4.708-1.576,10.1,10.1,0,0,0-2.039.02,6.746,6.746,0,0,0-.774.121,4.071,4.071,0,0,0-.573.138c-.311.092-.372.206-.367.224a16.078,16.078,0,0,1,1.731-.286,11.266,11.266,0,0,1,1.995.039,11.417,11.417,0,0,1,4.6,1.54,11.3,11.3,0,0,1,1.617,1.17C347.6,328.6,348.032,329.172,348.075,329.138Z" transform="translate(-336.803 -324.839)"/></g></g><g transform="translate(57.012 0)"><path class="b" d="M238.773,188.871l-46.2-.214a10.064,10.064,0,0,1-10.018-10.107l.49-115.835a10.065,10.065,0,0,1,10.111-10.022l46.2.213a10.065,10.065,0,0,1,10.018,10.107l-.49,115.835A10.065,10.065,0,0,1,238.773,188.871Z" transform="translate(-182.551 -52.693)"/><g transform="translate(3.068 3.998)"><path class="e" d="M243.628,62.556l-8.958-.041a2.225,2.225,0,0,0-2.185,2.264l-.007,1.625a2.225,2.225,0,0,1-2.185,2.264l-17.462-.081a2.228,2.228,0,0,1-2.166-2.284l.007-1.625a2.227,2.227,0,0,0-2.166-2.284l-3.15-.015-7.841-.036a7.049,7.049,0,0,0-7.081,7.019l-.478,113.063a7.049,7.049,0,0,0,7.016,7.079l46.112.213a7.049,7.049,0,0,0,7.081-7.019l.478-113.064A7.049,7.049,0,0,0,243.628,62.556Z" transform="translate(-189.957 -62.343)"/></g><g transform="translate(28.191 18.106)"><rect class="f" width="11.896" height="2.183" transform="translate(0.01 0) rotate(0.264)"/></g><g transform="translate(6.656 42.631)"><g transform="translate(0 0)"><rect class="g" width="14.274" height="54.655" rx="3.932" transform="translate(0 14.274) rotate(-89.836)"/><g transform="translate(4.179 3.087)"><rect class="h" width="13.455" height="1.009" transform="translate(11.307 0.668) rotate(0.164)"/><rect class="h" width="23.573" height="1.009" transform="translate(11.291 6.371) rotate(0.164)"/><rect class="h" width="34.163" height="1.009" transform="translate(11.299 3.45) rotate(0.164)"/><path class="h" d="M214.822,169a1.8,1.8,0,0,0,1.033-1.682,1.686,1.686,0,1,0-3.364.056,1.79,1.79,0,0,0,1.107,1.652,2.693,2.693,0,0,0-2.236,2.006,3.814,3.814,0,0,0,2.361,1.208l1.037-.018a3.812,3.812,0,0,0,2.342-1.318A2.648,2.648,0,0,0,214.822,169Z" transform="translate(-210.26 -164.513)"/><path class="h" d="M212.7,170.8c0-.027.341-.015.921-.18a3.815,3.815,0,0,0,2.026-1.441,3.741,3.741,0,0,0,.443-3.549,3.742,3.742,0,0,0-1.338-1.7,3.709,3.709,0,0,0-4.4.094,3.736,3.736,0,0,0-1.264,1.754,3.74,3.74,0,0,0,.6,3.527,3.815,3.815,0,0,0,2.086,1.352c.586.14.928.114.927.14a2.9,2.9,0,0,1-.946-.058,3.81,3.81,0,0,1-2.187-1.339,3.855,3.855,0,0,1-.78-1.622,3.916,3.916,0,0,1,.115-2.063,3.918,3.918,0,0,1,1.324-1.858,3.9,3.9,0,0,1,4.647-.1,3.922,3.922,0,0,1,1.4,1.8,3.911,3.911,0,0,1,.2,2.056,3.853,3.853,0,0,1-.709,1.654,3.81,3.81,0,0,1-2.127,1.432A2.893,2.893,0,0,1,212.7,170.8Z" transform="translate(-208.702 -163.041)"/></g></g></g><g transform="translate(28.74 119.726)"><path class="f" d="M253.823,342.5a.962.962,0,1,1-.948-.822A.892.892,0,0,1,253.823,342.5Z" transform="translate(-251.92 -341.675)"/></g><g transform="translate(31.688 119.739)"><path class="f" d="M260.939,342.529a.962.962,0,1,1-.948-.822A.892.892,0,0,1,260.939,342.529Z" transform="translate(-259.036 -341.707)"/></g><g transform="translate(34.636 119.753)"><path class="f" d="M268.054,342.562a.962.962,0,1,1-.948-.822A.891.891,0,0,1,268.054,342.562Z" transform="translate(-266.151 -341.74)"/></g><g transform="translate(6.376 25.273)"><rect class="i" width="54.895" height="14.293" rx="5"/><g transform="translate(4.326 3.012)"><g transform="translate(0 0)"><g transform="translate(0)"><path class="f" d="M217.184,139.627a1.084,1.084,0,0,1,.28.041c0-.015.092-.018.261-.038Z" transform="translate(-213.537 -131.894)"/><path class="i" d="M215.585,123.047a3.5,3.5,0,0,0-.79-.783,3.7,3.7,0,0,0-4.383,0,3.726,3.726,0,0,0-1.3,1.721,3.733,3.733,0,0,0,.516,3.529c.045.06.094.113.14.169a2.672,2.672,0,0,1,2.243-1.863,1.79,1.79,0,0,1-1.072-1.675,1.686,1.686,0,1,1,3.365.016,1.793,1.793,0,0,1-1.069,1.659,2.625,2.625,0,0,1,2.2,1.857c.046-.054.092-.1.135-.163a3.729,3.729,0,0,0,.516-3.529A3.492,3.492,0,0,0,215.585,123.047Z" transform="translate(-208.677 -121.303)"/><path class="c" d="M216.007,123.569a3.932,3.932,0,0,0-1.366-1.835,3.914,3.914,0,0,0-4.663,0,3.929,3.929,0,0,0-1.367,1.835,3.923,3.923,0,0,0-.159,2.066,3.859,3.859,0,0,0,.747,1.642,3.811,3.811,0,0,0,2.164,1.385,3.046,3.046,0,0,0,.7.086.953.953,0,0,0,.246-.012,1.084,1.084,0,0,0-.28-.041l.54,0c-.169.02-.262.023-.261.038a.948.948,0,0,0,.245.012,3.044,3.044,0,0,0,.7-.086,3.809,3.809,0,0,0,2.163-1.385,3.865,3.865,0,0,0,.748-1.642A3.927,3.927,0,0,0,216.007,123.569Zm-.038,2.029a3.724,3.724,0,0,1-.687,1.576c-.044.058-.09.109-.135.163a2.625,2.625,0,0,0-2.2-1.857,1.793,1.793,0,0,0,1.069-1.659,1.686,1.686,0,1,0-3.365-.016,1.79,1.79,0,0,0,1.072,1.675,2.672,2.672,0,0,0-2.243,1.863c-.047-.056-.1-.108-.14-.169a3.733,3.733,0,0,1-.516-3.529,3.726,3.726,0,0,1,1.3-1.721,3.7,3.7,0,0,1,4.383,0,3.727,3.727,0,0,1,1.3,1.721A3.749,3.749,0,0,1,215.969,125.6Z" transform="translate(-208.382 -120.963)"/></g></g><g transform="translate(11.307 0.66)"><rect class="e" width="13.455" height="1.009"/><rect class="e" width="23.573" height="1.009" transform="translate(0 5.703)"/><rect class="e" width="34.163" height="1.009" transform="translate(0 2.782)"/></g></g></g><g transform="translate(6.376 60.903)"><rect class="i" width="54.895" height="14.293" rx="5" transform="translate(0 0)"/><g transform="translate(4.326 3.012)"><g transform="translate(0 0)"><g transform="translate(0)"><path class="f" d="M217.184,139.627a1.084,1.084,0,0,1,.28.041c0-.015.092-.018.261-.038Z" transform="translate(-213.537 -131.894)"/><path class="j" d="M215.585,123.047a3.5,3.5,0,0,0-.79-.783,3.7,3.7,0,0,0-4.383,0,3.726,3.726,0,0,0-1.3,1.721,3.733,3.733,0,0,0,.516,3.529c.045.06.094.113.14.169a2.672,2.672,0,0,1,2.243-1.863,1.79,1.79,0,0,1-1.072-1.675,1.686,1.686,0,1,1,3.365.016,1.793,1.793,0,0,1-1.069,1.659,2.625,2.625,0,0,1,2.2,1.857c.046-.054.092-.1.135-.163a3.729,3.729,0,0,0,.516-3.529A3.492,3.492,0,0,0,215.585,123.047Z" transform="translate(-208.677 -121.303)"/><path class="c" d="M216.007,123.569a3.932,3.932,0,0,0-1.366-1.835,3.914,3.914,0,0,0-4.663,0,3.929,3.929,0,0,0-1.367,1.835,3.923,3.923,0,0,0-.159,2.066,3.859,3.859,0,0,0,.747,1.642,3.811,3.811,0,0,0,2.164,1.385,3.046,3.046,0,0,0,.7.086.953.953,0,0,0,.246-.012,1.084,1.084,0,0,0-.28-.041l.54,0c-.169.02-.262.023-.261.038a.948.948,0,0,0,.245.012,3.044,3.044,0,0,0,.7-.086,3.809,3.809,0,0,0,2.163-1.385,3.865,3.865,0,0,0,.748-1.642A3.927,3.927,0,0,0,216.007,123.569Zm-.038,2.029a3.724,3.724,0,0,1-.687,1.576c-.044.058-.09.109-.135.163a2.625,2.625,0,0,0-2.2-1.857,1.793,1.793,0,0,0,1.069-1.659,1.686,1.686,0,1,0-3.365-.016,1.79,1.79,0,0,0,1.072,1.675,2.672,2.672,0,0,0-2.243,1.863c-.047-.056-.1-.108-.14-.169a3.733,3.733,0,0,1-.516-3.529,3.726,3.726,0,0,1,1.3-1.721,3.7,3.7,0,0,1,4.383,0,3.727,3.727,0,0,1,1.3,1.721A3.749,3.749,0,0,1,215.969,125.6Z" transform="translate(-208.382 -120.963)"/></g></g><g transform="translate(11.307 0.66)"><rect class="k" width="13.455" height="1.009"/><rect class="k" width="23.573" height="1.009" transform="translate(0 5.703)"/><rect class="k" width="34.163" height="1.009" transform="translate(0 2.782)"/></g></g></g><g transform="translate(6.376 79.546)"><rect class="i" width="54.895" height="14.293" rx="5" transform="translate(0 0)"/><g transform="translate(4.326 3.012)"><g transform="translate(0 0)"><g transform="translate(0)"><path class="f" d="M217.184,139.627a1.084,1.084,0,0,1,.28.041c0-.015.092-.018.261-.038Z" transform="translate(-213.537 -131.894)"/><path class="i" d="M215.585,123.047a3.5,3.5,0,0,0-.79-.783,3.7,3.7,0,0,0-4.383,0,3.726,3.726,0,0,0-1.3,1.721,3.733,3.733,0,0,0,.516,3.529c.045.06.094.113.14.169a2.672,2.672,0,0,1,2.243-1.863,1.79,1.79,0,0,1-1.072-1.675,1.686,1.686,0,1,1,3.365.016,1.793,1.793,0,0,1-1.069,1.659,2.625,2.625,0,0,1,2.2,1.857c.046-.054.092-.1.135-.163a3.729,3.729,0,0,0,.516-3.529A3.492,3.492,0,0,0,215.585,123.047Z" transform="translate(-208.677 -121.303)"/><path class="c" d="M216.007,123.569a3.932,3.932,0,0,0-1.366-1.835,3.914,3.914,0,0,0-4.663,0,3.929,3.929,0,0,0-1.367,1.835,3.923,3.923,0,0,0-.159,2.066,3.859,3.859,0,0,0,.747,1.642,3.811,3.811,0,0,0,2.164,1.385,3.046,3.046,0,0,0,.7.086.953.953,0,0,0,.246-.012,1.084,1.084,0,0,0-.28-.041l.54,0c-.169.02-.262.023-.261.038a.948.948,0,0,0,.245.012,3.044,3.044,0,0,0,.7-.086,3.809,3.809,0,0,0,2.163-1.385,3.865,3.865,0,0,0,.748-1.642A3.927,3.927,0,0,0,216.007,123.569Zm-.038,2.029a3.724,3.724,0,0,1-.687,1.576c-.044.058-.09.109-.135.163a2.625,2.625,0,0,0-2.2-1.857,1.793,1.793,0,0,0,1.069-1.659,1.686,1.686,0,1,0-3.365-.016,1.79,1.79,0,0,0,1.072,1.675,2.672,2.672,0,0,0-2.243,1.863c-.047-.056-.1-.108-.14-.169a3.733,3.733,0,0,1-.516-3.529,3.726,3.726,0,0,1,1.3-1.721,3.7,3.7,0,0,1,4.383,0,3.727,3.727,0,0,1,1.3,1.721A3.749,3.749,0,0,1,215.969,125.6Z" transform="translate(-208.382 -120.963)"/></g></g><g transform="translate(11.307 0.66)"><rect class="k" width="13.455" height="1.009"/><rect class="k" width="23.573" height="1.009" transform="translate(0 5.703)"/><rect class="k" width="34.163" height="1.009" transform="translate(0 2.782)"/></g></g></g><g transform="translate(6.376 97.776)"><rect class="i" width="54.895" height="14.293" rx="5" transform="translate(0 0)"/><g transform="translate(4.326 3.012)"><g transform="translate(0 0)"><g transform="translate(0)"><path class="f" d="M217.184,139.627a1.084,1.084,0,0,1,.28.041c0-.015.092-.018.261-.038Z" transform="translate(-213.537 -131.894)"/><path class="i" d="M215.585,123.047a3.5,3.5,0,0,0-.79-.783,3.7,3.7,0,0,0-4.383,0,3.726,3.726,0,0,0-1.3,1.721,3.733,3.733,0,0,0,.516,3.529c.045.06.094.113.14.169a2.672,2.672,0,0,1,2.243-1.863,1.79,1.79,0,0,1-1.072-1.675,1.686,1.686,0,1,1,3.365.016,1.793,1.793,0,0,1-1.069,1.659,2.625,2.625,0,0,1,2.2,1.857c.046-.054.092-.1.135-.163a3.729,3.729,0,0,0,.516-3.529A3.492,3.492,0,0,0,215.585,123.047Z" transform="translate(-208.677 -121.303)"/><path class="c" d="M216.007,123.569a3.932,3.932,0,0,0-1.366-1.835,3.914,3.914,0,0,0-4.663,0,3.929,3.929,0,0,0-1.367,1.835,3.923,3.923,0,0,0-.159,2.066,3.859,3.859,0,0,0,.747,1.642,3.811,3.811,0,0,0,2.164,1.385,3.046,3.046,0,0,0,.7.086.953.953,0,0,0,.246-.012,1.084,1.084,0,0,0-.28-.041l.54,0c-.169.02-.262.023-.261.038a.948.948,0,0,0,.245.012,3.044,3.044,0,0,0,.7-.086,3.809,3.809,0,0,0,2.163-1.385,3.865,3.865,0,0,0,.748-1.642A3.927,3.927,0,0,0,216.007,123.569Zm-.038,2.029a3.724,3.724,0,0,1-.687,1.576c-.044.058-.09.109-.135.163a2.625,2.625,0,0,0-2.2-1.857,1.793,1.793,0,0,0,1.069-1.659,1.686,1.686,0,1,0-3.365-.016,1.79,1.79,0,0,0,1.072,1.675,2.672,2.672,0,0,0-2.243,1.863c-.047-.056-.1-.108-.14-.169a3.733,3.733,0,0,1-.516-3.529,3.726,3.726,0,0,1,1.3-1.721,3.7,3.7,0,0,1,4.383,0,3.727,3.727,0,0,1,1.3,1.721A3.749,3.749,0,0,1,215.969,125.6Z" transform="translate(-208.382 -120.963)"/></g></g><g transform="translate(11.307 0.66)"><rect class="k" width="13.455" height="1.009"/><rect class="k" width="23.573" height="1.009" transform="translate(0 5.703)"/><rect class="k" width="34.163" height="1.009" transform="translate(0 2.782)"/></g></g></g><g transform="translate(56.79 41.05)"><circle class="b" cx="2.761" cy="2.761" r="2.761" transform="translate(0 0)"/><path class="l" d="M323.025,157.09l1.159,1.02,1.545-1.593" transform="translate(-321.616 -154.553)"/></g></g><g transform="translate(22.916 43.992)"><g transform="translate(16.504 122.671)"><path class="g" d="M140.767,454.966l-.678,3.926,6.048.441.022-3.857Z" transform="translate(-140.09 -454.966)"/><g transform="translate(2.984 0.054)"><path class="b" d="M147.709,455.1a17.743,17.743,0,0,1-.4,3.565,17.826,17.826,0,0,1,.4-3.565Z" transform="translate(-147.293 -455.096)"/></g><g transform="translate(0.115 3.156)"><path class="b" d="M146.3,463.371a4.692,4.692,0,0,1-.876-.066l-2.1-.233c-.822-.095-1.564-.2-2.1-.287a3.848,3.848,0,0,1-.858-.193,4.635,4.635,0,0,1,.876.066l2.1.233c.821.094,1.564.195,2.1.286A3.86,3.86,0,0,1,146.3,463.371Z" transform="translate(-140.367 -462.584)"/></g></g><g transform="translate(32.271 121.232)"><g transform="translate(0.091)"><path class="g" d="M185.017,455.073l.011-3.518-6.59-.062-.07,5.147.408.03c1.818.118,9.25.473,10.469.116C190.6,456.388,185.017,455.073,185.017,455.073Z" transform="translate(-178.367 -451.493)"/><g class="m" transform="translate(0.008 3.206)"><path d="M180.768,461.143a2.287,2.287,0,0,0-.827-1.413,2.221,2.221,0,0,0-1.536-.493l-.019,1.842Z" transform="translate(-178.386 -459.231)"/></g></g><g class="m" transform="translate(0.091 4.32)"><path d="M187.746,461.92s1.957.585,1.709.906-7.773.245-11.089-.079l.012-.147,8.776.163S187.362,461.932,187.746,461.92Z" transform="translate(-178.367 -461.92)"/></g><g transform="translate(0 4.992)"><path class="b" d="M178.147,463.545a.564.564,0,0,0,.113.013l.325.023,1.2.063c1.011.047,2.409.092,3.954.109s2.944,0,3.956-.024l1.2-.038.326-.016a.665.665,0,0,0,.114-.011.6.6,0,0,0-.114-.005h-.326l-1.2.012c-1.012.01-2.41.017-3.954,0s-2.942-.054-3.953-.086l-1.2-.038-.326-.008A.568.568,0,0,0,178.147,463.545Z" transform="translate(-178.147 -463.542)"/></g><g transform="translate(8.866 4.239)"><path class="b" d="M199.557,462.751a1.74,1.74,0,0,1,.643-1.024,1.066,1.066,0,0,0-.643,1.024Z" transform="translate(-199.546 -461.725)"/></g><g transform="translate(6.939 3.713)"><path class="b" d="M194.9,461c.018.012.113-.1.21-.251s.162-.282.143-.294-.113.1-.21.251S194.88,460.99,194.9,461Z" transform="translate(-194.895 -460.456)"/></g><g transform="translate(6.41 3.604)"><path class="b" d="M193.62,460.56c.014.016.119-.052.234-.153s.2-.2.181-.213-.119.052-.234.152S193.605,460.543,193.62,460.56Z" transform="translate(-193.618 -460.192)"/></g><g transform="translate(6.08 3.313)"><path class="b" d="M192.823,459.523a.778.778,0,0,0,.343.047.768.768,0,0,0,.345-.033,1.5,1.5,0,0,0-.688-.014Z" transform="translate(-192.823 -459.489)"/></g><g transform="translate(5.969 2.9)"><path class="b" d="M192.554,458.5a.967.967,0,0,0,.779.067,28.241,28.241,0,0,1-.779-.067Z" transform="translate(-192.553 -458.493)"/></g><g transform="translate(7.171 3.103)"><path class="b" d="M195.456,459.566a1.21,1.21,0,0,0,.424,0,2.433,2.433,0,0,0,.452-.095,1.248,1.248,0,0,0,.259-.1.229.229,0,0,0,.106-.13.166.166,0,0,0-.063-.17.776.776,0,0,0-.962.218.752.752,0,0,0-.141.281.234.234,0,0,0-.012.114,1.2,1.2,0,0,1,.2-.359.768.768,0,0,1,.364-.232.657.657,0,0,1,.5.04c.067.05.04.129-.036.173a1.266,1.266,0,0,1-.239.1,2.913,2.913,0,0,1-.437.109C195.618,459.554,195.456,459.553,195.456,459.566Z" transform="translate(-195.456 -458.982)"/></g><g transform="translate(6.735 2.885)"><path class="b" d="M194.949,459.28a.419.419,0,0,0,.052-.294.7.7,0,0,0-.113-.31.425.425,0,0,0-.351-.22.168.168,0,0,0-.132.194.452.452,0,0,0,.07.19,1.275,1.275,0,0,0,.2.258.609.609,0,0,0,.241.174c.007-.01-.084-.077-.2-.212a1.47,1.47,0,0,1-.175-.256c-.057-.09-.1-.251.011-.27s.213.1.277.183a.7.7,0,0,1,.117.276A1.551,1.551,0,0,1,194.949,459.28Z" transform="translate(-194.403 -458.457)"/></g><g transform="translate(0.152 3.152)"><path class="b" d="M178.515,459.142c0,.015.189-.016.486.022a2.065,2.065,0,0,1,1.712,1.393c.1.283.106.474.121.472a.375.375,0,0,0,0-.133,1.76,1.76,0,0,0-.068-.356,2,2,0,0,0-1.76-1.432,1.743,1.743,0,0,0-.363.006A.371.371,0,0,0,178.515,459.142Z" transform="translate(-178.515 -459.101)"/></g><g transform="translate(0.782 0.457)"><path class="b" d="M180.116,452.6a23.072,23.072,0,0,0-.061,2.708,11.578,11.578,0,0,0,.07-1.353A11.335,11.335,0,0,0,180.116,452.6Z" transform="translate(-180.035 -452.597)"/></g><g transform="translate(3.317 4.476)"><path class="b" d="M186.154,462.305a5.41,5.41,0,0,0,1.926.038c0-.023-.433,0-.963-.012S186.156,462.282,186.154,462.305Z" transform="translate(-186.154 -462.298)"/></g><g transform="translate(2.022 4.466)"><path class="b" d="M183.032,462.276c-.016.016.034.092.077.191s.066.187.089.186.035-.1-.016-.218S183.046,462.26,183.032,462.276Z" transform="translate(-183.029 -462.273)"/></g><g transform="translate(1.541 3.855)"><path class="b" d="M181.871,460.8c-.016.015.026.085.093.154s.135.114.151.1-.026-.084-.094-.154S181.887,460.785,181.871,460.8Z" transform="translate(-181.868 -460.798)"/></g><g transform="translate(0.851 3.538)"><path class="b" d="M180.2,460.068c0,.022.092.023.188.058s.166.087.183.072-.037-.106-.157-.148S180.194,460.048,180.2,460.068Z" transform="translate(-180.2 -460.032)"/></g><g transform="translate(0.356 3.424)"><path class="b" d="M179.006,459.772c-.008.02.029.055.084.077s.105.022.114,0-.029-.055-.084-.076S179.014,459.752,179.006,459.772Z" transform="translate(-179.005 -459.758)"/></g></g><g transform="translate(18.056)"><g transform="translate(4.067 1.689)"><path class="n" d="M160.551,179.156c.051-1.032.159-2.2.159-2.2a3.092,3.092,0,0,0,2.707-2.918c.155-2.637,0-8.718,0-8.718l-4.649-2.368-5.115,4.036.775,13.184,4.706.3A1.357,1.357,0,0,0,160.551,179.156Z" transform="translate(-153.653 -162.953)"/></g><g transform="translate(10.363 9.189)"><path class="o" d="M169.911,182.555c.007,0,.008.049-.04.114a.362.362,0,0,1-.294.13c-.3-.014-.581-.342-.686-.742a1.264,1.264,0,0,1-.013-.586.5.5,0,0,1,.278-.4.25.25,0,0,1,.2,0,.222.222,0,0,1,.1.106c.035.079.008.126,0,.122s-.008-.044-.046-.093a.17.17,0,0,0-.22-.046.415.415,0,0,0-.19.33,1.225,1.225,0,0,0,.022.523c.092.358.341.651.562.678a.333.333,0,0,0,.249-.068C169.884,182.588,169.9,182.551,169.911,182.555Z" transform="translate(-168.849 -181.055)"/></g><g transform="translate(0.785)"><path class="b" d="M156.352,171.2c.035-.1.057-.2.084-.3l.061-.218h0a3.421,3.421,0,0,0,.073-.659,1.266,1.266,0,0,1-1.338-.289,1.4,1.4,0,0,1-.316-1.385,2,2,0,0,1,1.193-1.124c.513-.216,1.065-.323,1.569-.562a5.237,5.237,0,0,0,2.313-2.668,3.65,3.65,0,0,0,.376-2.482c-.355-1.214-1.646-1.817-2.821-2.15a8.91,8.91,0,0,0-5.475-.088c-1.748.644-3.849,1.776-3.849,3.706-1.032-.085-1.621.819-2.03,1.939a15.168,15.168,0,0,0-.456,2.122" transform="translate(-145.732 -158.876)"/></g><path class="b" d="M149.613,184.212a9.066,9.066,0,0,1-3.9-8.049c.263-5.536,10.62,4.157,10.62,4.157s-1.982,6.522-6.51,3.892" transform="translate(-144.93 -168.001)"/><g transform="translate(1.61 7.134)"><path class="g" d="M149.259,179.652c-.028-.026.18-.22.348-.622a2,2,0,0,0-1.191-2.724c-.409-.15-.693-.129-.693-.167a1.14,1.14,0,0,1,.74.021,2.039,2.039,0,0,1,1.283,2.934C149.526,179.511,149.27,179.67,149.259,179.652Z" transform="translate(-147.723 -176.095)"/></g><g transform="translate(0 3.287)"><path class="b" d="M144.851,170.823c0,.011-.1.017-.271-.058a1.212,1.212,0,0,1-.546-.525,1.838,1.838,0,0,1-.18-1.109,3.437,3.437,0,0,1,.427-1.3,2.1,2.1,0,0,1,1.029-.912,1.474,1.474,0,0,1,1.126,0,1.242,1.242,0,0,1,.579.488c.09.157.1.259.09.262a1.493,1.493,0,0,0-.725-.609,1.359,1.359,0,0,0-1,.047,1.968,1.968,0,0,0-.918.837,2.605,2.605,0,0,0-.3,2.226A1.411,1.411,0,0,0,144.851,170.823Z" transform="translate(-143.837 -166.809)"/></g></g><g transform="translate(0 2.934)"><path class="n" d="M166.366,172.193c-.185-.191-.64-.1-.64-.1a2.458,2.458,0,0,0,0-.8c-.083-.261-.667-.211-.667-.211a2.726,2.726,0,0,1,.015-.658.233.233,0,0,0-.135-.232,2.151,2.151,0,0,0-.872-.159c-.357-.255,1.088-2.276,1.624-2.923s.44-1.151-.037-1.15c-.326,0-2.013,1.943-2.528,2.6s-1.895,2.466-1.941,1.018a3.721,3.721,0,0,0-.992-2.729c-.363-.187-.756.251-.554.653a5.3,5.3,0,0,1,.324,1.424,3.459,3.459,0,0,1-.053,1.17,13.478,13.478,0,0,1-.623,2.089l-.036-.02s-10.1,9.681-10.825,10.372c-.655.622-13.775-.735-16.4-1.014a18.169,18.169,0,0,0-2.7-.184c-1.14.05-1.343.212-2.484.227a50.7,50.7,0,0,0-8.1.677c-2.62.443-4.062,2.494-4.873,5.025-2.653,8.279-9.831,27.771-10.9,38.783a45.953,45.953,0,0,0-2.166,4.474c-.743,2.024-.563,2.093-.312,2.139.672.124,1.442-3.51,1.73-2.633s-1.458,4.336-.75,4.437c.923.132,1.659-3.688,1.745-4.007s.55-.205.457.079c-.134.407-1.436,4.723-.53,4.862.5.077.556-.838.556-.838s.921-4.128,1.346-4.048-.027,2.523-.24,3.335.086,1.229.519,1.027c.3-.138,1.006-2.611,1.2-3.419s.679-3.034,1.332-1.742a3.721,3.721,0,0,0,2.05,2.057.453.453,0,0,0,.227-.827,5.278,5.278,0,0,1-.894-1.155,3.427,3.427,0,0,1-.445-1.083,11.986,11.986,0,0,1-.323-2.341l-.075-.476c1.036-5.132,4.548-22.616,8.837-32.234l1.24,6.065.767,2.69-4.707,11.629,20.083-.265L131.6,202.234l3.637-12.03h0c3.937.088,14.047.234,15.747-.525,2.118-.946,13.081-14.766,13.081-14.766h0a26.1,26.1,0,0,0,2.049-1.778S166.768,172.606,166.366,172.193Z" transform="translate(-100.254 -165.957)"/></g><g transform="translate(7.117 17.684)"><path class="g" d="M123.7,226.326c.582-1.989,3.575-11.823,3.575-11.823s1.469,8.018,1.083,8.983a17.034,17.034,0,0,1-1.263,2.386c-3.4,5.171-2.95,7.756-2.95,7.756L144.656,233c.05-2.869-1.648-9.538-2-10.6s.822-4.55.822-4.55,2.318-2.354,2.229-3.565a19.54,19.54,0,0,0-.4-3.229l15.192.29-1.7-8.26-14.649-1.07-4.874-.457c-2.45,2.068-6.125,0-6.125,0-4.675.457-5.359,1.205-7.277,3.121-2.276,2.274-8.432,19.645-8.432,19.645Z" transform="translate(-117.433 -201.561)"/><g transform="translate(11.08 22.018)"><path class="b" d="M151.493,255.453a4.434,4.434,0,0,1-1.081.055c-.668,0-1.59-.046-2.6-.147s-1.927-.246-2.582-.375a4.4,4.4,0,0,1-1.048-.269,5.413,5.413,0,0,1,1.076.1c.66.085,1.57.2,2.579.3s1.924.169,2.587.217A5.307,5.307,0,0,1,151.493,255.453Z" transform="translate(-144.177 -254.706)"/></g><g transform="translate(11.847 21.014)"><path class="b" d="M153.981,252.289a4.81,4.81,0,0,1-1.12.382,20.319,20.319,0,0,1-5.655.672,4.806,4.806,0,0,1-1.178-.109,7.224,7.224,0,0,1,1.177-.062c.725-.022,1.725-.076,2.823-.206s2.083-.314,2.793-.461A7.186,7.186,0,0,1,153.981,252.289Z" transform="translate(-146.028 -252.282)"/></g><g transform="translate(24.982 13.239)"><path class="b" d="M179.45,233.516a4.45,4.45,0,0,1-.14,1.047c-.119.64-.307,1.519-.543,2.483s-.477,1.831-.667,2.453a4.417,4.417,0,0,1-.36.992,4.774,4.774,0,0,1,.2-1.037l.6-2.466c.227-.914.432-1.741.611-2.462A4.771,4.771,0,0,1,179.45,233.516Z" transform="translate(-177.732 -233.516)"/></g></g><g transform="translate(12.696 49.265)"><path class="d" d="M131.891,278.412l20.512-.626,8.921,34.851-1.643,39.977H148.824l1.345-39.126-7.934-24.261,1.2,63.8-10.961.162-1.136-59.9c-.048-1.7-.607-5.524-.4-7.207Z" transform="translate(-130.897 -277.786)"/><g transform="translate(7.356 10.575)"><path class="b" d="M155.366,304.67a3.9,3.9,0,0,1-1.006-.06c-.617-.072-1.466-.2-2.4-.389s-1.763-.4-2.361-.567a3.9,3.9,0,0,1-.951-.334c.018-.067,1.508.294,3.359.665S155.375,304.6,155.366,304.67Z" transform="translate(-148.653 -303.312)"/></g><g transform="translate(18.003 72.515)"><path class="b" d="M185.033,452.936c0,.067-2.458.121-5.489.121a45.552,45.552,0,0,1-5.192-.16c0-.066,2.16-.081,5.192-.081S185.033,452.87,185.033,452.936Z" transform="translate(-174.352 -452.816)"/></g><g transform="translate(1.736 72.636)"><path class="b" d="M145.739,453.227c0,.067-2.384.121-5.325.121s-5.326-.054-5.326-.121,2.384-.121,5.326-.121S145.739,453.16,145.739,453.227Z" transform="translate(-135.088 -453.106)"/></g><g transform="translate(9.989 11.139)"><path class="b" d="M156.07,366.29c-.067,0-.355-13.793-.644-30.8s-.469-30.811-.4-30.812.355,13.79.644,30.808S156.136,366.289,156.07,366.29Z" transform="translate(-155.009 -304.673)"/></g><g transform="translate(19.841 0.626)"><path class="b" d="M186.173,351.306a1.093,1.093,0,0,1,0-.189c0-.136.006-.32.01-.554.014-.5.035-1.215.061-2.13.065-1.862.157-4.535.272-7.832.253-6.623.6-15.752.988-25.836,0-.093.007-.186.011-.272l0,.034-6.221-24.912c-.782-3.177-1.415-5.752-1.856-7.546l-.493-2.054c-.052-.227-.092-.4-.122-.536a1.115,1.115,0,0,1-.034-.184,1.068,1.068,0,0,1,.058.179l.145.529c.126.48.306,1.166.537,2.043.459,1.789,1.117,4.357,1.93,7.527l6.29,24.895,0,.017v.017c0,.085-.007.179-.011.272-.413,10.082-.787,19.21-1.059,25.832-.147,3.3-.265,5.967-.348,7.829-.046.914-.082,1.629-.107,2.128-.014.234-.025.417-.034.553A1.083,1.083,0,0,1,186.173,351.306Z" transform="translate(-178.787 -279.296)"/></g><g transform="translate(18.759 34.992)"><path class="b" d="M181.1,362.263a12.631,12.631,0,0,1-2.4.534c-1,.172-1.859.289-2.235.31v-.094c.125.034.192.061.189.078s-.075.022-.2.016l-.28-.012.28-.082c.362-.106,1.213-.283,2.21-.454A12.591,12.591,0,0,1,181.1,362.263Z" transform="translate(-176.175 -362.246)"/></g><g transform="translate(19.173 35.941)"><path class="b" d="M181.482,364.935a33.454,33.454,0,0,1-4.308-.336,13.718,13.718,0,0,1,4.308.336Z" transform="translate(-177.174 -364.538)"/></g><g transform="translate(0.903)"><path class="b" d="M133.076,279.148a2.819,2.819,0,0,0,2.025,1.078,9.167,9.167,0,0,0,2.487-.047,129,129,0,0,0,16.09-2.392c-6.712.376-13.8.249-20.512.626,0,0-.057.462-.07.573" transform="translate(-133.076 -277.786)"/></g><g transform="translate(7.821 10.822)"><path class="b" d="M149.775,303.908l3.781,14.679-.265-14.061Z" transform="translate(-149.775 -303.908)"/></g></g><g transform="translate(10.968 7.212)"><g transform="translate(0.132 0.198)"><path class="b" d="M135.7,176.822c-1.458-.387-2.98,1.166-3.033,2.673-.015.431.048.927-.258,1.231-.324.324-.856.227-1.313.264a2.086,2.086,0,0,0-1.853,1.82c-.065.673.2,1.392-.079,2.007-.267.585-.932.86-1.384,1.317a2.954,2.954,0,0,0-.726,2.293,8.606,8.606,0,0,0,.643,2.385,2.672,2.672,0,0,0,1.326,1.749h6.127l.462-2.314.748,2.314h1l-.536-15.012S136.818,177.119,135.7,176.822Z" transform="translate(-127.044 -176.762)"/></g><path class="b" d="M127.134,183.712a.41.41,0,0,0-.164.034.321.321,0,0,0-.147.4.7.7,0,0,0,.554.45.727.727,0,0,0,.807-.97,2.508,2.508,0,0,0-.336-.554,1.974,1.974,0,0,1-.379-1.465,1.871,1.871,0,0,1,.93-1.388,1.976,1.976,0,0,1,1.786-.1,3.267,3.267,0,0,0,1.6.533.73.73,0,0,0,.6-.362,1.527,1.527,0,0,0,.083-.737,3.353,3.353,0,0,1,.967-2.59,2.473,2.473,0,0,1,1.745-.672,1.947,1.947,0,0,1,.508.086.514.514,0,0,1,.164.073,3.9,3.9,0,0,0-.673-.076,2.451,2.451,0,0,0-1.639.7,3.227,3.227,0,0,0-.874,2.472,1.687,1.687,0,0,1-.1.838.938.938,0,0,1-.763.479,1.725,1.725,0,0,1-.9-.16c-.279-.119-.535-.273-.8-.384a1.769,1.769,0,0,0-1.6.087,1.674,1.674,0,0,0-.838,1.233,1.792,1.792,0,0,0,.33,1.335,2.607,2.607,0,0,1,.345.6.867.867,0,0,1-.032.663.878.878,0,0,1-.423.428.847.847,0,0,1-.532.052.789.789,0,0,1-.611-.546.375.375,0,0,1,.21-.46C127.074,183.663,127.139,183.71,127.134,183.712Z" transform="translate(-126.727 -176.284)"/></g><g transform="translate(30.763 18.498)"><path class="b" d="M178.859,212.064a1.564,1.564,0,0,1-.472-.01,4.028,4.028,0,0,1-1.239-.362,4.671,4.671,0,0,1-1.533-1.152,4.249,4.249,0,0,1-.81-4.442,4.669,4.669,0,0,1,1.027-1.62,4.043,4.043,0,0,1,1.031-.776,1.549,1.549,0,0,1,.439-.176,6.147,6.147,0,0,0-1.359,1.057,4.721,4.721,0,0,0-.952,1.583,4.149,4.149,0,0,0,.774,4.243,4.726,4.726,0,0,0,1.45,1.146A6.164,6.164,0,0,0,178.859,212.064Z" transform="translate(-174.508 -203.525)"/></g></g></g></g></g></svg>