<svg xmlns="http://www.w3.org/2000/svg" viewBox="0 0 158.258 155.561"><defs><style>.a{fill:#e5f4ff;stroke:rgba(0,0,0,0);stroke-miterlimit:10;}.b{fill:#465d84;}.c{fill:#263238;}.d,.f{fill:#fff;}.e{fill:#f5fbff;}.f{opacity:0.2;}.g{fill:#f89d1f;}.h{fill:#5ab7f6;}</style></defs><path class="a" d="M123.342,107.924H14.419a58.242,58.242,0,0,1-8.5-11.85A48.452,48.452,0,0,1,.657,81.233l-.016-.014L.623,81.2a36.084,36.084,0,0,1-.531-4.112l0-.03c0-.018,0-.033-.005-.049h0a36.027,36.027,0,0,1,.472-8.8L.551,68.2l-.018-.015a23.059,23.059,0,0,1,3.073-7.976,18.288,18.288,0,0,1,13.657-8.4,21.627,21.627,0,0,0,8.332-3.2A51.929,51.929,0,0,0,39.572,33.032l0-.018v0l0-.009c.839-1.377,1.6-2.613,2.276-3.675l.076-.127.011-.019.01-.016.106-.177c.369-.589.77-1.2,1.19-1.823l.016-.024.029-.044h0A61.852,61.852,0,0,1,151.9,38.945l0,0c.02.051.04.1.06.154l.051.133c.069.177.141.362.219.566l0,.01v0c.074.194.151.394.224.592l.02.052,0,0,.024.063h0A61.81,61.81,0,0,1,156.1,56.9l0,0v.018c0,.025,0,.047,0,.071a40.958,40.958,0,0,1-1.652,15.449,44.935,44.935,0,0,1-2.845,7.059,52.275,52.275,0,0,1-3.986,6.609,69.478,69.478,0,0,1-10.782,11.844,101.934,101.934,0,0,1-13.506,9.976Z" transform="translate(1.502 47.123)"/><g transform="translate(25.113 0)"><path class="b" d="M13.962,0h41.2A13.961,13.961,0,0,1,69.124,13.961V132.025a13.962,13.962,0,0,1-13.962,13.962h-41.2A13.961,13.961,0,0,1,0,132.025V13.962A13.962,13.962,0,0,1,13.962,0Z" transform="translate(25.167 0.192) rotate(9.468)"/><rect class="c" width="3.564" height="13.548" rx="1.782" transform="translate(18.967 24.102) rotate(9.469)"/><rect class="c" width="3.564" height="13.548" rx="1.782" transform="translate(16.021 41.771) rotate(9.469)"/><rect class="c" width="69.124" height="145.987" rx="13.962" transform="translate(24.015 0) rotate(9.468)"/><path class="d" d="M168.8,263.627l-64-10.675a1.277,1.277,0,0,1-1.049-1.47l20.707-124.161a1.277,1.277,0,0,1,1.47-1.049l64,10.674a1.277,1.277,0,0,1,1.05,1.47l-20.707,124.16A1.277,1.277,0,0,1,168.8,263.627Z" transform="translate(-101.283 -117.148)"/><path class="e" d="M191.995,129.1l-2.016,129.868,13.377,2.231,2.016-129.868Z" transform="translate(-158.905 -118.567)"/><rect class="f" width="15.019" height="1.726" rx="0.863" transform="matrix(-0.986, -0.165, 0.165, -0.986, 64.697, 11.816)"/></g><g transform="translate(0 154.97)"><path class="c" d="M192.719,465.34c0,.052-33.084.094-73.885.094s-73.893-.042-73.893-.094,33.077-.094,73.893-.094S192.719,465.288,192.719,465.34Z" transform="translate(-44.941 -465.246)"/></g><g transform="translate(44.831 54.111)"><ellipse class="g" cx="17.163" cy="16.086" rx="17.163" ry="16.086" transform="translate(2.17 26.017) rotate(-44.073)"/><path class="h" d="M270.368,256.369a23.759,23.759,0,0,1-23.974-25.636,27.781,27.781,0,0,1,27.3-25.636,23.759,23.759,0,0,1,23.974,25.636A27.781,27.781,0,0,1,270.368,256.369Zm3.293-50.806a27.277,27.277,0,0,0-26.8,25.17A23.328,23.328,0,0,0,270.4,255.9a27.277,27.277,0,0,0,26.8-25.17A23.328,23.328,0,0,0,273.66,205.563Z" transform="translate(-246.339 -205.098)"/><path class="b" d="M277.145,240.693,275.759,238c-3.024-5.87-9.995-11.116-12.425-12.643l2.3-3.44a46.088,46.088,0,0,1,12.25,11.593c6.674-7.906,16.114-16.062,28.753-24.852l2.155,3.248c-13.505,9.393-23.211,17.98-29.671,26.255Z" transform="translate(-255.424 -207.003)"/></g></svg>