<svg xmlns="http://www.w3.org/2000/svg" viewBox="0 0 22.191 20.14"><defs></defs><g transform="translate(0 -23.658)"><g transform="translate(0 33.004)"><g transform="translate(0 0)"><path class="a" d="M5.4,239.3H.724a.724.724,0,0,0-.724.724v9.346a.724.724,0,0,0,.724.724H5.4a.724.724,0,0,0,.724-.724v-9.346A.724.724,0,0,0,5.4,239.3Z" transform="translate(0 -239.304)"/></g></g><g transform="translate(8.035 23.658)"><g transform="translate(0 0)"><path class="a" d="M190.79,23.658h-4.673a.724.724,0,0,0-.724.724V43.074a.724.724,0,0,0,.724.724h4.673a.724.724,0,0,0,.724-.724V24.382A.724.724,0,0,0,190.79,23.658Z" transform="translate(-185.393 -23.658)"/></g></g><g transform="translate(16.07 28.331)"><g transform="translate(0 0)"><path class="a" d="M376.182,131.48h-4.673a.724.724,0,0,0-.724.724v14.02a.724.724,0,0,0,.724.724h4.673a.724.724,0,0,0,.724-.724V132.2A.724.724,0,0,0,376.182,131.48Z" transform="translate(-370.785 -131.48)"/></g></g></g></svg>