<svg xmlns="http://www.w3.org/2000/svg" width="27.846" height="27.179" viewBox="0 0 27.846 27.179"><defs><style>.a{fill:#fff;}</style></defs><path class="a" d="M26.411,11.429a4.887,4.887,0,0,0-6.937,0L5.9,25.094a2.926,2.926,0,0,0,0,4.113,2.878,2.878,0,0,0,4.086,0l7.252-7.3a.992.992,0,0,0,0-1.4.976.976,0,0,0-1.388,0L8.6,27.81a.923.923,0,0,1-1.31,0,.939.939,0,0,1,0-1.319L20.862,12.826a2.929,2.929,0,0,1,4.162,0,2.98,2.98,0,0,1,0,4.19L10.608,31.529a5.048,5.048,0,0,1-7.165,0,5.131,5.131,0,0,1,0-7.214L18.155,9.5a.992.992,0,0,0,0-1.4.976.976,0,0,0-1.388,0L2.055,22.918a7.119,7.119,0,0,0,0,10.008,7,7,0,0,0,9.941,0L26.411,18.413A4.968,4.968,0,0,0,26.411,11.429Z" transform="translate(0 -7.817)"/></svg>