<svg xmlns="http://www.w3.org/2000/svg" width="23.405" height="26.764" viewBox="0 0 23.405 26.764"><defs><style>.a{fill:#a0b2d1;}</style></defs><g transform="translate(-32.134)"><path class="a" d="M96.666,17.505,95.822,9.9a7.344,7.344,0,0,0-5.164-6.223,2.464,2.464,0,1,0-4.287,0A7.345,7.345,0,0,0,81.206,9.9l-.845,7.606a1.091,1.091,0,0,1-1.085.972H97.751a1.091,1.091,0,0,1-1.085-.972Z" transform="translate(-44.678)"/><path class="a" d="M194.2,479.524a4.141,4.141,0,0,0,3.408-1.791h-6.817A4.141,4.141,0,0,0,194.2,479.524Z" transform="translate(-150.362 -452.76)"/><path class="a" d="M53.859,383.466H33.814a1.68,1.68,0,0,0,0,3.359H53.859a1.68,1.68,0,0,0,0-3.359Z" transform="translate(0 -363.421)"/></g></svg>