<svg xmlns="http://www.w3.org/2000/svg" width="18.662" height="16.703" viewBox="0 0 16.662 14.703"><defs><style>.a{fill:#ffff}</style></defs><g transform="translate(0.02 0)"><g transform="translate(0 0)"><path class="a" d="M14.087,27.738H12.326v-.277a2.107,2.107,0,0,0-2.117-2.117H7.478A2.107,2.107,0,0,0,5.36,27.461v.277H3.6A3.062,3.062,0,0,0,.512,30.806v.376H17.154v-.376A3.057,3.057,0,0,0,14.087,27.738Zm-3.206,0H6.765v-.277a.7.7,0,0,1,.712-.712h2.711a.7.7,0,0,1,.712.712Z" transform="translate(-0.512 -25.344)"/></g></g><g transform="translate(0 6.649)"><g transform="translate(0 0)"><path class="a" d="M0,197.376v5.007a3.066,3.066,0,0,0,3.067,3.047H13.575a3.057,3.057,0,0,0,3.067-3.067v-4.987Z" transform="translate(0 -197.376)"/></g></g></svg>