<svg xmlns="http://www.w3.org/2000/svg"  viewBox="0 0 14.874 17.932"><defs><style>.a{}</style></defs><g transform="translate(0 0)"><g transform="translate(7.811 11.523)"><path class="a" d="M222.205,273.5a.853.853,0,0,0-.239-.174,2.885,2.885,0,0,0-.606-.214v1.6a1.139,1.139,0,0,0,.9-.474h0a.733.733,0,0,0,.067-.5A.5.5,0,0,0,222.205,273.5Z" transform="translate(-221.36 -273.108)"/></g><g transform="translate(8.707 12.654)"><path class="a" d="M242.6,299.9l0,0h0Z" transform="translate(-242.604 -299.9)"/></g><g transform="translate(6.127 8.95)"><path class="a" d="M181.549,212.5a.6.6,0,0,0-.1.282.676.676,0,0,0,.034.312.5.5,0,0,0,.194.214,1.515,1.515,0,0,0,.288.149c.084.034.179.066.281.1v-1.451A1.108,1.108,0,0,0,181.549,212.5Z" transform="translate(-181.441 -212.106)"/></g><g transform="translate(8.709 12.642)"><path class="a" d="M242.654,299.619l-.007.012h0Z" transform="translate(-242.647 -299.619)"/></g><g transform="translate(8.724 12.626)"><path class="a" d="M243,299.245Z" transform="translate(-243.004 -299.244)"/></g><g transform="translate(0)"><path class="a" d="M44.614,3.9C45.978,2.756,46.89.174,46.329.061c-.745-.15-2.364.508-3.146.624-1.11.134-2.318-1.2-3-.458-.552.606.4,2.81,1.877,3.77-4.42,2.172-10.632,13.077.206,13.869C57.265,18.961,49.756,6.019,44.614,3.9ZM45.9,12.5a1.577,1.577,0,0,1-.608,1.071,2.325,2.325,0,0,1-1.245.44v.47a.441.441,0,1,1-.882,0v-.513c-.076-.014-.151-.032-.226-.052a2.165,2.165,0,0,1-1.079-.664,1.945,1.945,0,0,1-.333-.55c-.021-.052-.039-.106-.055-.16a.819.819,0,0,1-.035-.149.441.441,0,0,1,.857-.183c.017.051.028.1.047.153a.982.982,0,0,0,.068.145,1.124,1.124,0,0,0,.194.248,1.313,1.313,0,0,0,.561.306V11.318a3.139,3.139,0,0,1-1.157-.5,1.346,1.346,0,0,1-.39-.469,1.468,1.468,0,0,1-.136-.631,1.5,1.5,0,0,1,.132-.639,1.559,1.559,0,0,1,.362-.5,2.209,2.209,0,0,1,1.189-.527V7.567a.441.441,0,1,1,.882,0v.485q.087.011.172.026a2.179,2.179,0,0,1,1.152.559,1.683,1.683,0,0,1,.353.507,1.617,1.617,0,0,1,.062.161.98.98,0,0,1,.041.157.441.441,0,0,1-.848.223c-.018-.048-.028-.1-.047-.147a.777.777,0,0,0-.072-.139.841.841,0,0,0-.208-.219,1.43,1.43,0,0,0-.605-.237v1.67a5.6,5.6,0,0,1,.753.224,1.761,1.761,0,0,1,.919.72c-.031-.055-.062-.108,0,0s.032.057,0,0A1.573,1.573,0,0,1,45.9,12.5Z" transform="translate(-36.238 0)"/></g><g transform="translate(8.696 12.665)"><path class="a" d="M242.344,300.169l-.007.012Z" transform="translate(-242.337 -300.169)"/></g></g></svg>