<svg xmlns="http://www.w3.org/2000/svg" width="186.003" height="187.758" viewBox="0 0 186.003 187.758"><defs><style>.a{fill:#e5f4ff;stroke:rgba(0,0,0,0);stroke-miterlimit:10;}.b{fill:#263238;}.c{fill:#5ab7f6;}.d{fill:#455a64;}.e{fill:#e0e0e0;}.f{fill:#465d84;}.g{fill:#8296b7;}.h{fill:#eb996e;}.i{fill:#ebebeb;}.j{fill:#d1734a;}.k{fill:#f89d1f;}.l{opacity:0.6;}.m{fill:#e8505b;}.n{opacity:0.3;}</style></defs><path class="a" d="M133.922,0H15.656A63.238,63.238,0,0,0,6.427,12.866,52.608,52.608,0,0,0,.713,28.981L.7,29l-.02.018A39.179,39.179,0,0,0,.1,33.478c0,.011,0,.022,0,.032s0,.036-.005.054h0a39.117,39.117,0,0,0,.513,9.559L.6,43.129l-.019.017a25.037,25.037,0,0,0,3.337,8.66,19.857,19.857,0,0,0,14.829,9.118A23.482,23.482,0,0,1,27.791,64.4a56.383,56.383,0,0,1,15.175,16.92l0,.019v0l0,.01c.911,1.5,1.742,2.838,2.471,3.991l.083.138.012.02.01.017.115.192c.4.64.836,1.306,1.292,1.979l.017.026.032.048h0A67.157,67.157,0,0,0,164.929,74.9l0,0c.022-.056.044-.112.065-.167l.056-.145c.075-.192.153-.393.237-.615l0-.011v0c.08-.21.164-.428.243-.643l.021-.056,0,0,.026-.068h0l0,0a67.112,67.112,0,0,0,3.909-17.78l0,0v-.019c0-.027,0-.051.005-.077a44.47,44.47,0,0,0-1.794-16.774,48.79,48.79,0,0,0-3.089-7.665,56.761,56.761,0,0,0-4.328-7.176,75.439,75.439,0,0,0-11.706-12.86A110.679,110.679,0,0,0,133.922,0Z" transform="translate(183.473 187.258) rotate(180)"/><g transform="translate(0 186.832)"><g transform="translate(0 0)"><path class="b" d="M229.384,473.313c0,.064-41.642.117-93,.117-51.373,0-93.006-.053-93.006-.117s41.633-.117,93.006-.117C187.743,473.2,229.384,473.249,229.384,473.313Z" transform="translate(-43.381 -473.196)"/></g></g><g transform="translate(30.537 42.753)"><g transform="translate(0 0)"><g transform="translate(15.747 20.861)"><path class="c" d="M148.132,200.236a8.5,8.5,0,0,1,5.275-.641,4.383,4.383,0,0,1,2.606,1.163,1.876,1.876,0,0,1,.027,2.6,2.5,2.5,0,0,1-1.643.417c-1.394-.016-2.942-.262-4.056.577-.636.479-1.059,1.275-1.819,1.51a1.8,1.8,0,0,1-1.976-.88,3.072,3.072,0,0,1-.224-2.266A3.46,3.46,0,0,1,148.132,200.236Z" transform="translate(-146.208 -199.446)"/></g><g transform="translate(13.068)"><path class="c" d="M141.184,167.654c.981,1.4,2.888.938,3.772.082a7.132,7.132,0,0,0,1.6-3.277c.777-2.7,1.561-5.535.983-8.286a4.606,4.606,0,0,0-1.058-2.253,2.4,2.4,0,0,0-2.279-.758,3.518,3.518,0,0,0-1.991,2.092,19.749,19.749,0,0,0-1.952,8.476,6.849,6.849,0,0,0,.927,3.924" transform="translate(-140.257 -153.1)"/></g><g transform="translate(0 4.509)"><path class="c" d="M122.524,175.174a5.1,5.1,0,0,0,.794-4.692,9.043,9.043,0,0,0-2.779-4.032,14.966,14.966,0,0,0-4.977-2.937,5.309,5.309,0,0,0-2.238-.38,2.35,2.35,0,0,0-1.878,1.137c-.524,1-.022,2.211.522,3.2a37.9,37.9,0,0,0,3.269,4.978,8.846,8.846,0,0,0,3.6,3.08c1.493.571,3.044.5,3.835-.532" transform="translate(-111.224 -163.118)"/></g><g transform="translate(13.91 22.807)"><path class="b" d="M142.146,216.656a3.047,3.047,0,0,0,.089-.636c.045-.464.1-1.046.169-1.738a25.142,25.142,0,0,1,.391-2.549,19.651,19.651,0,0,1,.927-3.009A11.076,11.076,0,0,1,145.258,206a5.735,5.735,0,0,1,1.942-1.615,5.43,5.43,0,0,1,1.636-.51,3.072,3.072,0,0,0,.634-.092,2.984,2.984,0,0,0-.645-.01,4.949,4.949,0,0,0-1.705.444,5.725,5.725,0,0,0-2.049,1.629,10.832,10.832,0,0,0-1.592,2.777,18.406,18.406,0,0,0-.92,3.058,21.659,21.659,0,0,0-.339,2.581c-.055.738-.076,1.335-.086,1.749A2.986,2.986,0,0,0,142.146,216.656Z" transform="translate(-142.128 -203.769)"/></g><g transform="translate(13.91 5.631)"><path class="b" d="M142.266,194.335a1.251,1.251,0,0,0,.017-.3c0-.222,0-.5,0-.845,0-.733,0-1.795.037-3.1.065-2.621.291-5.441.726-9.418.413-3.739.967-8.09,1.552-10.92.125-.643.252-1.223.37-1.729s.21-.946.3-1.3c.08-.334.145-.605.2-.821a1.229,1.229,0,0,0,.051-.292,1.257,1.257,0,0,0-.1.277l-.245.81c-.109.351-.22.786-.347,1.293s-.272,1.083-.409,1.725a95.849,95.849,0,0,0-1.631,10.132c-.437,3.985-.634,7.613-.651,10.24-.016,1.314.012,2.377.046,3.111.021.343.038.623.051.844A1.253,1.253,0,0,0,142.266,194.335Z" transform="translate(-142.128 -165.61)"/></g><g transform="translate(4.705 7.77)"><path class="b" d="M131.037,189.951a5.687,5.687,0,0,0-.006-.883c-.032-.567-.11-1.387-.27-2.391a31.6,31.6,0,0,0-.778-3.484,28.524,28.524,0,0,0-1.457-4.123,21.962,21.962,0,0,0-4.279-6.663,10.839,10.839,0,0,0-1.006-.935c-.154-.131-.291-.261-.43-.364l-.391-.269a5.664,5.664,0,0,0-.743-.476,26.473,26.473,0,0,1,2.436,2.173,23.141,23.141,0,0,1,4.172,6.638,32.557,32.557,0,0,1,1.465,4.084,35.454,35.454,0,0,1,.828,3.45c.182.994.288,1.806.352,2.368A5.686,5.686,0,0,0,131.037,189.951Z" transform="translate(-121.676 -170.363)"/></g></g><g transform="translate(7.302 39.703)"><path class="b" d="M127.446,241.306l.7,9.606h12.341l.7-9.606Z" transform="translate(-127.446 -241.306)"/></g><g transform="translate(6.11 35.916)"><rect class="b" width="16.408" height="3.786"/></g><g transform="translate(6.11 48.941)"><path class="d" d="M124.8,261.832v1.05h16.137v-1.05Z" transform="translate(-124.798 -261.832)"/></g><g transform="translate(6.881 49.991)"><path class="d" d="M127.267,266.011l-.756-1.847h14.778l-.882,1.847Z" transform="translate(-126.511 -264.164)"/></g><g transform="translate(7.51 41.493)"><path class="e" d="M141.215,246.632a.412.412,0,0,1-.058.088l-.185.245-.719.92-.032.041-.031-.043-1.766-2.443h.1l-1.739,2.463-.055.077-.061-.072-2.062-2.454.119,0-.113.143-1.844,2.312-.061.077-.057-.08-1.74-2.462.1,0-2.143,2.441-.038.044-.029-.049-.671-1.127-.172-.3a.481.481,0,0,1-.053-.107.468.468,0,0,1,.072.1l.19.289.7,1.106-.067-.005,2.108-2.471.053-.062.048.067,1.755,2.45-.118,0,1.84-2.315.113-.142.059-.074.06.072,2.057,2.459-.116,0,1.756-2.449.051-.072.05.072,1.729,2.469-.063,0,.748-.9.2-.232C141.187,246.656,141.212,246.63,141.215,246.632Z" transform="translate(-127.908 -245.283)"/></g><g transform="translate(7.404 39.563)"><path class="d" d="M141.487,241.072c0,.043-3.092.077-6.906.077s-6.907-.034-6.907-.077,3.092-.077,6.907-.077S141.487,241.029,141.487,241.072Z" transform="translate(-127.674 -240.995)"/></g><g transform="translate(6.829 50.018)"><path class="b" d="M141.407,264.3c0,.043-3.361.077-7.505.077s-7.506-.034-7.506-.077,3.36-.077,7.506-.077S141.407,264.257,141.407,264.3Z" transform="translate(-126.396 -264.223)"/></g></g><g transform="translate(20.605 69.407)"><g transform="translate(95.623 0)"><g transform="translate(0 23.641)"><g transform="translate(0 0)"><rect class="f" width="36.133" height="1.758" transform="translate(36.133 1.758) rotate(180)"/></g></g><g transform="translate(14.16)"><path class="f" d="M360.633,237.715l6.778-25.4H339.2l-6.137,25.4Z" transform="translate(-333.06 -212.317)"/></g><g transform="translate(15.56 0.949)"><path class="g" d="M336.816,237.227h25.2l5.867-22.3H342.553Z" transform="translate(-336.526 -214.7)"/><path class="g" d="M361.84,237.177H336.171l5.852-22.752h25.8Zm-25.088-.45h24.74l5.748-21.852H342.373Z" transform="translate(-336.171 -214.425)"/></g></g><g transform="translate(0 25.268)"><g transform="translate(21.153 5.062)"><rect class="d" width="1.825" height="87.123"/><g transform="translate(1.825 0.25)"><rect class="b" width="1.825" height="86.873"/></g></g><g transform="translate(133.576 5.062)"><rect class="d" width="1.825" height="87.123"/><g transform="translate(1.825 0.25)"><rect class="b" width="1.825" height="86.873"/></g></g><rect class="d" width="162.684" height="7.146"/><g transform="translate(73.469 7.146)"><rect class="d" width="61.02" height="11.827"/></g><g transform="translate(103.979 10.883)"><path class="b" d="M322.884,293.992a1.36,1.36,0,1,1-1.36-1.36A1.36,1.36,0,0,1,322.884,293.992Z" transform="translate(-320.164 -292.632)"/></g></g><g transform="translate(53.346 32.296)"><path class="b" d="M302.112,284.186c0,.065-21.142.117-47.216.117s-47.221-.052-47.221-.117,21.138-.117,47.221-.117S302.112,284.121,302.112,284.186Z" transform="translate(-207.675 -284.069)"/></g></g><g transform="translate(64.423)"><g transform="translate(42.544 13.788)"><g transform="translate(2.854 3.949)"><path class="h" d="M289.622,97.524c.244,0,3.535.548,3.535.548l4.449,5.607.67,1.063-6,3.837-2.652-3.925-2.255-1.462a2.291,2.291,0,0,1,2.377-.244,7.086,7.086,0,0,0,2.8.549l-.793-2.255-2.438-.488Z" transform="translate(-287.367 -97.524)"/></g><path class="b" d="M286.423,88.771a.694.694,0,0,1,.858.563c.365,2.3,1.466,9.221,1.814,11.264a.658.658,0,0,1-.476.745l-5.322,1.472a.661.661,0,0,1-.833-.555l-1.431-11.492a.7.7,0,0,1,.519-.76Z" transform="translate(-281.027 -88.75)"/><g transform="translate(0.319 0.791)"><path class="i" d="M283.249,102.362l5.4-1.5L287.215,91.3a.927.927,0,0,0-1.155-.758l-4.326,1.15Z" transform="translate(-281.735 -90.506)"/></g><g transform="translate(4.222 4.202)"><g transform="translate(0.472 1.451)"><path class="h" d="M293.885,101.307l-2.429,1.824s.2.638.572.686a15.069,15.069,0,0,0,2.325-.5Z" transform="translate(-291.456 -101.307)"/></g><path class="h" d="M293.015,98.084,290.474,99.2s-.166.829.787.714l-.853.61s.211.37,1.276.413,2.094-1.429,2.094-1.429Z" transform="translate(-290.408 -98.084)"/></g><g transform="translate(5.108 5.802)"><path class="j" d="M296.62,102.867c0,.035-.309-.027-.649-.339a5.248,5.248,0,0,0-.583-.49.826.826,0,0,0-.8-.1,15.091,15.091,0,0,1-2.208,1.044,11.244,11.244,0,0,1,2.126-1.264,1.006,1.006,0,0,1,.546-.061,1.2,1.2,0,0,1,.461.2,3.956,3.956,0,0,1,.578.55A4.857,4.857,0,0,0,296.62,102.867Z" transform="translate(-292.375 -101.64)"/></g><g transform="translate(8.054 9.545)"><path class="j" d="M299.722,113.778a3.481,3.481,0,0,1-.406-3.822,5.54,5.54,0,0,0,.406,3.822Z" transform="translate(-298.921 -109.955)"/></g><g transform="translate(4.915 4.773)"><path class="j" d="M295.55,99.9c-.03.024-.166-.165-.492-.271a1.731,1.731,0,0,0-1.289.148c-.481.229-.9.521-1.241.663s-.575.171-.581.142.2-.108.505-.289.7-.482,1.218-.729a2.155,2.155,0,0,1,.786-.211,1.446,1.446,0,0,1,.662.121C295.478,99.645,295.575,99.895,295.55,99.9Z" transform="translate(-291.947 -99.354)"/></g></g><g transform="translate(50.871 35.041)"><path class="k" d="M299.527,135.968l13.231,8.493-3.507,10.028s-9.053-2.793-8.883-3.087S299.527,135.968,299.527,135.968Z" transform="translate(-299.527 -135.968)"/></g><g transform="translate(35.473 169.092)"><path class="b" d="M277.294,435.491l-2.081,9.583s9.042,5.333,8.83,7.142l-18.726-3.367,2.629-15.065Z" transform="translate(-265.317 -433.784)"/><g transform="translate(0 13.557)"><path class="d" d="M265.317,465.411l.325-1.508,17.833,3.792s.768.513.569,1.083Z" transform="translate(-265.317 -463.903)"/></g></g><g transform="translate(16.65 171.853)"><path class="b" d="M233,439.918l-.309,9.8s9.859,3.606,9.978,5.423l-19.026.083-.145-15.292Z" transform="translate(-223.498 -439.918)"/><g class="l" transform="translate(0.145 13.766)"><path class="d" d="M223.821,472.044l.045-1.542,18.225.5s.848.365.755.962Z" transform="translate(-223.821 -470.502)"/></g></g><g transform="translate(27.371 0)"><g transform="translate(1.507 1.722)"><path class="h" d="M250.7,71.358l1.939,22.485,11.261-.9c.07-1.315-.024-6.4-.024-6.4s4.686-.729,4.743-5.413c.028-2.275-.3-6.977-.639-11.213a8.67,8.67,0,0,0-9.148-7.958h0A8.67,8.67,0,0,0,250.7,71.358Z" transform="translate(-250.665 -61.943)"/><g transform="translate(7.109 22.796)"><path class="j" d="M272.568,114.325a10.9,10.9,0,0,1-6.108-1.736s1.444,3.371,6.118,2.95Z" transform="translate(-266.46 -112.589)"/></g></g><g transform="translate(7.642 8.829)"><g transform="translate(0.455 2.524)"><g transform="translate(7.077)"><g transform="translate(0.495 1.02)"><path class="b" d="M283.466,86.211a.669.669,0,0,1-.645.675.64.64,0,0,1-.69-.6.669.669,0,0,1,.644-.676A.641.641,0,0,1,283.466,86.211Z" transform="translate(-282.131 -85.607)"/></g><path class="b" d="M283.675,84.043c-.083.087-.59-.288-1.31-.286s-1.247.362-1.326.274c-.038-.039.046-.2.276-.364a1.84,1.84,0,0,1,1.061-.327,1.758,1.758,0,0,1,1.042.337C283.64,83.846,283.715,84,283.675,84.043Z" transform="translate(-281.03 -83.34)"/></g><g transform="translate(0 0.134)"><g transform="translate(0.659 0.887)"><path class="b" d="M268.109,86.212a.67.67,0,0,1-.645.675.64.64,0,0,1-.69-.6.669.669,0,0,1,.645-.675A.64.64,0,0,1,268.109,86.212Z" transform="translate(-266.773 -85.608)"/></g><path class="b" d="M267.953,84.342c-.083.087-.591-.288-1.31-.286s-1.248.362-1.326.274c-.038-.039.045-.2.276-.364a1.833,1.833,0,0,1,1.061-.327,1.766,1.766,0,0,1,1.042.337C267.918,84.144,267.993,84.3,267.953,84.342Z" transform="translate(-265.308 -83.638)"/></g><g transform="translate(4.92 0.178)"><path class="b" d="M276.576,89.734a4.793,4.793,0,0,1,1.169-.211c.184-.019.357-.056.388-.181a.932.932,0,0,0-.122-.545q-.26-.667-.544-1.4a24.019,24.019,0,0,1-1.221-3.662,24.071,24.071,0,0,1,1.513,3.555c.182.492.356.96.521,1.408a1.061,1.061,0,0,1,.1.722.461.461,0,0,1-.3.269,1.241,1.241,0,0,1-.312.044A4.676,4.676,0,0,1,276.576,89.734Z" transform="translate(-276.239 -83.735)"/></g><g transform="translate(3.021 6.675)"><path class="b" d="M272.138,98.169c.117-.007.118.775.787,1.329s1.5.469,1.507.578c.011.049-.186.152-.537.162a1.946,1.946,0,0,1-1.258-.438,1.7,1.7,0,0,1-.61-1.114C272,98.358,272.084,98.164,272.138,98.169Z" transform="translate(-272.021 -98.169)"/></g></g><path class="b" d="M267.582,78.273c-.071.2-.79.1-1.634.205-.847.085-1.528.332-1.64.156-.05-.084.069-.268.344-.458a2.863,2.863,0,0,1,2.495-.275C267.456,78.027,267.613,78.18,267.582,78.273Z" transform="translate(-264.296 -77.734)"/><g transform="translate(7.46 0.397)"><path class="b" d="M283.322,79.362c-.127.164-.622-.006-1.219-.014-.6-.029-1.1.11-1.217-.061-.051-.083.028-.247.249-.4a1.765,1.765,0,0,1,1.963.06C283.309,79.114,283.378,79.282,283.322,79.362Z" transform="translate(-280.871 -78.616)"/></g></g><g transform="translate(0.477 3.16)"><path class="b" d="M254.526,67.978,254.5,68a3.684,3.684,0,0,0-1.37,2.383c0,.033-.009.065-.013.095-.183,1.336-.15,2.7-.347,4.03a6.055,6.055,0,0,1-1.645,3.612c-.406.378-1.123.638-1.457.2a1.144,1.144,0,0,1-.167-.613c-.25-3.226-1.131-6.089-1.125-9.463a2.843,2.843,0,0,1,1.18-2.315c.707-.506,1.569-1.031,2.354-.66s1.8,1.841,2.411,2.464" transform="translate(-248.377 -65.137)"/></g><g transform="translate(0 13.109)"><path class="h" d="M250.437,87.39c-.08-.035-3.219-.952-3.117,2.251s3.3,2.439,3.3,2.347S250.437,87.39,250.437,87.39Z" transform="translate(-247.318 -87.242)"/><g transform="translate(0.815 1.049)"><path class="j" d="M250.6,92.087c-.014-.009-.054.041-.148.087a.558.558,0,0,1-.417.022,1.383,1.383,0,0,1-.678-1.218,1.844,1.844,0,0,1,.131-.8.645.645,0,0,1,.406-.442.285.285,0,0,1,.334.142c.046.088.027.153.045.158s.067-.056.037-.188a.354.354,0,0,0-.132-.2.422.422,0,0,0-.311-.072.785.785,0,0,0-.567.515,1.9,1.9,0,0,0-.165.9,1.449,1.449,0,0,0,.858,1.357.6.6,0,0,0,.508-.1C250.6,92.165,250.61,92.093,250.6,92.087Z" transform="translate(-249.129 -89.572)"/></g></g><g transform="translate(3.735)"><path class="b" d="M255.783,61.9c-.789-1.281,1.372-3.122,2.953-3.62s3.663.272,5.236.794a8.72,8.72,0,0,0,3.027.745,7.052,7.052,0,0,0,2.03-.518,5.183,5.183,0,0,1,2.049-.4,1.932,1.932,0,0,1,1.686,1.069,1.21,1.21,0,0,1-.809,1.635,1.573,1.573,0,1,1,.419,2.915c.455-.345,1.154.225,1.1.794a1.657,1.657,0,0,1-1.1,1.212,5.993,5.993,0,0,1-4.276-.066c-1.383-.465-2.665-1.19-4.035-1.69s-3.666-1.4-5.042-.911c-1.013.357-1.718,1.577-2.29,1.308a1.958,1.958,0,0,1-1.014-1.44,5.672,5.672,0,0,1,.063-1.823" transform="translate(-255.615 -58.117)"/></g><g transform="translate(4.625 0.894)"><path class="d" d="M273.428,62.6c-.027-.016-.165.237-.509.611a4.421,4.421,0,0,1-1.78,1.146,4.058,4.058,0,0,1-3.054-.124,14.451,14.451,0,0,1-3.095-2.384,6.645,6.645,0,0,0-3.6-1.729,3.692,3.692,0,0,0-3.063,1.06,2.8,2.8,0,0,0-.726,2.071,2.172,2.172,0,0,0,.138.589c.058.126.094.188.1.184a5.238,5.238,0,0,1-.118-.779,2.756,2.756,0,0,1,.767-1.911,3.5,3.5,0,0,1,2.871-.923,6.481,6.481,0,0,1,3.424,1.681,13.965,13.965,0,0,0,3.18,2.409,4.355,4.355,0,0,0,5.046-1.207,3.017,3.017,0,0,0,.334-.5C273.409,62.675,273.437,62.609,273.428,62.6Z" transform="translate(-257.592 -60.104)"/></g><g transform="translate(1.287 4.78)"><path class="d" d="M251.194,77.075c.012.011.138-.088.259-.343a2.151,2.151,0,0,0,.16-1.161c-.071-1.032-.983-2.139-1.1-3.565a3.221,3.221,0,0,1,.355-1.912,2.446,2.446,0,0,1,1.191-1.028,2.087,2.087,0,0,1,1.069-.146c.257.041.4.1.408.076s-.114-.113-.382-.2a1.994,1.994,0,0,0-1.173.056,2.584,2.584,0,0,0-1.364,1.09,3.4,3.4,0,0,0-.419,2.09,5.825,5.825,0,0,0,.618,2.018,6.079,6.079,0,0,1,.575,1.547A2.473,2.473,0,0,1,251.194,77.075Z" transform="translate(-250.178 -68.738)"/></g></g><g transform="translate(34.068 121.005)"><path class="f" d="M276.6,384.965s9.753-47.844,9.761-48.8l-17.422-9.211L262.2,383.1Z" transform="translate(-262.195 -326.952)"/></g><g transform="translate(15.345 79.812)"><path class="f" d="M231.791,336.243l13.472-82.923V235.434l-19.511,1.394c-.232.7-5.152,99.525-5.152,99.525l1.9-.11h9.291" transform="translate(-220.6 -235.434)"/></g><g transform="translate(34.201 78.547)"><path class="f" d="M278.889,232.624l7.637,51.669-17.074-4.141-6.96-45.848Z" transform="translate(-262.492 -232.624)"/></g><g transform="translate(53.544 92.13)"><line class="m" x1="0.867" y1="7.033"/></g><g transform="translate(43.123 30.632)"><path class="k" d="M292.733,196.342s2.967-2.549,3.263-4.474S292.433,159,292.433,159l-1.966-25.577c0,.451.052-3.222-.541-3.444-1.818-.678-5.5-1.912-5.5-1.912l-2.113-1.9s3.8,16.239,4.537,20.68Z" transform="translate(-282.312 -126.171)"/></g><g transform="translate(11.178 28.878)"><path class="k" d="M229.314,122.274l-3.2,2.126-11.986,4.716,5.322,20.079-.712,11.644-.683,7.4s-3.567,18.332-6.718,29.472c0,0,3.514,6.662,6.4,7.592l1.2.714,4.284-31.377,3.679-4.965q.529-.714.993-1.471c.9-1.472,2.963-4.817,4.6-7.4,2.168-3.407,4.955-11.15,4.129-14.453S229.314,122.274,229.314,122.274Z" transform="translate(-211.341 -122.274)"/></g><g transform="translate(21.007 89.85)"><path class="g" d="M233.179,265.982a27.388,27.388,0,0,0,6.858-8.247" transform="translate(-233.179 -257.735)"/></g><g transform="translate(22.776 27.667)"><path class="i" d="M243.483,120.8l2.885,18.51a26.671,26.671,0,0,1-1.168,6.979l-5.149,16.641S236,172,237.4,173.164s12.289,0,12.289,0l14.736-2.138a1.294,1.294,0,0,0,1.1-1.4l-2.189-22.605c-.736-1.561-1.039-4.754-1.348-5.891l-4.537-18.574-.928-.12-2.017,1.385-1.06.085-8.92-4.314Z" transform="translate(-237.108 -119.585)"/></g><g transform="translate(22.773 49.113)"><path class="e" d="M240.792,186.718c2.381-7.421,5.464-19.487,5.464-19.487a36.264,36.264,0,0,1-2.437,18.7c-1.915,4.847-4.233,8.511-5.829,13.472l-.048.206s-.9.046-.838-1.28a37.639,37.639,0,0,1,2.21-7.468C240.188,188.67,240.792,186.718,240.792,186.718Z" transform="translate(-237.101 -167.231)"/></g><g transform="translate(38.088 33.476)"><path class="c" d="M273.729,132.489h-2l-.6,2.74,1.752,2.122,1.764-.176.575-1.967-.473-1.1Z" transform="translate(-271.127 -132.489)"/></g><g transform="translate(49.973 24.612)"><path class="k" d="M299.928,137.668c.632.127,7.592,4.808,10.122,4.3s4.576-2.889,4.845-3.209c1.435-1.7.536-5.233.123-6.566a4.485,4.485,0,0,0-.412-.933L303.864,112.8l-6.333,3.848,6.573,12Z" transform="translate(-297.531 -112.797)"/></g><g transform="translate(0 35.72)"><path class="k" d="M187.056,173.55a8.251,8.251,0,0,1,.39-6.765c1.459-2.885,3.768-7.547,4.255-9.075.722-2.271,7.453-19.714,8.775-20.234l5.867,19.751-6.8,14.317,7.967,15.008-6.656,7.155s-12.564-17.518-13.6-19.686C187.189,173.866,187.12,173.709,187.056,173.55Z" transform="translate(-186.508 -137.475)"/></g><g transform="translate(15.602 85.608)"><path class="h" d="M226.872,259.209a22.129,22.129,0,0,0,3.326-3.927.141.141,0,0,1,0-.12.2.2,0,0,1,.135-.082,19.212,19.212,0,0,0,1.045-1.832c-1.113-.723-2.567-1.818-.985-2.043,1.946-.277,3.337-1.223,3.535-1.741s-.45-.983-.963-.652a7.16,7.16,0,0,1-1.873.646,4.682,4.682,0,0,1-1.587.1c-.618-.068-3.152-1.167-3.594-1.249L221.17,253.3S224.806,257.155,226.872,259.209Z" transform="translate(-221.17 -248.31)"/></g><g transform="translate(50.888 35.425)"><path class="b" d="M301,151.428a2.75,2.75,0,0,1-.165-.556c-.093-.361-.21-.887-.34-1.541a49.643,49.643,0,0,1-.925-10.357c.013-.666.035-1.2.063-1.577a2.778,2.778,0,0,1,.064-.576,2.75,2.75,0,0,1,.027.579c0,.419.007.947.012,1.574.016,1.328.079,3.163.258,5.182s.444,3.834.663,5.145c.106.619.2,1.139.267,1.552A2.773,2.773,0,0,1,301,151.428Z" transform="translate(-299.563 -136.821)"/></g><g transform="translate(54.223 37.036)"><path class="b" d="M310.6,154.464c0,.007-.054-.005-.151-.037a2.387,2.387,0,0,1-.4-.19,3.476,3.476,0,0,1-1.144-1.16,7.359,7.359,0,0,1-.817-2.269,27.594,27.594,0,0,1-.538-2.893c-.189-2.081-.347-3.949-.45-5.31-.044-.644-.08-1.183-.109-1.61a2.858,2.858,0,0,1-.008-.594,2.937,2.937,0,0,1,.1.586l.184,1.6c.145,1.353.33,3.235.517,5.3.128,1.024.322,2,.516,2.871a7.575,7.575,0,0,0,.749,2.232,3.654,3.654,0,0,0,1.051,1.169C310.41,154.371,310.611,154.443,310.6,154.464Z" transform="translate(-306.973 -140.4)"/></g><g class="n" transform="translate(52.978 37.073)"><path d="M305.437,140.481a39.81,39.81,0,0,0-1.136,6.325,9.651,9.651,0,0,0,.2,3.819,3.894,3.894,0,0,0,2.533,2.682q-.847-6.263-1.5-12.55" transform="translate(-304.207 -140.481)"/></g><g class="n" transform="translate(17.352 53.225)"><path d="M225.058,200.682s2.108,4.318,3.274,6.578c2.431-10.042-.653-20.611.352-30.894l-1.757,3.542-.5,8.2-.378,4.808A63.487,63.487,0,0,1,225.058,200.682Z" transform="translate(-225.058 -176.366)"/></g><g transform="translate(19.051 35.9)"><path class="b" d="M228.833,137.877a3.6,3.6,0,0,1,.357.561c.111.183.24.411.374.685s.3.577.45.931a21.222,21.222,0,0,1,.948,2.52,21.942,21.942,0,0,1,.957,6.51,21.31,21.31,0,0,1-.183,2.687c-.04.381-.111.721-.163,1.021s-.108.556-.161.763a3.552,3.552,0,0,1-.181.64,3.7,3.7,0,0,1,.092-.658c.039-.21.084-.466.121-.767s.1-.639.127-1.019a23.994,23.994,0,0,0,.132-2.666,23.446,23.446,0,0,0-.948-6.448,23.875,23.875,0,0,0-.893-2.516c-.137-.355-.291-.663-.415-.939s-.239-.51-.337-.7A3.611,3.611,0,0,1,228.833,137.877Z" transform="translate(-228.832 -137.876)"/></g><g transform="translate(4.885 65.608)"><path class="b" d="M205.435,208.175c-.033.02-.33-.476-.917-1.194a11.614,11.614,0,0,0-2.662-2.41,2.711,2.711,0,0,0-1.835-.442,3.631,3.631,0,0,0-1.455.618c-.759.524-1.177.933-1.2.9-.011-.011.083-.122.268-.307a7.46,7.46,0,0,1,.842-.728,3.613,3.613,0,0,1,1.516-.7,2.87,2.87,0,0,1,1.989.454,10.408,10.408,0,0,1,2.671,2.51,8.838,8.838,0,0,1,.613.927A1.257,1.257,0,0,1,205.435,208.175Z" transform="translate(-197.361 -203.878)"/></g><g transform="translate(11.483 65.173)"><path class="b" d="M212.023,202.912a9.089,9.089,0,0,1,1.483,4.568c-.069.01-.246-1.055-.658-2.312S211.962,202.944,212.023,202.912Z" transform="translate(-212.018 -202.911)"/></g><g transform="translate(14.229 77.264)"><path class="b" d="M221.1,229.773a3.813,3.813,0,0,1,.339.576l.855,1.616c.715,1.373,1.694,3.286,2.778,5.433l.037.074-.057.06-.448.467c-1.768,1.842-3.378,3.5-4.552,4.693l-1.4,1.4a4.3,4.3,0,0,1-.536.492,4.305,4.305,0,0,1,.47-.555l1.345-1.455c1.143-1.222,2.734-2.9,4.5-4.74l.449-.467-.02.134c-1.08-2.149-2.034-4.074-2.712-5.466l-.79-1.649A3.848,3.848,0,0,1,221.1,229.773Z" transform="translate(-218.12 -229.773)"/></g><g transform="translate(25.968 31.446)"><path class="b" d="M244.212,164.739a2.359,2.359,0,0,1-.012-.388q.005-.413.014-1.112c.023-.988.054-2.38.093-4.09.05-1.727.088-3.782.183-6.067a32.944,32.944,0,0,1,1.008-7.37,16.975,16.975,0,0,1,1.421-3.56l.085.169a2.433,2.433,0,0,1-1.438-.816,3.5,3.5,0,0,1-.751-1.4,10.987,10.987,0,0,1-.235-2.915c0-1.836,0-3.47,0-4.842.008-1.348.015-2.434.019-3.208.007-.36.012-.646.016-.862a1.62,1.62,0,0,1,.019-.3,1.672,1.672,0,0,1,.022.3c.006.217.014.5.023.862.012.774.029,1.86.049,3.208.014,1.371.03,3.006.048,4.842a10.955,10.955,0,0,0,.244,2.855,3.289,3.289,0,0,0,.708,1.308,2.21,2.21,0,0,0,1.3.739l.163.024-.079.145a16.9,16.9,0,0,0-1.4,3.513,33.511,33.511,0,0,0-1.018,7.317c-.106,2.278-.162,4.336-.233,6.062-.07,1.709-.126,3.1-.167,4.087q-.036.7-.058,1.111A2.373,2.373,0,0,1,244.212,164.739Z" transform="translate(-244.2 -127.98)"/></g><g transform="translate(45.269 32.816)"><path class="b" d="M287.082,131.024a1.271,1.271,0,0,1,.1.247l.261.725.929,2.7,1.368,4.064c.248.777.554,1.568.785,2.448a3.184,3.184,0,0,1,.057,1.4,1.866,1.866,0,0,1-.8,1.225l.036-.164c.38.564.781,1.159,1.155,1.788a10.788,10.788,0,0,1,1.26,2.915,10.359,10.359,0,0,1,.2,2.951c-.11,1.872-.234,3.55-.33,4.963-.1,1.391-.187,2.526-.248,3.343-.032.375-.059.677-.079.908a1.621,1.621,0,0,1-.044.316,1.635,1.635,0,0,1,0-.319c.009-.232.021-.534.035-.911.042-.817.1-1.954.173-3.347.08-1.421.175-3.1.28-4.962a10.273,10.273,0,0,0-.211-2.887,10.684,10.684,0,0,0-1.239-2.849c-.37-.621-.767-1.214-1.146-1.778l-.068-.1.1-.063a1.641,1.641,0,0,0,.7-1.075,2.975,2.975,0,0,0-.051-1.3c-.217-.848-.523-1.66-.763-2.434l-1.32-4.081c-.36-1.136-.651-2.058-.862-2.722l-.222-.738A1.243,1.243,0,0,1,287.082,131.024Z" transform="translate(-287.081 -131.024)"/></g><g transform="translate(21.162 88.737)"><path class="d" d="M240.111,255.262a1.487,1.487,0,0,1-.206.368c-.144.229-.362.553-.637.95-.55.793-1.338,1.87-2.249,3.028s-1.773,2.178-2.414,2.9c-.32.361-.585.649-.772.843s-.3.3-.309.286a11.287,11.287,0,0,1,.955-1.237c.608-.748,1.447-1.782,2.356-2.937s1.715-2.214,2.3-2.981A11.242,11.242,0,0,1,240.111,255.262Z" transform="translate(-233.522 -255.262)"/></g><g transform="translate(21.603 82.928)"><path class="g" d="M247.7,242.356s0,.086-.019.253-.045.422-.079.741c-.075.66-.184,1.618-.325,2.847-.292,2.472-.731,6.047-1.305,10.46-1.139,8.827-2.869,21-4.727,34.451-.925,6.728-1.776,13.141-2.5,18.981-.187,1.46-.336,2.886-.543,4.268s-.416,2.715-.615,4.008c-.392,2.586-.757,5-1.091,7.2-.661,4.4-1.183,7.963-1.525,10.428-.171,1.232-.3,2.19-.373,2.84-.038.325-.063.573-.073.74a1.172,1.172,0,0,0,0,.188c.005.054.031,0,.029.007a.056.056,0,0,1-.006.015c-.006.019-.036,0-.034-.02a.933.933,0,0,1-.009-.191c0-.168.02-.418.05-.745.06-.653.172-1.613.329-2.847.315-2.469.812-6.036,1.452-10.44.325-2.2.681-4.613,1.062-7.2l.6-4.01c.2-1.375.348-2.805.532-4.263.714-5.841,1.558-12.257,2.484-18.986,1.858-13.452,3.613-25.62,4.795-34.441.582-4.4,1.052-7.972,1.379-10.449.159-1.227.283-2.183.368-2.842.044-.318.077-.563.1-.738S247.7,242.356,247.7,242.356Z" transform="translate(-234.503 -242.356)"/></g><g transform="translate(45.073 84.275)"><path class="g" d="M286.645,339.649s.007-.084.032-.246.067-.409.117-.717c.109-.639.267-1.565.47-2.752.42-2.4,1.025-5.851,1.773-10.114l5.936-33.355a7.772,7.772,0,0,0,.144-2.417c-.1-.8-.236-1.607-.354-2.4l-.727-4.7c-.485-3.081-.964-6.051-1.436-8.878-.94-5.654-1.847-10.736-2.658-14.994s-1.525-7.692-2.066-10.055c-.256-1.185-.488-2.1-.632-2.718l-.164-.708c-.036-.16-.048-.243-.048-.243s.028.079.071.237l.186.7c.158.618.405,1.527.675,2.709.57,2.357,1.307,5.789,2.141,10.044s1.757,9.336,2.708,14.99c.478,2.826.961,5.8,1.45,8.878q.36,2.312.731,4.7c.118.8.25,1.592.356,2.413a8,8,0,0,1-.147,2.487l-6,33.338c-.778,4.258-1.408,7.706-1.846,10.1l-.514,2.744-.139.713C286.668,339.568,286.645,339.649,286.645,339.649Z" transform="translate(-286.645 -245.35)"/></g><g transform="translate(36.218 97.113)"><path class="g" d="M270.762,273.87c.064.01-.732,5.367-1.777,11.964s-1.945,11.939-2.009,11.929.732-5.366,1.778-11.965S270.7,273.86,270.762,273.87Z" transform="translate(-266.972 -273.87)"/></g><g transform="translate(15.369 180.455)"><path class="d" d="M231.981,459.047a1.634,1.634,0,0,1-.441.077c-.285.035-.7.074-1.211.113-1.024.08-2.441.156-4.008.182s-2.986,0-4.012-.05c-.513-.023-.927-.048-1.213-.073a1.643,1.643,0,0,1-.443-.062,12.89,12.89,0,0,1,1.661-.031c1.025,0,2.441.006,4-.019s2.978-.075,4-.113A12.87,12.87,0,0,1,231.981,459.047Z" transform="translate(-220.652 -459.03)"/></g><g transform="translate(34.068 177.144)"><path class="d" d="M276.6,453.548a2.713,2.713,0,0,1-.572-.029l-1.548-.164c-1.306-.149-3.108-.371-5.1-.629s-3.789-.505-5.09-.694l-1.539-.234a3.047,3.047,0,0,1-.561-.114,2.351,2.351,0,0,1,.572.023c.366.032.9.087,1.549.16,1.307.147,3.109.367,5.1.626s3.788.506,5.089.7l1.539.238A2.689,2.689,0,0,1,276.6,453.548Z" transform="translate(-262.195 -451.674)"/></g><g transform="translate(29.472 31.867)"><path class="b" d="M251.985,128.917a2.924,2.924,0,0,1,.5.321l1.324.918c1.122.768,2.693,1.8,4.493,2.825.675.387,1.333.747,1.944,1.07l-.16.072c.377-1.492.71-2.774.956-3.682l.3-1.06a1.574,1.574,0,0,1,.132-.375,1.6,1.6,0,0,1-.059.393c-.063.292-.14.65-.233,1.076-.207.917-.511,2.207-.875,3.7l-.033.138-.127-.066c-.617-.318-1.279-.677-1.957-1.065a48.671,48.671,0,0,1-4.473-2.894c-.551-.4-.986-.741-1.283-.98A2.862,2.862,0,0,1,251.985,128.917Z" transform="translate(-251.985 -128.916)"/></g><g transform="translate(40.01 31.92)"><path class="b" d="M279.733,132.3a16.109,16.109,0,0,1-1.989,1.344l-.1.063-.054-.106-.609-1.183c-.465-.918-.875-1.755-1.162-2.367a5.092,5.092,0,0,1-.42-1.011,5.1,5.1,0,0,1,.568.936c.324.592.758,1.417,1.223,2.336l.595,1.19-.154-.044A15.951,15.951,0,0,1,279.733,132.3Z" transform="translate(-275.396 -129.034)"/></g><g transform="translate(38.571 34.742)"><path class="b" d="M275.027,135.3a2.679,2.679,0,0,1-.395.31c-.251.182-.6.429-.992.7s-.748.505-1.008.673a2.621,2.621,0,0,1-.432.256,2.713,2.713,0,0,1,.4-.311c.251-.182.6-.428.992-.7s.746-.5,1.007-.673A2.655,2.655,0,0,1,275.027,135.3Z" transform="translate(-272.199 -135.303)"/></g><g transform="translate(38.362 33.951)"><path class="b" d="M273.421,135.267a15.517,15.517,0,0,1-1.683-1.722,15.41,15.41,0,0,1,1.683,1.722Z" transform="translate(-271.736 -133.545)"/></g><g transform="translate(31.531 75.603)"><path class="b" d="M256.6,226.083a8.675,8.675,0,0,0,3.028,5.887,2.819,2.819,0,0,1-.824-.589,7,7,0,0,1-2.2-4.286A2.856,2.856,0,0,1,256.6,226.083Z" transform="translate(-256.559 -226.083)"/></g><g transform="translate(30.228 79.672)"><path class="b" d="M257.621,236.983a6.306,6.306,0,0,1-3.955-1.858c.045-.055.818.562,1.912,1.07S257.635,236.914,257.621,236.983Z" transform="translate(-253.664 -235.122)"/></g><g transform="translate(42.979 67.126)"><path class="b" d="M282,207.25a2.113,2.113,0,0,1,.166.483c.093.314.214.773.352,1.343.276,1.139.6,2.728.868,4.5s.409,3.387.475,4.557c.033.585.051,1.06.053,1.387a2.143,2.143,0,0,1-.019.51,2.143,2.143,0,0,1-.072-.505q-.052-.564-.127-1.38c-.108-1.164-.281-2.77-.542-4.535s-.564-3.351-.8-4.5q-.164-.8-.278-1.358A2.179,2.179,0,0,1,282,207.25Z" transform="translate(-281.993 -207.25)"/></g><g transform="translate(38.69 38.798)"><path class="e" d="M273.759,144.313c-.585,4.676-1.019,14.864-1.18,19.574-.135,3.944-.121,7.892-.107,11.838a9.112,9.112,0,0,0,.541,3.745c.941,2.082,3.242,3.128,5.355,4Z" transform="translate(-272.463 -144.313)"/></g><g transform="translate(39.84 38.154)"><g transform="translate(0 0.007)"><path class="c" d="M280.423,182.015l2.417-5.926L276.784,142.9l-1.764.176s.246,34.5.168,34.808Z" transform="translate(-275.02 -142.899)"/></g><g transform="translate(0.012)"><path class="c" d="M276.733,142.893a4.786,4.786,0,0,1-1.687.123,19.355,19.355,0,0,1,1.687-.123Z" transform="translate(-275.046 -142.884)"/></g></g></g></svg>