<svg xmlns="http://www.w3.org/2000/svg" width="24.824" height="24.825" viewBox="0 0 24.824 24.825"><defs><style>.a{fill:#6a80f7;}</style></defs><path class="a" d="M21.722,24.825H3.1a3.107,3.107,0,0,1-3.1-3.1V6.206A3.106,3.106,0,0,1,3.1,3.1H4.137V1.035A1.036,1.036,0,0,1,5.172,0H6.206A1.036,1.036,0,0,1,7.241,1.035V3.1H17.585V1.035A1.035,1.035,0,0,1,18.618,0h1.035a1.035,1.035,0,0,1,1.034,1.035V3.1h1.035a3.106,3.106,0,0,1,3.1,3.1V21.722A3.106,3.106,0,0,1,21.722,24.825ZM12.644,9.393a4.866,4.866,0,1,0,4.866,4.866A4.872,4.872,0,0,0,12.644,9.393Zm0,7.487a.749.749,0,0,1-.749-.749V15.008H10.772a.749.749,0,0,1,0-1.5H11.9V12.387a.749.749,0,0,1,1.5,0v1.124h1.124a.749.749,0,1,1,0,1.5H13.392v1.124A.749.749,0,0,1,12.644,16.88Z" transform="translate(0 0)"/></svg>