<svg xmlns="http://www.w3.org/2000/svg" viewBox="0 0 18.418 15.349"><defs></defs><path class="a" d="M2583.249,15.349A2.249,2.249,0,0,1,2581,13.1V5.317a2.25,2.25,0,0,1,2.248-2.247h.83a.206.206,0,0,0,.2-.156l.4-1.6A1.739,1.739,0,0,1,2586.364,0h7.691a1.739,1.739,0,0,1,1.688,1.317l.4,1.6a.207.207,0,0,0,.2.155h.831a2.249,2.249,0,0,1,2.247,2.247V13.1a2.248,2.248,0,0,1-2.247,2.246Zm2.356-6.907a4.6,4.6,0,1,0,4.605-4.6A4.609,4.609,0,0,0,2585.6,8.442Zm1.535,0a3.07,3.07,0,1,1,3.07,3.07A3.073,3.073,0,0,1,2587.14,8.442Z" transform="translate(-2581)"/></svg>