<svg xmlns="http://www.w3.org/2000/svg" viewBox="0 0 15.997 15.997"><defs></defs><g transform="translate(-5.004 -2.461)"><path class="a" d="M136.688,102.433A6.93,6.93,0,0,0,138,98.383c0-4.147-3.654-7.383-8-7.383s-8,3.238-8,7.383,3.654,7.383,8,7.383a8.605,8.605,0,0,0,3.378-.689l3.644,1.853a.615.615,0,0,0,.865-.735ZM127.5,99a.615.615,0,1,1,.615-.615A.615.615,0,0,1,127.5,99Zm2.461,0a.615.615,0,1,1,.615-.615A.615.615,0,0,1,129.957,99Zm2.461,0a.615.615,0,1,1,.615-.615A.615.615,0,0,1,132.418,99Z" transform="translate(-116.996 -88.539)"/></g></svg>