<svg xmlns="http://www.w3.org/2000/svg" viewBox="0 0 158.258 155.561"><defs><style>.a{fill:#e5f4ff;stroke:rgba(0,0,0,0);stroke-miterlimit:10;}.b{fill:#465d84;}.c{fill:#263238;}.d,.f{fill:#fff;}.e{fill:#f5fbff;}.f{opacity:0.2;}.g{fill:#5ab7f6;}.h{opacity:0.1;}.i{fill:#f89d1f;}</style></defs><path class="a" d="M123.342,107.924H14.419a58.242,58.242,0,0,1-8.5-11.85A48.452,48.452,0,0,1,.657,81.233l-.016-.014L.623,81.2a36.084,36.084,0,0,1-.531-4.112l0-.03c0-.018,0-.033-.005-.049h0a36.027,36.027,0,0,1,.472-8.8L.551,68.2l-.018-.015a23.059,23.059,0,0,1,3.073-7.976,18.288,18.288,0,0,1,13.657-8.4,21.627,21.627,0,0,0,8.332-3.2A51.929,51.929,0,0,0,39.572,33.032l0-.018v0l0-.009c.839-1.377,1.6-2.613,2.276-3.675l.076-.127.011-.019.01-.016.106-.177c.369-.589.77-1.2,1.19-1.823l.016-.024.029-.044h0A61.852,61.852,0,0,1,151.9,38.945l0,0c.02.051.04.1.06.154l.051.133c.069.177.141.362.219.566l0,.01v0c.074.194.151.394.224.592l.02.052,0,0,.024.063h0A61.81,61.81,0,0,1,156.1,56.9l0,0v.018c0,.025,0,.047,0,.071a40.958,40.958,0,0,1-1.652,15.449,44.935,44.935,0,0,1-2.845,7.059,52.275,52.275,0,0,1-3.986,6.609,69.478,69.478,0,0,1-10.782,11.844,101.934,101.934,0,0,1-13.506,9.976Z" transform="translate(1.502 47.123)"/><g transform="translate(25.113)"><g transform="translate(0)"><path class="b" d="M13.961,0h41.2A13.962,13.962,0,0,1,69.124,13.962V132.025a13.961,13.961,0,0,1-13.961,13.961h-41.2A13.962,13.962,0,0,1,0,132.025V13.961A13.961,13.961,0,0,1,13.961,0Z" transform="matrix(-0.986, 0.165, -0.165, -0.986, 92.198, 144.19)"/><rect class="c" width="3.564" height="13.548" rx="1.782" transform="translate(76.611 37.466) rotate(170.531)"/><rect class="c" width="3.564" height="13.548" rx="1.782" transform="translate(79.558 55.135) rotate(170.531)"/><rect class="c" width="69.124" height="145.987" rx="13.962" transform="matrix(-0.986, 0.165, -0.165, -0.986, 93.349, 143.998)"/><path class="d" d="M125.924,263.627l64-10.675a1.277,1.277,0,0,0,1.049-1.47L170.271,127.322a1.277,1.277,0,0,0-1.47-1.049l-64,10.674a1.277,1.277,0,0,0-1.05,1.47l20.707,124.16A1.277,1.277,0,0,0,125.924,263.627Z" transform="translate(-100.093 -117.148)"/><path class="e" d="M203.356,129.1l2.016,129.868L191.995,261.2l-2.016-129.868Z" transform="translate(-143.097 -118.567)"/><rect class="f" width="15.019" height="1.726" rx="0.863" transform="translate(28.368 10.113) rotate(-9.468)"/></g><g transform="translate(15.783 44.391)"><g transform="translate(10.546 12.808)"><path class="g" d="M155.582,222.17h67.246a6.616,6.616,0,0,1,6.6,6.6v32.982a6.616,6.616,0,0,1-6.6,6.6H199.56L189.205,278.7,178.85,268.345H155.582a6.616,6.616,0,0,1-6.6-6.6V228.766A6.615,6.615,0,0,1,155.582,222.17Z" transform="translate(-148.986 -222.17)"/></g><g transform="translate(21.454 20.79)"><path class="d" d="M170.742,241.539v23.312a3.421,3.421,0,0,0,3.372,3.449h51.876a3.421,3.421,0,0,0,3.372-3.449V241.539a3.434,3.434,0,0,0-.247-1.288,3.381,3.381,0,0,0-3.125-2.161H174.114a3.385,3.385,0,0,0-3.125,2.159A3.456,3.456,0,0,0,170.742,241.539Z" transform="translate(-170.742 -238.09)"/><path class="h" d="M171.235,240.249l25.08,10.924a9.965,9.965,0,0,0,7.97,0l25.077-10.921a3.381,3.381,0,0,0-3.125-2.161H174.36A3.385,3.385,0,0,0,171.235,240.249Z" transform="translate(-170.988 -238.09)"/></g><g transform="translate(0 0)"><circle class="i" cx="12.164" cy="12.164" r="12.164" transform="translate(0 17.203) rotate(-45)"/><g transform="translate(13.056 9.785)"><path class="d" d="M160.483,230.977h-2.832V220.3a9.764,9.764,0,0,1-3.659,2.146v-2.57A8.188,8.188,0,0,0,156.4,218.5a5.227,5.227,0,0,0,1.783-2.363h2.3Z" transform="translate(-153.992 -216.141)"/></g></g></g></g><g transform="translate(0 154.97)"><path class="c" d="M192.719,465.34c0,.052-33.084.094-73.885.094s-73.893-.042-73.893-.094,33.077-.094,73.893-.094S192.719,465.288,192.719,465.34Z" transform="translate(-44.941 -465.246)"/></g></svg>