<svg xmlns="http://www.w3.org/2000/svg" width="176.884" height="140.617" viewBox="0 0 176.884 140.617"><defs><style>.a,.e{fill:#e5f4ff;}.a{stroke:rgba(0,0,0,0);stroke-miterlimit:10;}.b{fill:#ffbe9d;}.c{fill:#263238;}.d{fill:#f89d1f;}.f{fill:#eb996e;}.g{opacity:0.2;}.h{fill:#455a64;}.i{fill:#465d84;}.j{fill:#5ab7f6;}.k{fill:#2e353a;}</style></defs><path class="a" d="M105.333,110.208H18.057A61.752,61.752,0,0,1,4.347,89.4l0,0c-.021-.052-.041-.1-.061-.157l0-.007-.047-.123c-.073-.185-.146-.375-.218-.565L4,88.511l0-.005c-.07-.185-.143-.376-.213-.564l-.021-.056-.024-.063A61.781,61.781,0,0,1,.15,71.478l0,0v-.015c0-.025,0-.048-.005-.073a40.875,40.875,0,0,1,1.583-15.2A44.647,44.647,0,0,1,4.478,49.23a51.708,51.708,0,0,1,3.864-6.521A68.33,68.33,0,0,1,18.819,31a99.893,99.893,0,0,1,13.169-9.906,134.615,134.615,0,0,1,14.69-8.057A157.425,157.425,0,0,1,61.719,6.866,128.281,128.281,0,0,1,88.171.368,55.38,55.38,0,0,1,94.546,0a61.438,61.438,0,0,1,20.521,3.655,75.107,75.107,0,0,1,17.162,8.76,58.085,58.085,0,0,1,17.828,19.959,48.347,48.347,0,0,1,5.252,14.814l.034.03a36.018,36.018,0,0,1,.53,4.1l0,.025v.008c0,.015,0,.03,0,.046h0a35.961,35.961,0,0,1-.471,8.788l.025.022a23.012,23.012,0,0,1-3.068,7.961,18.252,18.252,0,0,1-13.632,8.382,21.593,21.593,0,0,0-8.316,3.193A51.837,51.837,0,0,0,116.467,95.3l0,.016,0,.013c-.84,1.379-1.6,2.613-2.272,3.668l-.1.162-.106.177c-.373.594-.773,1.207-1.188,1.82l-.022.034-.022.034h0a61.968,61.968,0,0,1-7.431,8.984Z" transform="translate(18.616 29.91)"/><g transform="translate(0 0)"><path class="b" d="M2223.305,864.793s.085,5.447-3.574,3.575-3.319-12.171-3.319-12.171l6.894,2.3Z" transform="translate(-2083.616 -737.314)"/><g transform="translate(136.566 40.429)"><path class="c" d="M178.989,167.344c4.424,4.336.173,11.074,3.009,15.427,1.718,2.639,5.4,3.914,6.191,6.962.392,1.509-.051,3.089-.283,4.631s-.176,3.313.946,4.4a16.3,16.3,0,0,0,1.793,1.219c1.73,1.271,2.316,3.643,2.122,5.781a34.953,34.953,0,0,1-1.611,6.224,27.45,27.45,0,0,0,1.037,17.784,6.706,6.706,0,0,1-5.289-2.536q.08,2.15.16,4.3a6.451,6.451,0,0,1-5.021-2.331,15.4,15.4,0,0,1-2.725-5,53.194,53.194,0,0,1-2.883-25.335" transform="translate(-175.993 -167.344)"/></g><g transform="translate(96.786 28.047)"><path class="c" d="M253.257,144.481a18.421,18.421,0,0,0-2.973,12.78c.354,2.518,1.224,5.136.358,7.527-.745,2.057-2.725,3.739-2.616,5.924.124,2.491,2.933,4.176,3.187,6.658.351,3.44-4.268,5.75-4.215,9.207.028,1.781,1.3,3.254,2.185,4.8s1.281,3.781-.105,4.9L265.13,195.1l-2.86-50.254Z" transform="translate(-246.997 -144.481)"/></g><g transform="translate(53.168 27.057)"><g transform="translate(0 27.632)"><path class="b" d="M329.052,209.842l.176,0-.709-2.367-2.266-9.044a1.661,1.661,0,0,1,1.064-1.971l1.631-.055,5.586-2.613a1.741,1.741,0,0,1,2.354,1.351c.2,1.662,1.334,6.128,2.538,4.563.028-.036.058-.067.087-.1,1.691-2.328,3.8-3.584,4.664-3.549a.973.973,0,0,1,.592,1.67,1.043,1.043,0,0,1-.319.276c-.056.03-.124.085-.183.123a14.441,14.441,0,0,0-2.01,2.206,7.658,7.658,0,0,0-1.231,2.354c-.3.939-.52,1.761-.687,2.458l.434,4.617" transform="translate(-326.2 -193.674)"/></g><g transform="translate(1.946 39.618)"><g transform="translate(0 2.242)"><path class="d" d="M299.663,219.944l2.827,25.094,14.109-14.06s7.551,15.7,7.656,16.34c.07.429-7.919,8.323-13.855,12.882-3.214,2.469-7.55,6.284-11.552,5.642-6.675-1.07-10.637-5.479-11.218-12.215l-2.556-33.3Z" transform="translate(-285.075 -219.944)"/></g><g transform="translate(19.966 0.735)"><path class="d" d="M243.493,241.966l10.345-6.856c-2.83-15.9-25.8-17.5-25.8-17.5l-17.493-.31s-12.965-1.763-20.983,7.248c-8.3,9.326-14.544,16.667-14.544,16.667l11.354,12.426,11.13-8.736a15.214,15.214,0,0,0-2.733,8.4c-.008,5.178,3.858,10.129,3.858,10.129l.969,8.845-4.24,17.142,49.555.132a90.428,90.428,0,0,1-8.8-17.907l4.63-16.673Z" transform="translate(-175.014 -217.162)"/></g><g transform="translate(100.675 0) rotate(65)"><path class="d" d="M4.654,33.782l25.1-13.28,9.082,24.809,11.079-5.269L42.078,8.462A10.966,10.966,0,0,0,27.8.65q-.306.113-.609.244L0,12.667Z" transform="translate(0 0)"/></g><g transform="translate(70.986 25.397)"><g transform="translate(0)"><path class="e" d="M219.257,262.725a5.868,5.868,0,0,1,1.6.477,3.634,3.634,0,0,1,0,6.448,5.847,5.847,0,0,1-1.6.477,1.227,1.227,0,0,0,.462.024,3.457,3.457,0,0,0,1.225-.322,3.69,3.69,0,0,0,1.449-1.205,3.771,3.771,0,0,0,0-4.4,3.693,3.693,0,0,0-1.449-1.2,3.444,3.444,0,0,0-1.225-.322A1.237,1.237,0,0,0,219.257,262.725Z" transform="translate(-219.257 -262.698)"/></g></g><g transform="translate(46.044 31.65)"><g transform="translate(0)"><path class="e" d="M266.229,276.644A5.832,5.832,0,0,1,265.26,278a3.634,3.634,0,0,1-6.1-2.091,5.833,5.833,0,0,1,.067-1.666,1.218,1.218,0,0,0-.172.429,3.444,3.444,0,0,0-.092,1.262,3.691,3.691,0,0,0,.67,1.761,3.769,3.769,0,0,0,4.158,1.425,3.7,3.7,0,0,0,1.61-.98,3.452,3.452,0,0,0,.7-1.054A1.227,1.227,0,0,0,266.229,276.644Z" transform="translate(-258.942 -274.244)"/></g></g><g transform="translate(59.896 56.455)"><g transform="translate(0)"><path class="e" d="M241.666,325.893a5.867,5.867,0,0,1-1.555.6,3.634,3.634,0,0,1-3.954-5.094,5.864,5.864,0,0,1,.97-1.356,1.223,1.223,0,0,0-.379.264,3.447,3.447,0,0,0-.77,1.005,3.69,3.69,0,0,0-.406,1.84,3.769,3.769,0,0,0,2.7,3.472,3.7,3.7,0,0,0,1.883.063,3.444,3.444,0,0,0,1.164-.5C241.56,326.023,241.676,325.905,241.666,325.893Z" transform="translate(-235.57 -320.045)"/></g></g><g transform="translate(7.822 13.011)"><g transform="translate(0)"><path class="e" d="M337.815,245.678a5.826,5.826,0,0,1-1.554.6,3.634,3.634,0,0,1-3.954-5.093,5.839,5.839,0,0,1,.969-1.357,1.21,1.21,0,0,0-.38.265,3.458,3.458,0,0,0-.77,1.005,3.694,3.694,0,0,0-.406,1.84,3.77,3.77,0,0,0,2.7,3.473,3.7,3.7,0,0,0,1.884.063,3.443,3.443,0,0,0,1.164-.5C337.709,245.808,337.826,245.69,337.815,245.678Z" transform="translate(-331.719 -239.83)"/></g></g><g transform="translate(9.204 40.6)"><g transform="translate(0)"><path class="e" d="M326.676,294.361a5.848,5.848,0,0,1,.583-1.562,3.634,3.634,0,0,1,6.434.432,5.86,5.86,0,0,1,.369,1.626,1.238,1.238,0,0,0,.054-.459,3.445,3.445,0,0,0-.239-1.243,3.689,3.689,0,0,0-1.1-1.527,3.77,3.77,0,0,0-4.386-.294,3.69,3.69,0,0,0-1.3,1.365,3.455,3.455,0,0,0-.4,1.2A1.209,1.209,0,0,0,326.676,294.361Z" transform="translate(-326.661 -290.769)"/></g></g><g transform="translate(40.549 8.455)"><path class="e" d="M276.659,235.314a5.848,5.848,0,0,1-1.247,1.107,3.634,3.634,0,0,1-5.482-3.394,5.876,5.876,0,0,1,.435-1.61,1.234,1.234,0,0,0-.263.381,3.457,3.457,0,0,0-.37,1.21,3.693,3.693,0,0,0,.262,1.866,3.77,3.77,0,0,0,3.738,2.314,3.69,3.69,0,0,0,1.787-.6,3.442,3.442,0,0,0,.919-.871A1.232,1.232,0,0,0,276.659,235.314Z" transform="translate(-269.704 -231.417)"/></g><g transform="translate(89.749 21.966)"><g transform="translate(0)"><path class="e" d="M185.817,260.261a5.864,5.864,0,0,1-1.247,1.107,3.634,3.634,0,0,1-5.483-3.394,5.846,5.846,0,0,1,.435-1.609,1.235,1.235,0,0,0-.263.38,3.449,3.449,0,0,0-.37,1.21,3.694,3.694,0,0,0,.262,1.866,3.769,3.769,0,0,0,3.738,2.314,3.7,3.7,0,0,0,1.787-.6,3.459,3.459,0,0,0,.919-.871A1.233,1.233,0,0,0,185.817,260.261Z" transform="translate(-178.862 -256.364)"/></g></g><g transform="translate(86.118 45.242)"><g transform="translate(0)"><path class="e" d="M131.637,260.359a5.887,5.887,0,0,1-.529-1.581,3.634,3.634,0,0,1,5.274-3.709,5.849,5.849,0,0,1,1.31,1.032,1.231,1.231,0,0,0-.246-.392,3.455,3.455,0,0,0-.968-.816,3.689,3.689,0,0,0-1.819-.492,3.768,3.768,0,0,0-3.6,2.529,3.69,3.69,0,0,0-.152,1.878,3.45,3.45,0,0,0,.441,1.187A1.243,1.243,0,0,0,131.637,260.359Z" transform="translate(-130.852 -254.4)"/></g></g><g transform="translate(60.269 29.843)"><g transform="translate(0)"><path class="e" d="M242.074,271.323a1.484,1.484,0,0,1,.911-.212,1.007,1.007,0,0,1,.743.579.973.973,0,0,1-1.287,1.287,1.006,1.006,0,0,1-.579-.743,1.481,1.481,0,0,1,.212-.911c-.011-.012-.1.038-.212.186a1.093,1.093,0,0,0-.2.752,1.191,1.191,0,0,0,.667.952,1.222,1.222,0,0,0,1.632-1.633,1.193,1.193,0,0,0-.952-.667,1.1,1.1,0,0,0-.752.2C242.112,271.221,242.063,271.312,242.074,271.323Z" transform="translate(-241.66 -270.907)"/></g></g><g transform="translate(42.888 21.364)"><g transform="translate(0)"><path class="e" d="M274.166,255.667a1.478,1.478,0,0,1,.911-.212,1,1,0,0,1,.743.579.973.973,0,0,1-1.287,1.287,1.007,1.007,0,0,1-.579-.743,1.482,1.482,0,0,1,.212-.911c-.011-.011-.1.038-.213.186a1.1,1.1,0,0,0-.2.752,1.191,1.191,0,0,0,.666.952,1.222,1.222,0,0,0,1.633-1.632,1.19,1.19,0,0,0-.952-.667,1.094,1.094,0,0,0-.752.2C274.2,255.566,274.154,255.656,274.166,255.667Z" transform="translate(-273.752 -255.252)"/></g></g><g transform="translate(5.143 7.264)"><g transform="translate(0)"><path class="e" d="M343.86,229.632a1.481,1.481,0,0,1,.911-.212,1.006,1.006,0,0,1,.743.579.973.973,0,0,1-1.287,1.287,1.006,1.006,0,0,1-.579-.742,1.483,1.483,0,0,1,.212-.911c-.011-.011-.1.038-.213.186a1.1,1.1,0,0,0-.2.752,1.191,1.191,0,0,0,.667.952,1.222,1.222,0,0,0,1.633-1.632,1.19,1.19,0,0,0-.952-.667,1.092,1.092,0,0,0-.752.2C343.9,229.531,343.848,229.621,343.86,229.632Z" transform="translate(-343.445 -229.217)"/></g></g><g transform="translate(47.728 48.052)"><g transform="translate(0)"><path class="e" d="M265.229,304.944a1.481,1.481,0,0,1,.911-.212,1.007,1.007,0,0,1,.743.579A.974.974,0,0,1,265.6,306.6a1,1,0,0,1-.579-.742,1.482,1.482,0,0,1,.212-.911c-.01-.012-.1.038-.212.186a1.094,1.094,0,0,0-.2.752,1.19,1.19,0,0,0,.667.952,1.222,1.222,0,0,0,1.632-1.633,1.191,1.191,0,0,0-.952-.666,1.1,1.1,0,0,0-.752.2C265.267,304.842,265.218,304.933,265.229,304.944Z" transform="translate(-264.814 -304.529)"/></g></g><g transform="translate(106.399 29.843)"><g transform="translate(0)"><path class="e" d="M156.9,271.323a1.481,1.481,0,0,1,.911-.212,1.007,1.007,0,0,1,.743.579.974.974,0,0,1-1.287,1.287,1.007,1.007,0,0,1-.579-.743,1.48,1.48,0,0,1,.212-.911c-.011-.012-.1.038-.213.186a1.1,1.1,0,0,0-.2.752,1.192,1.192,0,0,0,.667.952,1.222,1.222,0,0,0,1.633-1.633,1.193,1.193,0,0,0-.952-.667,1.1,1.1,0,0,0-.752.2C156.938,271.221,156.888,271.312,156.9,271.323Z" transform="translate(-156.485 -270.907)"/></g></g><g transform="translate(72.29 55.361)"><g transform="translate(0)"><path class="e" d="M217.488,318.046c0,.027.2.026.543.125a2.272,2.272,0,0,1,1.187.835,2.155,2.155,0,1,1-3.46,0,2.27,2.27,0,0,1,1.188-.835c.34-.1.543-.1.542-.125a1.206,1.206,0,0,0-.569.018,2.267,2.267,0,0,0-1.319.82,2.368,2.368,0,0,0-.372,2.258,2.4,2.4,0,0,0,4.52,0,2.367,2.367,0,0,0-.372-2.257,2.268,2.268,0,0,0-1.319-.821A1.207,1.207,0,0,0,217.488,318.046Z" transform="translate(-215.092 -318.024)"/></g></g><g transform="translate(21.05 25.402)"><g transform="translate(0)"><path class="e" d="M312.1,262.73c0,.027.2.026.543.125a2.275,2.275,0,0,1,1.188.835,2.155,2.155,0,1,1-3.46,0,2.27,2.27,0,0,1,1.188-.835c.34-.1.543-.1.542-.125a1.2,1.2,0,0,0-.569.018,2.262,2.262,0,0,0-1.319.821,2.366,2.366,0,0,0-.372,2.257,2.4,2.4,0,0,0,4.52,0,2.367,2.367,0,0,0-.372-2.257,2.264,2.264,0,0,0-1.319-.821A1.2,1.2,0,0,0,312.1,262.73Z" transform="translate(-309.702 -262.708)"/></g></g><g transform="translate(76.528 38.686)"><path class="e" d="M213.934,287.558a1.1,1.1,0,1,0,0,1.554A1.1,1.1,0,0,0,213.934,287.558Z" transform="translate(-212.058 -287.236)"/></g><g transform="translate(97.779 43.999)"><circle class="e" cx="1.099" cy="1.099" r="1.099" transform="translate(0)"/></g><g transform="translate(4.641 22.556)"><circle class="e" cx="1.099" cy="1.099" r="1.099" transform="translate(0)"/></g><g transform="translate(45.502 5.604)"><path class="e" d="M271.221,226.475a1.1,1.1,0,1,0,0,1.554A1.1,1.1,0,0,0,271.221,226.475Z" transform="translate(-269.345 -226.153)"/></g><g transform="translate(70.677 67.995)"><path class="e" d="M224.739,341.673a1.1,1.1,0,1,0,0,1.554A1.1,1.1,0,0,0,224.739,341.673Z" transform="translate(-222.863 -341.351)"/></g><g transform="translate(55.702 43.497)"><g transform="translate(0)"><path class="e" d="M223.748,296.35a1.712,1.712,0,0,0,.195.335l.609.917,2.26,3.3.088.128.094-.126,3.315-4.468h-.222l1.757,2.356,1.593,2.127.117.156.109-.161,3.024-4.5-.183.01,2.838,3.229.8.884a1.954,1.954,0,0,0,.3.3,1.946,1.946,0,0,0-.247-.341l-.753-.925-2.763-3.293-.1-.115-.086.125-3.063,4.47.225,0-1.589-2.131-1.762-2.353-.112-.149-.109.151-3.273,4.5.181,0-2.339-3.24-.658-.883A1.729,1.729,0,0,0,223.748,296.35Z" transform="translate(-223.747 -296.118)"/></g></g><g transform="translate(44.8 62.185)"><g transform="translate(0)"><path class="e" d="M246.6,330.624a1.684,1.684,0,0,0,.113.37l.382,1.033,1.443,3.726.056.145.12-.1,4.251-3.589-.216-.05,1.17,2.7,1.063,2.436.078.179.142-.132,3.975-3.683-.18-.031c.829,1.554,1.518,2.848,2.022,3.794l.576,1.043a1.937,1.937,0,0,0,.224.357,1.963,1.963,0,0,0-.162-.388l-.521-1.072-1.935-3.839-.067-.134-.113.1-4.007,3.649.221.047-1.058-2.438L253,332.048l-.075-.172-.141.122-4.217,3.629.176.043-1.534-3.69-.438-1.01A1.727,1.727,0,0,0,246.6,330.624Z" transform="translate(-246.594 -330.624)"/></g></g><g transform="translate(31.066 14.2)"><g transform="translate(0)"><path class="e" d="M295.619,242.025a1.725,1.725,0,0,0-.334.2l-.915.612-3.287,2.273-.128.088.127.093,4.481,3.3,0-.221-2.349,1.766-2.121,1.6-.156.118.162.108,4.508,3.007-.011-.182-3.218,2.85-.88.8a1.893,1.893,0,0,0-.295.3,1.943,1.943,0,0,0,.34-.249l.921-.756,3.283-2.776.115-.1-.126-.086-4.482-3.046.006.225,2.124-1.6,2.346-1.772.149-.113-.151-.109-4.512-3.255v.181l3.231-2.352.88-.661A1.686,1.686,0,0,0,295.619,242.025Z" transform="translate(-290.935 -242.024)"/></g></g><g transform="translate(6.895 31.418)"><g transform="translate(0)"><path class="e" d="M331.664,281.7a1.711,1.711,0,0,0-.121-.368l-.4-1.025-1.52-3.7-.059-.143-.118.1-4.177,3.675.217.045-1.225-2.673-1.112-2.413-.081-.177-.14.135-3.9,3.764.18.028-2.1-3.752-.6-1.031a1.885,1.885,0,0,0-.231-.352,1.982,1.982,0,0,0,.171.384l.542,1.062,2.012,3.8.07.133.111-.1,3.931-3.73-.221-.042L324,277.733l1.23,2.67.079.17.139-.124,4.141-3.714-.176-.039,1.608,3.658.458,1A1.725,1.725,0,0,0,331.664,281.7Z" transform="translate(-316.279 -273.816)"/></g></g><g transform="translate(88.404 15.109)"><g transform="translate(0)"><path class="e" d="M173.176,252.58a1.718,1.718,0,0,0-.121-.368l-.4-1.024-1.519-3.7-.059-.144-.118.1-4.177,3.675.217.045-1.225-2.672-1.112-2.413-.082-.178-.14.135-3.9,3.764.18.028-2.1-3.752-.6-1.032a1.951,1.951,0,0,0-.231-.352,1.981,1.981,0,0,0,.171.385l.542,1.062,2.012,3.8.07.133.11-.1,3.931-3.73-.221-.042,1.108,2.416,1.23,2.669.078.17.139-.125,4.142-3.714-.177-.04,1.609,3.658.459,1A1.728,1.728,0,0,0,173.176,252.58Z" transform="translate(-157.791 -244.701)"/></g></g><g transform="translate(52.154 14.173)"><g transform="translate(0)"><path class="e" d="M246.732,244.844a1.724,1.724,0,0,0-.32-.218l-.943-.568-3.456-2.007-.134-.078-.03.154c-.31,1.573-.677,3.434-1.076,5.458l.2-.1-2.6-1.375-2.352-1.237-.172-.091-.029.192c-.294,1.968-.565,3.785-.8,5.36l.16-.088-3.949-1.7-1.1-.455a1.9,1.9,0,0,0-.4-.138,1.928,1.928,0,0,0,.369.2l1.076.512,3.909,1.788.137.063.024-.151c.249-1.573.536-3.387.848-5.352l-.2.1,2.349,1.242,2.6,1.369.166.087.034-.183c.38-2.028.729-3.892,1.025-5.468l-.165.076,3.5,1.923.973.515A1.7,1.7,0,0,0,246.732,244.844Z" transform="translate(-229.731 -241.974)"/></g></g></g><g transform="translate(44.988)"><g transform="translate(4.337)"><g transform="translate(0)"><g transform="translate(0)"><path class="b" d="M232.479,186.428c-.112-4.867-.319-10.091-.319-10.091s-7.405-.934-7.725-8.493c-.243-5.754-.345-14.8-.38-18.792a2.694,2.694,0,0,1,1.905-2.6l12.329-3.8,10.367,7.654.249,35.871c.031,4.559-2.947,7.374-7.506,7.374h0C236.937,193.553,232.581,190.889,232.479,186.428Z" transform="translate(-224.054 -142.654)"/><g transform="translate(8.105 30.473)"><path class="f" d="M236.867,202.13a18.034,18.034,0,0,0,9.807-3.21s-2.305,5.506-9.678,5.066Z" transform="translate(-236.867 -198.92)"/></g><g transform="translate(8.695 22.385)"><path class="f" d="M246.849,186.478a.888.888,0,0,1,.9-1.254,1.4,1.4,0,0,1,1.416-1.237,1.582,1.582,0,0,1,1.431,1.287,1.825,1.825,0,0,1-.808,1.791,2.161,2.161,0,0,1-1.993.146,1.575,1.575,0,0,1-1.005-1.188" transform="translate(-246.77 -183.985)"/></g><g transform="translate(1.278 8.816)"><g transform="translate(0)"><g transform="translate(0.264 2.8)"><g transform="translate(0)"><g transform="translate(0)"><g transform="translate(1.278 1.022)"><g transform="translate(0)"><path class="c" d="M260.91,166.927a1.037,1.037,0,0,0,1,1.046.992.992,0,0,0,1.069-.935,1.038,1.038,0,0,0-1-1.047A.993.993,0,0,0,260.91,166.927Z" transform="translate(-260.91 -165.989)"/></g></g><path class="c" d="M259.508,165.192c.128.135.914-.446,2.031-.443,1.115-.013,1.934.561,2.055.425.06-.061-.072-.3-.428-.565a2.849,2.849,0,0,0-1.645-.507,2.738,2.738,0,0,0-1.617.522C259.56,164.887,259.445,165.132,259.508,165.192Z" transform="translate(-259.491 -164.102)"/><g transform="translate(4.094 0.276)"><g transform="translate(0)"><g transform="translate(0)"><path class="c" d="M256.161,173.913a7.412,7.412,0,0,0-1.813-.327c-.285-.029-.555-.086-.6-.281a1.451,1.451,0,0,1,.19-.845l.843-2.171a37.31,37.31,0,0,0,1.893-5.678,37.374,37.374,0,0,0-2.346,5.512l-.808,2.184a1.653,1.653,0,0,0-.148,1.119.716.716,0,0,0,.469.417,1.914,1.914,0,0,0,.484.067A7.257,7.257,0,0,0,256.161,173.913Z" transform="translate(-253.317 -164.612)"/></g></g></g><g transform="translate(6.665 10.35)"><g transform="translate(0)"><path class="c" d="M251.439,183.212c-.181-.01-.184,1.2-1.221,2.061s-2.327.727-2.336.9c-.017.076.288.236.832.25a3.016,3.016,0,0,0,1.95-.679,2.627,2.627,0,0,0,.946-1.729C251.658,183.5,251.522,183.2,251.439,183.212Z" transform="translate(-247.881 -183.212)"/></g></g></g></g></g><g transform="translate(10.679 2.348)"><g transform="translate(0)"><path class="c" d="M239.775,164.254c.117.3,1.055.078,2.183.149,1.128.044,2.057.356,2.184.074.056-.135-.123-.407-.51-.672a3.3,3.3,0,0,0-1.656-.533,3.138,3.138,0,0,0-1.671.363C239.911,163.86,239.723,164.114,239.775,164.254Z" transform="translate(-239.766 -163.267)"/></g></g><path class="c" d="M259.039,160.089c.238.253,1.171-.01,2.293-.022,1.121-.045,2.071.17,2.289-.1.1-.128-.054-.382-.468-.622a3.687,3.687,0,0,0-1.864-.416,3.628,3.628,0,0,0-1.828.51C259.064,159.7,258.934,159.966,259.039,160.089Z" transform="translate(-259.004 -158.933)"/></g></g></g></g></g><g transform="translate(16.616 13.231)"><g transform="translate(0)"><path class="c" d="M240.06,168.177c.04.024.17-.2.488-.422a2.22,2.22,0,0,1,1.422-.382,3.244,3.244,0,0,1,1.424.51c.339.211.534.373.564.343s-.122-.24-.448-.506a2.832,2.832,0,0,0-1.518-.628,2.128,2.128,0,0,0-1.568.507C240.1,167.894,240.031,168.167,240.06,168.177Z" transform="translate(-240.054 -167.085)"/></g></g><g transform="translate(20.426 16.489)"><g transform="translate(0)"><path class="f" d="M239.151,173.488c.041.067.2.042.36-.055s.253-.23.212-.3-.2-.041-.36.056S239.11,173.422,239.151,173.488Z" transform="translate(-239.142 -173.1)"/></g></g><g transform="translate(18.316 16.399)"><g transform="translate(0)"><path class="f" d="M243.777,173.549c.077-.011.12-.158.1-.328s-.106-.3-.183-.288-.12.158-.1.328S243.7,173.56,243.777,173.549Z" transform="translate(-243.587 -172.933)"/></g></g><g transform="translate(19.28 19.736)"><g transform="translate(0)"><path class="f" d="M242,179.585c.071-.032.08-.167.019-.3s-.168-.216-.239-.184-.079.166-.018.3S241.932,179.617,242,179.585Z" transform="translate(-241.723 -179.094)"/></g></g><g transform="translate(7.141 16.399)"><g transform="translate(0)"><path class="f" d="M263.989,173.242c.043.065.167.059.276-.015s.163-.184.12-.249-.167-.058-.276.015S263.946,173.178,263.989,173.242Z" transform="translate(-263.974 -172.934)"/></g></g><g transform="translate(5.585 15.989)"><g transform="translate(0)"><path class="f" d="M267.261,172.714c.067-.039.054-.189-.03-.335s-.207-.233-.275-.194-.054.189.03.335S267.194,172.753,267.261,172.714Z" transform="translate(-266.913 -172.176)"/></g></g><g transform="translate(6.537 18.951)"><g transform="translate(0)"><path class="f" d="M265.529,178.437c.076-.013.109-.2.072-.419s-.128-.386-.205-.373-.109.2-.073.419S265.452,178.45,265.529,178.437Z" transform="translate(-265.308 -177.645)"/></g></g><g transform="translate(0 22.096)"><g transform="translate(0)"><path class="d" d="M271.888,192.948c-.01-.021-.232.087-.654.208a4.846,4.846,0,0,1-1.828.159,5.017,5.017,0,0,1-2.487-1.017,4.836,4.836,0,0,1-1.762-2.733,5.612,5.612,0,0,1,.217-3.271,4.3,4.3,0,0,1,1.653-2.093,4.122,4.122,0,0,1,1.712-.635c.434-.055.68-.027.682-.053,0-.01-.06-.024-.177-.041a2.916,2.916,0,0,0-.516-.016,3.932,3.932,0,0,0-1.808.575,4.409,4.409,0,0,0-1.789,2.167,5.763,5.763,0,0,0-.25,3.433,5.024,5.024,0,0,0,1.879,2.874,5.081,5.081,0,0,0,2.626,1.008,4.522,4.522,0,0,0,1.88-.253A1.9,1.9,0,0,0,271.888,192.948Z" transform="translate(-264.731 -183.452)"/></g></g></g></g><g class="g" transform="translate(115.642 108.94)"><path d="M212.09,293.852c-.15.072.2,1.279,1.512,2.794a11.206,11.206,0,0,0,2.684,2.236,11.415,11.415,0,0,0,8.349,1.4,11.2,11.2,0,0,0,3.268-1.236c1.73-1,2.46-2.029,2.341-2.146-.144-.167-1.085.554-2.781,1.251a12.252,12.252,0,0,1-13.155-2.211C212.935,294.73,212.28,293.741,212.09,293.852Z" transform="translate(-212.058 -293.843)"/></g><g class="g" transform="translate(133.849 95.731)"><path d="M204.457,269.453s-9.447,22.057-8.945,24.946,7.121,12.279,7.121,12.279l-4.82-11.061A265.327,265.327,0,0,0,204.457,269.453Z" transform="translate(-195.493 -269.453)"/></g><g transform="translate(70.565 94.114)"><g transform="translate(0)"><path class="c" d="M325.015,272.608a17.767,17.767,0,0,0,2.085-6.14c-.08-.018-.45,1.385-1.027,3.076S324.94,272.574,325.015,272.608Z" transform="translate(-325.008 -266.468)"/></g></g><g transform="translate(69.401 93.682)"><g transform="translate(0)"><path class="c" d="M325,270.717a16.749,16.749,0,0,0,3.264-5.047A426.718,426.718,0,0,0,325,270.717Z" transform="translate(-324.998 -265.669)"/></g></g><g transform="translate(103.925 118.569)"><g transform="translate(0)"><path class="c" d="M234.157,311.623a4.99,4.99,0,0,0,.685.518l1.922,1.33,6.355,4.364,6.334,4.4,1.924,1.326a5.033,5.033,0,0,0,.727.457,5.053,5.053,0,0,0-.663-.546c-.438-.337-1.077-.815-1.873-1.4-1.592-1.168-3.81-2.755-6.29-4.467s-4.748-3.224-6.4-4.3c-.828-.537-1.5-.966-1.972-1.255A5.022,5.022,0,0,0,234.157,311.623Z" transform="translate(-234.156 -311.622)"/></g></g><g transform="translate(150.892 103.227) rotate(-59)"><g transform="translate(0.872 0.085)"><g transform="translate(0 0)"><path class="c" d="M2.464,5.813A12.3,12.3,0,0,0,1.485,2.8,12.28,12.28,0,0,0,.006,0C-.066.039.55,1.309,1.225,2.911S2.387,5.838,2.464,5.813Z"/></g></g><g transform="translate(0 0)"><g transform="translate(0)"><path class="c" d="M1.008,8.307a4.958,4.958,0,0,0,.031-1.231c-.024-.759-.1-1.807-.233-2.958S.489,1.932.333,1.189A4.925,4.925,0,0,0,.012,0,5.847,5.847,0,0,0,.137,1.223c.106.75.251,1.783.389,2.929S.765,6.336.84,7.089A5.761,5.761,0,0,0,1.008,8.307Z"/></g></g></g><g transform="translate(115.502 20.343)"><path class="c" d="M190.738,132.54a10.353,10.353,0,0,0,1.77,12.336c1.642,1.556,3.858,2.622,4.878,4.641,1.073,2.124.5,4.689-.272,6.939s-1.754,4.564-1.427,6.922c.406,2.927,2.752,5.289,3.251,8.2.955,5.573-5.043,10.492-4.345,16.1.306,2.459,1.86,4.549,3.206,6.63s2.572,4.5,2.109,6.935c-.22,1.157-1.205,2.183-1.1,3.356.442,4.741,7.148,5.38,8.117,4.549-1.227-2.334.222-5.961.366-6.142a5.036,5.036,0,0,0,4.351,3.978,12.23,12.23,0,0,1,.425-5.4,5.372,5.372,0,0,0,3.746,2.53,32.612,32.612,0,0,1,2.279-19.57c.968-2.138,2.2-4.351,1.887-6.677-.409-3.01-3.233-5.055-4.568-7.783-1.5-3.071-1-6.692-.586-10.085s.616-7.121-1.333-9.93c-1.188-1.711-3.074-2.9-4.034-4.748-.892-1.719-.854-3.76-1.4-5.619-.986-3.368-3.455-7.17-6.772-8.317s-8.466-2.258-10.554,1.15" transform="translate(-189.45 -130.257)"/></g><g transform="translate(124.27 73.006)"><path class="c" d="M213.251,241.6a18.378,18.378,0,0,1,1.463,7.238c-.177,2.473-1.627,5.031-4.011,5.716-.907.261-1.969.281-2.609.974a2.258,2.258,0,0,0-.349,2.2,6.666,6.666,0,0,0,1.212,1.985,8.648,8.648,0,0,1-3.627-3.213,5.931,5.931,0,0,0,1.5,5.381c-1.828.071-3.42-1.188-4.712-2.484-2.946-2.956-5.425-6.858-5.057-11.015.367-4.139,3.486-7.738,3.473-11.894,0-1.6-.479-3.156-.56-4.75a4.71,4.71,0,0,1,1.68-4.252" transform="translate(-197.025 -227.493)"/></g><g transform="translate(101.123 20.343)"><path class="c" d="M250.283,132.843a7.426,7.426,0,0,0-6.559-2.54,10.091,10.091,0,0,0-6.291,3.452,15.909,15.909,0,0,0-3.291,6.487,5.752,5.752,0,0,0-.254,2.153,2.345,2.345,0,0,0,1.089,1.8,2.411,2.411,0,0,0,2.165-.053,7.128,7.128,0,0,0,1.773-1.368,3.37,3.37,0,0,0,6.522.248,4.852,4.852,0,0,0,9.237-.916,7.326,7.326,0,0,0-1.485-5.412c-1.087-1.586-2.486-2.935-3.6-4.5" transform="translate(-233.863 -130.256)"/></g><g transform="translate(116.145 22.9)"><g transform="translate(0)"><path class="h" d="M219.951,185.2a6.6,6.6,0,0,1-.406-.536,4.087,4.087,0,0,1-.57-1.813,13.4,13.4,0,0,1,.182-3.041,9.634,9.634,0,0,0,.067-1.927,5.178,5.178,0,0,0-.639-2.073,11.78,11.78,0,0,0-3.468-3.5c-.709-.529-1.448-1.066-2.141-1.692a7.822,7.822,0,0,1-1.786-2.213,6.453,6.453,0,0,1-.644-2.9,16.422,16.422,0,0,1,.358-3.134c.2-1.058.453-2.14.561-3.265a8.91,8.91,0,0,0-.223-3.426,5.216,5.216,0,0,0-.766-1.574,6.063,6.063,0,0,0-1.219-1.22,21.43,21.43,0,0,0-2.876-1.66,8.612,8.612,0,0,1-2.539-1.813,4.792,4.792,0,0,1-1.136-2.7c-.124-.973-.088-1.944-.115-2.89a9.591,9.591,0,0,0-.4-2.736,9.043,9.043,0,0,0-2.686-4.121,8.106,8.106,0,0,0-3.616-1.852,6.365,6.365,0,0,0-3.066.089,4.317,4.317,0,0,0-1.7.936,2.669,2.669,0,0,0-.348.367.766.766,0,0,0-.1.137c.016.015.151-.18.49-.461a4.427,4.427,0,0,1,1.691-.873,6.324,6.324,0,0,1,3-.041,7.993,7.993,0,0,1,3.517,1.847,8.872,8.872,0,0,1,2.594,4.04,9.37,9.37,0,0,1,.376,2.673,28.738,28.738,0,0,0,.105,2.917,5.052,5.052,0,0,0,1.191,2.843,8.829,8.829,0,0,0,2.612,1.879,21.4,21.4,0,0,1,2.836,1.64,5.8,5.8,0,0,1,1.16,1.161,4.924,4.924,0,0,1,.724,1.49,8.671,8.671,0,0,1,.214,3.317c-.106,1.1-.351,2.173-.554,3.241a16.61,16.61,0,0,0-.356,3.188,6.717,6.717,0,0,0,.682,3.012,8.057,8.057,0,0,0,1.852,2.279c.71.635,1.456,1.172,2.168,1.7a11.65,11.65,0,0,1,3.433,3.411,4.994,4.994,0,0,1,.635,1.993,9.608,9.608,0,0,1-.045,1.893,13.111,13.111,0,0,0-.134,3.069,4.012,4.012,0,0,0,.632,1.833A2.175,2.175,0,0,0,219.951,185.2Z" transform="translate(-190.673 -134.977)"/></g></g><g transform="translate(117.043 28.397)"><g transform="translate(0)"><path class="h" d="M224.5,202.284a3.717,3.717,0,0,0,.207-.641,4.458,4.458,0,0,0-.067-1.926,18.843,18.843,0,0,0-1.037-2.872,7.49,7.49,0,0,1-.753-3.862,5.747,5.747,0,0,1,.842-2.13c.423-.689.947-1.354,1.481-2.055a12.162,12.162,0,0,0,1.467-2.32,9.494,9.494,0,0,0-.52-8.847c-1.153-1.882-2.994-3.246-4.594-4.838a11.681,11.681,0,0,1-2.048-2.623,6.62,6.62,0,0,1-.6-1.5,6.471,6.471,0,0,1-.18-1.577c.057-2.127.906-4.08,1.188-6.059a7.134,7.134,0,0,0-.132-2.918,6.977,6.977,0,0,0-1.294-2.432,18.3,18.3,0,0,0-3.7-3.225,24.843,24.843,0,0,1-3.16-2.483,9.284,9.284,0,0,1-1.849-2.377,6.17,6.17,0,0,1-.672-2.472,4.225,4.225,0,0,0,.019.673,5.477,5.477,0,0,0,.555,1.849,9.215,9.215,0,0,0,1.837,2.441,24.473,24.473,0,0,0,3.154,2.532,18.269,18.269,0,0,1,3.631,3.209,6.762,6.762,0,0,1,1.238,2.353,6.89,6.89,0,0,1,.114,2.813c-.279,1.935-1.14,3.886-1.207,6.093a6.719,6.719,0,0,0,.186,1.649,6.924,6.924,0,0,0,.623,1.565,11.918,11.918,0,0,0,2.1,2.688c1.624,1.611,3.441,2.961,4.559,4.784a9.257,9.257,0,0,1,.53,8.6,12.011,12.011,0,0,1-1.428,2.283c-.527.7-1.052,1.376-1.48,2.082a5.923,5.923,0,0,0-.854,2.212,7.594,7.594,0,0,0,.8,3.952,19.638,19.638,0,0,1,1.076,2.837,4.588,4.588,0,0,1,.118,1.891C224.568,202.059,224.488,202.279,224.5,202.284Z" transform="translate(-209.081 -145.128)"/></g></g><g transform="translate(104.104 23.243)"><g transform="translate(0)"><path class="h" d="M247.639,144.36c.048.007.152-.891.422-2.314a12.48,12.48,0,0,1,.712-2.423,6.88,6.88,0,0,1,1.74-2.492,5.155,5.155,0,0,1,2.749-1.21,9.923,9.923,0,0,1,2.516.023c1.434.186,2.314.4,2.324.346a2.672,2.672,0,0,0-.6-.19,17.254,17.254,0,0,0-1.692-.354,9.421,9.421,0,0,0-2.577-.083,5.3,5.3,0,0,0-2.9,1.255,6.918,6.918,0,0,0-1.794,2.6,11.6,11.6,0,0,0-.668,2.486c-.116.722-.171,1.31-.205,1.715A2.725,2.725,0,0,0,247.639,144.36Z" transform="translate(-247.629 -135.61)"/></g></g><g transform="translate(110.788 24.215)"><path class="h" d="M246.345,146.77a14.261,14.261,0,0,0-.119-1.716,10.839,10.839,0,0,1,.329-4.061,5.688,5.688,0,0,1,1.047-1.954,4.651,4.651,0,0,1,1.412-1.128,5.556,5.556,0,0,1,1.619-.471,1.12,1.12,0,0,0-.467-.03,3.608,3.608,0,0,0-1.238.321,4.578,4.578,0,0,0-1.523,1.138,5.673,5.673,0,0,0-1.119,2.038,9.918,9.918,0,0,0-.259,4.166c.066.53.14.955.2,1.247A1.467,1.467,0,0,0,246.345,146.77Z" transform="translate(-245.922 -137.406)"/></g><path class="i" d="M1992.223,696.538s23.6,33.345,48.041,27.85,21.03-34.86,5.684-46.228-23.3-14.02-23.3-14.02l-7.389,11.178s34.671,17.809,27.282,29.366-20.272,3.221-27.282-3.789a90.773,90.773,0,0,1-11.936-15.157Z" transform="translate(-1980.689 -649.676)"/><g transform="translate(53.383 53.021)"><g transform="translate(5.498)"><path class="b" d="M343.34,190.689a1.259,1.259,0,0,0-.7,1.6c.449,1.216,1.175,3.124,1.717,4.28a3.2,3.2,0,0,0,.667,1.03,1.032,1.032,0,0,0,1.814-.729,3.293,3.293,0,0,0-.243-1.271c-.383-1.137-1.043-2.838-1.608-4.222a1.258,1.258,0,0,0-1.646-.687Z" transform="translate(-342.562 -190.593)"/></g><g transform="translate(3.724 2.243)"><path class="b" d="M346.615,194.83a1.258,1.258,0,0,0-.7,1.6c.449,1.216,1.174,3.124,1.717,4.28a3.2,3.2,0,0,0,.666,1.03,1.032,1.032,0,0,0,1.814-.73,3.292,3.292,0,0,0-.243-1.271c-.383-1.137-1.043-2.838-1.608-4.222a1.258,1.258,0,0,0-1.646-.687Z" transform="translate(-345.836 -194.734)"/></g><g transform="translate(2.158 3.678)"><path class="b" d="M350.463,197.468a1.09,1.09,0,0,0-.607,1.385c.389,1.053,1.017,2.705,1.487,3.706a2.767,2.767,0,0,0,.577.893.893.893,0,0,0,1.571-.632,2.852,2.852,0,0,0-.211-1.1c-.331-.985-.9-2.458-1.392-3.656a1.089,1.089,0,0,0-1.426-.6Z" transform="translate(-349.789 -197.385)"/></g><g transform="translate(0 4.156)"><path class="b" d="M354.418,198.351a1.094,1.094,0,0,0-.609,1.391c.39,1.058,1.021,2.718,1.494,3.724a2.785,2.785,0,0,0,.58.9.9.9,0,0,0,1.578-.635,2.87,2.87,0,0,0-.211-1.106c-.333-.989-.908-2.469-1.4-3.673a1.094,1.094,0,0,0-1.432-.6Z" transform="translate(-353.741 -198.267)"/></g><g transform="translate(5.896 2.619)"><g transform="translate(0)"><path class="f" d="M348.068,199.864a20.833,20.833,0,0,0-1.937-4.435,20.845,20.845,0,0,0,1.937,4.435Z" transform="translate(-346.122 -195.429)"/></g></g><g transform="translate(3.792 3.832)"><g transform="translate(0)"><path class="f" d="M351.812,202.752a26.914,26.914,0,0,0-2.1-5.084,26.889,26.889,0,0,0,2.1,5.084Z" transform="translate(-349.7 -197.668)"/></g></g><g transform="translate(2.001 4.688)"><g transform="translate(0)"><path class="f" d="M355.32,203.724a61.826,61.826,0,0,0-1.865-4.475,12.64,12.64,0,0,0,1.865,4.475Z" transform="translate(-353.443 -199.248)"/></g></g></g><path class="j" d="M0,10.8,11.1,0s1.819,3.008,4.818,6.94L5.732,17.824A87.726,87.726,0,0,1,0,10.8Z" transform="translate(11.534 36.063)"/><path class="j" d="M0,11.179,7.389,0a44.3,44.3,0,0,1,6.03,2.819C11.864,5.966,8.7,12.545,7.339,15.368,3.145,12.794,0,11.179,0,11.179Z" transform="translate(34.567 14.464)"/><g transform="matrix(0.996, 0.087, -0.087, 0.996, 3.444, 0)"><path class="k" d="M0,.619c1.636-.28,3.279-.46,4.925-.6L5.14,0l.037.217c.169.989.327,1.98.46,2.975l-.3-.168c1.214-.464,2.442-.9,3.692-1.271C7.874,2.36,6.7,2.912,5.5,3.431l-.248.108L5.2,3.263c-.186-.987-.347-1.977-.5-2.97l.252.2C3.311.594,1.659.657,0,.619Z" transform="translate(0 35.979)"/><path class="k" d="M0,0A20.619,20.619,0,0,1,2.6.8l.115.042.027.133c.17.845.314,1.695.417,2.551l-.187-.164a17.169,17.169,0,0,1,1.908.287,17.283,17.283,0,0,1-1.926.111H2.8l-.038-.166c-.2-.84-.353-1.688-.482-2.54l.141.175A20.714,20.714,0,0,1,0,0Z" transform="translate(8.359 34.522)"/><path class="k" d="M0,0C.768,1.066,1.484,2.162,2.168,3.276l-.19-.109c1.152-.03,2.3-.027,3.456-.011l.207,0,.023.2c.168,1.443.294,2.892.347,4.35-.331-1.421-.59-2.852-.806-4.289l.229.2c-1.152.016-2.3.019-3.456-.011l-.132,0L1.788,3.5C1.154,2.355.55,1.193,0,0Z" transform="translate(8.234 26.561)"/><path class="k" d="M0,.441C.933.341,1.866.25,2.8.189S4.67.054,5.6.009L5.79,0l.044.187q.425,1.806.806,3.621l-.261-.185c1.07-.124,2.141-.236,3.215-.328.538-.044,1.073-.106,1.611-.136s1.076-.079,1.616-.1c-.529.111-1.06.2-1.591.3s-1.064.175-1.6.264c-1.063.175-2.13.33-3.2.473l-.213.028-.049-.213Q5.763,2.1,5.392.284l.229.178C4.685.486,3.749.486,2.812.487S.938.473,0,.441Z" transform="translate(14.101 13.586)"/><path class="k" d="M0,0C.637.559,1.268,1.124,1.879,1.709S3.111,2.868,3.71,3.465l.162.162L3.7,3.786Q2.4,4.977,1.072,6.132l-.061-.4c.978.441,1.951.9,2.914,1.372.482.239.968.465,1.445.713s.957.488,1.429.75C6.29,8.394,5.79,8.2,5.286,8.01s-1-.4-1.5-.594c-1-.4-1.988-.814-2.971-1.244L.479,6.023l.277-.249Q2.065,4.6,3.405,3.454l-.011.321c-.586-.61-1.149-1.242-1.721-1.864S.547.648,0,0Z" transform="translate(24.281 5.252)"/><path class="k" d="M.349,0c.072.921.1,1.842.122,2.763S.5,4.6.486,5.524L.332,5.295q1.337.5,2.656,1.051l.177.074L3.121,6.6c-.156.631-.342,1.256-.512,1.885s-.367,1.25-.572,1.87c.085-.648.184-1.293.3-1.933S2.564,7.135,2.7,6.5l.133.25Q1.487,6.269.158,5.744L0,5.681l0-.166c.023-.919.055-1.839.118-2.758S.243.918.349,0Z" transform="translate(31.854 0)"/></g></g></svg>