<svg xmlns="http://www.w3.org/2000/svg" width="17.379" height="21.39" viewBox="0 0 17.379 21.39"><defs><style>.a{fill:#f89d1f;}</style></defs><g transform="translate(0)"><path class="a" d="M64.711,2.674H62.705V.668A.669.669,0,0,0,62.037,0H50.005A2.008,2.008,0,0,0,48,2.005V18.716a2.676,2.676,0,0,0,2.674,2.674H64.711a.669.669,0,0,0,.668-.668V3.342A.669.669,0,0,0,64.711,2.674ZM61.369,16.711a.669.669,0,0,1-.668.668H52.679a.669.669,0,0,1-.668-.668V15.374a3.346,3.346,0,0,1,3.342-3.342h2.674a3.345,3.345,0,0,1,3.342,3.342Zm-7.353-8.69a2.674,2.674,0,1,1,2.674,2.674A2.676,2.676,0,0,1,54.016,8.021Zm7.353-5.347H50.005a.668.668,0,1,1,0-1.337H61.369Z" transform="translate(-48)"/></g></svg>