<svg xmlns="http://www.w3.org/2000/svg" width="227" height="37.53" viewBox="0 0 227 37.53"><path fill="#808385" d="M156.71,354.51l1.957-5.589a23.64,23.64,0,0,0-2.5-.777,24.4,24.4,0,0,0-5.858-.706,21.478,21.478,0,0,0-10.169,2.378,17.551,17.551,0,0,0-7.09,6.768,19.2,19.2,0,0,0-2.577,9.9,18.581,18.581,0,0,0,2.5,9.473,16.866,16.866,0,0,0,6.876,6.625,21.014,21.014,0,0,0,9.93,2.3,25.487,25.487,0,0,0,6.687-.784,23.1,23.1,0,0,0,2.211-.733l-1.974-5.636c-.2.072-.39.141-.577.2a17.58,17.58,0,0,1-5.518.862,14.393,14.393,0,0,1-6.788-1.581,11.319,11.319,0,0,1-4.676-4.482,13.645,13.645,0,0,1,.012-13.066,11.528,11.528,0,0,1,4.689-4.534,14.156,14.156,0,0,1,6.763-1.607,19.1,19.1,0,0,1,5.745.862c.119.037.24.08.36.12" transform="translate(-130.468 -347.439)"/><path fill="#808385" d="M.029.029,5.924-.022,5.873,5.7l-5.895.051Z" transform="translate(26.206 7.083) rotate(-70)"/><path fill="#808385" d="M.029.029,5.751-.022,5.7,5.931l-5.722.051Z" transform="translate(26.196 30.279) rotate(-20.001)"/><path fill="#808385" d="M156.71,354.835l1.957-5.588a23.583,23.583,0,0,0-2.5-.777,24.4,24.4,0,0,0-5.858-.706,21.48,21.48,0,0,0-10.169,2.378,17.552,17.552,0,0,0-7.09,6.768,19.2,19.2,0,0,0-2.577,9.9,18.581,18.581,0,0,0,2.5,9.473,16.867,16.867,0,0,0,6.876,6.625,21.015,21.015,0,0,0,9.93,2.3,25.483,25.483,0,0,0,6.687-.784,23.128,23.128,0,0,0,2.211-.733l-1.974-5.636c-.2.072-.39.141-.577.2a17.58,17.58,0,0,1-5.518.862,14.394,14.394,0,0,1-6.788-1.581,11.32,11.32,0,0,1-4.676-4.482,13.646,13.646,0,0,1,.012-13.066,11.529,11.529,0,0,1,4.689-4.534,14.155,14.155,0,0,1,6.763-1.607,19.1,19.1,0,0,1,5.745.863c.119.037.24.08.36.12" transform="translate(-130.468 -347.681)"/><path fill="#f77d0c" d="M.029.029,5.924-.022,5.873,5.7l-5.895.051Z" transform="translate(26.206 7.166) rotate(-70)"/><path fill="#f77d0c" d="M.029.029,5.751-.022,5.7,5.931l-5.722.051Z" transform="translate(26.196 30.362) rotate(-20.001)"/><path fill="#808385" d="M305.182,359.693a4.868,4.868,0,0,1-1.521,3.789,5.985,5.985,0,0,1-4.186,1.385h-4.324V354.7h4.224a6.6,6.6,0,0,1,4.3,1.241,4.574,4.574,0,0,1,1.509,3.75m.88,8.937a10.3,10.3,0,0,0,4.588-3.645,10.349,10.349,0,0,0-1.571-12.844,11.5,11.5,0,0,0-8.07-2.848H288.363V385.8h6.788V370.381h2.464a5.043,5.043,0,0,1,2.891.849,10.48,10.48,0,0,1,2.615,2.874,84.63,84.63,0,0,1,4.274,7.853q1.332,2.64,2.112,3.842h7.567q-1.559-2.509-4.777-9.146a33.042,33.042,0,0,0-3.243-5.461,10.283,10.283,0,0,0-2.992-2.561" transform="translate(-249.807 -348.822)"/><path fill="#808385" d="M416.24,349.292v21.951a16.293,16.293,0,0,0,1.886,8.009,12.516,12.516,0,0,0,5.468,5.213,18.6,18.6,0,0,0,8.459,1.8q7.768,0,12.017-3.959t4.249-11.328v-21.69h-6.788v20.775a13.139,13.139,0,0,1-1.006,5.684,7.342,7.342,0,0,1-3.18,3.24,10.894,10.894,0,0,1-5.292,1.189,9.65,9.65,0,0,1-4.978-1.254,7.535,7.535,0,0,1-3.08-3.188,11.993,11.993,0,0,1-.943-5.2V349.292Z" transform="translate(-346.458 -348.822)"/><path fill="#808385" d="M577.6,349.292V385.8h6.788V360.163h.2l10.157,12.857h.955l10.157-12.857h.2V385.8h6.788V349.292h-6.059l-11.539,14.4-11.54-14.4Z" transform="translate(-468.413 -348.822)"/><path fill="#808385" d="M772.584,374.98a4.676,4.676,0,0,1-1.76,3.959,8.474,8.474,0,0,1-5.2,1.346h-5.858V369.963h6.386a7.49,7.49,0,0,1,4.689,1.346,4.385,4.385,0,0,1,1.747,3.672m-2.74-15.575a4.62,4.62,0,0,1-1.558,3.711,6.325,6.325,0,0,1-4.249,1.333h-4.274v-9.643h4.877a5.558,5.558,0,0,1,3.771,1.241,4.215,4.215,0,0,1,1.433,3.358m9.729,16.176a9.242,9.242,0,0,0-2.049-5.971,10,10,0,0,0-5.719-3.41v-.313a8.693,8.693,0,0,0,3.683-3.031,7.786,7.786,0,0,0,1.27-4.417,8.262,8.262,0,0,0-3.042-6.533,11.651,11.651,0,0,0-7.869-2.613H752.975V385.8h14.707a15.025,15.025,0,0,0,6.248-1.2A9.3,9.3,0,0,0,778.078,381a10.011,10.011,0,0,0,1.5-5.422" transform="translate(-600.967 -348.822)"/><rect fill="#808385" width="6.788" height="36.507" transform="translate(184.186 0.47)"/><path fill="#808385" d="M929.326,349.292v5.514h19.207L928.094,385.8h32.23v-5.514H939.759l20.464-30.993Z" transform="translate(-733.324 -348.822)"/><path fill="#808385" d="M305.182,360.018a4.868,4.868,0,0,1-1.521,3.789,5.985,5.985,0,0,1-4.186,1.385h-4.324V355.026h4.224a6.6,6.6,0,0,1,4.3,1.241,4.574,4.574,0,0,1,1.509,3.75m.88,8.937a10.3,10.3,0,0,0,4.588-3.645,10.348,10.348,0,0,0-1.571-12.844,11.5,11.5,0,0,0-8.07-2.849H288.363v36.507h6.788V370.706h2.464a5.044,5.044,0,0,1,2.891.849,10.482,10.482,0,0,1,2.615,2.875,84.606,84.606,0,0,1,4.274,7.853q1.332,2.64,2.112,3.842h7.567q-1.559-2.509-4.777-9.146a33.047,33.047,0,0,0-3.243-5.461,10.285,10.285,0,0,0-2.992-2.561" transform="translate(-249.807 -349.064)"/><path fill="#808385" d="M416.24,349.617v21.951a16.293,16.293,0,0,0,1.886,8.009,12.516,12.516,0,0,0,5.468,5.214,18.6,18.6,0,0,0,8.459,1.8q7.768,0,12.017-3.959t4.249-11.328v-21.69h-6.788v20.775a13.138,13.138,0,0,1-1.006,5.683,7.343,7.343,0,0,1-3.18,3.241,10.894,10.894,0,0,1-5.292,1.189,9.649,9.649,0,0,1-4.978-1.254,7.535,7.535,0,0,1-3.08-3.188,11.993,11.993,0,0,1-.943-5.2V349.617Z" transform="translate(-346.458 -349.064)"/><path fill="#808385" d="M577.6,349.617v36.507h6.788V360.488h.2l10.157,12.857h.955l10.157-12.857h.2v25.636h6.788V349.617h-6.059l-11.539,14.4-11.54-14.4Z" transform="translate(-468.413 -349.064)"/><path fill="#808385" d="M772.584,375.3a4.676,4.676,0,0,1-1.76,3.959,8.475,8.475,0,0,1-5.2,1.346h-5.858V370.288h6.386a7.489,7.489,0,0,1,4.689,1.346,4.385,4.385,0,0,1,1.747,3.671m-2.74-15.575a4.62,4.62,0,0,1-1.558,3.711,6.325,6.325,0,0,1-4.249,1.333h-4.274v-9.643h4.877a5.558,5.558,0,0,1,3.771,1.242,4.214,4.214,0,0,1,1.433,3.358m9.729,16.176a9.242,9.242,0,0,0-2.049-5.971,10,10,0,0,0-5.719-3.411v-.314a8.692,8.692,0,0,0,3.683-3.031,7.787,7.787,0,0,0,1.27-4.417,8.262,8.262,0,0,0-3.042-6.533,11.652,11.652,0,0,0-7.869-2.613H752.975v36.507h14.707a15.027,15.027,0,0,0,6.248-1.2,9.3,9.3,0,0,0,4.148-3.593,10.011,10.011,0,0,0,1.5-5.422" transform="translate(-600.967 -349.064)"/><rect fill="#808385" width="6.788" height="36.507" transform="translate(184.186 0.553)"/><path fill="#808385" d="M929.326,349.617v5.514h19.207l-20.439,30.993h32.23V380.61H939.759l20.464-30.993Z" transform="translate(-733.324 -349.064)"/></svg>