<svg xmlns="http://www.w3.org/2000/svg" xmlns:xlink="http://www.w3.org/1999/xlink" width="152.355" height="138.922" viewBox="0 0 152.355 138.922"><defs><linearGradient id="a" x1="0.5" y1="1" x2="0.5" gradientUnits="objectBoundingBox"><stop offset="0" stop-opacity="0.122"/><stop offset="0.551" stop-opacity="0.09"/><stop offset="1" stop-opacity="0.02"/></linearGradient><linearGradient id="b" x1="14.124" y1="-1.935" x2="14.124" y2="-2.759" gradientUnits="objectBoundingBox"><stop offset="0" stop-color="gray" stop-opacity="0.251"/><stop offset="0.535" stop-color="gray" stop-opacity="0.122"/><stop offset="1" stop-color="gray" stop-opacity="0.102"/></linearGradient></defs><g transform="translate(0.027)"><path fill="#d5d5d5" d="M24.152,79.218,0,51.782,72.263,0l72.263,51.782L119.987,79.218Z"/><path fill="#514abf" d="M24.152,79.218,0,51.782,72.263,0l72.263,51.782L119.987,79.218Z"/><rect fill="#d5d5d5" width="141" height="62" transform="translate(-0.027 54.961)"/><rect style="fill:url(#a)" width="141" height="62" transform="translate(-0.027 54.961)"/><path fill="#d5d5d5" d="M144.525,355.14H0V268l72.263,43.667L144.525,268Z" transform="translate(0 -216.218)"/><path fill="#3ad29f" d="M275.806,67.743,260.479,55.99l-40.6,52.951L197.326,91.65l-11.753,15.328,30.212,23.132h0l7.748,5.806Z" transform="translate(-149.717 -45.172)"/><path style="fill:url(#b)" d="M.754,109.943l-.575.281.066-.117-.05.016.071-.052L8,96.307l3.953,3.371,3.392,3.14-.974.476,1.095,1.931Z" transform="translate(-0.144 -77.699)"/><path fill="#d5d5d5" d="M13.362,115.617l3.1,2.874L2.411,125.477l7.477-9.583Z" transform="translate(-1.945 -93.278)"/><path style="opacity: 0.2" d="M13.362,115.617l3.1,2.874L2.411,125.477l7.477-9.583Z" transform="translate(-1.945 -93.278)"/><path fill="#d5d5d5" d="M9.746,99.66,2.411,112.6l10.951-9.86Z" transform="translate(-1.945 -80.404)"/><path fill="#d5d5d5" d="M16.615,124.688,2.489,129.354,14.3,120.539Z" transform="translate(-2.008 -97.249)"/><path fill="#d5d5d5" d="M674.037,34.066l-3.095,5.365,22.691,3.695L679.018,32.949Z" transform="translate(-541.306 -26.583)"/><path style="opacity: 0.2" d="M674.037,34.066l-3.095,5.365,22.691,3.695L679.018,32.949Z" transform="translate(-541.306 -26.583)"/><path fill="#d5d5d5" d="M690.686,8.293l15.87,14.941-19.6-9.06Z" transform="translate(-554.228 -6.691)"/><path fill="#d5d5d5" d="M675.274,54.386l21.792.416-20.344-7.226Z" transform="translate(-544.801 -38.384)"/></g></svg>