<svg xmlns="http://www.w3.org/2000/svg" width="161.419" height="167.653" viewBox="0 0 161.419 167.653"><defs><style>.a,.f{fill:#e5f4ff;}.a{stroke:rgba(0,0,0,0);stroke-miterlimit:10;}.b{fill:#5ab7f6;}.c{fill:#263238;}.d{fill:#c9e7fb;}.e{fill:#f89d1f;}.g{opacity:0.3;}.h{fill:#ffbe9d;}.i{fill:#eb996e;}.j{fill:#455a64;}</style></defs><g transform="translate(0.501)"><path class="a" d="M123.114,0H14.392A58.134,58.134,0,0,0,5.908,11.828,48.362,48.362,0,0,0,.656,26.642l-.016.014-.019.016a36.017,36.017,0,0,0-.53,4.1l0,.03c0,.018,0,.033-.005.049h0a35.96,35.96,0,0,0,.471,8.788l-.007.006-.018.015A23.016,23.016,0,0,0,3.6,47.625a18.254,18.254,0,0,0,13.632,8.382A21.587,21.587,0,0,1,25.548,59.2,51.833,51.833,0,0,1,39.5,74.754l0,.018v0l0,.009c.837,1.374,1.6,2.609,2.272,3.669l.076.127.011.019.01.016.106.177c.369.588.768,1.2,1.188,1.82l.016.024.029.044h0A61.737,61.737,0,0,0,151.618,68.852l0,0c.02-.051.04-.1.06-.154l.051-.133c.069-.176.141-.361.218-.565l0-.01v0c.074-.193.15-.394.223-.591l.02-.052,0,0,.024-.063h0a61.7,61.7,0,0,0,3.593-16.345l0,0v-.017c0-.025,0-.047,0-.071a40.881,40.881,0,0,0-1.649-15.42,44.851,44.851,0,0,0-2.839-7.046,52.179,52.179,0,0,0-3.978-6.6A69.351,69.351,0,0,0,136.594,9.958,101.746,101.746,0,0,0,123.114,0Z" transform="translate(155.966 167.153) rotate(180)"/><g transform="translate(5.162)"><g transform="translate(0 90.479)"><path class="b" d="M106.346,341.933c9.611-8.3,10.575-21.978,8.92-34.009-.276-2.008-.274-4.156-1.415-5.825s-3.5-2.647-5.219-1.611c-1.424.859-1.9,2.667-2.586,4.193a11.848,11.848,0,0,1-4.261,5,4.514,4.514,0,0,1-4.1.8c-1.837-.78-2.29-3.16-2.484-5.166q-.542-5.608-1.086-11.214a18.778,18.778,0,0,0-1.219-5.891,6.25,6.25,0,0,0-4.341-3.8c-1.963-.337-4.207,1.005-4.407,3.009a18.584,18.584,0,0,0,.2,2.5,2.119,2.119,0,0,1-1.029,2.112,2.436,2.436,0,0,1-2.3-.693,26.8,26.8,0,0,1-5.53-6.73,37.169,37.169,0,0,0-5.231-6.994,10.9,10.9,0,0,0-7.769-3.362c-2.888.134-5.763,2.221-6.2,5.114s1.509,5.6,3.538,7.7a44.978,44.978,0,0,0,10.232,7.919A3.7,3.7,0,0,1,71.8,296.5c.574,1.291-.556,2.749-1.83,3.325a23.3,23.3,0,0,1-4.624,1.009c-1.544.346-3.166,1.209-3.6,2.747-.61,2.133,1.325,4.1,3.156,5.337A38.534,38.534,0,0,0,76.912,314.3a12.994,12.994,0,0,1,4.427,1.614,3.73,3.73,0,0,1,1.627,4.127c-.573,1.488-2.371,2.13-3.945,2a26.889,26.889,0,0,1-4.572-1.226c-2.862-.756-6.4-.2-7.918,2.364a6.378,6.378,0,0,0-.1,5.679,14.7,14.7,0,0,0,3.55,4.641,38.751,38.751,0,0,0,17.65,9.867c6.618,1.556,12.6,1.545,18.711-1.432" transform="translate(-56.233 -274.247)"/><g transform="translate(2.674 2.074)"><path class="c" d="M111.216,353.806a88.512,88.512,0,0,0-4.979-16.182,180.521,180.521,0,0,0-9.125-18.6L94.47,314.27c-.871-1.558-1.734-3.1-2.672-4.562a90.194,90.194,0,0,0-5.87-8.075c-1.991-2.478-3.971-4.757-5.838-6.875s-3.655-4.052-5.354-5.749a71.5,71.5,0,0,0-8.608-7.4c-1.081-.792-1.939-1.378-2.527-1.768l-.67-.439a1.528,1.528,0,0,0-.235-.138,1.429,1.429,0,0,0,.214.171l.65.469c.573.41,1.418,1.015,2.484,1.823a75.709,75.709,0,0,1,8.508,7.474c1.683,1.7,3.45,3.647,5.309,5.768s3.824,4.408,5.8,6.886a91.211,91.211,0,0,1,5.829,8.056c.931,1.452,1.785,2.985,2.656,4.547l2.64,4.751a185.006,185.006,0,0,1,9.133,18.552,90.043,90.043,0,0,1,5.037,16.1" transform="translate(-62.695 -279.259)"/><g transform="translate(28.953 8.091)"><path class="c" d="M132.709,321.166a4.09,4.09,0,0,0,.108-.876c.048-.565.091-1.384.129-2.4.077-2.025.089-4.825.09-7.912s.052-5.881.161-7.9c.051-1.009.1-1.826.142-2.39a4.055,4.055,0,0,0,.022-.882,3.989,3.989,0,0,0-.165.866c-.086.56-.175,1.376-.26,2.387-.176,2.021-.269,4.823-.27,7.915.007,3.046.013,5.8.018,7.908,0,.951-.007,1.753-.011,2.4A4.016,4.016,0,0,0,132.709,321.166Z" transform="translate(-132.665 -298.812)"/></g><g transform="translate(2.729 28.01)"><path class="c" d="M69.29,347.229a5.564,5.564,0,0,0,1.041.017c.667-.009,1.633-.028,2.826-.013,2.387.011,5.683.142,9.313.446s6.905.731,9.264,1.1c1.181.178,2.133.348,2.792.461a5.568,5.568,0,0,0,1.031.143,5.53,5.53,0,0,0-1-.286c-.651-.157-1.6-.367-2.778-.58-2.354-.441-5.635-.9-9.277-1.216a91.318,91.318,0,0,0-9.345-.337c-1.2.019-2.165.077-2.832.132A5.538,5.538,0,0,0,69.29,347.229Z" transform="translate(-69.29 -346.952)"/></g><g transform="translate(43.173 23.671)"><path class="c" d="M167.036,370.718a1.334,1.334,0,0,0,.144-.332l.345-.978c.3-.85.691-2.092,1.159-3.633.939-3.081,2.1-7.376,3.321-12.134s2.341-9.061,3.214-12.156l1.045-3.664.279-1a1.324,1.324,0,0,0,.073-.356,1.381,1.381,0,0,0-.144.333l-.344.977c-.3.85-.691,2.092-1.159,3.633-.939,3.081-2.1,7.377-3.321,12.136S169.3,362.6,168.432,365.7c-.43,1.5-.782,2.743-1.045,3.663l-.279,1A1.34,1.34,0,0,0,167.036,370.718Z" transform="translate(-167.033 -336.466)"/></g><g transform="translate(7.793 50.414)"><path class="c" d="M81.528,401.1a1.392,1.392,0,0,0,.354.105l1.029.231,3.789.81c3.2.685,7.609,1.681,12.478,2.789s9.294,2.065,12.509,2.684c1.607.31,2.91.547,3.814.693l1.042.162a1.356,1.356,0,0,0,.368.031,1.417,1.417,0,0,0-.355-.106l-1.029-.23-3.789-.81c-3.2-.684-7.609-1.681-12.481-2.789s-9.292-2.065-12.507-2.683c-1.608-.31-2.91-.547-3.815-.693l-1.041-.162A1.348,1.348,0,0,0,81.528,401.1Z" transform="translate(-81.528 -401.096)"/></g></g></g><g transform="translate(33.476 54.873)"><path class="b" d="M143.935,200.041a.833.833,0,0,1-.751-.472l-1.794-3.735a.832.832,0,0,1,.607-1.18,2.584,2.584,0,0,0,1.694-1.159,2.327,2.327,0,0,0,.357-1.811,2.384,2.384,0,0,0-1.165-1.449,2.658,2.658,0,0,0-2.032-.281,3.118,3.118,0,0,0-2.025,3.312.832.832,0,1,1-1.648.231,4.794,4.794,0,0,1,3.2-5.138,4.294,4.294,0,0,1,3.333.43,4.05,4.05,0,0,1,1.956,2.493,4,4,0,0,1-.578,3.12,4.352,4.352,0,0,1-1.784,1.566l1.384,2.879a.833.833,0,0,1-.75,1.193Z" transform="translate(-137.135 -188.196)"/><g transform="translate(7.301 12.549)"><path class="b" d="M156.066,218.893a.681.681,0,1,1-.916-.3A.681.681,0,0,1,156.066,218.893Z" transform="translate(-154.779 -218.523)"/></g></g><g transform="translate(12.786 45.932)"><path class="d" d="M91.881,174.86a.582.582,0,0,1-.524-.329L90.1,171.922a.581.581,0,0,1,.424-.824,1.8,1.8,0,0,0,1.183-.809,1.626,1.626,0,0,0,.249-1.265,1.665,1.665,0,0,0-.814-1.012,1.856,1.856,0,0,0-1.419-.2,2.177,2.177,0,0,0-1.414,2.313.581.581,0,1,1-1.151.162,3.348,3.348,0,0,1,2.233-3.588,3,3,0,0,1,2.327.3,2.827,2.827,0,0,1,1.366,1.741,2.787,2.787,0,0,1-.4,2.179,3.038,3.038,0,0,1-1.245,1.094l.966,2.011a.581.581,0,0,1-.524.833Z" transform="translate(-87.132 -166.588)"/><g transform="translate(5.098 8.764)"><path class="d" d="M100.353,188.026a.475.475,0,1,1-.64-.206A.476.476,0,0,1,100.353,188.026Z" transform="translate(-99.454 -187.767)"/></g></g><g transform="translate(113.739 53.976)"><g transform="translate(0 1.302)"><path class="d" d="M338.152,189.508a.582.582,0,0,1-.074.615l-1.822,2.248a.58.58,0,0,1-.926-.03,1.8,1.8,0,0,0-1.238-.723,1.625,1.625,0,0,0-1.25.316,1.665,1.665,0,0,0-.566,1.169,1.856,1.856,0,0,0,.43,1.366,2.178,2.178,0,0,0,2.7.289.581.581,0,0,1,.638.971,3.348,3.348,0,0,1-4.2-.483,3,3,0,0,1-.724-2.232,2.83,2.83,0,0,1,.99-1.979,2.788,2.788,0,0,1,2.142-.568,3.04,3.04,0,0,1,1.521.658l1.4-1.733a.581.581,0,0,1,.977.117Z" transform="translate(-331.109 -189.176)"/></g><g transform="translate(7.089)"><path class="d" d="M348.34,186.214a.475.475,0,1,1,.087.667A.475.475,0,0,1,348.34,186.214Z" transform="translate(-348.242 -186.029)"/></g></g><g transform="translate(107.673 0)"><g transform="translate(0 1.303)"><path class="d" d="M323.491,59.063a.582.582,0,0,1-.074.615L321.6,61.927a.581.581,0,0,1-.926-.031,1.806,1.806,0,0,0-1.238-.723,1.622,1.622,0,0,0-1.25.316,1.661,1.661,0,0,0-.566,1.168,1.855,1.855,0,0,0,.43,1.367,2.178,2.178,0,0,0,2.7.289.581.581,0,1,1,.638.971,3.349,3.349,0,0,1-4.2-.483,3,3,0,0,1-.724-2.232,2.828,2.828,0,0,1,.989-1.98,2.788,2.788,0,0,1,2.142-.567,3.038,3.038,0,0,1,1.521.658l1.4-1.733a.581.581,0,0,1,.817-.085A.574.574,0,0,1,323.491,59.063Z" transform="translate(-316.448 -58.731)"/></g><g transform="translate(7.089)"><path class="d" d="M333.678,55.769a.475.475,0,1,1,.087.667A.476.476,0,0,1,333.678,55.769Z" transform="translate(-333.58 -55.583)"/></g></g><g transform="translate(67.088 8.057)"><g transform="translate(0.026 1.874)"><path class="b" d="M220.093,79.586a.757.757,0,0,1,.681.428L222.4,83.4a.755.755,0,0,1-.551,1.071,2.345,2.345,0,0,0-1.537,1.051,2.113,2.113,0,0,0-.324,1.644,2.161,2.161,0,0,0,1.058,1.315,2.411,2.411,0,0,0,1.844.255,2.83,2.83,0,0,0,1.838-3.006.755.755,0,1,1,1.5-.21,4.352,4.352,0,0,1-2.9,4.663A3.9,3.9,0,0,1,220.3,89.8a3.676,3.676,0,0,1-1.775-2.263,3.623,3.623,0,0,1,.524-2.832,3.953,3.953,0,0,1,1.619-1.421l-1.256-2.613a.755.755,0,0,1,.681-1.082Z" transform="translate(-218.429 -79.586)"/></g><path class="b" d="M218.435,75.956a.618.618,0,1,1,.832.268A.618.618,0,0,1,218.435,75.956Z" transform="translate(-218.366 -75.056)"/></g><g transform="translate(123.222 75.007)"><g transform="translate(0.026 1.874)"><path class="b" d="M355.753,241.385a.756.756,0,0,1,.681.429l1.628,3.39a.755.755,0,0,1-.55,1.071,2.344,2.344,0,0,0-1.537,1.051,2.111,2.111,0,0,0-.324,1.644,2.162,2.162,0,0,0,1.057,1.315,2.41,2.41,0,0,0,1.844.254,2.829,2.829,0,0,0,1.838-3.005.755.755,0,1,1,1.5-.21,4.351,4.351,0,0,1-2.9,4.663,3.9,3.9,0,0,1-3.024-.391,3.676,3.676,0,0,1-1.775-2.263,3.624,3.624,0,0,1,.524-2.832,3.951,3.951,0,0,1,1.619-1.421l-1.256-2.613a.756.756,0,0,1,.681-1.082Z" transform="translate(-354.089 -241.385)"/></g><path class="b" d="M354.095,237.755a.618.618,0,1,1,.831.268A.618.618,0,0,1,354.095,237.755Z" transform="translate(-354.026 -236.855)"/></g><g transform="translate(92.438 97.175)"><path class="b" d="M323.4,293.8s-3.181-2.446-7.821,5.25a104,104,0,0,0-6.51,12.19s-1.2,1.6-2.267.421-2.424-4.391-4.417-3.972c-2.068.435-2.9,2.649-2.747,6s.207,10.7.209,11.367-.437,1.583-1.3.9-5.636-6.835-8.42-4.393-.834,11.707-.64,12.724-.032,1.429-.524,1.642-1.9-2.006-3.333-3.7-3.387-3.407-4.874-1.864-2.412,8.325,3.281,19.853l2.988,5.169,6,.095c12.845-.579,18.337-4.663,18.971-6.711s-1.811-2.934-3.985-3.369-4.8-.6-4.85-1.133.2-.93,1.185-1.251,10.039-3.087,10.834-6.7-6.9-4.832-7.912-5.253-.411-1.255.161-1.568,7.05-3.818,10.056-5.3,4.545-3.281,3.927-5.3c-.6-1.948-4.064-1.581-5.611-1.952s-.726-2.188-.726-2.188a103.979,103.979,0,0,0,7.533-11.587c4.5-7.779.721-9.406.721-9.406" transform="translate(-279.631 -293.429)"/><g transform="translate(2.469 7.254)"><path class="c" d="M322.731,310.96s-.026.058-.086.168l-.269.483-1.05,1.848c-.913,1.6-2.252,3.914-3.916,6.764-3.327,5.7-7.988,13.534-13.164,22.17s-9.858,16.463-13.213,22.145l-3.966,6.733-1.08,1.83-.285.473c-.065.106-.1.158-.1.158s.026-.058.086-.168l.269-.482,1.05-1.848c.913-1.6,2.251-3.914,3.916-6.763,3.327-5.7,7.989-13.535,13.167-22.174s9.856-16.459,13.211-22.142l3.967-6.733,1.08-1.83.285-.474C322.693,311.012,322.731,310.96,322.731,310.96Z" transform="translate(-285.598 -310.96)"/></g><g transform="translate(24.461 18.832)"><path class="b" d="M338.749,338.942a1.93,1.93,0,0,1,.122.415c.067.269.154.662.255,1.147.2.972.446,2.32.689,3.813.234,1.474.446,2.806.608,3.825l.191,1.157a1.956,1.956,0,0,1,.054.428,1.926,1.926,0,0,1-.125-.414c-.067-.27-.153-.662-.25-1.149-.192-.974-.419-2.325-.662-3.818L339,340.528c-.079-.458-.144-.846-.2-1.157A1.939,1.939,0,0,1,338.749,338.942Z" transform="translate(-338.745 -338.942)"/></g><g transform="translate(26.923 27.143)"><path class="b" d="M344.7,361.646c-.011-.05,2.748-.677,6.16-1.4s6.189-1.268,6.2-1.218-2.747.677-6.161,1.4S344.706,361.7,344.7,361.646Z" transform="translate(-344.696 -359.025)"/></g><g transform="translate(18.375 42.662)"><path class="b" d="M324.037,396.538a2,2,0,0,1,.441.011l1.2.089c1.009.074,2.4.17,3.943.221s2.939.053,3.95.045l1.2-.008a.221.221,0,1,1,0,.072c-.283.022-.691.048-1.2.067-1.012.042-2.413.063-3.96.009s-2.942-.168-3.949-.275c-.5-.056-.91-.106-1.19-.148A2.045,2.045,0,0,1,324.037,396.538Z" transform="translate(-324.037 -396.531)"/></g><g transform="translate(13.973 33.271)"><path class="b" d="M313.4,373.837a1.756,1.756,0,0,1,.209.35l.509.984c.422.835.994,1.993,1.616,3.277s1.175,2.453,1.567,3.3l.456,1.01a1.728,1.728,0,0,1,.144.381,1.7,1.7,0,0,1-.209-.35l-.509-.984c-.422-.835-.995-1.993-1.616-3.278s-1.175-2.452-1.567-3.3l-.456-1.01A1.719,1.719,0,0,1,313.4,373.837Z" transform="translate(-313.4 -373.837)"/></g><g transform="translate(4.98 43.706)"><path class="b" d="M291.666,399.055a2.831,2.831,0,0,1,.264.45l.657,1.259c.547,1.066,1.292,2.545,2.1,4.184s1.539,3.127,2.056,4.209l.6,1.285a2.809,2.809,0,0,1,.2.482,2.8,2.8,0,0,1-.264-.45l-.657-1.259c-.547-1.066-1.292-2.546-2.1-4.185s-1.538-3.127-2.056-4.208l-.6-1.285A2.833,2.833,0,0,1,291.666,399.055Z" transform="translate(-291.665 -399.055)"/></g><g transform="translate(10.804 55.242)"><path class="b" d="M305.74,426.944a3.169,3.169,0,0,1,.559,0l1.519.059c1.282.048,3.054.108,5.011.119s3.731-.021,5.013-.055l1.519-.039a3.23,3.23,0,0,1,.559.007,3.238,3.238,0,0,1-.555.065c-.358.03-.876.065-1.518.1-1.283.067-3.058.122-5.02.109s-3.735-.091-5.017-.173c-.641-.043-1.159-.082-1.517-.117A3.292,3.292,0,0,1,305.74,426.944Z" transform="translate(-305.74 -426.934)"/></g></g><g transform="translate(5.899 166.97)"><path class="c" d="M220.346,459.21c0,.059-33.549.108-74.924.108s-74.932-.048-74.932-.108,33.542-.108,74.932-.108S220.346,459.15,220.346,459.21Z" transform="translate(-70.49 -459.102)"/></g><g transform="translate(27.996 41.755)"><g transform="translate(0.908)"><g transform="translate(0 44.782)"><path class="e" d="M216.618,319.682l-6.3-30.058s-3.694-14.487-16.412-19.478l-.878-.27c-.019-.007-1.207-.37-1.225-.377-.511-.2-2.6-.862-3.148-1.032-17.148-5.944-21.7-4.4-39.568,1.7,0,0-7.939,2.136-11.786,12.491s-11.213,26.552-11.213,26.552l17.828,6.3,3.417-5.076v34.728h49.033l-1.353-15.986-.236-19.691" transform="translate(-126.085 -264.719)"/><g transform="translate(27.313 7.292)"><path class="f" d="M205.4,282.343a2.728,2.728,0,0,1-.409.38,5.434,5.434,0,0,1-.514.406c-.209.148-.438.329-.717.491a13.209,13.209,0,0,1-2.007,1.043,13.852,13.852,0,0,1-5.413,1.058,13.245,13.245,0,0,1-2.252-.21c-.319-.046-.6-.127-.849-.185a5.458,5.458,0,0,1-.629-.182,2.779,2.779,0,0,1-.522-.2c.013-.043.765.221,2.025.415a14.479,14.479,0,0,0,2.227.161,14.524,14.524,0,0,0,5.338-1.044,14.46,14.46,0,0,0,2-.989C204.78,282.835,205.377,282.307,205.4,282.343Z" transform="translate(-192.093 -282.341)"/></g><g class="g" transform="translate(21.245 58.455)"><path d="M177.429,406.461l4.02,4.642h3.95v5.054l40.862,9.449-.333-3.936-38.443-13.2h-6.442l-3.107-2.482Z" transform="translate(-177.429 -405.988)"/></g><g transform="translate(8.941 45.145)"><path class="h" d="M172.03,383.47l-3.408-.631s-8.079-8.836-9.594-8.962c-1.247-.1-8.119-.037-10.513-.01a.832.832,0,0,0-.822.833h0a.833.833,0,0,0,.8.832l8.12.315.038.654-8.131.108c-.828.063-1.359,1.375,1.291,1.611l6.8.242v.423l-6.9.964c-.348.049-1.265.227-1.274.578,0,0-.417.864,1.548,1.11.674.084,6.661-.115,6.661-.115l-.23.538-6.2,1.337a.881.881,0,0,0-.687.984h0a.882.882,0,0,0,.954.755l6.622-.615,6.5,5.191h8.69Z" transform="translate(-147.693 -373.821)"/></g><g transform="translate(68.689 44.761)"><path class="e" d="M313.931,383.1,294.1,387l-2.012-14.1" transform="translate(-292.088 -372.894)"/></g><g transform="translate(31.302 54.308)"><g transform="translate(0 0.005)"><path class="e" d="M238.49,397.168l-36.758-1.188.006,12.705,24.388,4.843,17.124,2.734a17.827,17.827,0,0,0,17.508-20.282l-.045.012Z" transform="translate(-201.732 -395.98)"/></g><path class="c" d="M248.61,396.926a2.906,2.906,0,0,1-.476.034l-1.366.039-5.026.091c-4.244.062-10.108.134-16.585.072s-12.344-.3-16.58-.585c-2.118-.141-3.831-.278-5.012-.4l-1.36-.139a2.926,2.926,0,0,1-.473-.068,2.96,2.96,0,0,1,.478.01l1.364.085c1.183.084,2.9.19,5.015.305,4.236.235,10.095.436,16.57.5s12.336.022,16.58.012h5.027l1.367.015A2.958,2.958,0,0,1,248.61,396.926Z" transform="translate(-201.732 -395.967)"/></g><g transform="translate(31.217 54.428)"><path class="c" d="M201.614,396.257a1.4,1.4,0,0,1,.014.226c0,.161.008.38.014.658.006.591.014,1.435.026,2.5.01,2.174.024,5.262.041,8.979l-.071-.088c4.151.89,9.127,1.992,14.483,3.117,7.345,1.553,14.029,2.78,18.889,3.531,2.43.373,4.4.647,5.765.827l1.57.206.408.059a.694.694,0,0,1,.138.028.681.681,0,0,1-.141-.006l-.41-.038-1.575-.167c-1.367-.155-3.343-.406-5.777-.76-4.869-.713-11.564-1.917-18.911-3.471-5.358-1.125-10.331-2.239-14.477-3.151l-.072-.016v-.073c.014-3.717.026-6.805.035-8.979.01-1.069.018-1.913.024-2.5.005-.278.01-.5.013-.658A1.387,1.387,0,0,1,201.614,396.257Z" transform="translate(-201.528 -396.257)"/></g><g transform="translate(24.677 4.996)"><path class="c" d="M189.21,291.477a3.413,3.413,0,0,1,.026-.62c.025-.4.065-.973.081-1.684a28.953,28.953,0,0,0-.385-5.533,16.44,16.44,0,0,0-1.592-5.276,4.221,4.221,0,0,0-1.1-1.237c-.321-.228-.528-.313-.518-.333s.055.01.154.05a2.615,2.615,0,0,1,.412.214,4,4,0,0,1,1.18,1.226,8.937,8.937,0,0,1,.992,2.318,26.09,26.09,0,0,1,.684,3,25.709,25.709,0,0,1,.325,5.574c-.035.715-.1,1.29-.149,1.687A3.421,3.421,0,0,1,189.21,291.477Z" transform="translate(-185.723 -276.792)"/></g><g transform="translate(68.48 8.513)"><path class="c" d="M291.691,285.292c.06,0,.108,8.446.108,18.862s-.048,18.864-.108,18.864-.108-8.444-.108-18.864S291.631,285.292,291.691,285.292Z" transform="translate(-291.583 -285.292)"/></g><g transform="translate(71.467 50.889)"><path class="c" d="M308.607,387.755c0,.04-.626.021-1.62.144a13.239,13.239,0,0,0-1.723.336,12.959,12.959,0,0,0-3.9,1.764,13.275,13.275,0,0,0-1.389,1.073c-.749.665-1.146,1.148-1.177,1.122a1.7,1.7,0,0,1,.257-.357,8.664,8.664,0,0,1,.817-.877,11.5,11.5,0,0,1,1.381-1.125,12.052,12.052,0,0,1,3.96-1.792,11.5,11.5,0,0,1,1.756-.295,8.645,8.645,0,0,1,1.2-.034A1.7,1.7,0,0,1,308.607,387.755Z" transform="translate(-298.801 -387.704)"/></g><g class="g" transform="translate(25.343 11.777)"><path d="M190.5,334.1c6.2-3.7,10.062-9.825,13.84-15.972s7.3-12.6,12.537-17.56c2.406-2.278,5.22-4.2,6.109-7.391l-9.417,7.484-26.234,30.17Z" transform="translate(-187.332 -293.182)"/></g><g transform="translate(5.37 36.466)"><path class="c" d="M145.193,352.891a17.13,17.13,0,0,0-3.174.6,15.889,15.889,0,0,0-2.093.924,4.824,4.824,0,0,1-.863.413,3.777,3.777,0,0,1,.789-.546,11.226,11.226,0,0,1,2.1-.994,8.465,8.465,0,0,1,2.283-.434A3.315,3.315,0,0,1,145.193,352.891Z" transform="translate(-139.063 -352.846)"/></g><g transform="translate(5.37 36.466)"><path class="c" d="M145.193,352.891a17.13,17.13,0,0,0-3.174.6,15.889,15.889,0,0,0-2.093.924,4.824,4.824,0,0,1-.863.413,3.777,3.777,0,0,1,.789-.546,11.226,11.226,0,0,1,2.1-.994,8.465,8.465,0,0,1,2.283-.434A3.315,3.315,0,0,1,145.193,352.891Z" transform="translate(-139.063 -352.846)"/></g><g transform="translate(31.436 48.703)"><path class="f" d="M239.051,383.751a5.648,5.648,0,0,0-1.43-.658,7.359,7.359,0,0,0-4.23.265c-1.755.517-3.574,1.76-5.823,2.695a8.514,8.514,0,0,1-3.739.715,10.1,10.1,0,0,1-3.907-1.2c-1.255-.626-2.423-1.332-3.611-1.884a10.927,10.927,0,0,0-3.6-1.017,11.736,11.736,0,0,0-6.2,1.121,11.247,11.247,0,0,0-3.451,2.535l-.449.507-.3.4-.187.242a.053.053,0,1,1-.018-.012l.17-.255.283-.412.437-.523a10.993,10.993,0,0,1,3.447-2.616,11.828,11.828,0,0,1,6.283-1.181,11.059,11.059,0,0,1,3.671,1.023c1.2.556,2.374,1.262,3.618,1.882a9.938,9.938,0,0,0,3.825,1.182,8.345,8.345,0,0,0,3.652-.689c2.223-.91,4.065-2.148,5.851-2.656a7.32,7.32,0,0,1,4.3-.2,4.354,4.354,0,0,1,1.075.494l.251.179A.4.4,0,0,1,239.051,383.751Z" transform="translate(-202.056 -382.421)"/></g><g transform="translate(68.271 34.495)"><path class="f" d="M309.209,348.321a3.377,3.377,0,0,0-.745-.141,3.6,3.6,0,0,0-1.945.6c-.764.428-1.5,1.2-2.544,1.79a3.313,3.313,0,0,1-1.81.455,4.916,4.916,0,0,1-1.906-.606c-.607-.307-1.171-.648-1.754-.881a8.149,8.149,0,0,0-4.8-.389,8.165,8.165,0,0,0-1.953.7c-.44.221-.667.377-.679.358s.049-.049.156-.124a4.578,4.578,0,0,1,.483-.307,7.486,7.486,0,0,1,1.958-.773,8.207,8.207,0,0,1,3.12-.145,7.845,7.845,0,0,1,1.791.487c.6.238,1.173.582,1.771.883a4.763,4.763,0,0,0,1.821.588,3.136,3.136,0,0,0,1.7-.419c1.011-.552,1.767-1.322,2.563-1.747a3.554,3.554,0,0,1,2.026-.547,1.938,1.938,0,0,1,.562.131A.7.7,0,0,1,309.209,348.321Z" transform="translate(-291.076 -348.085)"/></g><g transform="translate(41.933 28.746)"><path class="f" d="M253.7,334.512a1.447,1.447,0,0,1-.282-.049c-.091-.017-.2-.048-.336-.07l-.465-.062a7.956,7.956,0,0,0-2.949.3,18.046,18.046,0,0,0-4.032,1.818,38.979,38.979,0,0,1-4.8,2.61,10.254,10.254,0,0,1-2.745.751,7.027,7.027,0,0,1-2.648-.182,12.217,12.217,0,0,1-2.225-.889c-.67-.332-1.283-.658-1.855-.926a7.912,7.912,0,0,0-2.838-.859,5,5,0,0,0-.809.025,1.506,1.506,0,0,1-.285.018,1.368,1.368,0,0,1,.279-.061,4.145,4.145,0,0,1,.819-.065,7.64,7.64,0,0,1,2.9.8c.581.261,1.2.58,1.87.9a12.313,12.313,0,0,0,2.2.858,6.884,6.884,0,0,0,2.572.164,10.173,10.173,0,0,0,2.688-.741,40.679,40.679,0,0,0,4.785-2.583,17.612,17.612,0,0,1,4.091-1.792,7.687,7.687,0,0,1,3-.238l.467.082c.134.029.245.067.335.091A1.431,1.431,0,0,1,253.7,334.512Z" transform="translate(-227.426 -334.19)"/></g><g transform="translate(68.541 16.336)"><path class="f" d="M304.208,304.2a2.259,2.259,0,0,1-.442.257c-.292.151-.717.366-1.257.6a11.885,11.885,0,0,1-1.961.679,7.21,7.21,0,0,1-2.541.173c-.9-.094-1.735-.286-2.5-.389a7.293,7.293,0,0,0-2.03-.037,4.427,4.427,0,0,0-1.747.645c-.005-.006.027-.039.093-.1a2.193,2.193,0,0,1,.309-.224,3.733,3.733,0,0,1,1.321-.475,6.965,6.965,0,0,1,2.081-.01c.776.094,1.612.279,2.495.372a9.073,9.073,0,0,0,4.422-.778c.543-.216.977-.41,1.28-.538A2.433,2.433,0,0,1,304.208,304.2Z" transform="translate(-291.729 -304.199)"/></g><g transform="translate(9.191 22.66)"><path class="f" d="M166.623,320.05a2.183,2.183,0,0,0-.732-.176,3.09,3.09,0,0,0-1.9.7c-.359.253-.73.567-1.173.856a4.33,4.33,0,0,1-1.567.628,7.38,7.38,0,0,1-3.794-.453c-1.282-.463-2.431-1.052-3.529-1.439a9.483,9.483,0,0,0-1.586-.434,6.679,6.679,0,0,0-1.425-.086,4.537,4.537,0,0,0-1.982.53c-.428.24-.626.435-.641.417s.042-.055.138-.145a2.727,2.727,0,0,1,.461-.344,4.394,4.394,0,0,1,2.015-.61,6.621,6.621,0,0,1,1.463.062,9.36,9.36,0,0,1,1.624.423c1.117.382,2.272.967,3.535,1.423a7.3,7.3,0,0,0,3.686.461,4.2,4.2,0,0,0,1.507-.584c.434-.273.811-.581,1.182-.83a3.086,3.086,0,0,1,1.988-.661,1.483,1.483,0,0,1,.559.15A.539.539,0,0,1,166.623,320.05Z" transform="translate(-148.296 -319.481)"/></g><g transform="translate(48.928 54.92)"><path class="f" d="M246.23,397.446c0-.005.05.034.132.114a2.9,2.9,0,0,1,.326.382,4,4,0,0,1,.127,4.379c-.549.892-1.488,1.6-2.013,2.621a2.5,2.5,0,0,0-.206,1.611,6.089,6.089,0,0,0,.538,1.478,6.022,6.022,0,0,1,.854,2.592,2.089,2.089,0,0,1-.774,1.65,1.334,1.334,0,0,1-.457.219.487.487,0,0,1-.175.019,1.965,1.965,0,0,0,.581-.3,2.042,2.042,0,0,0,.674-1.584,6.07,6.07,0,0,0-.88-2.505,6.155,6.155,0,0,1-.566-1.526,2.7,2.7,0,0,1,.22-1.745,6.491,6.491,0,0,1,1.036-1.405,10.12,10.12,0,0,0,1-1.228,3.81,3.81,0,0,0,.566-2.538,4.115,4.115,0,0,0-.6-1.687C246.386,397.631,246.214,397.462,246.23,397.446Z" transform="translate(-244.33 -397.446)"/></g><g transform="translate(67.534 55.486)"><path class="f" d="M289.935,416.414c-.005.005-.058-.041-.156-.135a1.687,1.687,0,0,1-.32-.5,2.811,2.811,0,0,1,.1-2.136,4.353,4.353,0,0,1,.8-1.269c.352-.409.769-.8,1.188-1.227a6.785,6.785,0,0,0,1.15-1.445,4.881,4.881,0,0,0,.554-1.883,23.528,23.528,0,0,0-.177-3.873,6.714,6.714,0,0,1,.4-3.17,3.608,3.608,0,0,1,1.361-1.665,2.509,2.509,0,0,1,.533-.252.741.741,0,0,1,.2-.047,5.429,5.429,0,0,0-.687.369,3.66,3.66,0,0,0-1.266,1.655,6.72,6.72,0,0,0-.343,3.1,22.38,22.38,0,0,1,.194,3.909,5.044,5.044,0,0,1-.583,1.963,6.856,6.856,0,0,1-1.194,1.482A8.019,8.019,0,0,0,289.7,413.7a2.788,2.788,0,0,0-.167,2.047A2.628,2.628,0,0,0,289.935,416.414Z" transform="translate(-289.297 -398.813)"/></g><g transform="translate(21.052 73.245)"><path class="f" d="M226.209,447.062a2.621,2.621,0,0,1-.461.292,3.981,3.981,0,0,1-1.5.429,6.485,6.485,0,0,1-2.457-.276,13.358,13.358,0,0,1-2.974-1.374,19.822,19.822,0,0,0-3.521-1.762,8.427,8.427,0,0,0-4.441-.151,26.956,26.956,0,0,0-4.723,1.634,27.9,27.9,0,0,1-5.111,1.764,9.107,9.107,0,0,1-2.755.154,7.378,7.378,0,0,1-2.57-.761,29.889,29.889,0,0,1-4.137-2.87,13.161,13.161,0,0,0-1.968-1.231l-.5-.24c-.17-.073-.345-.129-.516-.193a8.318,8.318,0,0,0-1.03-.307,10.332,10.332,0,0,0-3.9-.158,10.865,10.865,0,0,0-3.1.925c-.219.1-.416.218-.614.319a4.62,4.62,0,0,0-.551.327c-.171.113-.338.216-.491.324l-.42.329a7.348,7.348,0,0,0-.672.593,4.7,4.7,0,0,0-.456.473l-.271.3a.679.679,0,0,1-.1.1.65.65,0,0,1,.081-.112l.256-.316a4.263,4.263,0,0,1,.444-.49,7.031,7.031,0,0,1,.663-.612l.418-.34c.153-.111.32-.218.491-.335a4.669,4.669,0,0,1,.552-.339c.2-.1.4-.23.617-.33a10.865,10.865,0,0,1,3.131-.967,10.418,10.418,0,0,1,3.966.135,8.575,8.575,0,0,1,1.051.308c.174.065.353.121.527.195l.516.243a13.258,13.258,0,0,1,2,1.24,30.142,30.142,0,0,0,4.114,2.842,7.179,7.179,0,0,0,2.5.737,8.911,8.911,0,0,0,2.69-.153,27.931,27.931,0,0,0,5.071-1.748,26.9,26.9,0,0,1,4.764-1.633,8.582,8.582,0,0,1,4.538.176,19.691,19.691,0,0,1,3.541,1.8,13.394,13.394,0,0,0,2.932,1.391,6.506,6.506,0,0,0,2.415.308,4.1,4.1,0,0,0,1.49-.384C226.049,447.162,226.2,447.05,226.209,447.062Z" transform="translate(-176.962 -441.731)"/></g></g><g transform="translate(35.791)"><g transform="translate(3.308 8.051)"><path class="h" d="M228.754,222.236h0a8.6,8.6,0,0,0,8.994-7.84c.24-2.732.43-5.064.43-5.064s7.05-.178,8.032-7.077,1.842-22.921,1.842-22.921h0a24.216,24.216,0,0,0-24.524-.1l-1.126.655-1.815,33.281A8.6,8.6,0,0,0,228.754,222.236Z" transform="translate(-220.575 -175.952)"/></g><g transform="translate(21.887 21.24)"><path class="c" d="M265.475,216.172a4.664,4.664,0,0,1,1.581-.127c.252.005.455-.026.49-.157a1.361,1.361,0,0,0-.086-.736l-.5-2.032a26.676,26.676,0,0,1-.969-5.295,26.748,26.748,0,0,1,1.5,5.169l.46,2.042a1.6,1.6,0,0,1,0,1.052.656.656,0,0,1-.481.342,1.59,1.59,0,0,1-.432,0A4.656,4.656,0,0,1,265.475,216.172Z" transform="translate(-265.475 -207.825)"/></g><g transform="translate(12.26 37.604)"><path class="i" d="M250.885,251.1a16.2,16.2,0,0,1-8.676-3.729s1.485,5.249,8.46,5.521Z" transform="translate(-242.209 -247.374)"/></g><g transform="translate(2.992 6.166)"><path class="c" d="M247.522,178.421s-4.346,1.816-9.7-1.238c-3.516-2-7.681-3.118-8.65-2.442s-1.371,4.39-5.012,5.28c0,0-.146,7.121-2.966,6.711s-.441-11.32-.441-11.32l7.119-3,7.644-1.012,7.072,1.4,5.432,1.814Z" transform="translate(-219.811 -171.397)"/></g><g transform="translate(0 18.806)"><path class="h" d="M217.64,202.4c-.111-.066-4.566-2.02-5.027,2.724s4.4,4.228,4.418,4.094S217.64,202.4,217.64,202.4Z" transform="translate(-212.581 -201.944)"/><g transform="translate(1.216 1.49)"><path class="i" d="M217.478,209.386c-.019-.017-.088.05-.234.1a.832.832,0,0,1-.619-.048,2.053,2.053,0,0,1-.768-1.927,2.743,2.743,0,0,1,.346-1.161.961.961,0,0,1,.684-.574.423.423,0,0,1,.466.274c.051.139.012.23.036.241s.11-.07.091-.269a.531.531,0,0,0-.158-.315.628.628,0,0,0-.446-.166,1.168,1.168,0,0,0-.935.651,2.821,2.821,0,0,0-.415,1.295,2.156,2.156,0,0,0,1.006,2.166.89.89,0,0,0,.768-.052C217.458,209.5,217.493,209.4,217.478,209.386Z" transform="translate(-215.519 -205.543)"/></g></g><g transform="translate(0.619)"><path class="c" d="M223.945,166.767a16.315,16.315,0,0,1-3.157,2.826,5.5,5.5,0,0,1-4.052.858,3.356,3.356,0,0,1-2.657-2.929,2.438,2.438,0,0,1,2.711-2.493,1.478,1.478,0,1,1,.871-2.653c-1.2-.225-1.337-2.133-.379-2.893a3.552,3.552,0,0,1,3.494-.135,21.212,21.212,0,0,0,3.369,1.429,7.889,7.889,0,0,0,5.457-1.34,22.478,22.478,0,0,1,5.082-2.652,10.687,10.687,0,0,1,6.891.742,11.114,11.114,0,0,1,4.68,3.414,6.522,6.522,0,0,1,1.229,5.524,4.654,4.654,0,0,1-4.228,3.454,12.608,12.608,0,0,1-7.966-2.211c-3.573-2.653-11.109-2.3-11.109-2.3Z" transform="translate(-214.078 -156.495)"/></g><g transform="translate(3.876 4.743)"><path class="j" d="M221.949,167.963c-.009.015.085.09.274.219s.475.308.853.522a15.5,15.5,0,0,0,3.42,1.36,16.468,16.468,0,0,0,5.443.518,40,40,0,0,0,6.528-1.362,13.879,13.879,0,0,1,6.454-.357,6.184,6.184,0,0,1,4.144,2.952,4.7,4.7,0,0,1,.358,3.443,7.652,7.652,0,0,1-.547,1.2c.014.011.1-.074.249-.25a3.475,3.475,0,0,0,.486-.888,4.76,4.76,0,0,0-.224-3.665,6.479,6.479,0,0,0-4.353-3.247,13.983,13.983,0,0,0-6.685.317,42.974,42.974,0,0,1-6.447,1.389,16.932,16.932,0,0,1-5.318-.4A24.347,24.347,0,0,1,221.949,167.963Z" transform="translate(-221.949 -167.957)"/></g><g transform="translate(1.737 12.076)"><path class="j" d="M216.79,185.683c-.053.027.1.491.613,1.08a4.835,4.835,0,0,0,5.584,1.207c.709-.324,1.041-.683,1-.73-.045-.066-.441.177-1.132.394a5.232,5.232,0,0,1-5.2-1.124C217.119,186.027,216.858,185.642,216.79,185.683Z" transform="translate(-216.78 -185.68)"/></g><g transform="translate(3.204 9.729)"><path class="j" d="M220.346,180.013c-.121.057.243.919,1.162,1.55s1.85.674,1.86.54c.028-.144-.763-.389-1.571-.958S220.472,179.936,220.346,180.013Z" transform="translate(-220.324 -180.007)"/></g><g transform="translate(30.874 12.986)"><path class="c" d="M289.354,191.245c.063.015.2-.218.232-.643a2.624,2.624,0,0,0-1.707-2.623c-.4-.14-.671-.112-.682-.048-.041.137.934.408,1.544,1.354S289.212,191.226,289.354,191.245Z" transform="translate(-287.196 -187.878)"/></g><g transform="translate(31.077 9.55)"><path class="j" d="M292.1,179.575a19.009,19.009,0,0,1-1.9,2.233,19.057,19.057,0,0,1-2.51,1.521,4.79,4.79,0,0,0,4.413-3.754Z" transform="translate(-287.686 -179.573)"/></g><g transform="translate(24.963 20.446)"><g transform="translate(1.205 0.4)"><path class="c" d="M277.954,207.974a1.067,1.067,0,0,1-1.16.935,1.021,1.021,0,0,1-.967-1.1,1.068,1.068,0,0,1,1.159-.936A1.022,1.022,0,0,1,277.954,207.974Z" transform="translate(-275.823 -206.873)"/></g><path class="c" d="M277.087,207.314c-.149.121-.874-.577-2.013-.722-1.136-.162-2.049.315-2.154.159-.053-.07.114-.3.512-.519a2.928,2.928,0,0,1,1.747-.3,2.811,2.811,0,0,1,1.58.748C277.074,207,277.16,207.261,277.087,207.314Z" transform="translate(-272.91 -205.907)"/></g><g transform="translate(14.499 19.07)"><g transform="translate(1.304 0.336)"><path class="c" d="M252.905,204.494a1.067,1.067,0,0,1-1.16.935,1.021,1.021,0,0,1-.967-1.1,1.069,1.069,0,0,1,1.159-.936A1.022,1.022,0,0,1,252.905,204.494Z" transform="translate(-250.774 -203.393)"/></g><path class="c" d="M251.8,203.988c-.149.121-.875-.577-2.013-.723-1.136-.162-2.048.315-2.154.159-.053-.07.112-.3.512-.519a2.927,2.927,0,0,1,1.746-.3,2.814,2.814,0,0,1,1.58.748C251.784,203.67,251.871,203.935,251.8,203.988Z" transform="translate(-247.622 -202.581)"/></g><g transform="translate(13.691 15.725)"><path class="c" d="M250.215,196.116c-.225.2-1.078-.422-2.231-.53-1.15-.137-2.116.292-2.293.049-.083-.116.07-.41.494-.692a3.056,3.056,0,0,1,3.692.393C250.232,195.7,250.32,196.02,250.215,196.116Z" transform="translate(-245.668 -194.497)"/></g><g transform="translate(24.799 18.495)"><path class="c" d="M276.78,201.929c.05.135-.146.361-.561.541a3.372,3.372,0,0,1-3.311-.52c-.339-.3-.456-.574-.368-.687.2-.234,1.045.169,2.121.323C275.734,201.769,276.664,201.646,276.78,201.929Z" transform="translate(-272.512 -201.192)"/></g><g transform="translate(20.768 31.481)"><path class="c" d="M263.018,232.576c.119.007.2.222.187.479s-.125.46-.243.453-.2-.222-.187-.479S262.9,232.569,263.018,232.576Z" transform="translate(-262.772 -232.576)"/></g></g></g><g transform="translate(0 39.672)"><g transform="translate(45.404)"><g transform="translate(0.089 0.107)"><path class="h" d="M233.834,269.071s2.309-3.261,3.759-5.093c1.757-2.22,2.805-4.133,2.805-5.17v-5.494a2.023,2.023,0,0,1,2.5,1.97c.312,2.488,0,3.11,0,3.11s9.188-6.188,9.811-5.739c1.095.789-.981,2.441-.981,2.441l-5.6,5.06,3.189-1.009a1.5,1.5,0,0,1,1.867.938h0a1.482,1.482,0,0,1-.569,1.7l-1.887,1.635.95-.382a1.459,1.459,0,0,1,1.847.694h0a1.443,1.443,0,0,1-.237,1.638l-1.719,1.833.806-.429a1.048,1.048,0,0,1,1.428.453h0a1.036,1.036,0,0,1-.285,1.278l-10.285,8.132Z" transform="translate(-233.834 -252.631)"/></g><path class="i" d="M241.106,276.487s-.043-.038-.128-.121l-.377-.374-1.461-1.471-5.481-5.554-.04-.041.033-.047c.673-.952,1.4-1.974,2.2-3.053.4-.54.809-1.093,1.243-1.656s.886-1.13,1.31-1.743a16.847,16.847,0,0,0,1.189-1.945,4.178,4.178,0,0,0,.587-2.246c0-1.631,0-3.326-.006-5.075v-.083l.077-.014a2.319,2.319,0,0,1,1.661.274,2.07,2.07,0,0,1,.6.634,2.957,2.957,0,0,1,.3.819,13.043,13.043,0,0,1,.187,1.717c.015.29.02.582.007.876a3.032,3.032,0,0,1-.142.9l-.152-.134c1.418-.951,2.889-1.914,4.408-2.875.76-.48,1.532-.958,2.321-1.426a23.812,23.812,0,0,1,2.452-1.314,3.118,3.118,0,0,1,.354-.128,1.029,1.029,0,0,1,.2-.038.424.424,0,0,1,.125.009.259.259,0,0,1,.113.072.781.781,0,0,1,.312.727,2.522,2.522,0,0,1-.737,1.288c-.333.359-.715.653-1.056.976l-1.049.947-4.086,3.689-.1-.177,1.867-.59.919-.29c.154-.048.3-.1.46-.142a1.506,1.506,0,0,1,.5-.056,1.583,1.583,0,0,1,.824,2.89l.009-.007-1.889,1.633-.1-.161.924-.37a1.585,1.585,0,0,1,1.018-.066,1.536,1.536,0,0,1,.818,2.413c-.208.247-.416.449-.62.673l-1.2,1.279-.1-.131.864-.455a1.119,1.119,0,0,1,1.36,1.7,1.822,1.822,0,0,1-.339.309l-.343.27-.672.528-1.282,1.007-4.251,3.33-2.693,2.1-.7.542c-.158.121-.238.177-.238.177s.082-.072.24-.2l.7-.566,2.676-2.144,4.2-3.355,1.267-1.008.664-.528.339-.27a1.674,1.674,0,0,0,.311-.283.962.962,0,0,0-1.171-1.457l-.854.454-.442.235.342-.366,1.2-1.284c.2-.218.423-.44.607-.66a1.355,1.355,0,0,0-.727-2.128,1.394,1.394,0,0,0-.9.062l-.924.372-.528.213.43-.374,1.885-1.637,0,0,0,0a1.383,1.383,0,0,0-.722-2.524,2.449,2.449,0,0,0-.891.19l-.919.292-1.866.592-.458.145.357-.322,4.086-3.7,1.049-.948c.347-.327.722-.617,1.039-.959a2.354,2.354,0,0,0,.68-1.162.561.561,0,0,0-.233-.54c-.025-.062-.133-.027-.244,0a3.011,3.011,0,0,0-.329.119,23.855,23.855,0,0,0-2.426,1.3c-.787.466-1.557.943-2.317,1.422-1.517.958-2.989,1.92-4.406,2.868l-.263.176.111-.31a3.058,3.058,0,0,0,.121-.818c.012-.286.008-.572-.007-.857a12.977,12.977,0,0,0-.18-1.684,2.738,2.738,0,0,0-.276-.758,1.87,1.87,0,0,0-.537-.568,2.125,2.125,0,0,0-1.505-.25l.077-.1c0,1.749,0,3.444-.006,5.075,0,.206.006.4-.012.618a3.3,3.3,0,0,1-.134.6,7.323,7.323,0,0,1-.467,1.106,17.016,17.016,0,0,1-1.208,1.962c-.428.615-.884,1.19-1.321,1.745s-.848,1.111-1.248,1.648c-.8,1.074-1.534,2.092-2.211,3.04l-.007-.088,5.4,5.579,1.447,1.5.374.393C241.063,276.437,241.106,276.487,241.106,276.487Z" transform="translate(-233.619 -252.371)"/></g><g transform="translate(0 15.023)"><path class="e" d="M176.782,297.77l-28.194,37.223a15.063,15.063,0,0,1-18.4,4.65c-4.684-2.242-8.12-6.95-5.245-16.643l27.008-18.479,16.416-15.844Z" transform="translate(-123.891 -288.677)"/></g><g transform="translate(3.964 14.878)"><path class="c" d="M135.8,339.438s.105.049.3.154l.882.468a12.044,12.044,0,0,0,3.686.988,12.471,12.471,0,0,0,2.762-.05,14.33,14.33,0,0,0,1.557-.275c.268-.061.534-.148.809-.223a7.624,7.624,0,0,0,.827-.271,16.218,16.218,0,0,0,3.388-1.664,13.349,13.349,0,0,0,3.178-2.777c1.925-2.277,3.913-4.876,6.062-7.649s4.409-5.769,6.792-8.914c4.757-6.3,9.959-13.246,15.393-20.557l.866-1.166.007.137-8.413-9.094.144.01c-5.747,4.744-11.067,9.273-15.889,13.306s-9.137,7.584-12.788,10.474-6.618,5.141-8.685,6.652c-1.027.764-1.84,1.328-2.382,1.72l-.62.439c-.14.1-.214.144-.214.144s.067-.057.2-.16l.609-.454c.535-.4,1.341-.975,2.361-1.748,2.053-1.529,5.007-3.794,8.644-6.7s7.946-6.46,12.755-10.508,10.127-8.579,15.873-13.328l.077-.063.068.073,8.416,9.091.061.065-.053.072-.866,1.166c-5.435,7.311-10.641,14.255-15.408,20.548-2.388,3.143-4.658,6.129-6.809,8.9s-4.151,5.362-6.089,7.64a13.477,13.477,0,0,1-3.219,2.793,16.309,16.309,0,0,1-3.422,1.663,7.707,7.707,0,0,1-.834.269c-.277.075-.546.161-.816.221a14.283,14.283,0,0,1-1.571.268,12.455,12.455,0,0,1-2.782.032,11.826,11.826,0,0,1-3.7-1.032c-.388-.207-.678-.377-.874-.487S135.8,339.438,135.8,339.438Z" transform="translate(-133.472 -288.328)"/></g><g transform="translate(0.386 54.605)"><path class="f" d="M152.112,386.024a7.7,7.7,0,0,0-.986-.565,5.961,5.961,0,0,0-3.031-.382,10.755,10.755,0,0,0-2.09.436c-.736.223-1.5.537-2.312.857a23.661,23.661,0,0,1-2.59.905,8.177,8.177,0,0,1-2.942.287,10.212,10.212,0,0,1-2.848-.789c-.881-.365-1.7-.78-2.488-1.14a9.723,9.723,0,0,0-4.4-1.13,4.745,4.745,0,0,0-2.845,1.034,4.607,4.607,0,0,0-.752.847,1.507,1.507,0,0,1,.139-.263,3.3,3.3,0,0,1,.557-.648,4.728,4.728,0,0,1,2.892-1.122,9.713,9.713,0,0,1,4.491,1.1c.8.356,1.615.767,2.488,1.125a10.1,10.1,0,0,0,2.79.77,8.02,8.02,0,0,0,2.866-.276,24.285,24.285,0,0,0,2.572-.886c.812-.315,1.582-.624,2.333-.843a10.657,10.657,0,0,1,2.128-.417,5.872,5.872,0,0,1,3.08.458A3.338,3.338,0,0,1,152.112,386.024Z" transform="translate(-124.825 -384.337)"/></g><g transform="translate(22.425 33.697)"><path class="f" d="M193.3,343.922a1.509,1.509,0,0,0,.108-.738,2.081,2.081,0,0,0-1.244-1.514,7,7,0,0,0-1.37-.417,7.267,7.267,0,0,1-1.6-.513,10.348,10.348,0,0,1-3.017-2.364,37.94,37.94,0,0,0-2.643-2.737,6.921,6.921,0,0,0-2.651-1.514,4.554,4.554,0,0,0-2.051-.14c-.484.087-.735.206-.743.185a.7.7,0,0,1,.178-.092,2.8,2.8,0,0,1,.548-.175,4.416,4.416,0,0,1,2.108.075,6.915,6.915,0,0,1,2.74,1.51,34.9,34.9,0,0,1,2.671,2.74,10.4,10.4,0,0,0,2.945,2.332c1.035.513,2.136.552,2.951.973a2.142,2.142,0,0,1,1.262,1.642,1.166,1.166,0,0,1-.087.574A.537.537,0,0,1,193.3,343.922Z" transform="translate(-178.086 -333.809)"/></g></g></g><g transform="translate(61.165 35.797)"><path class="c" d="M205.634,142.149c0,.02-.153.047-.4.176a1.936,1.936,0,0,0-.8.819,1.631,1.631,0,0,0,.022,1.613,1.705,1.705,0,0,0,3.165-.437,1.631,1.631,0,0,0-.415-1.558,1.935,1.935,0,0,0-.991-.572c-.271-.057-.43-.041-.431-.062a.911.911,0,0,1,.445-.021,1.961,1.961,0,0,1,1.547,1.272,1.722,1.722,0,0,1,.036.99,1.894,1.894,0,0,1-3.529.487,1.725,1.725,0,0,1-.233-.963,1.962,1.962,0,0,1,1.145-1.644A.911.911,0,0,1,205.634,142.149Z" transform="translate(-204.052 -142.095)"/></g><g transform="translate(85.548 7.217)"><path class="c" d="M267.1,88.287h-.016a.621.621,0,0,1-.6-.636l.141-5.524a.621.621,0,0,1,.8-.577,3.938,3.938,0,0,0,3.1-.388,3.594,3.594,0,0,0,1.757-2.245,3.667,3.667,0,0,0-.57-2.808,3.986,3.986,0,0,0-2.56-1.781,4.6,4.6,0,0,0-4.968,3.02.621.621,0,0,1-1.173-.407,5.889,5.889,0,0,1,6.367-3.834,5.233,5.233,0,0,1,3.373,2.323,4.912,4.912,0,0,1,.739,3.77,4.837,4.837,0,0,1-2.349,3.04,5.281,5.281,0,0,1-3.3.669l-.122,4.775A.62.62,0,0,1,267.1,88.287Z" transform="translate(-262.979 -73.025)"/><g transform="translate(3.267 17.084)"><path class="c" d="M272.69,115.22a.908.908,0,1,1-.907-.908A.907.907,0,0,1,272.69,115.22Z" transform="translate(-270.875 -114.312)"/></g></g><g transform="translate(17.55 72.979)"><g transform="translate(0 2.397)"><path class="c" d="M102.849,248.536a4.307,4.307,0,0,1-2.589-.823,4.161,4.161,0,0,1-1.585-2.845,3.914,3.914,0,0,1,.808-2.952,3.856,3.856,0,0,1,2.753-1.341,4.19,4.19,0,0,1,2.452.6l1.636-3.1a.621.621,0,1,1,1.1.579l-1.978,3.749a.621.621,0,0,1-.977.16,2.871,2.871,0,0,0-2.157-.751,2.612,2.612,0,0,0-1.87.893,2.671,2.671,0,0,0-.533,2.015,2.917,2.917,0,0,0,1.1,2,3.431,3.431,0,0,0,4.255-.371.62.62,0,1,1,.87.885A4.7,4.7,0,0,1,102.849,248.536Z" transform="translate(-98.645 -237.746)"/></g><g transform="translate(8.636)"><path class="c" d="M119.587,232.341a.7.7,0,1,1,.314.933A.7.7,0,0,1,119.587,232.341Z" transform="translate(-119.515 -231.954)"/></g></g><g transform="translate(139.183 64.615)"><path class="c" d="M400.435,222.847a.62.62,0,0,1-.5-.257l-2.484-3.435a.621.621,0,0,1,.29-.947,2.874,2.874,0,0,0,1.629-1.6,2.611,2.611,0,0,0,.029-2.072,2.671,2.671,0,0,0-1.57-1.371,2.917,2.917,0,0,0-2.277.1,3.432,3.432,0,0,0-1.554,3.979.621.621,0,0,1-1.179.388,4.667,4.667,0,0,1,2.173-5.475,4.16,4.16,0,0,1,3.252-.159,3.911,3.911,0,0,1,2.288,2.033,3.854,3.854,0,0,1-.019,3.062,4.2,4.2,0,0,1-1.626,1.931l2.055,2.841a.621.621,0,0,1-.5.984Z" transform="translate(-392.598 -211.74)"/><g transform="translate(8.731 11.808)"><path class="c" d="M414.948,240.55a.7.7,0,1,1-.976-.132A.7.7,0,0,1,414.948,240.55Z" transform="translate(-413.698 -240.276)"/></g></g></g></g></svg>