<svg xmlns="http://www.w3.org/2000/svg" width="261.685" height="158.618" viewBox="0 0 261.685 158.618"><defs><style>.a{fill:#e5f4ff;}.b{fill:#ebebeb;}.c{fill:#fafafa;}.d{fill:#f89d1f;}.e,.j,.o{opacity:0.2;}.f{fill:#c9e7fb;}.g,.o{fill:#fff;}.h{fill:#263238;}.i{fill:#465d84;}.k{fill:#455a64;}.l{opacity:0.4;}.m{fill:#5ab7f6;}.n{fill:#8296b7;}</style></defs><g transform="translate(0 0)"><path class="a" d="M247.621,92.893a23.161,23.161,0,0,0-20.665.882c-6.612,3.731-11.111,10.595-17.91,13.97-7.715,3.831-16.825,2.5-25.432,2.651s-18.537,2.974-21.706,11c-2.676,6.782.593,14.729-1.7,21.651-1.9,5.739-7.152,9.544-11.208,14.017-6.73,7.424-10.484,17.795-8.887,27.7s8.988,18.932,18.693,21.367c10.546,2.646,22.175-2.283,32.345,1.566,6.845,2.591,11.7,8.692,17.887,12.606a31.96,31.96,0,0,0,34.808-.987c5.126-3.664,9.089-8.832,14.42-12.189,13.8-8.691,33.021-3.243,47.034-11.59,11.132-6.632,16.093-22.018,10.941-33.933-3.776-8.732-11.945-15.05-15.341-23.938-2.851-7.462-1.981-15.761-2.863-23.7s-4.555-16.68-12.161-19.057c-5.016-1.568-10.385.057-15.594.742-8.171,1.074-15.213.775-22.664-2.757" transform="translate(-98.09 -77.903)"/><path class="b" d="M661.657,277.61l.183.333a2.242,2.242,0,0,0,.892.886l.336.182-.336.182a2.243,2.243,0,0,0-.892.886l-.183.333-.184-.333a2.242,2.242,0,0,0-.892-.886l-.336-.182.336-.182a2.242,2.242,0,0,0,.892-.886Z" transform="translate(-419.184 -192.881)"/><path class="b" d="M106.415,320.056l.184.334a2.234,2.234,0,0,0,.892.886l.335.183-.335.182a2.232,2.232,0,0,0-.892.886l-.184.333-.184-.333a2.232,2.232,0,0,0-.892-.886l-.335-.182.335-.183a2.234,2.234,0,0,0,.892-.886Z" transform="translate(-76.654 -219.016)"/><path class="b" d="M84.171,416.143l.314.575a3.842,3.842,0,0,0,1.525,1.529l.573.315-.573.314a3.842,3.842,0,0,0-1.525,1.529l-.314.575-.313-.575a3.843,3.843,0,0,0-1.525-1.529l-.573-.314.573-.315a3.843,3.843,0,0,0,1.525-1.529Z" transform="translate(-62.314 -278.18)"/><path class="b" d="M313.008,74.722l.313.575a3.841,3.841,0,0,0,1.525,1.53l.574.314-.574.315a3.842,3.842,0,0,0-1.525,1.529l-.313.575-.314-.575a3.842,3.842,0,0,0-1.525-1.529l-.573-.315.573-.314a3.841,3.841,0,0,0,1.525-1.53Z" transform="translate(-203.484 -67.955)"/><path class="c" d="M527.182,208.8l.313.575a3.842,3.842,0,0,0,1.525,1.529l.574.314-.574.315a3.842,3.842,0,0,0-1.525,1.529l-.313.575-.314-.575a3.843,3.843,0,0,0-1.525-1.529l-.573-.315.573-.314a3.843,3.843,0,0,0,1.525-1.529Z" transform="translate(-335.609 -150.512)"/><g transform="translate(76.202 53.646)"><g transform="translate(0)"><path class="d" d="M232.246,280.294c-.358,1.435,18.028,16.681,61.594,13.543,37.434-2.7,55.768-19.882,55.768-19.882Z" transform="translate(-231.349 -244.277)"/><path class="e" d="M232.246,280.294c-.358,1.435,18.028,16.681,61.594,13.543,37.434-2.7,55.768-19.882,55.768-19.882Z" transform="translate(-231.349 -244.277)"/><ellipse class="d" cx="58.94" cy="7.861" rx="58.94" ry="7.861" transform="translate(0 27.348) rotate(-2.73)"/><path class="f" d="M314.165,227.1s-1.718-26.709,24.686-30.1,28.755,24.677,28.755,24.677S350.516,234.746,314.165,227.1Z" transform="translate(-281.874 -196.721)"/><g transform="translate(35.093 6.618)"><path class="g" d="M332.333,213.955c.087.129-.829.84-2.165,2.115-.332.32-.7.67-1.062,1.069-.382.383-.753.827-1.155,1.283a28.353,28.353,0,0,0-4.21,6.657c-.239.559-.482,1.085-.665,1.595-.2.5-.365.981-.512,1.42-.58,1.754-.831,2.888-.984,2.865a7.11,7.11,0,0,1,.305-3.057c.107-.464.233-.97.41-1.5.155-.539.376-1.1.6-1.685a23.03,23.03,0,0,1,4.364-6.9c.436-.455.843-.893,1.264-1.264.4-.387.807-.717,1.179-1.012A7.068,7.068,0,0,1,332.333,213.955Z" transform="translate(-321.515 -213.942)"/></g><g transform="translate(89.633 29.154)"><path class="g" d="M487.931,272.591a1.164,1.164,0,0,1-.163.2,4.751,4.751,0,0,1-.548.491,9.633,9.633,0,0,1-2.392,1.249,61.311,61.311,0,0,1-17.268,3.991c-1.134.091-2.053.132-2.689.149l-.732.011a.128.128,0,1,1,0-.04l.73-.048c.634-.04,1.55-.1,2.68-.212a67.283,67.283,0,0,0,17.23-3.982,10.255,10.255,0,0,0,2.4-1.18C487.688,272.85,487.916,272.577,487.931,272.591Z" transform="translate(-463.883 -272.591)"/></g><g transform="translate(47.119 40.977)"><path class="h" d="M358.066,312.44a1.748,1.748,0,0,1-.362-.222,8.676,8.676,0,0,1-.908-.719,11.474,11.474,0,0,1-1.2-1.24,12.01,12.01,0,0,1-2.075-3.659,11.554,11.554,0,0,1-.451-1.664,8.649,8.649,0,0,1-.152-1.15,1.726,1.726,0,0,1-.005-.426c.037,0,.081.6.3,1.547a13.2,13.2,0,0,0,.486,1.63,12.89,12.89,0,0,0,2.045,3.606,13.109,13.109,0,0,0,1.149,1.252C357.593,312.062,358.088,312.409,358.066,312.44Z" transform="translate(-352.907 -303.359)"/></g><g transform="translate(50.168 43.908)"><path class="h" d="M361.167,311.037c.009.028-.1.071-.129.216a.273.273,0,0,0,.034.22.236.236,0,0,0,.4-.109.272.272,0,0,0-.082-.207c-.1-.107-.214-.091-.221-.12s.122-.111.309.009a.4.4,0,0,1,.178.326.407.407,0,0,1-.735.2.4.4,0,0,1-.013-.372C361.006,311,361.173,311.011,361.167,311.037Z" transform="translate(-360.866 -310.985)"/></g><g transform="translate(51.885 46.984)"><path class="h" d="M365.648,319.042c.009.028-.095.071-.129.216a.271.271,0,0,0,.034.22.236.236,0,0,0,.4-.109.273.273,0,0,0-.083-.207c-.1-.107-.214-.091-.221-.12s.122-.111.309.009a.4.4,0,0,1,.178.326.407.407,0,0,1-.735.2.4.4,0,0,1-.013-.371C365.487,319.009,365.655,319.016,365.648,319.042Z" transform="translate(-365.348 -318.99)"/></g><g transform="translate(0.511 30.399)"><path class="h" d="M231.247,280.381a1.972,1.972,0,0,1,.311-.1l.9-.257c.785-.222,1.927-.518,3.344-.859,2.834-.684,6.784-1.5,11.189-2.131s8.427-.948,11.339-1.084c1.456-.069,2.635-.1,3.45-.11l.939-.006a2.046,2.046,0,0,1,.328.012,1.984,1.984,0,0,1-.327.029l-.937.043c-.814.03-1.991.087-3.445.174-2.907.172-6.918.515-11.318,1.141s-8.345,1.423-11.185,2.07c-1.42.323-2.567.6-3.357.8l-.912.221A2.055,2.055,0,0,1,231.247,280.381Z" transform="translate(-231.247 -275.831)"/></g><g transform="translate(73.604 30.425)"><path class="h" d="M434.58,283.431a3.225,3.225,0,0,1-.492-.3l-1.306-.869c-1.1-.732-2.64-1.725-4.37-2.766s-3.33-1.929-4.495-2.56l-1.38-.745a3.179,3.179,0,0,1-.5-.292,3.2,3.2,0,0,1,.532.223c.337.154.819.39,1.411.689,1.183.6,2.8,1.471,4.532,2.513s3.262,2.057,4.347,2.82c.543.381.977.7,1.271.922A3.2,3.2,0,0,1,434.58,283.431Z" transform="translate(-422.041 -275.897)"/></g><g transform="translate(75.178 32.794)"><path class="h" d="M426.38,282.186c.02.023-.093.118-.087.317a.4.4,0,0,0,.125.284.354.354,0,0,0,.554-.245.4.4,0,0,0-.125-.284c-.142-.139-.288-.119-.292-.15s.158-.111.38.04a.515.515,0,0,1,.22.392.523.523,0,0,1-.863.382.515.515,0,0,1-.141-.427C426.192,282.228,426.377,282.161,426.38,282.186Z" transform="translate(-426.149 -282.063)"/></g><g transform="translate(25.604 31.305)"><path class="h" d="M296.978,278.311c.02.023-.093.118-.087.317a.4.4,0,0,0,.125.284.355.355,0,0,0,.554-.245.4.4,0,0,0-.125-.284c-.142-.139-.288-.119-.292-.15s.158-.111.381.04a.513.513,0,0,1,.22.392.523.523,0,0,1-.863.382.516.516,0,0,1-.141-.428C296.79,278.354,296.975,278.286,296.978,278.311Z" transform="translate(-296.747 -278.189)"/></g><g transform="translate(16.459 32.461)"><path class="h" d="M273.107,281.32c.021.023-.093.118-.086.317a.4.4,0,0,0,.124.284.355.355,0,0,0,.554-.245.4.4,0,0,0-.125-.284c-.142-.139-.288-.119-.292-.149s.158-.111.38.04a.514.514,0,0,1,.22.392.523.523,0,0,1-.863.382.515.515,0,0,1-.141-.427C272.919,281.363,273.1,281.295,273.107,281.32Z" transform="translate(-272.876 -281.198)"/></g><g transform="translate(6.03 34.078)"><path class="h" d="M245.885,285.527c.02.023-.093.118-.087.317a.4.4,0,0,0,.125.284.355.355,0,0,0,.554-.245.4.4,0,0,0-.125-.284c-.142-.139-.288-.119-.292-.15s.158-.111.381.04a.513.513,0,0,1,.22.392.523.523,0,0,1-.863.382.515.515,0,0,1-.141-.427C245.7,285.57,245.882,285.5,245.885,285.527Z" transform="translate(-245.654 -285.405)"/></g><g transform="translate(79.353 35.621)"><path class="h" d="M437.28,289.542c.021.023-.093.118-.087.317a.4.4,0,0,0,.125.284.355.355,0,0,0,.554-.245.4.4,0,0,0-.125-.284c-.142-.139-.288-.119-.292-.149s.158-.111.38.04a.516.516,0,0,1,.22.392.523.523,0,0,1-.863.382.515.515,0,0,1-.141-.427C437.092,289.585,437.277,289.517,437.28,289.542Z" transform="translate(-437.049 -289.42)"/></g></g><g transform="translate(50.455 1.716)"><path class="i" d="M372.23,204.614a8.035,8.035,0,0,0-10.469,6.147q-.02.1-.038.21a6.993,6.993,0,0,0-.017,2.341,11.411,11.411,0,0,0,1.516,4.066c2.2,3.57,3.371,3.685,3.587,5.722s.519,2.471-.519,3.338a5.933,5.933,0,0,0-2.2.563c-.778.477-1.426.824-1.513,3.208s-.187,3.851-.187,3.851a63.606,63.606,0,0,0,12.427-.48l-.485-6.015a1.637,1.637,0,0,0-1.21-1.127c-.951-.174-2.42-.13-2.507-.651s.129-.694.129-.694a4.386,4.386,0,0,0,2.853.174c1.124-.52,2.377-1.214,2.593-2.081a24.418,24.418,0,0,0,.748-3.945,8.748,8.748,0,0,0,1.767-4.981c.078-3.378-2.17-7.894-5.152-9.151C373.1,204.921,372.661,204.757,372.23,204.614Z" transform="translate(-361.616 -203.039)"/><path class="h" d="M374.605,224.869s6.42-1.954,5.463,5.49C380.068,230.359,373.2,231.223,374.605,224.869Z" transform="translate(-369.513 -215.626)"/><path class="h" d="M395.154,229.7s-2.7-6.472,2.039-5.826C397.193,223.874,399.768,228.56,395.154,229.7Z" transform="translate(-381.832 -215.128)"/><g transform="translate(15.541 18.37)"><path class="i" d="M408.645,253.315a4.658,4.658,0,0,0-1.434.7c-.268.328-.712,1.461-1.183,1.6a2.423,2.423,0,0,1-1.19-.115,5.482,5.482,0,0,0-.775-2.01c-.523-.621-.647-.469-.647-.469s-1.3-.034-1.23-.76c0,0,.539-.633,1.457.25a.749.749,0,0,0,1,.064,2.757,2.757,0,0,0,.536-2.14s-.517-1.2.292-1.443c0,0,.675.05.3,1.454,0,0-.593,1.5.228,2.087,0,0,.666.294,1.416-1.006l.25-.475s.041-1.03.933-1.056a.218.218,0,0,1,.224.176,1,1,0,0,1-.693,1.143s-1.024.759-.891,1.658c0,0,.311.336,1.081-.019l.283-.1s.972-.83,1.112-.447C409.883,252.856,409.33,253.348,408.645,253.315Z" transform="translate(-402.183 -248.992)"/><path class="i" d="M407.081,265.388l-1.254,5.35,1.087-.175,1.117-.22.647-4.968Z" transform="translate(-404.431 -259.079)"/></g><g class="j" transform="translate(3.278 3.517)"><path class="g" d="M371.2,210.341a1.03,1.03,0,0,0-1.009.808,1.077,1.077,0,0,0,.662,1.157,1.02,1.02,0,0,0,.991-1.755,1.016,1.016,0,0,0-.851-.184" transform="translate(-370.172 -210.34)"/></g><path class="k" d="M376.795,229.127a.428.428,0,0,0-.448.3.448.448,0,0,0,.231.5.424.424,0,0,0,.476-.69.422.422,0,0,0-.346-.108" transform="translate(-370.695 -218.39)"/><path class="k" d="M377.617,233.246a.218.218,0,0,0-.228.151.228.228,0,0,0,.117.256.215.215,0,0,0,.241-.35.213.213,0,0,0-.175-.055" transform="translate(-371.342 -220.927)"/><g class="j" transform="translate(2.502 5.909)"><path class="g" d="M368.411,216.564a.4.4,0,1,0,.285.008" transform="translate(-368.147 -216.564)"/></g><g transform="translate(4.156 10.244)"><path class="h" d="M376.947,233.043a.8.8,0,0,1-.3.019,3.8,3.8,0,0,1-.821-.123,4.46,4.46,0,0,1-3.343-3.964,3.836,3.836,0,0,1,.015-.832.821.821,0,0,1,.069-.3c.037,0-.034.433.056,1.114a4.6,4.6,0,0,0,3.241,3.843C376.515,233.005,376.949,233.006,376.947,233.043Z" transform="translate(-372.465 -227.846)"/></g><g transform="translate(6.614 8.364)"><path class="h" d="M382.835,225.245a5.353,5.353,0,0,0-3.955-2.251,1.654,1.654,0,0,1,.7-.022,4.285,4.285,0,0,1,2.907,1.654A1.663,1.663,0,0,1,382.835,225.245Z" transform="translate(-378.88 -222.953)"/></g><g transform="translate(12.4 8.179)"><path class="h" d="M394.114,225.734a1.644,1.644,0,0,1-.109-.587,3.591,3.591,0,0,1,.126-1.444,1.9,1.9,0,0,1,.936-1.114.789.789,0,0,1,.6-.094,5.114,5.114,0,0,0-.529.219,1.965,1.965,0,0,0-.813,1.052,4.462,4.462,0,0,0-.174,1.375A1.978,1.978,0,0,1,394.114,225.734Z" transform="translate(-393.983 -222.472)"/></g><g transform="translate(13.475 13.863)"><path class="h" d="M398.91,237.266a1.871,1.871,0,0,1-2.121,1.045,3.269,3.269,0,0,0,2.121-1.045Z" transform="translate(-396.789 -237.264)"/></g><g transform="translate(10.474 16.739)"><path class="h" d="M390.372,245.61c.012.022-.076.1-.259.149a.947.947,0,0,1-1.137-.712c-.04-.186,0-.3.02-.3s.048.107.114.256a.994.994,0,0,0,.984.616C390.255,245.615,390.359,245.583,390.372,245.61Z" transform="translate(-388.957 -244.749)"/></g><g transform="translate(6.962 20.025)"><path class="h" d="M383.6,255.57a1.569,1.569,0,0,1-.69.022,4.037,4.037,0,0,1-2.805-1.674,1.582,1.582,0,0,1-.31-.618,4.857,4.857,0,0,1,.423.533,4.651,4.651,0,0,0,2.714,1.62A4.818,4.818,0,0,1,383.6,255.57Z" transform="translate(-379.788 -253.299)"/></g><g transform="translate(3.343 27.393)"><path class="h" d="M370.445,276.157a17.042,17.042,0,0,1-.007-3.683,17.042,17.042,0,0,1,.007,3.683Z" transform="translate(-370.342 -272.474)"/></g><g transform="translate(4.26 29.044)"><path class="h" d="M375.864,277.378a3.678,3.678,0,0,1-1.707.216,1.845,1.845,0,0,1-1.187-.357c-.251-.234-.249-.471-.225-.468s.077.186.315.358a2.012,2.012,0,0,0,1.107.266C375.1,277.447,375.854,277.32,375.864,277.378Z" transform="translate(-372.735 -276.769)"/></g><g transform="translate(10.835 27.67)"><path class="h" d="M390.2,276.292a12.188,12.188,0,0,1-.273-3.1,12.192,12.192,0,0,1,.273,3.1Z" transform="translate(-389.899 -273.194)"/></g><g transform="translate(9.237 28.285)"><path class="h" d="M387.441,274.8c.052.011-.127.516-.665.83a1.2,1.2,0,0,1-1.047.181,6.051,6.051,0,0,0,.945-.353C387.155,275.176,387.389,274.767,387.441,274.8Z" transform="translate(-385.728 -274.794)"/></g><g transform="translate(12.656 1.16)"><path class="i" d="M396.733,204.22a3.771,3.771,0,0,0-2.073,1.838c-.023-.007,0-.174.1-.423a2.537,2.537,0,0,1,1.537-1.363C396.56,204.2,396.729,204.2,396.733,204.22Z" transform="translate(-394.651 -204.206)"/></g><path class="i" d="M400.119,203.071a.523.523,0,0,0-.685.206.463.463,0,0,0,.563.656.519.519,0,0,0,.237-.789.288.288,0,0,0-.278-.128" transform="translate(-384.915 -202.311)"/><g transform="translate(10.896 0.459)"><path class="i" d="M392.14,202.395a3.769,3.769,0,0,0-2.073,1.838c-.023-.007,0-.174.105-.422a2.537,2.537,0,0,1,1.537-1.363C391.967,202.37,392.136,202.371,392.14,202.395Z" transform="translate(-390.058 -202.381)"/></g><path class="i" d="M395.526,201.246a.523.523,0,0,0-.685.206.463.463,0,0,0,.563.656.519.519,0,0,0,.237-.789.289.289,0,0,0-.278-.127" transform="translate(-382.082 -201.187)"/></g></g><path class="c" d="M264.621,217.1l.184.333a2.232,2.232,0,0,0,.892.886l.335.182-.335.183a2.234,2.234,0,0,0-.892.886l-.184.334-.184-.334a2.234,2.234,0,0,0-.892-.886l-.335-.183.335-.182a2.232,2.232,0,0,0,.892-.886Z" transform="translate(-174.252 -155.625)"/><path class="b" d="M339.746,356.569l.183.334a2.241,2.241,0,0,0,.892.886l.336.182-.336.182a2.239,2.239,0,0,0-.892.886l-.183.333-.184-.333a2.237,2.237,0,0,0-.892-.886l-.336-.182.336-.182a2.239,2.239,0,0,0,.892-.886Z" transform="translate(-220.596 -241.499)"/><path class="b" d="M190.612,443.838l.184.333a2.232,2.232,0,0,0,.892.886l.335.182-.335.183a2.233,2.233,0,0,0-.892.886l-.184.334-.184-.334a2.233,2.233,0,0,0-.892-.886l-.336-.183.336-.182a2.232,2.232,0,0,0,.892-.886Z" transform="translate(-128.595 -295.233)"/><path class="k" d="M512.5,57.113l.182.333a2.223,2.223,0,0,0,.883.886l.332.182-.332.182a2.226,2.226,0,0,0-.883.886l-.182.333-.182-.333a2.226,2.226,0,0,0-.883-.886l-.332-.182.332-.182a2.224,2.224,0,0,0,.883-.886Z" transform="translate(-327.18 -57.113)"/><path class="k" d="M379.992,395.079l.182.334a2.227,2.227,0,0,0,.883.886l.332.183-.332.182a2.226,2.226,0,0,0-.883.886l-.182.333-.182-.333a2.223,2.223,0,0,0-.883-.886l-.332-.182.332-.183a2.225,2.225,0,0,0,.883-.886Z" transform="translate(-245.433 -265.211)"/><path class="k" d="M507.729,329.911l.182.333a2.231,2.231,0,0,0,.883.886l.332.182-.332.182a2.231,2.231,0,0,0-.883.886l-.182.333-.182-.333a2.228,2.228,0,0,0-.883-.886l-.332-.182.332-.182a2.229,2.229,0,0,0,.883-.886Z" transform="translate(-324.234 -225.084)"/><path class="k" d="M186.951,274.642l.182.333a2.221,2.221,0,0,0,.883.886l.332.182-.332.183a2.222,2.222,0,0,0-.883.886l-.182.334-.182-.334a2.222,2.222,0,0,0-.883-.886l-.332-.183.332-.182a2.221,2.221,0,0,0,.883-.886Z" transform="translate(-126.346 -191.053)"/><path class="k" d="M614.227,251.478l.091.166a1.116,1.116,0,0,0,.442.443l.166.091-.166.091a1.116,1.116,0,0,0-.442.443l-.091.166-.091-.166a1.111,1.111,0,0,0-.442-.443l-.166-.091.166-.091a1.11,1.11,0,0,0,.442-.443Z" transform="translate(-390.364 -176.79)"/><path class="k" d="M275.544,354.747l.085.17a1.113,1.113,0,0,0,.425.46l.162.1-.169.085a1.108,1.108,0,0,0-.458.426l-.1.163-.085-.17a1.115,1.115,0,0,0-.425-.46l-.162-.1.169-.085a1.11,1.11,0,0,0,.458-.426Z" transform="translate(-181.414 -240.377)"/><path class="k" d="M577.176,142.106l.091.166a1.11,1.11,0,0,0,.442.443l.166.091-.166.091a1.112,1.112,0,0,0-.442.443l-.091.167-.091-.167a1.115,1.115,0,0,0-.442-.443l-.166-.091.166-.091a1.113,1.113,0,0,0,.442-.443Z" transform="translate(-367.507 -109.446)"/><path class="k" d="M283.87,154.314l.091.167a1.116,1.116,0,0,0,.442.443l.166.091-.166.091a1.111,1.111,0,0,0-.442.443l-.091.166-.091-.166a1.116,1.116,0,0,0-.442-.443l-.166-.091.166-.091a1.121,1.121,0,0,0,.442-.443Z" transform="translate(-186.566 -116.963)"/><path class="k" d="M400.752,106.1l.314.575a3.842,3.842,0,0,0,1.525,1.529l.573.315-.573.314a3.842,3.842,0,0,0-1.525,1.529l-.314.575-.313-.575a3.842,3.842,0,0,0-1.525-1.529l-.574-.314.574-.315a3.842,3.842,0,0,0,1.525-1.529Z" transform="translate(-257.614 -87.274)"/><path class="k" d="M650.136,339.854l.314.575a3.84,3.84,0,0,0,1.525,1.529l.574.315-.574.315a3.84,3.84,0,0,0-1.525,1.529l-.314.575-.314-.575a3.837,3.837,0,0,0-1.525-1.529l-.573-.315.573-.315a3.837,3.837,0,0,0,1.525-1.529Z" transform="translate(-411.459 -231.207)"/><path class="k" d="M143.462,396.078l.313.575a3.84,3.84,0,0,0,1.525,1.529l.573.315-.573.315a3.84,3.84,0,0,0-1.525,1.529l-.313.575-.314-.575a3.84,3.84,0,0,0-1.525-1.529l-.574-.315.574-.315a3.84,3.84,0,0,0,1.525-1.529Z" transform="translate(-98.891 -265.826)"/><g transform="translate(215.668 11.354)"><path class="d" d="M613.239,89.031c-2.14-1.247-4.9-.141-6.826,1.421s-3.539,3.6-5.822,4.562c-1.454.61-3.12.751-4.407,1.662-2.1,1.484-2.463,4.474-2.1,7.023s1.255,5.078.941,7.633c-.23,1.873-1.1,3.749-.631,5.576.662,2.56,3.6,3.779,5.027,6,1.027,1.6,1.306,3.748,2.836,4.867,1.775,1.3,4.242.541,6.431.738,2.695.243,5,1.978,7.563,2.85a12.383,12.383,0,0,0,12.087-2.53c1.625-1.484,2.823-3.385,4.421-4.9,1.369-1.3,3.028-2.307,4.149-3.824a14.5,14.5,0,0,0,2.035-5.053c.678-2.582,1.36-5.269.864-7.893-.791-4.187-4.35-7.237-6.2-11.071-.723-1.494-1.254-3.2-2.594-4.18-1.42-1.036-3.344-.949-5.007-1.512-2.388-.808-4.19-2.943-6.631-3.572a5.957,5.957,0,0,0-6.143,2.2" transform="translate(-593.96 -86.66)"/><g class="j"><path class="g" d="M613.239,89.031c-2.14-1.247-4.9-.141-6.826,1.421s-3.539,3.6-5.822,4.562c-1.454.61-3.12.751-4.407,1.662-2.1,1.484-2.463,4.474-2.1,7.023s1.255,5.078.941,7.633c-.23,1.873-1.1,3.749-.631,5.576.662,2.56,3.6,3.779,5.027,6,1.027,1.6,1.306,3.748,2.836,4.867,1.775,1.3,4.242.541,6.431.738,2.695.243,5,1.978,7.563,2.85a12.383,12.383,0,0,0,12.087-2.53c1.625-1.484,2.823-3.385,4.421-4.9,1.369-1.3,3.028-2.307,4.149-3.824a14.5,14.5,0,0,0,2.035-5.053c.678-2.582,1.36-5.269.864-7.893-.791-4.187-4.35-7.237-6.2-11.071-.723-1.494-1.254-3.2-2.594-4.18-1.42-1.036-3.344-.949-5.007-1.512-2.388-.808-4.19-2.943-6.631-3.572a5.957,5.957,0,0,0-6.143,2.2" transform="translate(-593.96 -86.66)"/></g><g transform="translate(3.968 3.673)"><ellipse class="d" cx="18.177" cy="18.232" rx="18.177" ry="18.232" transform="translate(0 1.292) rotate(-2.031)"/><path class="l" d="M630.9,145.467a2.968,2.968,0,1,1-.5-4.175A2.958,2.958,0,0,1,630.9,145.467Z" transform="translate(-617.446 -123.581)"/><path class="l" d="M639.606,124.342a1.727,1.727,0,1,1-.293-2.429A1.721,1.721,0,0,1,639.606,124.342Z" transform="translate(-624.186 -111.812)"/></g></g><g transform="translate(81.82 141.395)"><ellipse class="m" cx="8.236" cy="8.261" rx="8.236" ry="8.261" transform="translate(0 0.714) rotate(-2.475)"/><path class="e" d="M255.492,437.33a1.348,1.348,0,1,1,1.189-1.487A1.345,1.345,0,0,1,255.492,437.33Z" transform="translate(-250.391 -430.966)"/><path class="e" d="M263.679,431.091a.784.784,0,1,1,.691-.865A.782.782,0,0,1,263.679,431.091Z" transform="translate(-255.826 -427.817)"/><path class="e" d="M271.644,434.963a.288.288,0,1,1,.318.256A.289.289,0,0,1,271.644,434.963Z" transform="translate(-261.273 -430.966)"/></g><g transform="translate(0 44.017)"><g transform="translate(10.229 5.238)"><ellipse class="n" cx="15.964" cy="16.012" rx="15.964" ry="16.012"/><path class="o" d="M76.8,237.372a2.6,2.6,0,1,1-2.6-2.611A2.607,2.607,0,0,1,76.8,237.372Z" transform="translate(-66.271 -215.752)"/><path class="o" d="M70.667,219.51a1.515,1.515,0,1,1-1.515-1.519A1.517,1.517,0,0,1,70.667,219.51Z" transform="translate(-63.832 -205.426)"/></g><path class="i" d="M41.708,196.805c.072.278-13.663,13.5-10.123,16.312s18.433-4.408,31.128-14.694,24.292-22.774,21.118-26.08-19.039,6.483-19.039,6.483l1.9,1.213s9.592-6.173,12.627-3.777S73.7,188.016,61.493,196.955s-24,15.213-25.833,12.764S42.469,199.1,42.469,199.1Z" transform="translate(-31.002 -171.661)"/></g><g transform="translate(170.251 41.453)"><path class="m" d="M5.51-.008A5.509,5.509,0,1,1-.008,5.509,5.489,5.489,0,0,1,5.51-.008Z" transform="translate(0 7.975) rotate(-46.278)"/><path class="h" d="M500.391,178.385a.9.9,0,1,1,.875.921A.9.9,0,0,1,500.391,178.385Z" transform="translate(-490.82 -172.697)"/><path class="h" d="M505.074,184.441a.522.522,0,1,1,.51.536A.523.523,0,0,1,505.074,184.441Z" transform="translate(-493.709 -176.652)"/><path class="h" d="M502.929,189.443a.193.193,0,1,1-.2.189A.193.193,0,0,1,502.929,189.443Z" transform="translate(-492.265 -180.047)"/></g></g></svg>