<svg xmlns="http://www.w3.org/2000/svg" width="158.817" height="140.859" viewBox="0 0 158.817 140.859"><defs><style>.a,.q{fill:#e5f4ff;}.a{fill-rule:evenodd;}.b{fill:#5ab7f6;}.c{fill:#263238;}.d{fill:#c9e7fb;}.e{fill:#455a64;}.f{fill:#a9d9f9;}.g{fill:#f89d1f;}.h{fill:#fff;}.i{fill:#465d84;}.j{fill:#f77d0c;}.k{fill:#eb996e;}.l{fill:#ffbe9d;}.m,.n{opacity:0.2;}.o{fill:#8296b7;}.p{opacity:0.3;}.r{opacity:0.7;}</style></defs><path class="a" d="M387.421,780.824c16.943-1.972,32.613,4.254,44.058,12.047a58.092,58.092,0,0,1,17.828,19.959,48.45,48.45,0,0,1,5.252,14.814l.034.03a35.87,35.87,0,0,1,.53,4.1c0,.026.006.052.008.079h0a35.942,35.942,0,0,1-.471,8.788l.025.022a23.1,23.1,0,0,1-3.067,7.961,18.256,18.256,0,0,1-13.632,8.382,21.484,21.484,0,0,0-8.316,3.193,51.6,51.6,0,0,0-13.951,15.555l.007.03c-.844,1.386-1.6,2.6-2.272,3.668l-.2.339q-.577.921-1.188,1.82l-.044.068h0A61.737,61.737,0,0,1,303.6,869.855l0,0c-.038-.1-.073-.191-.111-.287q-.111-.282-.218-.565c-.077-.2-.153-.4-.228-.6-.014-.039-.03-.079-.045-.118h0a61.7,61.7,0,0,1-3.593-16.345h0c0-.031,0-.058-.006-.089C295.864,809.046,358.5,784.19,387.421,780.824Z" transform="translate(-299.249 -777.062)"/><g transform="translate(9.268 0)"><g transform="translate(13.907 17.839)"><g transform="translate(78.424 57.22)"><path class="b" d="M311.685,324.758c-7.006-6.822-7.122-17.375-5.3-26.546.3-1.531.4-3.182,1.354-4.413s2.813-1.874,4.085-1c1.055.725,1.336,2.137,1.795,3.341a9.124,9.124,0,0,0,3.046,4.039,3.476,3.476,0,0,0,3.114.8c1.448-.515,1.9-2.324,2.146-3.857l1.348-8.569a14.461,14.461,0,0,1,1.207-4.471,4.81,4.81,0,0,1,3.51-2.722,2.918,2.918,0,0,1,3.249,2.514,14.433,14.433,0,0,1-.269,1.914,1.631,1.631,0,0,0,.694,1.67,1.875,1.875,0,0,0,1.8-.427,20.623,20.623,0,0,0,4.558-4.919,28.621,28.621,0,0,1,4.341-5.136,8.389,8.389,0,0,1,6.125-2.228,5.023,5.023,0,0,1,4.529,4.214c.2,2.25-1.416,4.233-3.072,5.756a34.628,34.628,0,0,1-8.226,5.617,2.849,2.849,0,0,0-1.4,1.085c-.5.966.3,2.138,1.254,2.639a17.953,17.953,0,0,0,3.507.987,3.489,3.489,0,0,1,2.645,2.277c.371,1.668-1.207,3.093-2.67,3.957a29.67,29.67,0,0,1-9.483,3.583,10,10,0,0,0-3.476,1.038,2.871,2.871,0,0,0-1.439,3.1,2.924,2.924,0,0,0,2.939,1.719,20.7,20.7,0,0,0,3.57-.733c2.234-.45,4.927.14,5.977,2.179a4.909,4.909,0,0,1-.186,4.369,11.319,11.319,0,0,1-2.941,3.4A29.831,29.831,0,0,1,326,326.715c-5.157.893-9.755.611-14.315-1.957" transform="translate(-305.393 -274.717)"/><g transform="translate(5.052 1.785)"><path class="c" d="M317.6,334.1a68.123,68.123,0,0,1,4.567-12.208,139.014,139.014,0,0,1,7.864-13.879l2.248-3.532c.741-1.157,1.475-2.306,2.263-3.384a69.428,69.428,0,0,1,4.881-5.937c1.644-1.814,3.27-3.475,4.8-5.017s2.994-2.947,4.378-4.173a55.035,55.035,0,0,1,6.955-5.3c.867-.559,1.554-.97,2.023-1.243l.535-.307a1.2,1.2,0,0,1,.188-.1,1.1,1.1,0,0,1-.173.121l-.521.331c-.459.288-1.136.715-1.993,1.287a58.212,58.212,0,0,0-6.881,5.354c-1.372,1.232-2.819,2.645-4.344,4.19s-3.141,3.213-4.775,5.026a70.217,70.217,0,0,0-4.849,5.925c-.782,1.074-1.508,2.212-2.25,3.373l-2.246,3.531a142.5,142.5,0,0,0-7.869,13.84,69.31,69.31,0,0,0-4.608,12.145" transform="translate(-317.601 -279.032)"/></g><g transform="translate(22.027 6.647)"><path class="c" d="M358.675,307.991a3.143,3.143,0,0,1-.043-.677c-.011-.436-.006-1.068.011-1.848.033-1.56.153-3.712.293-6.085s.229-4.522.238-6.078c.007-.778.006-1.408,0-1.843a3.133,3.133,0,0,1,.023-.679,3.062,3.062,0,0,1,.088.673c.04.435.072,1.066.091,1.846.043,1.561-.014,3.72-.155,6.1-.145,2.341-.276,4.459-.376,6.077-.041.731-.075,1.348-.1,1.842A3.079,3.079,0,0,1,358.675,307.991Z" transform="translate(-358.627 -290.781)"/></g><g transform="translate(22.076 22.831)"><path class="c" d="M379.031,330.463a4.374,4.374,0,0,1-.8-.035c-.512-.038-1.253-.1-2.172-.139-1.835-.1-4.374-.151-7.178-.083s-5.34.245-7.17.424c-.917.083-1.656.17-2.167.227a4.261,4.261,0,0,1-.8.062,4.288,4.288,0,0,1,.784-.174c.508-.091,1.245-.209,2.162-.319,1.83-.231,4.372-.437,7.185-.51a70.321,70.321,0,0,1,7.2.169c.919.069,1.66.159,2.17.232A4.211,4.211,0,0,1,379.031,330.463Z" transform="translate(-358.744 -329.893)"/></g><g transform="translate(4.123 17.564)"><path class="c" d="M321.154,343.927a1.032,1.032,0,0,1-.1-.262c-.06-.207-.132-.461-.22-.767-.188-.667-.435-1.64-.724-2.845-.581-2.41-1.278-5.765-2-9.478s-1.385-7.071-1.914-9.49l-.636-2.863-.168-.78a1.024,1.024,0,0,1-.04-.277,1.055,1.055,0,0,1,.1.263l.22.766c.188.667.435,1.64.725,2.845.581,2.41,1.277,5.765,2,9.479s1.385,7.069,1.914,9.489l.635,2.863.168.78A1.006,1.006,0,0,1,321.154,343.927Z" transform="translate(-315.357 -317.164)"/></g><g transform="translate(9.92 40.173)"><path class="c" d="M356.9,371.81a1.076,1.076,0,0,1-.277.065l-.8.13-2.949.449c-2.491.38-5.925.944-9.718,1.572s-7.237,1.162-9.736,1.49c-1.249.165-2.262.288-2.963.358l-.808.077a1.044,1.044,0,0,1-.284.007,1.083,1.083,0,0,1,.277-.065l.8-.13,2.949-.449c2.49-.379,5.925-.944,9.719-1.572s7.236-1.161,9.735-1.49c1.25-.165,2.262-.288,2.964-.358l.808-.077A1.039,1.039,0,0,1,356.9,371.81Z" transform="translate(-329.367 -371.804)"/></g></g><path class="b" d="M150.042,158.207a4.605,4.605,0,0,1-1.584-4.345,6.117,6.117,0,0,1,2.633-3.925,2.577,2.577,0,0,1,2.1-.547,1.97,1.97,0,0,1,1.274,1.536,4,4,0,0,1-.24,2.06c-.785,2.268-1.961,4.318-4.184,5.22" transform="translate(-134.934 -143.99)"/><path class="b" d="M131.045,176.25a10.775,10.775,0,0,0-9.523-2.493c-.846.2-1.8.643-1.939,1.5s.628,1.588,1.381,2.024a9.2,9.2,0,0,0,10.18-.819" transform="translate(-118.035 -158.16)"/><path class="b" d="M116.727,136.59a5.4,5.4,0,0,1,4.166.717,9.531,9.531,0,0,1,2.979,3.112,16.818,16.818,0,0,1,2.094,8.355c-3.111-.126-5.769-2.571-7.04-3.9-2.008-2.095-4.366-7.1-2.2-8.288" transform="translate(-115.864 -136.432)"/><g transform="translate(15.005 9.008)"><path class="c" d="M154.838,171.516a11.111,11.111,0,0,1-.776-1.173,19.752,19.752,0,0,1-1.752-5,9.909,9.909,0,0,1,.389-5.269,6.494,6.494,0,0,1,.752-1.428,1.818,1.818,0,0,1,.384-.449,13.778,13.778,0,0,0-.928,1.953,10.394,10.394,0,0,0-.288,5.138,22.9,22.9,0,0,0,1.645,4.958" transform="translate(-152.128 -158.202)"/></g><g transform="translate(2.994 3.81)"><path class="c" d="M137.851,164.19l-1.62-2.089c-1.363-1.767-3.253-4.2-5.375-6.868s-4.075-5.048-5.494-6.771l-1.675-2.046a5.712,5.712,0,0,1-.586-.775,5.79,5.79,0,0,1,.678.7c.422.461,1.021,1.138,1.752,1.982,1.463,1.688,3.446,4.053,5.57,6.719s3.988,5.128,5.307,6.93c.66.9,1.186,1.636,1.541,2.15" transform="translate(-123.101 -145.64)"/></g><g transform="translate(5.43 17.031)"><path class="c" d="M128.987,178a1.95,1.95,0,0,1,.54-.165,4.487,4.487,0,0,1,.65-.124,7.582,7.582,0,0,1,.873-.094,11.336,11.336,0,0,1,2.285.087,12.117,12.117,0,0,1,5.191,2.019,11.333,11.333,0,0,1,1.744,1.481,7.63,7.63,0,0,1,.58.659,4.508,4.508,0,0,1,.4.53c.2.3.173.444.156.456a18.278,18.278,0,0,0-1.288-1.488,12.669,12.669,0,0,0-1.749-1.4,12.8,12.8,0,0,0-5.071-1.973,12.642,12.642,0,0,0-2.234-.151C129.78,177.869,129,178.058,128.987,178Z" transform="translate(-128.987 -177.59)"/></g></g><g transform="translate(30.598 0)"><path class="c" d="M214.355,234.178l-47.792-.221A10.41,10.41,0,0,1,156.2,223.5l.506-119.816A10.411,10.411,0,0,1,167.165,93.32l47.792.221A10.411,10.411,0,0,1,225.32,104l-.507,119.817A10.411,10.411,0,0,1,214.355,234.178Z" transform="translate(-156.2 -93.32)"/><g transform="translate(3.174 4.135)"><path class="d" d="M219.386,103.534l-9.266-.043a2.3,2.3,0,0,0-2.26,2.342l-.007,1.681a2.3,2.3,0,0,1-2.26,2.342l-18.062-.083a2.3,2.3,0,0,1-2.24-2.363l.007-1.681a2.3,2.3,0,0,0-2.241-2.363l-3.259-.015-8.11-.038a7.292,7.292,0,0,0-7.325,7.26l-.494,116.949a7.291,7.291,0,0,0,7.257,7.322l47.7.22a7.291,7.291,0,0,0,7.324-7.26l.494-116.95A7.291,7.291,0,0,0,219.386,103.534Z" transform="translate(-163.87 -103.314)"/></g><g transform="translate(29.728 123.841)"><path class="e" d="M230.011,393.458a1,1,0,1,1-.981-.85A.923.923,0,0,1,230.011,393.458Z" transform="translate(-228.043 -392.608)"/></g><g transform="translate(32.777 123.855)"><path class="e" d="M237.381,393.492a1,1,0,1,1-.98-.85A.922.922,0,0,1,237.381,393.492Z" transform="translate(-235.413 -392.642)"/></g><g transform="translate(35.826 123.869)"><path class="e" d="M244.75,393.526a1,1,0,1,1-.981-.85A.922.922,0,0,1,244.75,393.526Z" transform="translate(-242.782 -392.676)"/></g><path class="f" d="M199.517,240.1c.777.111,47.662,9.306,47.662,9.306V240.1Z" transform="translate(-181.593 -179.365)"/><path class="f" d="M163.869,372.98s51-7.216,50.557-6.993-50.557,0-50.557,0Z" transform="translate(-160.696 -253.159)"/></g><g transform="translate(2.751 25.147)"><g transform="translate(41.818)"><path class="g" d="M286.9,154.092H193.613a3.648,3.648,0,0,0-3.648,3.648v28.936a3.649,3.649,0,0,0,3.648,3.648h6.949c.56,3.021,1.215,6.834,1.215,6.834l6.29-6.834H286.9a3.648,3.648,0,0,0,3.648-3.648V157.74A3.648,3.648,0,0,0,286.9,154.092Z" transform="translate(-189.965 -154.092)"/><g transform="translate(8.852 11.14)"><g transform="translate(0 4.448)"><path class="h" d="M260.952,191.873c0,.06-11.1.108-24.8.108s-24.8-.048-24.8-.108,11.1-.108,24.8-.108S260.952,191.813,260.952,191.873Z" transform="translate(-211.358 -191.765)"/></g><path class="h" d="M260.952,181.123c0,.059-11.1.108-24.8.108s-24.8-.048-24.8-.108,11.1-.108,24.8-.108S260.952,181.063,260.952,181.123Z" transform="translate(-211.358 -181.015)"/><g transform="translate(0 8.847)"><path class="h" d="M260.952,202.5c0,.06-11.1.108-24.8.108s-24.8-.048-24.8-.108,11.1-.108,24.8-.108S260.952,202.444,260.952,202.5Z" transform="translate(-211.358 -202.396)"/></g><g transform="translate(0 13.404)"><path class="h" d="M243.843,213.516c0,.06-7.272.108-16.241.108s-16.243-.048-16.243-.108,7.271-.108,16.243-.108S243.843,213.456,243.843,213.516Z" transform="translate(-211.358 -213.408)"/></g></g></g><g transform="translate(0 52.023)"><path class="i" d="M185.505,279.816H91.454a2.552,2.552,0,0,0-2.552,2.552v30.614a2.553,2.553,0,0,0,2.552,2.553h68.307l6.218,6.756s.653-3.8,1.2-6.756h18.324a2.553,2.553,0,0,0,2.552-2.553V282.368A2.552,2.552,0,0,0,185.505,279.816Z" transform="translate(-88.902 -279.816)"/><g transform="translate(43.32 11.231)"><g transform="translate(0 4.448)"><path class="d" d="M243.189,317.816c0,.06-11.1.108-24.8.108s-24.8-.048-24.8-.108,11.1-.108,24.8-.108S243.189,317.756,243.189,317.816Z" transform="translate(-193.595 -317.708)"/></g><path class="d" d="M243.189,307.066c0,.059-11.1.108-24.8.108s-24.8-.048-24.8-.108,11.1-.108,24.8-.108S243.189,307.006,243.189,307.066Z" transform="translate(-193.595 -306.958)"/><g transform="translate(0 8.847)"><path class="d" d="M243.189,328.447c0,.06-11.1.108-24.8.108s-24.8-.048-24.8-.108,11.1-.108,24.8-.108S243.189,328.387,243.189,328.447Z" transform="translate(-193.595 -328.339)"/></g><g transform="translate(0 13.404)"><path class="d" d="M226.08,339.459c0,.06-7.273.108-16.241.108s-16.243-.048-16.243-.108,7.271-.108,16.243-.108S226.08,339.4,226.08,339.459Z" transform="translate(-193.595 -339.351)"/></g></g></g></g><g transform="translate(104.655 0)"><path class="c" d="M364.634,106.193a3.741,3.741,0,0,0-1.251-2.412,2.475,2.475,0,0,1-.691-2.636c.253-.94.849-.87,1.085-1.422a4.177,4.177,0,0,0,.137-1.318,2.747,2.747,0,0,1,3.276-2.334,3.805,3.805,0,0,1,7.019-.731,2.927,2.927,0,0,1,4.268,2.376,2.131,2.131,0,0,1,2.77.418,2.625,2.625,0,0,1,.2,2.893,3.443,3.443,0,0,1-2.487,1.638,5.054,5.054,0,0,1-2.986-.542,9.666,9.666,0,0,1-2.449-1.85" transform="translate(-351.236 -93.32)"/><ellipse class="j" cx="17.913" cy="17.493" rx="17.913" ry="17.493" transform="translate(2.25 25.437)"/><g transform="translate(0 4.269)"><g transform="translate(2.746)"><path class="k" d="M414.494,189.9l-1.983-5.084-7.106,4.465,6.332,9.764A16.754,16.754,0,0,0,414.494,189.9Z" transform="translate(-379.091 -151.226)"/><g transform="translate(8.75)"><g transform="translate(0 0.712)"><g transform="translate(2.255)"><path class="l" d="M373.188,132.314h0a4.767,4.767,0,0,0,4.787-4.507c.105-2.105.193-4.133.193-4.133s3.909-.283,4.27-4.1.41-12.659.41-12.659h0a13.561,13.561,0,0,0-13.616.591l-.372.239-.451,19.776A4.767,4.767,0,0,0,373.188,132.314Z" transform="translate(-368.407 -105.359)"/><g transform="translate(6.141 7.024)"><g transform="translate(0.144 0.378)"><path class="c" d="M384.334,123.275a.557.557,0,0,1,.357.7.563.563,0,0,1-.71.353.557.557,0,0,1-.357-.7A.563.563,0,0,1,384.334,123.275Z" transform="translate(-383.595 -123.246)"/></g><path class="c" d="M385.2,122.938c-.065.063-.427-.249-.959-.283s-.935.215-.99.144c-.027-.032.041-.148.217-.265a1.324,1.324,0,0,1,1.555.111C385.183,122.786,385.233,122.911,385.2,122.938Z" transform="translate(-383.247 -122.333)"/></g><g transform="translate(12.046 7.036)"><g transform="translate(0.072 0.366)"><path class="c" d="M398.433,123.275a.557.557,0,0,1,.357.7.563.563,0,0,1-.711.353.557.557,0,0,1-.357-.7A.563.563,0,0,1,398.433,123.275Z" transform="translate(-397.694 -123.246)"/></g><path class="c" d="M399.473,122.967c-.065.063-.427-.249-.959-.283s-.935.216-.99.144c-.027-.032.04-.148.216-.265a1.325,1.325,0,0,1,1.555.111C399.454,122.814,399.5,122.939,399.473,122.967Z" transform="translate(-397.519 -122.362)"/></g><g transform="translate(9.985 7.167)"><path class="c" d="M392.539,127.285a2.594,2.594,0,0,1,.874-.111c.14,0,.252-.026.268-.1a.743.743,0,0,0-.067-.4l-.333-1.1a14.622,14.622,0,0,1-.68-2.888,14.609,14.609,0,0,1,.972,2.8l.31,1.111a.875.875,0,0,1,.029.579.364.364,0,0,1-.258.2.893.893,0,0,1-.24.012A2.605,2.605,0,0,1,392.539,127.285Z" transform="translate(-392.539 -122.679)"/></g><g transform="translate(4.855 16.437)"><path class="k" d="M385.057,146.906a9.06,9.06,0,0,1-4.916-1.823s.964,2.849,4.844,2.815Z" transform="translate(-380.141 -145.083)"/></g></g><g transform="translate(0 7.402)"><path class="l" d="M365.571,123.84a.58.58,0,0,0-.546-.59c-.721-.034-1.905.227-2.055,2.2a1.853,1.853,0,0,0,2.546,2.084C365.525,127.467,365.558,124.935,365.571,123.84Z" transform="translate(-362.959 -123.246)"/><g transform="translate(0.76 0.897)"><path class="k" d="M365.988,127.681c-.012-.01-.052.031-.139.062a.5.5,0,0,1-.37-.02,1.212,1.212,0,0,1-.484-1.131,1.611,1.611,0,0,1,.192-.691.571.571,0,0,1,.4-.348.253.253,0,0,1,.282.156c.032.082.01.137.024.142s.065-.043.05-.161a.311.311,0,0,0-.1-.185.376.376,0,0,0-.268-.092.7.7,0,0,0-.549.4,1.658,1.658,0,0,0-.231.771,1.273,1.273,0,0,0,.629,1.269.535.535,0,0,0,.458-.041C365.978,127.749,366,127.687,365.988,127.681Z" transform="translate(-364.796 -125.413)"/></g></g><g transform="translate(7.804 5.363)"><path class="c" d="M381.845,119.087c.14.18.63.1,1.265.069.634-.051,1.131-.027,1.246-.223.132-.2-.482-.673-1.3-.606C382.236,118.36,381.688,118.9,381.845,119.087Z" transform="translate(-381.818 -118.32)"/></g><g transform="translate(14.018 5.338)"><path class="c" d="M396.846,118.864c.077.246.543.319,1.06.316s.982-.1,1.052-.344-.4-.586-1.063-.577S396.767,118.626,396.846,118.864Z" transform="translate(-396.837 -118.26)"/></g></g><path class="c" d="M383.351,107.111a6.352,6.352,0,0,1-5.337-.384c-1.98-.989-4.288-1.471-4.8-1.073s-.616,2.439-2.578,3.034c0,0,.134,3.893-1.418,3.755s-.582-6.169-.582-6.169l3.8-1.855,4.144-.783,3.9.55,3.021.827Z" transform="translate(-366.113 -103.637)"/></g><g transform="translate(0 19.388)"><g transform="translate(0 2.882)"><path class="i" d="M341.812,161.19c4.058-4.173,11.2-3.717,11.2-3.717l5.92,4.238,3.357-3.909a21.769,21.769,0,0,1,6.834,2.115l.228.07,0,.047c2.6,1.41,6.274,4.792,9.777,8.075L374.934,172l-4.64,4.119a.124.124,0,0,1,.008.082c-.048.25.645,5.915,1.355,10.221a17.471,17.471,0,0,1-15.592,4.711,46.423,46.423,0,0,1-4.574-1.256,6.365,6.365,0,0,1-4.713-5.609h0c-.316-3.609-.557-8.077-.557-8.077" transform="translate(-341.812 -157.458)"/><g transform="translate(24.188 1.072)"><path class="c" d="M400.269,160.048a4.523,4.523,0,0,1,.255.666c.152.433.358,1.063.6,1.846.489,1.565,1.111,3.746,1.7,6.178s1.028,4.658,1.308,6.274c.14.808.244,1.464.307,1.918a4.572,4.572,0,0,1,.077.709,4.433,4.433,0,0,1-.16-.695l-.374-1.9c-.318-1.607-.782-3.822-1.368-6.251s-1.185-4.611-1.636-6.186l-.536-1.865A4.51,4.51,0,0,1,400.269,160.048Z" transform="translate(-400.267 -160.048)"/></g><g transform="translate(28.001 9.436)"><path class="c" d="M409.483,186.816c-.037-.046,1.733-1.551,3.953-3.36s4.052-3.239,4.089-3.193-1.732,1.55-3.953,3.36S409.521,186.862,409.483,186.816Z" transform="translate(-409.483 -180.262)"/></g><path class="m" d="M349.611,180.32l-3.632,11.948,1.351.7,1.333-3.379S350.032,182.493,349.611,180.32Z" transform="translate(-344.255 -170.86)"/><g class="n" transform="translate(18.631 0.282)"><path d="M392,158.936c1.958,1.032-2.949,3.516-5.165,3.449l1.609-4.246A22.342,22.342,0,0,1,392,158.936Z" transform="translate(-386.838 -158.139)"/></g></g><path class="i" d="M367.468,153.657v-3.164s6.18,1.59,6.4,5.288c0,0,.786-4.087,3.97-4.283l.449,5.749-3.7,3.223h-3.755l-2.975-2.566-.389-3.992" transform="translate(-356.852 -150.493)"/><g transform="translate(16.981 5.847)"><path class="c" d="M384.28,181.8a4.07,4.07,0,0,1-.011-.68c.009-.437.017-1.07.019-1.851.005-1.562-.043-3.721-.24-6.1s-.506-4.513-.77-6.053l-.324-1.822a4.115,4.115,0,0,1-.1-.673,4.107,4.107,0,0,1,.184.655c.106.425.242,1.044.392,1.812a56.768,56.768,0,0,1,1.012,12.179c-.022.783-.053,1.416-.088,1.853A4.19,4.19,0,0,1,384.28,181.8Z" transform="translate(-382.85 -164.623)"/></g><g transform="translate(10.389 2.566)"><path class="c" d="M373.266,158.352a.747.747,0,0,0-.367.034c-.236.076-.447.37-.621.79a17.9,17.9,0,0,0-1.175,3.419l-.033.141-.125-.075c-.369-.223-.748-.465-1.129-.723a22.636,22.636,0,0,1-2-1.522,2.531,2.531,0,0,1-.682-.893,2.817,2.817,0,0,1-.208-.954,5.531,5.531,0,0,1,.137-1.384,2.049,2.049,0,0,1,.135-.489,2.633,2.633,0,0,1-.053.5,6.54,6.54,0,0,0-.068,1.36,2.737,2.737,0,0,0,.22.891,2.377,2.377,0,0,0,.65.817c.584.488,1.263,1,1.994,1.493.378.256.753.5,1.118.721l-.157.066a15.639,15.639,0,0,1,1.258-3.43,2.6,2.6,0,0,1,.325-.533.827.827,0,0,1,.394-.267C373.138,158.243,373.276,158.349,373.266,158.352Z" transform="translate(-366.919 -156.695)"/></g><g transform="translate(17.493 1.005)"><path class="c" d="M387.585,152.921a2.268,2.268,0,0,1,.058.494l.1,1.346c.046.567.115,1.241.231,1.984a3.316,3.316,0,0,1,.075,1.214,2.088,2.088,0,0,1-.813,1.038,9.148,9.148,0,0,0-1.36,1.033l-.165.185-.016-.246a7.4,7.4,0,0,0-.913-3.081c-.393-.7-.717-1.067-.691-1.088a1.174,1.174,0,0,1,.244.244,6.082,6.082,0,0,1,.56.778,7.061,7.061,0,0,1,1.006,3.133l-.181-.062a8.678,8.678,0,0,1,1.385-1.067,1.915,1.915,0,0,0,.738-.919,3.27,3.27,0,0,0-.066-1.133c-.106-.75-.16-1.431-.187-2s-.032-1.034-.031-1.353A2.161,2.161,0,0,1,387.585,152.921Z" transform="translate(-384.089 -152.921)"/></g></g></g><g transform="translate(0 21.187)"><g transform="translate(2.213)"><path class="c" d="M427.363,154.84c-.251.3-9.349,12.46-9.349,12.46l1.281.726,9.336-12.01Z" transform="translate(-385.95 -154.84)"/><path class="l" d="M345.39,172.585s9.57,13.777,10.147,14.047c1.136.533,14.229-10.782,15.478-11.864.172-.23.527-.715,1.225-1.68,0,0,1.033-4.727,2.135-4.364s-.6,2.4.114,4.2,4.006-2.488,4.137-2.872l.848-1.108a14.551,14.551,0,0,1,.829,3.574c-.193,3.372-3.384,7.383-3.384,7.383s-14.329,17.75-24.144,18.3c-2.827.158-7.851-7.863-11.209-13.878a8.23,8.23,0,0,1,2.345-10.659Z" transform="translate(-340.524 -162.968)"/><g transform="translate(38.167 7.655)"><path class="k" d="M432.764,175.833c-.032-.02.275-.562.613-1.248s.586-1.258.62-1.245a7.775,7.775,0,0,1-1.234,2.493Z" transform="translate(-432.761 -173.339)"/></g></g><g transform="translate(0 2.894)"><path class="i" d="M340.634,161.835s-10.272,3.652-2.635,20.927l11.859-7.157-1.687-4.039Z" transform="translate(-335.175 -161.835)"/><g transform="translate(2.824 0.283)"><path class="c" d="M343.848,162.535a3.567,3.567,0,0,1,1.237.1,5.035,5.035,0,0,1,1.347.569,7.283,7.283,0,0,1,1.5,1.228,17.939,17.939,0,0,1,2.79,4.169c.869,1.68,1.68,3.592,2.512,5.6l.727,1.757.037.089-.084.046c-3.431,1.87-6.419,3.622-8.53,4.933-1.057.654-1.9,1.192-2.476,1.565l-.665.427a1.435,1.435,0,0,1-.239.138,1.411,1.411,0,0,1,.216-.171c.146-.106.361-.264.645-.459.564-.394,1.395-.951,2.443-1.622,2.094-1.345,5.073-3.121,8.5-5l-.047.135-.729-1.757c-.831-2.009-1.635-3.919-2.489-5.594a18.26,18.26,0,0,0-2.724-4.155,7.335,7.335,0,0,0-1.449-1.23,5.132,5.132,0,0,0-1.305-.59A7.407,7.407,0,0,0,343.848,162.535Z" transform="translate(-342 -162.52)"/></g></g></g></g><g transform="translate(18.469 3.038)"><path class="e" d="M388.11,100.661a.616.616,0,0,1,.051.18,2.344,2.344,0,0,1,.03.536,2.743,2.743,0,0,1-3.548,2.49,2.442,2.442,0,0,1-1.416-1.026,1.444,1.444,0,0,1-.212-.934,1.209,1.209,0,0,1,.508-.854,1.05,1.05,0,0,1,.993-.064,1.262,1.262,0,0,1,.679.682,1.811,1.811,0,0,1-.271,1.72,2.158,2.158,0,0,1-2.714.59,4.631,4.631,0,0,0-1.022-.392,1.285,1.285,0,0,0-.791.083,4.282,4.282,0,0,0-.588.388c-.005,0,.036-.053.121-.142a1.028,1.028,0,0,1,.169-.152,1.27,1.27,0,0,1,.263-.169,1.347,1.347,0,0,1,.847-.126,4.538,4.538,0,0,1,1.063.371,3.007,3.007,0,0,0,.6.2,1.888,1.888,0,0,0,.667-.012,1.955,1.955,0,0,0,1.229-.753,1.618,1.618,0,0,0,.237-1.521.975.975,0,0,0-1.359-.52,1,1,0,0,0-.414.7,1.236,1.236,0,0,0,.181.8,2.254,2.254,0,0,0,1.29.944,2.647,2.647,0,0,0,2.6-.615,2.811,2.811,0,0,0,.808-1.691A5.645,5.645,0,0,0,388.11,100.661Z" transform="translate(-379.809 -100.661)"/></g><g transform="translate(22.505 17.622)"><path class="c" d="M391.591,136.926c0,.026-.127.081-.355.09a1.841,1.841,0,0,1-1.529-.77c-.127-.189-.162-.327-.138-.338a2.835,2.835,0,0,0,2.021,1.018Z" transform="translate(-389.562 -135.906)"/></g><g transform="translate(24.57 4.432)"><path class="e" d="M397.434,104.03a1.363,1.363,0,0,1,.2.76,2.527,2.527,0,0,1-2.3,2.653,1.365,1.365,0,0,1-.78-.089c0-.037.3.018.76-.062a2.554,2.554,0,0,0,2.168-2.5C397.494,104.325,397.4,104.04,397.434,104.03Z" transform="translate(-394.553 -104.029)"/></g><g transform="translate(1.175 39.051)"><path class="b" d="M350.3,187.7c.027.053-2.7,1.456-6.093,3.133s-6.163,2.993-6.19,2.94,2.7-1.456,6.094-3.133S350.271,187.643,350.3,187.7Z" transform="translate(-338.015 -187.695)"/></g><g transform="translate(0.02 34.358)"><path class="b" d="M346.175,176.355c.028.053-2.4,1.411-5.424,3.033s-5.5,2.9-5.527,2.844,2.4-1.411,5.425-3.034S346.147,176.3,346.175,176.355Z" transform="translate(-335.224 -176.353)"/></g><g transform="translate(0.184 30.563)"><path class="b" d="M344.005,167.183a9.864,9.864,0,0,1-1.215.719l-2.971,1.657-2.955,1.685a9.745,9.745,0,0,1-1.244.668,8.607,8.607,0,0,1,1.165-.8c.737-.466,1.769-1.089,2.928-1.742s2.225-1.215,3.005-1.6A8.593,8.593,0,0,1,344.005,167.183Z" transform="translate(-335.62 -167.181)"/></g><g transform="translate(13.365 26.223)"><path class="b" d="M371.766,160.137a1.94,1.94,0,0,1-.8-.215,6.126,6.126,0,0,1-1.673-1.089,11.466,11.466,0,0,1-1.349-1.461,3,3,0,0,1-.467-.678,3.278,3.278,0,0,1,.583.579,19.508,19.508,0,0,0,1.377,1.4,7.668,7.668,0,0,0,1.594,1.112C371.476,160.011,371.776,160.1,371.766,160.137Z" transform="translate(-367.475 -156.692)"/></g><g transform="translate(21.464 27.425)"><path class="b" d="M389.276,159.6a2.881,2.881,0,0,1-2.228,1.876,14.426,14.426,0,0,0,1.23-.8C388.9,160.159,389.218,159.568,389.276,159.6Z" transform="translate(-387.047 -159.598)"/></g><g transform="translate(11.479 33.648)"><path class="b" d="M385.889,174.642a1,1,0,0,1-.231.043l-.665.082c-.579.064-1.418.145-2.455.226-2.076.166-4.947.327-8.121.443s-6.051.154-8.133.137c-1.041-.007-1.883-.027-2.465-.05l-.669-.034a.943.943,0,0,1-.233-.026.966.966,0,0,1,.234-.017l.67-.006,2.463-.019c2.08-.022,4.953-.089,8.126-.2s6.042-.253,8.118-.38l2.458-.157.669-.042A.959.959,0,0,1,385.889,174.642Z" transform="translate(-362.916 -174.636)"/></g><g transform="translate(13.724 38.553)"><path class="b" d="M385.8,186.5a4.209,4.209,0,0,1-.68.107c-.439.055-1.076.124-1.865.194-1.576.145-3.758.3-6.171.393s-4.6.123-6.184.106c-.791-.007-1.432-.024-1.874-.043a4.174,4.174,0,0,1-.686-.052,4.171,4.171,0,0,1,.687-.032l1.872-.025c1.581-.022,3.765-.072,6.176-.169s4.591-.224,6.168-.33l1.868-.126A4.3,4.3,0,0,1,385.8,186.5Z" transform="translate(-368.343 -186.491)"/></g><g transform="translate(14.342 44.598)"><path class="b" d="M379.261,201.115a8.286,8.286,0,0,1-1.372.193c-.85.088-2.028.182-3.331.247s-2.485.088-3.34.085a8.243,8.243,0,0,1-1.384-.056,9.432,9.432,0,0,1,1.381-.1l3.332-.148,3.329-.184A9.4,9.4,0,0,1,379.261,201.115Z" transform="translate(-369.835 -201.101)"/></g><g transform="translate(8.617 30.152)"><path class="b" d="M361.668,166.287c0,.062-1.271.075-2.833.141s-2.829.153-2.835.092a21.142,21.142,0,0,1,5.668-.233Z" transform="translate(-356 -166.189)"/></g><g transform="translate(24.388 29.905)"><path class="b" d="M401.467,165.713a62.765,62.765,0,0,1-7.353-.028,62.764,62.764,0,0,1,7.353.028Z" transform="translate(-394.114 -165.591)"/></g><g transform="translate(21.728 55.203)"><path class="b" d="M398.334,226.733a1.68,1.68,0,0,1-.377.216c-.248.129-.615.3-1.076.49a23.526,23.526,0,0,1-7.58,1.747c-.5.028-.9.037-1.182.03a1.7,1.7,0,0,1-.434-.029c0-.035.615-.058,1.6-.153a29.023,29.023,0,0,0,7.535-1.737C397.755,226.95,398.319,226.7,398.334,226.733Z" transform="translate(-387.685 -226.731)"/></g></g><g transform="translate(0 51.726)"><ellipse class="o" cx="17.913" cy="17.088" rx="17.913" ry="17.088" transform="translate(7.345 25.625)"/><g transform="translate(13.457)"><path class="c" d="M122.927,221.982c-2.842.148-3.957,3.11-4.3,3.772a5.731,5.731,0,0,0-.456,2.168,4.714,4.714,0,0,1-.545,2.14c-.626,1-1.94,1.514-2.3,2.636-.405,1.269.634,2.627.357,3.93-.149.7-.659,1.275-.84,1.967a2.9,2.9,0,0,0,.384,2.148,5.629,5.629,0,0,0,4.722,2.474,16.619,16.619,0,0,0,5.44-1.037" transform="translate(-114.776 -220.469)"/><path class="c" d="M161.062,230.88a1.77,1.77,0,0,0,.421,1.831,11.41,11.41,0,0,0,1.538,1.253,2.511,2.511,0,0,1,1.05,1.624c.055.606-.249,1.207-.167,1.81.212,1.549,2.683,2.013,2.814,3.572.088,1.037-.977,1.99-.682,2.989a4.739,4.739,0,0,0,.615,1.021,3.038,3.038,0,0,1-.79,3.672,6.037,6.037,0,0,1-3.785,1.282,3.548,3.548,0,0,1-3.11-1.059,4.265,4.265,0,0,1-.366-3.037,106.283,106.283,0,0,0,.378-14.631" transform="translate(-140.407 -225.685)"/><g transform="translate(4.752 1.165)"><g transform="translate(0.047 2.488)"><path class="l" d="M130.473,251.136c.022-2.547,0-5.23,0-5.23s-3.276-.583-3.906-4.872c-.6-4.091.419-12.889.419-12.889h0c4.745-1.872,10.088-1.148,13.412,2.672h0l-.517,20.688a4.438,4.438,0,0,1-4.744,4.179h0A4.689,4.689,0,0,1,130.473,251.136Z" transform="translate(-126.375 -227.155)"/><g transform="translate(0.608 6.756)"><g transform="translate(0.891 0.499)"><path class="c" d="M130,245.18a.549.549,0,0,0,.523.56.525.525,0,0,0,.571-.488.549.549,0,0,0-.522-.561A.525.525,0,0,0,130,245.18Z" transform="translate(-129.999 -244.69)"/></g><path class="c" d="M127.853,244.048c.067.072.487-.23,1.078-.222,1.112.161,1.092.331,1.085.238.032-.032-.036-.162-.223-.3a1.506,1.506,0,0,0-.868-.278,1.444,1.444,0,0,0-.859.266C127.883,243.887,127.82,244.016,127.853,244.048Z" transform="translate(-127.845 -243.483)"/></g><g transform="translate(6.771 6.96)"><g transform="translate(0.776 0.47)"><path class="c" d="M144.614,245.6a.55.55,0,0,0,.523.56.526.526,0,0,0,.571-.489.55.55,0,0,0-.523-.561A.526.526,0,0,0,144.614,245.6Z" transform="translate(-144.614 -245.111)"/></g><path class="c" d="M142.747,244.541c.067.072.487-.23,1.078-.222s1.02.309,1.085.238c.032-.032-.035-.162-.223-.3a1.509,1.509,0,0,0-.868-.279,1.449,1.449,0,0,0-.859.266C142.778,244.38,142.715,244.509,142.747,244.541Z" transform="translate(-142.739 -243.976)"/></g><g transform="translate(3.084 6.844)"><path class="c" d="M135.328,248.614a3.922,3.922,0,0,0-.957-.184c-.151-.017-.293-.049-.317-.152a.767.767,0,0,1,.106-.446l.459-1.144a19.759,19.759,0,0,0,1.037-2.994,19.777,19.777,0,0,0-1.275,2.9l-.441,1.151a.874.874,0,0,0-.085.591.379.379,0,0,0,.245.223,1.045,1.045,0,0,0,.256.038A3.857,3.857,0,0,0,135.328,248.614Z" transform="translate(-133.828 -243.694)"/></g><g transform="translate(4.096 17.288)"><path class="k" d="M136.273,270.4a10.89,10.89,0,0,0,5.752-1.463s-1.425,2.925-5.706,2.475Z" transform="translate(-136.273 -268.936)"/></g><g transform="translate(4.758 12.799)"><path class="k" d="M137.933,258.479a1.065,1.065,0,0,1,.959-.384.971.971,0,0,1,.667.368.615.615,0,0,1,.039.7.715.715,0,0,1-.777.187,2.237,2.237,0,0,1-.75-.46.65.65,0,0,1-.167-.176.2.2,0,0,1,0-.22" transform="translate(-137.873 -258.087)"/></g><g transform="translate(4.417 12.193)"><path class="c" d="M138.952,256.622c-.1-.007-.1.635-.659,1.083s-1.236.371-1.242.46c-.01.04.151.126.439.137a1.6,1.6,0,0,0,1.037-.348,1.389,1.389,0,0,0,.511-.909C139.065,256.778,139,256.619,138.952,256.622Z" transform="translate(-137.05 -256.622)"/></g></g><path class="c" d="M138.469,224.236c-1.567,2.234-5.714,4.532-8.685,5.065.347-.456,2.171-1.581,2.518-2.038-1.346,1.005-3.273,2.35-5.059,2.441a1.085,1.085,0,0,1-.614-.1.828.828,0,0,1-.312-.673,17.846,17.846,0,0,1,.124-3.88,4.294,4.294,0,0,1,1.545-2.769,7.412,7.412,0,0,1,4.325-1.139,9.786,9.786,0,0,1,3.811.513,3.575,3.575,0,0,1,2.368,2.5" transform="translate(-126.261 -221.142)"/><g transform="translate(8.567 0.495)"><path class="c" d="M155.1,234.948a24.243,24.243,0,0,0,.428-2.862c.126-2.21-.512-10.365-8.13-9.709l-.307,2.32s-1.178,7.942,3.751,8a8.86,8.86,0,0,0,2.5,4.668s1.292-.039,1.755-2.419" transform="translate(-146.965 -222.339)"/></g><g transform="translate(12.229 10.806)"><path class="l" d="M156.027,247.3a2.555,2.555,0,0,1,1.377.1,1.783,1.783,0,0,1,1,.927,1.864,1.864,0,0,1,0,1.369,3.155,3.155,0,0,1-.793,1.142,2.139,2.139,0,0,1-.837.542,1.021,1.021,0,0,1-.952-.159" transform="translate(-155.816 -247.257)"/></g><g transform="translate(12.653 11.446)"><path class="k" d="M156.849,250.991c-.053.017.143.3.563.188a.9.9,0,0,0,.523-.446,2.032,2.032,0,0,0,.237-.757,1.2,1.2,0,0,0-.185-.808.8.8,0,0,0-.6-.362c-.431-.014-.568.282-.519.292.034.035.2-.117.484-.046a.772.772,0,0,1,.467.89c-.056.47-.242.9-.494,1C157.065,251.075,156.878,250.953,156.849,250.991Z" transform="translate(-156.841 -248.805)"/></g></g><path class="c" d="M157.408,221.836a2.6,2.6,0,0,0,3.516-.924,1.663,1.663,0,0,0,.24-1.243,1.709,1.709,0,0,0-1.279-1.109,2.614,2.614,0,0,0-2.4.577,2.294,2.294,0,0,0-.62,2.358,2.045,2.045,0,0,0,1.976,1.363" transform="translate(-139.384 -218.414)"/><path class="c" d="M156.462,256.445a6.031,6.031,0,0,0-1.184,1.021,2.039,2.039,0,0,0-.511,1.441,3.752,3.752,0,0,1,.1.869,2.9,2.9,0,0,1-.6,1.032,2.453,2.453,0,0,0,.387,2.875,3.981,3.981,0,0,0,2.815,1.144,2.409,2.409,0,0,0,2.735-2.714" transform="translate(-137.743 -240.672)"/><g transform="translate(14.671 5.129)"><path class="e" d="M154.8,230.724a2.815,2.815,0,0,1-.449.781,9.047,9.047,0,0,1-3.276,2.815,2.822,2.822,0,0,1-.84.326,13.262,13.262,0,0,0,4.564-3.923Z" transform="translate(-150.233 -230.723)"/></g><g transform="translate(16.433 5.088)"><path class="e" d="M158.084,230.624a3.393,3.393,0,0,1-.14,1.044,8.433,8.433,0,0,1-2.595,4.312,3.387,3.387,0,0,1-.857.613,10.634,10.634,0,0,0,3.592-5.97Z" transform="translate(-154.491 -230.624)"/></g><g transform="translate(3.453 8.537)"><path class="e" d="M123.154,238.958c.063,0,.145.713.392,1.559s.555,1.5.5,1.528a4.9,4.9,0,0,1-.891-3.087Z" transform="translate(-123.121 -238.958)"/></g><g transform="translate(20.033 9.432)"><path class="e" d="M164.893,254.865a1.2,1.2,0,0,0,.63.2,1.289,1.289,0,0,0,.729-.23A1.471,1.471,0,0,0,166.8,254a2.7,2.7,0,0,0,.008-1.247c-.089-.449-.264-.913-.417-1.42a3.745,3.745,0,0,1-.184-1.668,9.358,9.358,0,0,1,.68-1.643,2.151,2.151,0,0,0-1.257-2.669c-.237-.1-.482-.187-.71-.31a1.446,1.446,0,0,1-.566-.508,2.383,2.383,0,0,1-.256-1.3,4.446,4.446,0,0,0-.043-1.052,1.72,1.72,0,0,0-.31-.713,1.025,1.025,0,0,0-.558-.345.378.378,0,0,1,.18.014.863.863,0,0,1,.442.276,1.749,1.749,0,0,1,.364.74,4.342,4.342,0,0,1,.077,1.079,2.266,2.266,0,0,0,.254,1.206,2.3,2.3,0,0,0,1.2.731,2.346,2.346,0,0,1,1.383,2.923,9.922,9.922,0,0,0-.675,1.607,3.585,3.585,0,0,0,.166,1.576c.145.5.316.973.4,1.442a2.811,2.811,0,0,1-.037,1.323,1.579,1.579,0,0,1-.632.894,1.345,1.345,0,0,1-.8.214.974.974,0,0,1-.5-.162A.452.452,0,0,1,164.893,254.865Z" transform="translate(-163.191 -241.12)"/></g><g transform="translate(18.746 15.803)"><path class="e" d="M160.083,263.6c.019-.012.054.133.255.224a.679.679,0,0,0,.8-.217,1.267,1.267,0,0,0-.067-1.3,5.426,5.426,0,0,1-.824-1.609,1.165,1.165,0,0,1,.23-.954c.2-.25.44-.416.6-.621a1.8,1.8,0,0,0,.288-1.321,5.129,5.129,0,0,0-.237-.939,1.233,1.233,0,0,1-.1-.35,1.148,1.148,0,0,1,.174.319,4.03,4.03,0,0,1,.31.947,1.915,1.915,0,0,1-.281,1.464c-.176.238-.417.412-.587.631a.958.958,0,0,0-.184.789,5.761,5.761,0,0,0,.788,1.552,1.406,1.406,0,0,1,.014,1.476.741.741,0,0,1-.525.287.726.726,0,0,1-.439-.084C160.078,263.763,160.075,263.593,160.083,263.6Z" transform="translate(-160.081 -256.517)"/></g><g transform="translate(1.296 11.335)"><path class="e" d="M119.14,256.189a1.843,1.843,0,0,1-.337-.336,4.085,4.085,0,0,1-.722-1.088,2.171,2.171,0,0,1-.173-.9,1.573,1.573,0,0,1,.365-1c.257-.3.629-.451.853-.73a1.219,1.219,0,0,0,.171-1.065,4.54,4.54,0,0,0-.454-1.094,3.754,3.754,0,0,1-.4-1.086,1.42,1.42,0,0,1,.213-1.045,3.646,3.646,0,0,1,.63-.657,1.889,1.889,0,0,0,.707-1.008,1.243,1.243,0,0,0-.018-.456s.033.032.063.109a.738.738,0,0,1,.038.36,1.882,1.882,0,0,1-.686,1.107,3.668,3.668,0,0,0-.584.643,1.243,1.243,0,0,0-.167.915,3.678,3.678,0,0,0,.394,1.022,4.6,4.6,0,0,1,.476,1.142,1.422,1.422,0,0,1-.218,1.245c-.281.331-.651.474-.868.728a1.405,1.405,0,0,0-.335.878,2.068,2.068,0,0,0,.137.84,4.625,4.625,0,0,0,.645,1.091A2.21,2.21,0,0,1,119.14,256.189Z" transform="translate(-117.907 -245.72)"/></g><g transform="translate(17.446 2.172)"><path class="g" d="M159.278,225.366a4.183,4.183,0,0,0-2.338-1.769,2.474,2.474,0,0,1,2.338,1.769Z" transform="translate(-156.94 -223.576)"/></g><g transform="translate(19.51)"><path class="e" d="M162.8,218.327c.022-.014.161.148.272.469a2.242,2.242,0,0,1-.669,2.421c-.261.218-.463.286-.474.263s.152-.142.369-.374a2.461,2.461,0,0,0,.627-2.27A3.129,3.129,0,0,1,162.8,218.327Z" transform="translate(-161.926 -218.326)"/></g></g><path class="p" d="M113.254,338.077s10.28,9.762,16.392,7.995,7.92-6.352,7.92-6.352l.148-1.642-.612-.4-23.528-1.905Z" transform="translate(-100.427 -287.174)"/><g transform="translate(0 24.27)"><g transform="translate(6.396 0.969)"><path class="k" d="M98.555,312.041l1.983-5.084,7.106,4.464-6.332,9.764A16.755,16.755,0,0,1,98.555,312.041Z" transform="translate(-98.206 -295.521)"/><path class="g" d="M106.08,281.793a25.368,25.368,0,0,1,7.588-2.225h0c1.243,2.488,5.159,2.8,7.531,1.106l2-1.352a7.261,7.261,0,0,1,.838.034,10.681,10.681,0,0,1,9.46,8.505,21.328,21.328,0,0,1,.5,5.376c-.26,4.52-4.942,4.929-4.942,4.929s-.241,4.468-.557,8.077h0a6.738,6.738,0,0,1-4.094,5.839,16.626,16.626,0,0,1-5.219,1.609,17.527,17.527,0,0,1-15.551-5.385c.71-4.305,1.389-9.88,1.34-10.13a.124.124,0,0,1,.008-.082l-4.64-4.119-2.63-2.208s5.771-8.565,8.368-9.975" transform="translate(-97.712 -279.32)"/></g><g transform="translate(13.263 5.755)"><path class="q" d="M121.557,291.36a2.465,2.465,0,0,0-1.147-.317,1.887,1.887,0,0,0-1.183.41,5.063,5.063,0,0,0-.527.566,1.371,1.371,0,0,1-.751.5,1.223,1.223,0,0,1-.874-.234c-.238-.152-.442-.319-.651-.439a1.42,1.42,0,0,0-1.214-.106,1.6,1.6,0,0,0-.705.487c-.13.161-.178.271-.2.263a.633.633,0,0,1,.128-.312,1.6,1.6,0,0,1,2.085-.5c.231.127.44.293.666.433a1.026,1.026,0,0,0,.724.2,1.189,1.189,0,0,0,.633-.427,4.74,4.74,0,0,1,.559-.579,1.983,1.983,0,0,1,1.31-.408,1.887,1.887,0,0,1,.886.253C121.486,291.258,121.564,291.352,121.557,291.36Z" transform="translate(-114.307 -290.888)"/></g><g transform="translate(17.999 10.578)"><path class="q" d="M132.981,304.369A2.464,2.464,0,0,0,132,303.7a1.885,1.885,0,0,0-1.252.011,5,5,0,0,0-.68.368,1.371,1.371,0,0,1-.871.232,1.221,1.221,0,0,1-.753-.5c-.178-.221-.317-.444-.477-.625a1.421,1.421,0,0,0-1.116-.488,1.6,1.6,0,0,0-.824.235c-.175.111-.255.2-.269.187s.05-.115.221-.255a1.6,1.6,0,0,1,2.136.188c.178.194.324.419.492.624a1.03,1.03,0,0,0,.622.422,1.187,1.187,0,0,0,.736-.2,4.758,4.758,0,0,1,.715-.37,1.984,1.984,0,0,1,1.371.032,1.893,1.893,0,0,1,.759.523A.7.7,0,0,1,132.981,304.369Z" transform="translate(-125.752 -302.542)"/></g><g transform="translate(28.849 3.112)"><path class="q" d="M158.825,284.748a2.457,2.457,0,0,0-1.188-.067,1.888,1.888,0,0,0-1.069.652,4.95,4.95,0,0,0-.4.665,1.368,1.368,0,0,1-.629.646,1.22,1.22,0,0,1-.9-.043c-.265-.1-.5-.219-.73-.292a1.42,1.42,0,0,0-1.209.154,1.6,1.6,0,0,0-.586.625c-.093.185-.116.3-.135.3a.63.63,0,0,1,.059-.332,1.6,1.6,0,0,1,1.931-.934c.252.074.492.194.742.283a1.027,1.027,0,0,0,.75.043,1.191,1.191,0,0,0,.528-.552,4.717,4.717,0,0,1,.424-.685,1.984,1.984,0,0,1,1.194-.676,1.889,1.889,0,0,1,.92.06A.7.7,0,0,1,158.825,284.748Z" transform="translate(-151.974 -284.501)"/></g><g transform="translate(25.339 8.512)"><path class="q" d="M149.02,299.186a2.121,2.121,0,0,0-.743-.533,1.444,1.444,0,0,0-.952-.029,3.87,3.87,0,0,0-.533.26,1.079,1.079,0,0,1-.695.151.963.963,0,0,1-.578-.422c-.13-.178-.229-.355-.344-.5a1.08,1.08,0,0,0-.826-.412,1.5,1.5,0,0,0-.857.27c-.008-.007.038-.092.174-.2a1.192,1.192,0,0,1,.684-.225,1.215,1.215,0,0,1,.979.439c.132.157.237.336.36.5a.772.772,0,0,0,.45.337c.38.067.73-.276,1.127-.389a1.541,1.541,0,0,1,1.069.078C148.909,298.777,149.041,299.19,149.02,299.186Z" transform="translate(-143.491 -297.549)"/></g><g transform="translate(14.682 14.23)"><path class="q" d="M123.264,313.006a2.1,2.1,0,0,0-.743-.533,1.446,1.446,0,0,0-.952-.03,3.878,3.878,0,0,0-.533.26,1.077,1.077,0,0,1-.695.151.964.964,0,0,1-.578-.422c-.13-.178-.229-.355-.344-.5a1.082,1.082,0,0,0-.826-.412,1.5,1.5,0,0,0-.857.271c-.009-.007.038-.092.174-.2a1.192,1.192,0,0,1,.684-.225,1.215,1.215,0,0,1,.979.439c.133.157.238.336.36.5a.769.769,0,0,0,.45.337c.38.067.729-.275,1.127-.389a1.543,1.543,0,0,1,1.069.078C123.154,312.6,123.286,313.011,123.264,313.006Z" transform="translate(-117.736 -311.369)"/></g><g transform="translate(24.547 15.573)"><path class="q" d="M147.2,315.038a2.117,2.117,0,0,0-.876-.263,1.442,1.442,0,0,0-.91.28,3.831,3.831,0,0,0-.42.418,1.08,1.08,0,0,1-.609.368.963.963,0,0,1-.683-.213c-.181-.126-.332-.261-.487-.36a1.081,1.081,0,0,0-.915-.122,1.508,1.508,0,0,0-.724.533c-.01,0,.006-.1.1-.243a1.192,1.192,0,0,1,.574-.435,1.215,1.215,0,0,1,1.068.1c.176.106.334.241.5.355a.771.771,0,0,0,.535.173c.382-.06.6-.5.941-.733a1.541,1.541,0,0,1,1.037-.272A1.117,1.117,0,0,1,147.2,315.038Z" transform="translate(-141.577 -314.615)"/></g><g transform="translate(21.256 20.118)"><path class="q" d="M139.251,326.021a2.1,2.1,0,0,0-.876-.264,1.447,1.447,0,0,0-.91.28,3.834,3.834,0,0,0-.42.418,1.08,1.08,0,0,1-.609.368.964.964,0,0,1-.683-.212c-.181-.127-.332-.262-.487-.36a1.081,1.081,0,0,0-.915-.123,1.5,1.5,0,0,0-.724.533c-.01,0,.006-.1.1-.243a1.19,1.19,0,0,1,.574-.435,1.215,1.215,0,0,1,1.068.1c.176.105.334.241.5.354a.769.769,0,0,0,.535.173c.382-.06.6-.5.941-.732a1.539,1.539,0,0,1,1.037-.272A1.115,1.115,0,0,1,139.251,326.021Z" transform="translate(-133.624 -325.598)"/></g><g transform="translate(14.387 30.249)"><path class="q" d="M122.569,351.654a2.1,2.1,0,0,0-.751-.522,1.444,1.444,0,0,0-.952-.016,3.919,3.919,0,0,0-.529.267,1.075,1.075,0,0,1-.693.161.962.962,0,0,1-.584-.414c-.132-.176-.234-.351-.351-.493a1.081,1.081,0,0,0-.832-.4,1.508,1.508,0,0,0-.853.282c-.009-.007.037-.092.171-.2a1.191,1.191,0,0,1,.681-.235,1.215,1.215,0,0,1,.985.425c.135.155.242.333.367.492a.768.768,0,0,0,.454.331c.382.061.726-.286,1.121-.4a1.541,1.541,0,0,1,1.07.063C122.453,351.247,122.591,351.658,122.569,351.654Z" transform="translate(-117.024 -350.083)"/></g><g transform="translate(22.43 33.783)"><path class="q" d="M142.1,359.059a2.111,2.111,0,0,0-.872-.276,1.446,1.446,0,0,0-.914.267,3.92,3.92,0,0,0-.426.413,1.078,1.078,0,0,1-.614.36.965.965,0,0,1-.68-.222c-.179-.129-.328-.266-.482-.367a1.083,1.083,0,0,0-.913-.135,1.5,1.5,0,0,0-.731.523c-.01,0,.008-.1.1-.242a1.192,1.192,0,0,1,.581-.427,1.214,1.214,0,0,1,1.066.113c.175.108.33.246.5.361a.77.77,0,0,0,.532.181c.382-.055.608-.488.95-.72a1.54,1.54,0,0,1,1.041-.258A1.116,1.116,0,0,1,142.1,359.059Z" transform="translate(-136.462 -358.623)"/></g><path class="c" d="M83.522,276.979c.251.3,9.349,12.461,9.349,12.461l-1.281.726-9.336-12.01Z" transform="translate(-82.254 -276.979)"/><path class="l" d="M123.137,293.786s-8.533,14.715-9.11,14.986c-1.136.533-14.229-10.782-15.478-11.864-.172-.23-.527-.715-1.225-1.68,0,0-1.033-4.727-2.135-4.364s.6,2.4-.114,4.2-4.006-2.488-4.137-2.872l-.848-1.108a14.552,14.552,0,0,0-.829,3.573c.193,3.373,3.384,7.384,3.384,7.384s12.966,16.247,22.781,16.8c2.827.158,8.227-7.98,11.586-13.995,2.028-3.632,1.087-7.322-2.275-9.773Z" transform="translate(-86.36 -285.107)"/><g transform="translate(3.275 7.655)"><path class="k" d="M91.406,297.972a7.77,7.77,0,0,1-1.233-2.493,13.9,13.9,0,0,1,.62,1.245C91.131,297.411,91.438,297.953,91.406,297.972Z" transform="translate(-90.169 -295.479)"/></g><path class="g" d="M158.445,288.061c-.337.2-8.272,14.933-8.272,14.933l10.214,8a118.3,118.3,0,0,0,4.058-11.866,17.052,17.052,0,0,0-.353-6.792c-.763-2.116-1.914-1.589-3.637-2.828Z" transform="translate(-122.069 -283.475)"/><g class="r" transform="translate(27.968 4.16)"><path d="M161.608,287.458c-.006.009-.1-.056-.291-.152a1.715,1.715,0,0,0-.9-.189,2.449,2.449,0,0,0-1.332.557,6.619,6.619,0,0,0-1.329,1.432c-.432.588-.788,1.305-1.224,2.054l-1.365,2.4-3.139,5.483-1.958,3.4-.026-.134,6.911,5.461,2.005,1.61.531.439a1.127,1.127,0,0,1,.176.162,1.181,1.181,0,0,1-.2-.132l-.553-.411-2.043-1.561-6.957-5.4-.071-.055.045-.079,1.952-3.406,3.153-5.474,1.381-2.386a23.631,23.631,0,0,1,1.257-2.057,6.622,6.622,0,0,1,1.381-1.44,2.505,2.505,0,0,1,1.4-.544,1.69,1.69,0,0,1,.921.234,1.5,1.5,0,0,1,.207.136C161.589,287.437,161.61,287.455,161.608,287.458Z" transform="translate(-149.845 -287.032)"/></g><g transform="translate(31.152 16.761)"><path class="q" d="M163.07,319.123a2.115,2.115,0,0,0-.743-.533,1.446,1.446,0,0,0-.952-.03,3.963,3.963,0,0,0-.533.26,1.079,1.079,0,0,1-.695.151.964.964,0,0,1-.578-.422c-.13-.178-.229-.355-.344-.5a1.083,1.083,0,0,0-.826-.412,1.507,1.507,0,0,0-.857.271c-.008-.007.038-.092.174-.2a1.192,1.192,0,0,1,.684-.226,1.215,1.215,0,0,1,.978.439c.133.157.237.336.36.5a.77.77,0,0,0,.45.337c.38.067.729-.275,1.127-.389a1.541,1.541,0,0,1,1.069.078C162.959,318.714,163.091,319.128,163.07,319.123Z" transform="translate(-157.541 -317.486)"/></g><g transform="translate(36.353 13.618)"><path class="q" d="M175.106,312.765a2.111,2.111,0,0,0-.572-.713,1.444,1.444,0,0,0-.909-.286,3.907,3.907,0,0,0-.583.107,1.079,1.079,0,0,1-.71-.042.963.963,0,0,1-.443-.562c-.077-.206-.125-.4-.2-.572a1.083,1.083,0,0,0-.684-.62,1.5,1.5,0,0,0-.9.029c-.006-.009.062-.078.221-.143a1.192,1.192,0,0,1,.72-.032,1.215,1.215,0,0,1,.824.686c.085.187.138.388.212.576a.771.771,0,0,0,.343.446c.348.167.777-.068,1.19-.07a1.541,1.541,0,0,1,1.009.363A1.117,1.117,0,0,1,175.106,312.765Z" transform="translate(-170.11 -309.89)"/></g><g transform="translate(36.593 7.529)"><path class="q" d="M175.686,298.049a2.1,2.1,0,0,0-.572-.713,1.445,1.445,0,0,0-.909-.285,3.829,3.829,0,0,0-.583.106,1.077,1.077,0,0,1-.71-.042.964.964,0,0,1-.442-.562c-.077-.207-.125-.4-.2-.573a1.081,1.081,0,0,0-.684-.619,1.5,1.5,0,0,0-.9.029c-.006-.009.061-.078.221-.143a1.193,1.193,0,0,1,.72-.032,1.214,1.214,0,0,1,.824.686c.085.187.138.387.212.576a.769.769,0,0,0,.342.446c.348.167.777-.068,1.19-.07a1.542,1.542,0,0,1,1.008.363A1.114,1.114,0,0,1,175.686,298.049Z" transform="translate(-170.69 -295.174)"/></g><g transform="translate(34.334 21.527)"><path class="q" d="M170.225,331.879a2.112,2.112,0,0,0-.572-.713,1.446,1.446,0,0,0-.909-.285,3.9,3.9,0,0,0-.583.106,1.077,1.077,0,0,1-.71-.042.965.965,0,0,1-.443-.562c-.077-.206-.125-.4-.2-.573a1.081,1.081,0,0,0-.684-.619,1.5,1.5,0,0,0-.9.029c-.007-.009.061-.078.221-.143a1.188,1.188,0,0,1,.72-.033,1.216,1.216,0,0,1,.824.686c.085.187.138.387.212.576a.771.771,0,0,0,.343.446c.348.167.777-.069,1.19-.071a1.544,1.544,0,0,1,1.009.364A1.117,1.117,0,0,1,170.225,331.879Z" transform="translate(-165.229 -329.004)"/></g></g></g></g></svg>