<svg xmlns="http://www.w3.org/2000/svg" viewBox="0 0 16 16"><defs></defs><g transform="translate(-557.432 -1213.182)"><path class="a" d="M572.625,1218.181l-6.383,0v-.357a.808.808,0,1,0-1.615,0v.357h-6.388a.819.819,0,0,0,0,1.637h6.388v.357a.808.808,0,1,0,1.615,0v-.359h6.383a.819.819,0,0,0,0-1.637Z" transform="translate(0 2.185)"/><path class="a" d="M558.239,1215.994h1.511v.357a.807.807,0,1,0,1.615,0v-.357h11.261a.819.819,0,0,0,0-1.637H561.364V1214a.807.807,0,1,0-1.615,0v.357h-1.511a.813.813,0,0,0-.807.818v0A.813.813,0,0,0,558.239,1215.994Z" transform="translate(0 0)"/><path class="a" d="M572.625,1222l-1.506,0v-.357a.808.808,0,1,0-1.615,0v.357H558.239a.819.819,0,0,0,0,1.638h11.268v.35a.807.807,0,1,0,1.615,0v-.352h1.5a.819.819,0,0,0,0-1.638Z" transform="translate(0 4.37)"/></g></svg>