<svg xmlns="http://www.w3.org/2000/svg" viewBox="0 0 22.158 20.072"><g transform="translate(0 -0.001)"><path class="a" d="M323.559,220.539a6.117,6.117,0,0,1-5.367,1.215,8.157,8.157,0,0,1,1.342,4.492v2.434a3.669,3.669,0,0,1-.881,2.388h5.539a2.39,2.39,0,0,0,2.387-2.388v-2.434a6.905,6.905,0,0,0-3.02-5.707Zm0,0" transform="translate(-304.421 -210.994)"/><path class="a" d="M53.025,9.643A4.821,4.821,0,1,0,48.2,4.822,4.827,4.827,0,0,0,53.025,9.643Zm0,0" transform="translate(-46.118)"/><path class="a" d="M278.977,9.643a4.821,4.821,0,1,0-3.321-8.313,6.106,6.106,0,0,1,0,6.983,4.8,4.8,0,0,0,3.321,1.33Zm0,0" transform="translate(-263.726)"/><path class="a" d="M10.794,220.539a6.108,6.108,0,0,1-7.774,0A6.905,6.905,0,0,0,0,226.246v2.434a2.39,2.39,0,0,0,2.388,2.388h9.039a2.39,2.39,0,0,0,2.388-2.388v-2.434a6.9,6.9,0,0,0-3.02-5.707Zm0,0" transform="translate(0 -210.994)"/></g></svg>