<svg xmlns="http://www.w3.org/2000/svg" width="191.395" height="151.688" viewBox="0 0 191.395 151.688"><defs><style>.a{fill:#a9d9f9;}.b{fill:#5ab7f6;}.c{fill:#c9e7fb;}.d{opacity:0.5;}.e{fill:#e5f4ff;}.f{fill:#263238;}.g{fill:#b78876;}.h{fill:#aa6550;}.i{fill:#f89d1f;}.j{opacity:0.3;}.k,.q{opacity:0.2;}.l{fill:#465d84;}.m{fill:#455a64;}.n{opacity:0.4;}.o{fill:#fff;}.p{fill:#8296b7;}</style></defs><g transform="translate(23.045 4.976)"><g transform="translate(15.072 77.179)"><path class="a" d="M152.1,363.409c9.894-6.425,12.512-18.884,12.512-30.164,0-1.883.274-3.859-.565-5.539s-2.888-2.879-4.6-2.143c-1.419.61-2.082,2.214-2.909,3.531a11,11,0,0,1-4.553,4.063,4.193,4.193,0,0,1-3.873.219c-1.592-.95-1.707-3.2-1.632-5.068q.21-5.228.42-10.456a17.454,17.454,0,0,0-.376-5.575,5.807,5.807,0,0,0-3.513-4.047,3.521,3.521,0,0,0-4.436,2.211,17.293,17.293,0,0,0-.132,2.327,1.969,1.969,0,0,1-1.214,1.813,2.263,2.263,0,0,1-2.025-.928,24.881,24.881,0,0,1-4.236-6.892,34.544,34.544,0,0,0-3.928-7.1,10.122,10.122,0,0,0-6.723-4.076c-2.674-.243-5.584,1.314-6.35,3.921s.68,5.342,2.281,7.533a41.774,41.774,0,0,0,8.412,8.581,3.438,3.438,0,0,1,1.4,1.613c.364,1.261-.86,2.459-2.1,2.827a21.642,21.642,0,0,1-4.382.343c-1.464.122-3.066.712-3.664,2.072-.831,1.886.7,3.944,2.229,5.31a35.793,35.793,0,0,0,10.378,6.47,12.059,12.059,0,0,1,3.868,2.045,3.464,3.464,0,0,1,.975,4,3.527,3.527,0,0,1-3.883,1.343,24.948,24.948,0,0,1-4.051-1.707c-2.538-1.057-5.863-.993-7.585,1.173a5.923,5.923,0,0,0-.807,5.213,13.648,13.648,0,0,0,2.679,4.719,35.983,35.983,0,0,0,14.991,11.313c5.892,2.27,11.4,3.017,17.4,1.051" transform="translate(-113.759 -295.563)"/><g transform="translate(3.001 1.471)"><path class="b" d="M155.055,365.786c-.257-4.477-.043-1.79-1.519-7.528a167.721,167.721,0,0,0-6.041-18.271l-1.83-4.708c-.6-1.543-1.2-3.075-1.881-4.536a83.8,83.8,0,0,0-4.379-8.173c-1.519-2.532-3.052-4.88-4.5-7.065s-2.85-4.191-4.2-5.968a66.429,66.429,0,0,0-6.984-7.9c-.894-.866-1.61-1.514-2.1-1.947l-.562-.489a1.409,1.409,0,0,0-.2-.158,1.338,1.338,0,0,0,.175.184l.539.514c.475.45,1.176,1.113,2.055,1.991a70.293,70.293,0,0,1,6.883,7.954c1.333,1.781,2.713,3.793,4.155,5.979s2.961,4.54,4.469,7.07a84.737,84.737,0,0,1,4.343,8.151c.672,1.454,1.264,2.972,1.869,4.52s1.21,3.117,1.827,4.706a171.864,171.864,0,0,1,6.055,18.226c1.489,5.716,1.3,3,1.583,7.462" transform="translate(-120.86 -299.044)"/></g><g transform="translate(25.82 12.668)"><path class="b" d="M174.859,346.023a3.783,3.783,0,0,0,.21-.792c.116-.514.259-1.262.421-2.189.328-1.854.693-4.428,1.084-7.269s.793-5.4,1.147-7.247c.175-.922.324-1.667.434-2.181a3.764,3.764,0,0,0,.132-.809,3.724,3.724,0,0,0-.262.776c-.15.505-.336,1.244-.541,2.163-.418,1.837-.858,4.4-1.25,7.249-.379,2.8-.722,5.34-.984,7.279-.124.875-.229,1.612-.314,2.2A3.756,3.756,0,0,0,174.859,346.023Z" transform="translate(-174.851 -325.537)"/></g><g transform="translate(1.932 27.829)"><path class="b" d="M118.33,361.425a5.225,5.225,0,0,0,.956.148c.615.076,1.506.18,2.6.346,2.195.312,5.211.85,8.513,1.589s6.261,1.546,8.384,2.188c1.065.313,1.919.59,2.511.778a5.159,5.159,0,0,0,.931.262,5.149,5.149,0,0,0-.887-.39c-.579-.227-1.424-.54-2.483-.885-2.111-.7-5.07-1.545-8.382-2.293a84.974,84.974,0,0,0-8.556-1.493c-1.1-.134-2-.2-2.622-.236A5.088,5.088,0,0,0,118.33,361.425Z" transform="translate(-118.33 -361.41)"/></g><g transform="translate(35.395 29.929)"><path class="b" d="M197.509,396.682a1.231,1.231,0,0,0,.175-.288l.441-.856c.38-.745.9-1.837,1.526-3.2,1.254-2.715,2.868-6.521,4.591-10.745s3.3-8.041,4.5-10.778l1.425-3.239.383-.884a1.264,1.264,0,0,0,.112-.319,1.266,1.266,0,0,0-.175.289l-.441.855c-.38.745-.9,1.838-1.526,3.2-1.254,2.715-2.868,6.521-4.592,10.746s-3.3,8.039-4.5,10.777L198,395.479l-.383.884A1.26,1.26,0,0,0,197.509,396.682Z" transform="translate(-197.507 -366.378)"/></g><g transform="translate(3.79 48.847)"><path class="b" d="M122.726,411.143a1.309,1.309,0,0,0,.313.142l.918.342,3.384,1.225c2.857,1.035,6.788,2.51,11.128,4.145s8.29,3.077,11.17,4.053c1.439.489,2.608.872,3.422,1.12l.938.281a1.249,1.249,0,0,0,.334.075,1.27,1.27,0,0,0-.312-.142l-.918-.342-3.384-1.225c-2.857-1.035-6.788-2.51-11.131-4.146s-8.288-3.076-11.168-4.052c-1.44-.489-2.609-.872-3.422-1.12l-.938-.281A1.253,1.253,0,0,0,122.726,411.143Z" transform="translate(-122.726 -411.14)"/></g></g><g transform="translate(81.821 49.475)"><path class="a" d="M324.046,230.27s-5.1-2.7-9.811,9.33a149.522,149.522,0,0,0-6.275,18.847s-1.307,2.551-3.109,1.144-4.5-5.634-7.22-4.558c-2.824,1.116-3.462,4.453-2.44,9.164s2.882,15.113,3.047,16.054c.162.924-.237,2.348-1.618,1.587s-9.64-8.321-12.992-4.187,1.651,16.788,2.172,18.183.3,2.032-.344,2.453-3.182-2.382-5.618-4.435-5.622-4.008-7.357-1.461-1.4,12.378,9.453,27.334l5.484,6.6,8.519-1.316c18.058-3.928,24.852-11.043,25.254-14.1s-3.276-3.718-6.461-3.809-6.944.311-7.145-.432.06-1.367,1.377-2.06,13.476-6.8,13.728-12.119-10.943-5.176-12.48-5.528-.887-1.68-.151-2.261,9.065-7.114,12.964-9.948,5.645-5.748,4.282-8.461c-1.315-2.616-6.14-1.257-8.421-1.407s-1.557-2.924-1.557-2.924a149.477,149.477,0,0,0,7.87-18.239c4.493-12.109-1.254-13.5-1.254-13.5" transform="translate(-271.693 -230.012)"/><g transform="translate(15.934 10.945)"><path class="b" d="M309.394,339.419c3.334-8.88,8.044-21.109,13.29-34.6s9.981-25.7,13.36-34.566c1.682-4.425,3.045-8.01,3.991-10.5l1.087-2.854.289-.74c.066-.166.107-.249.107-.249s-.023.089-.081.258l-.265.749-1.04,2.871c-.906,2.493-2.243,6.091-3.912,10.53-3.335,8.88-8.044,21.108-13.288,34.6s-9.983,25.71-13.362,34.572" transform="translate(-309.394 -255.909)"/></g><g transform="translate(29.41 31.012)"><path class="b" d="M341.283,303.39a2.824,2.824,0,0,1,.272.558c.161.365.377.9.639,1.563.521,1.328,1.194,3.179,1.9,5.236l1.786,5.272.551,1.593a2.753,2.753,0,0,1,.18.594,2.773,2.773,0,0,1-.276-.556c-.16-.366-.377-.9-.632-1.567-.508-1.333-1.156-3.193-1.861-5.25l-1.824-5.257-.559-1.591A2.75,2.75,0,0,1,341.283,303.39Z" transform="translate(-341.28 -303.39)"/></g><g transform="translate(35.541 39.202)"><path class="b" d="M355.786,329.47c-.027-.068,3.729-1.623,8.389-3.473s8.462-3.294,8.489-3.226-3.729,1.623-8.391,3.474S355.813,329.538,355.786,329.47Z" transform="translate(-355.786 -322.769)"/></g><g transform="translate(26.552 64.081)"><path class="b" d="M334.517,383.811a2.877,2.877,0,0,1,.628-.091l1.714-.162c1.447-.139,3.445-.34,5.641-.642s4.176-.636,5.607-.892l1.7-.3a2.908,2.908,0,0,1,.628-.081,2.892,2.892,0,0,1-.607.182c-.395.1-.969.235-1.681.385-1.424.3-3.4.673-5.608.971s-4.209.474-5.662.565c-.727.043-1.315.071-1.723.078A2.919,2.919,0,0,1,334.517,383.811Z" transform="translate(-334.517 -381.635)"/></g><g transform="translate(18.043 54.007)"><path class="b" d="M314.386,357.8a2.444,2.444,0,0,1,.382.445l.959,1.271c.8,1.08,1.891,2.583,3.083,4.252s2.258,3.19,3.019,4.3l.89,1.32a2.465,2.465,0,0,1,.3.505,2.479,2.479,0,0,1-.381-.445l-.959-1.271c-.8-1.08-1.891-2.583-3.083-4.253s-2.258-3.189-3.019-4.3l-.89-1.32A2.51,2.51,0,0,1,314.386,357.8Z" transform="translate(-314.385 -357.798)"/></g><g transform="translate(7.826 70.967)"><path class="b" d="M290.21,397.927a4.07,4.07,0,0,1,.482.574l1.235,1.625c1.034,1.378,2.447,3.294,3.994,5.418s2.937,4.059,3.931,5.466l1.166,1.674a4.062,4.062,0,0,1,.4.635,4.025,4.025,0,0,1-.482-.574L299.7,411.12c-1.033-1.378-2.447-3.294-3.994-5.419s-2.936-4.058-3.93-5.465l-1.167-1.674A4.062,4.062,0,0,1,290.21,397.927Z" transform="translate(-290.209 -397.926)"/></g><g transform="translate(18.87 82.61)"><path class="b" d="M316.341,428.781a4.644,4.644,0,0,1,.792-.135l2.167-.284c1.829-.242,4.353-.586,7.129-1.044s5.28-.932,7.09-1.29l2.144-.423a4.668,4.668,0,0,1,.793-.126,4.59,4.59,0,0,1-.771.227c-.5.129-1.227.3-2.128.506-1.8.406-4.3.913-7.086,1.369s-5.314.774-7.15.968c-.918.1-1.663.164-2.178.2A4.663,4.663,0,0,1,316.341,428.781Z" transform="translate(-316.341 -425.475)"/></g></g><g transform="translate(108.617 19.207)"><path class="a" d="M351.726,158.393a7.341,7.341,0,0,1-7.156,2.272c-2.926-.559-8.725-.832-9.474,1.318l.875,6.524a17.973,17.973,0,0,1,7.757-.063c3.852.922,9.411-1.807,9.411-1.807Z" transform="translate(-335.096 -158.393)"/><g transform="translate(5.861 3.264)"><path class="c" d="M351.854,171.967a3.145,3.145,0,0,1-2.8-3.85c.435-1.581,2.792-2.311,4.373-1.876a2.97,2.97,0,0,1,2.075,3.652C355.071,171.474,353.488,172.12,351.854,171.967Z" transform="translate(-348.964 -166.117)"/><g transform="translate(2.02 1.166)"><path class="a" d="M354.146,172.4c.01-.049.135-.067.345-.076a3.639,3.639,0,0,0,.828-.106,1.3,1.3,0,0,0,.452-.228.63.63,0,0,0,.248-.39.49.49,0,0,0-.142-.417.824.824,0,0,0-.553-.145c-.134,0-.28,0-.44-.012a1.637,1.637,0,0,1-.515-.107,1.123,1.123,0,0,1-.256-.149.909.909,0,0,1-.208-.225.991.991,0,0,1-.16-.546,1.026,1.026,0,0,1,.134-.507,1.094,1.094,0,0,1,.32-.346,1.511,1.511,0,0,1,.7-.255,2.023,2.023,0,0,1,.568.019,2.393,2.393,0,0,1,.393.1c.21.074.316.14.308.187s-.132.074-.345.085a3.9,3.9,0,0,0-.83.1,1.137,1.137,0,0,0-.434.228.437.437,0,0,0-.162.375.347.347,0,0,0,.067.18.264.264,0,0,0,.065.061.432.432,0,0,0,.1.05,2.55,2.55,0,0,0,.719.057,2.06,2.06,0,0,1,.508.066,1.321,1.321,0,0,1,.269.109,1.015,1.015,0,0,1,.242.183,1.129,1.129,0,0,1,.3,1.033,1.2,1.2,0,0,1-.555.748,1.662,1.662,0,0,1-.691.238,2.212,2.212,0,0,1-.963-.115C354.24,172.516,354.136,172.443,354.146,172.4Z" transform="translate(-353.744 -168.876)"/></g><g transform="translate(3.448 0.666)"><path class="a" d="M357.734,172.451a16.412,16.412,0,0,1-.561-4.759,16.3,16.3,0,0,1,.561,4.759Z" transform="translate(-357.122 -167.692)"/></g><g transform="translate(2.95 1.048)"><path class="a" d="M356.506,172.917A13.473,13.473,0,0,1,356,168.6a13.509,13.509,0,0,1,.508,4.32Z" transform="translate(-355.943 -168.597)"/></g></g><g class="d" transform="translate(0.651 1.18)"><path class="e" d="M337.41,169.423l-.773-5.938.049-.036c2.311-1.7,6.576-.986,9.4-.514.486.082.946.158,1.342.214a5.258,5.258,0,0,0,4.677-1.955l.208-.009.939,6.393-.055.037a12.258,12.258,0,0,1-9.782,1.513c-2.248-.652-5.853.258-5.889.267Zm-.549-5.842.727,5.581c.648-.155,3.785-.846,5.884-.236a12.051,12.051,0,0,0,9.552-1.451l-.877-5.969a4.1,4.1,0,0,1-.41.417,5.647,5.647,0,0,1-4.339,1.433c-.4-.056-.859-.133-1.347-.215C343.284,162.678,339.112,161.979,336.861,163.581Z" transform="translate(-336.637 -161.184)"/></g></g><g transform="translate(21.424)"><path class="c" d="M145.912,124.886a7.341,7.341,0,0,1-5.84-4.717c-1.147-2.749-4.116-7.737-6.324-7.177l-4.96,4.327a17.97,17.97,0,0,1,4.33,6.436c1.355,3.722,6.7,6.855,6.7,6.855Z" transform="translate(-128.787 -112.948)"/><g transform="translate(4.792 5.837)"><path class="a" d="M140.511,131.313a3.144,3.144,0,0,1,1.67-4.455c1.559-.509,3.467,1.055,3.976,2.613a2.97,2.97,0,0,1-1.9,3.745C142.7,133.724,141.283,132.76,140.511,131.313Z" transform="translate(-140.125 -126.76)"/><g transform="translate(1.064 1.693)"><path class="c" d="M142.676,132.594c.046-.019.13.076.254.246a3.625,3.625,0,0,0,.545.633,1.31,1.31,0,0,0,.44.251.631.631,0,0,0,.462-.008.489.489,0,0,0,.269-.349.82.82,0,0,0-.184-.541c-.071-.113-.154-.234-.232-.373a1.642,1.642,0,0,1-.195-.489,1.135,1.135,0,0,1-.016-.3.917.917,0,0,1,.073-.3.991.991,0,0,1,.367-.434,1.03,1.03,0,0,1,.5-.167,1.084,1.084,0,0,1,.464.076,1.515,1.515,0,0,1,.6.443,2.034,2.034,0,0,1,.3.484,2.421,2.421,0,0,1,.134.383c.055.216.057.341.014.36s-.134-.07-.261-.241a3.888,3.888,0,0,0-.541-.638,1.14,1.14,0,0,0-.429-.236.439.439,0,0,0-.4.072.346.346,0,0,0-.113.155.268.268,0,0,0-.015.088.46.46,0,0,0,.012.109,2.533,2.533,0,0,0,.349.631,2.081,2.081,0,0,1,.225.46,1.319,1.319,0,0,1,.057.285,1.021,1.021,0,0,1-.019.3,1.129,1.129,0,0,1-.7.817,1.193,1.193,0,0,1-.929-.05,1.661,1.661,0,0,1-.58-.445,2.209,2.209,0,0,1-.435-.867C142.628,132.739,142.632,132.611,142.676,132.594Z" transform="translate(-142.642 -130.766)"/></g><g transform="translate(1.382 2.195)"><path class="c" d="M143.4,135.053a16.417,16.417,0,0,1,3.661-3.092,16.3,16.3,0,0,1-3.661,3.092Z" transform="translate(-143.394 -131.955)"/></g><g transform="translate(1.127 1.994)"><path class="c" d="M142.8,134.291a13.456,13.456,0,0,1,3.324-2.805,13.521,13.521,0,0,1-3.324,2.805Z" transform="translate(-142.791 -131.479)"/></g></g><g class="d" transform="translate(0.883 0.526)"><path class="a" d="M130.877,118.112l4.528-3.919.058.022c2.693.99,4.449,4.942,5.611,7.558.2.45.389.876.561,1.237a5.258,5.258,0,0,0,4.21,2.824l.122.168-4.816,4.308-.061-.026a12.257,12.257,0,0,1-6.656-7.326c-.7-2.235-3.442-4.741-3.47-4.766Zm4.571-3.679-4.256,3.683c.487.456,2.793,2.691,3.442,4.779a12.05,12.05,0,0,0,6.477,7.169l4.5-4.023a4.185,4.185,0,0,1-.575-.112,5.647,5.647,0,0,1-3.587-2.83c-.173-.363-.363-.79-.563-1.242C139.743,119.293,138.026,115.428,135.448,114.433Z" transform="translate(-130.877 -114.193)"/></g></g><g transform="translate(0 49.33)"><path class="c" d="M87.949,229.668a5.073,5.073,0,0,1-4.06,3.23c-2.027.36-5.838,1.612-5.792,3.185l2.172,4a12.425,12.425,0,0,1,4.993-1.952c2.714-.354,5.63-3.485,5.63-3.485Z" transform="translate(-78.096 -229.668)"/><g transform="translate(4.252 3.73)"><path class="a" d="M90.916,242.589a2.173,2.173,0,0,1-2.754-1.8c-.109-1.128,1.233-2.18,2.361-2.289a2.053,2.053,0,0,1,2.239,1.846A2.2,2.2,0,0,1,90.916,242.589Z" transform="translate(-88.156 -238.495)"/><g transform="translate(1.274 0.847)"><path class="c" d="M92.067,243.111c-.006-.034.071-.076.2-.134a2.479,2.479,0,0,0,.509-.272.9.9,0,0,0,.236-.259.436.436,0,0,0,.064-.312.339.339,0,0,0-.195-.234.569.569,0,0,0-.393.043c-.087.031-.181.068-.287.1a1.146,1.146,0,0,1-.359.058.775.775,0,0,1-.2-.033.634.634,0,0,1-.19-.094.682.682,0,0,1-.238-.313.71.71,0,0,1-.038-.36.748.748,0,0,1,.121-.3,1.045,1.045,0,0,1,.389-.337,1.394,1.394,0,0,1,.371-.128,1.694,1.694,0,0,1,.279-.033c.153,0,.238.013.245.045s-.067.08-.2.14a2.691,2.691,0,0,0-.511.269.789.789,0,0,0-.224.254.3.3,0,0,0-.012.282.239.239,0,0,0,.087.1.19.19,0,0,0,.057.023.3.3,0,0,0,.075.008,1.74,1.74,0,0,0,.478-.14,1.443,1.443,0,0,1,.344-.083.94.94,0,0,1,.2,0,.7.7,0,0,1,.2.059.781.781,0,0,1,.445.595.823.823,0,0,1-.174.619,1.142,1.142,0,0,1-.387.324,1.532,1.532,0,0,1-.65.164C92.158,243.166,92.072,243.144,92.067,243.111Z" transform="translate(-91.17 -240.5)"/></g><g transform="translate(1.867 0.597)"><path class="c" d="M94.118,242.842a11.354,11.354,0,0,1-1.535-2.934,11.285,11.285,0,0,1,1.535,2.934Z" transform="translate(-92.575 -239.907)"/></g><g transform="translate(1.642 0.965)"><path class="c" d="M93.443,243.443a9.3,9.3,0,0,1-1.392-2.664,9.345,9.345,0,0,1,1.392,2.664Z" transform="translate(-92.042 -240.778)"/></g></g><g class="d" transform="translate(0.394 0.836)"><path class="a" d="M80.99,240.638l-1.962-3.644.023-.036c1.073-1.667,4-2.257,5.941-2.647.334-.067.65-.131.919-.193a3.633,3.633,0,0,0,2.538-2.414l.132-.057,2.181,3.9-.026.037a8.47,8.47,0,0,1-5.942,3.387,9.829,9.829,0,0,0-3.737,1.623ZM79.2,237l1.844,3.425a9.51,9.51,0,0,1,3.741-1.6,8.327,8.327,0,0,0,5.81-3.289L88.554,231.9a2.826,2.826,0,0,1-.162.371,3.9,3.9,0,0,1-2.448,1.994c-.271.062-.587.126-.923.193C83.121,234.836,80.255,235.412,79.2,237Z" transform="translate(-79.028 -231.647)"/></g></g></g><g transform="translate(0 151.468)"><path class="f" d="M214.965,459.675c0,.061-42.849.11-95.693.11-52.863,0-95.7-.049-95.7-.11s42.839-.11,95.7-.11C172.116,459.565,214.965,459.614,214.965,459.675Z" transform="translate(-23.57 -459.565)"/></g><g transform="translate(7.457 42.508)"><g transform="translate(75.384)"><path class="f" d="M224.846,218.066a23.261,23.261,0,0,1-1.512-4.33,7.809,7.809,0,0,1,.267-4.519,4.737,4.737,0,0,1,3.308-2.914,18.1,18.1,0,0,0,2.806-.354,8.306,8.306,0,0,0,2.513-2.069,7.969,7.969,0,0,1,4.584-2.09,4.751,4.751,0,0,1,2.628.379,2.664,2.664,0,0,1,1.51,2.084,12.65,12.65,0,0,1,3.211-.773,4.26,4.26,0,0,1,3.094.916,2.6,2.6,0,0,1,.716,3,2.113,2.113,0,0,1,2.721.767,2.722,2.722,0,0,1-.174,2.942,5.089,5.089,0,0,1-3.035,1.747,7.378,7.378,0,0,1-3.22-.091" transform="translate(-221.627 -201.753)"/><g transform="translate(0 7.354)"><g transform="translate(3.34)"><path class="g" d="M229.881,257.885l14.8-1.181c.092-1.728-.032-8.411-.032-8.411s6.156-.957,6.232-7.112-.991-20.288-.991-20.288h0a21.392,21.392,0,0,0-21.494,2.7l-.912.7Z" transform="translate(-227.48 -219.154)"/><g transform="translate(9.152 26.77)"><path class="h" d="M257.158,284.774a14.312,14.312,0,0,1-8.024-2.28s1.9,4.43,8.038,3.875Z" transform="translate(-249.134 -282.494)"/></g></g><g transform="translate(0 11.324)"><path class="g" d="M223.677,246.141c-.105-.045-4.229-1.251-4.095,2.957s4.332,3.2,4.335,3.084S223.677,246.141,223.677,246.141Z" transform="translate(-219.578 -245.948)"/><g transform="translate(1.072 1.378)"><path class="h" d="M224.044,252.511c-.019-.013-.072.054-.194.114a.733.733,0,0,1-.548.029,1.815,1.815,0,0,1-.891-1.6,2.426,2.426,0,0,1,.172-1.056.848.848,0,0,1,.533-.58.374.374,0,0,1,.439.187c.06.116.036.2.059.207s.088-.073.049-.246a.47.47,0,0,0-.174-.258.552.552,0,0,0-.409-.094,1.031,1.031,0,0,0-.745.677,2.489,2.489,0,0,0-.217,1.181,1.9,1.9,0,0,0,1.127,1.783.785.785,0,0,0,.667-.133C224.04,252.614,224.059,252.519,224.044,252.511Z" transform="translate(-222.114 -249.207)"/></g></g><g transform="translate(11.81 7.753)"><g transform="translate(0 1.72)"><g transform="translate(9.298)"><g transform="translate(0.867 1.01)"><path class="f" d="M273.325,244.751a.879.879,0,0,1-.847.887.841.841,0,0,1-.906-.792.88.88,0,0,1,.846-.888A.841.841,0,0,1,273.325,244.751Z" transform="translate(-271.571 -243.957)"/></g><path class="f" d="M272.994,242.492c-.109.115-.775-.378-1.721-.376s-1.639.475-1.742.36c-.05-.051.06-.258.363-.478a2.41,2.41,0,0,1,1.394-.43,2.315,2.315,0,0,1,1.37.442C272.95,242.233,273.048,242.441,272.994,242.492Z" transform="translate(-269.52 -241.568)"/></g><g transform="translate(0 0.177)"><g transform="translate(0.867 0.833)"><path class="f" d="M251.326,244.751a.879.879,0,0,1-.847.887.841.841,0,0,1-.906-.792.88.88,0,0,1,.847-.888A.841.841,0,0,1,251.326,244.751Z" transform="translate(-249.572 -243.957)"/></g><path class="f" d="M251,242.91c-.109.115-.776-.378-1.721-.376s-1.639.476-1.742.36c-.05-.051.06-.258.363-.478a2.409,2.409,0,0,1,1.394-.43,2.313,2.313,0,0,1,1.37.442C250.95,242.651,251.049,242.858,251,242.91Z" transform="translate(-247.521 -241.986)"/></g><g transform="translate(6.464 0.234)"><path class="f" d="M263.259,250a6.229,6.229,0,0,1,1.536-.277c.241-.025.47-.073.511-.238a1.227,1.227,0,0,0-.161-.716l-.714-1.839a31.623,31.623,0,0,1-1.6-4.811,31.656,31.656,0,0,1,1.988,4.671q.358.969.684,1.85a1.4,1.4,0,0,1,.125.948.606.606,0,0,1-.4.353,1.654,1.654,0,0,1-.41.057A6.154,6.154,0,0,1,263.259,250Z" transform="translate(-262.816 -242.121)"/></g><g transform="translate(3.97 8.769)"><path class="f" d="M257.068,262.317c.154-.009.156,1.018,1.034,1.746s1.972.616,1.98.759c.014.064-.243.2-.705.212a2.555,2.555,0,0,1-1.652-.576,2.226,2.226,0,0,1-.8-1.464C256.883,262.565,257,262.311,257.068,262.317Z" transform="translate(-256.914 -262.317)"/></g></g><g transform="translate(9.203)"><path class="f" d="M272.518,238.477c-.166.215-.818-.008-1.6-.019-.783-.038-1.447.145-1.6-.08-.067-.109.038-.324.328-.527a2.32,2.32,0,0,1,2.579.079C272.5,238.151,272.591,238.372,272.518,238.477Z" transform="translate(-269.297 -237.497)"/></g></g></g><g transform="translate(10.352 13.258)"><path class="f" d="M247.773,234.374c-.107.115-.349.069-.663.007a5.93,5.93,0,0,0-2.344-.077c-.318.041-.563.072-.661-.05s0-.382.328-.653a2.484,2.484,0,0,1,3.055.1C247.8,233.992,247.873,234.268,247.773,234.374Z" transform="translate(-244.071 -233.124)"/></g><path class="f" d="M249.151,220.127a14.452,14.452,0,0,1-8.978-.456c-3.188-1.208-6.8-1.591-7.52-.9s-.567,3.833-3.482,5.05c0,0,.809,5.946-1.591,5.974s-1.847-9.365-1.847-9.365L231.266,217l6.23-1.842,5.951-.6,5.7,1.142Z" transform="translate(-223.1 -209.145)"/></g><g transform="translate(105.999 43.713)"><path class="g" d="M303.351,321.7s10.719,11.033,14.5,9.4c10.275-4.455,18.624-13.837,21.494-17.208.122-.632.246-1.379.352-2.266a6.8,6.8,0,0,0-.126-2.292,10.608,10.608,0,0,0-.906-2.732c-.468-.755.207-1.667.948-1.357s2.538,2.307,2.912,5.125a1.155,1.155,0,0,0,1.6.729c1.86-.612,8.178-3.066,9.3-3.327,1-.232,2.2-.174,1.531.557a53.073,53.073,0,0,1-5.329,3.458s6.039-3.694,6.536-2.789c.343.624-.93,2.065-5.166,4.11,0,0,5-3.005,5.848-2.907,1.921.222-4.058,3.9-4.058,3.9,4.211-2.538,4.013-2.707,4.469-2.215.341.368-.4,1.212-2.472,2.9-1.684,1.372-3.154,3.13-5.6,5.359h0s-25.366,35.267-41.315,24.442c-8.6-5.835-10.96-8.778-15.843-13.2" transform="translate(-292.018 -305.183)"/><g transform="translate(58.264 6.875)"><path class="h" d="M429.878,325.076a25.408,25.408,0,0,0,5.675-3.617,25.463,25.463,0,0,0-5.675,3.617Z" transform="translate(-429.876 -321.45)"/></g><g transform="translate(57.119 5.488)"><path class="h" d="M427.169,321.667a28.937,28.937,0,0,0,6.279-3.488,28.959,28.959,0,0,0-6.279,3.488Z" transform="translate(-427.167 -318.168)"/></g><g transform="translate(55.939 4.175)"><path class="h" d="M424.376,318.294a25.947,25.947,0,0,0,5.985-3.221,25.927,25.927,0,0,0-5.985,3.221Z" transform="translate(-424.375 -315.06)"/></g></g><g transform="translate(0 68.192)"><path class="g" d="M95.092,363.9s-5.4,14.4-9.519,14.415c-11.2.034-22.607-5.218-26.588-7.156-.365-.53-.778-1.165-1.23-1.936a6.8,6.8,0,0,1-.8-2.15,10.618,10.618,0,0,1-.264-2.866c.127-.88-.857-1.445-1.412-.863s-1.4,3.13-.616,5.862a1.155,1.155,0,0,1-1.171,1.308c-1.95.184-8.722.467-9.857.678-1.011.189-2.084.72-1.18,1.123a37.819,37.819,0,0,0,5.266.91c-1.94-.222-6.034-.6-6.1.186-.042.458.676.957,2.45,1.3a7.568,7.568,0,0,0-2.593.074c-1.671.973,5.279,1.946,5.279,1.946-4.875-.639-4.761-.872-4.982-.24-.166.474.847.952,3.428,1.67,2.093.583,4.144,1.6,7.282,2.665,0,0,37.369,22.153,47.646,5.846,5.54-8.79,6.527-12.433,9.23-18.44Z" transform="translate(-41.213 -363.104)"/><g transform="translate(1.815 12.993)"><path class="h" d="M52.157,394.931a12.785,12.785,0,0,1-3.359-.3,12.8,12.8,0,0,1-3.29-.741,12.927,12.927,0,0,1,3.359.3A12.954,12.954,0,0,1,52.157,394.931Z" transform="translate(-45.508 -393.846)"/></g><g transform="translate(1.756 11.484)"><path class="h" d="M52.518,391.024a14.624,14.624,0,0,1-3.6-.117,14.611,14.611,0,0,1-3.554-.563,14.628,14.628,0,0,1,3.6.118A14.62,14.62,0,0,1,52.518,391.024Z" transform="translate(-45.368 -390.277)"/></g><g transform="translate(2.582 9.679)"><path class="h" d="M54.1,386.638a13.12,13.12,0,0,1-3.405-.055,13.108,13.108,0,0,1-3.369-.5,13.1,13.1,0,0,1,3.406.055A13.086,13.086,0,0,1,54.1,386.638Z" transform="translate(-47.322 -386.005)"/></g></g><g transform="translate(45.308 38.059)"><g transform="translate(0.354 4.474)"><path class="i" d="M233.566,329.518,215.888,309.79c-4.922-4.838-7.55-6.284-14.4-7.094-1.12-.132-2.008-.216-2.649-.3a26.176,26.176,0,0,1-15.776-.009h0a41.315,41.315,0,0,0-6.532,1.251c-6.531,1.251-11.232,6.009-12.538,10.4h0l-14.735,28.785L161.7,353.288l11.37-18.044.692,19.208-.7,14.351,43.64.126-1.985-33.7,11.745,9.56Z" transform="translate(-149.254 -302.39)"/><g transform="translate(23.813 20.786)"><path class="f" d="M205.8,351.571a2.566,2.566,0,0,1,.057.64c.016.413.03,1.008.041,1.745.021,1.474.029,3.51.019,5.758s-.038,4.285-.072,5.758c-.018.737-.037,1.333-.057,1.745a2.576,2.576,0,0,1-.063.64,2.573,2.573,0,0,1-.057-.64c-.017-.412-.03-1.008-.041-1.746-.021-1.474-.029-3.51-.019-5.758s.038-4.284.073-5.757c.017-.737.037-1.333.057-1.745A2.566,2.566,0,0,1,205.8,351.571Z" transform="translate(-205.598 -351.571)"/></g><g transform="translate(64.391 20.211)"><path class="f" d="M303.416,375.5a6.194,6.194,0,0,1-.131-.989c-.062-.692-.143-1.6-.241-2.706-.19-2.286-.431-5.445-.679-8.936s-.454-6.654-.589-8.943c-.058-1.105-.107-2.019-.143-2.713a6.171,6.171,0,0,1-.01-1,6.126,6.126,0,0,1,.131.989c.062.691.143,1.6.241,2.706.19,2.286.432,5.445.679,8.937s.455,6.652.589,8.942c.058,1.105.107,2.02.143,2.713A6.136,6.136,0,0,1,303.416,375.5Z" transform="translate(-301.61 -350.211)"/></g></g><g class="j" transform="translate(13.863 18.402)"><path class="a" d="M240.376,335.455c0,.06-13.244.11-29.578.11s-29.581-.049-29.581-.11,13.241-.11,29.581-.11S240.376,335.394,240.376,335.455Z" transform="translate(-181.217 -335.345)"/></g><g class="j" transform="translate(5.526 35.936)"><path class="a" d="M233.564,376.942c0,.061-16.135.11-36.034.11s-36.038-.049-36.038-.11,16.132-.11,36.038-.11S233.564,376.881,233.564,376.942Z" transform="translate(-161.492 -376.832)"/></g><g class="j" transform="translate(25.046 55.927)"><path class="a" d="M249.536,424.242c0,.061-9.371.11-20.928.11s-20.931-.049-20.931-.11,9.369-.11,20.931-.11S249.536,424.182,249.536,424.242Z" transform="translate(-207.677 -424.132)"/></g><g class="j" transform="translate(29.621 5.24)"><path class="a" d="M218.612,369.974c-.061,0-.11-14.725-.11-32.884s.049-32.887.11-32.887.11,14.722.11,32.887S218.673,369.974,218.612,369.974Z" transform="translate(-218.502 -304.202)"/></g><g class="j" transform="translate(54.566 5.062)"><path class="a" d="M277.982,369.732a.98.98,0,0,1-.011-.17c0-.123-.006-.289-.011-.5-.005-.451-.013-1.1-.023-1.921-.013-1.681-.032-4.092-.055-7.067-.054-5.977-.128-14.215-.209-23.315s-.141-17.353-.145-23.32c.006-2.975.011-5.387.015-7.067.008-.825.014-1.47.019-1.922,0-.211.008-.376.011-.5a.962.962,0,0,1,.011-.17.985.985,0,0,1,.011.17c0,.123.006.289.011.5.005.451.013,1.1.023,1.921.013,1.68.032,4.092.055,7.067.054,5.977.128,14.216.209,23.319s.141,17.348.145,23.316c-.006,2.975-.011,5.387-.015,7.067-.008.825-.014,1.47-.019,1.922,0,.211-.008.377-.011.5A.948.948,0,0,1,277.982,369.732Z" transform="translate(-277.526 -303.78)"/></g><g class="j" transform="translate(72.802 19.117)"><path class="a" d="M320.783,360.825c-.061,0-.11-5.326-.11-11.894s.049-11.9.11-11.9.11,5.325.11,11.9S320.844,360.825,320.783,360.825Z" transform="translate(-320.673 -337.036)"/></g><g class="j" transform="translate(9.822 25.339)"><path class="a" d="M171.766,374.2c-.061,0-.11-5.023-.11-11.219s.049-11.22.11-11.22.11,5.023.11,11.22S171.827,374.2,171.766,374.2Z" transform="translate(-171.656 -351.759)"/></g><path class="i" d="M225.383,296.866l2.409-5.062,7.888,5.559,7.785-5.23,2.74,4.446-7.8,5.07h-5.218l-7.8-4.2" transform="translate(-192.854 -291.804)"/><g transform="translate(32.632 4.641)"><path class="f" d="M235.82,303.7a.445.445,0,0,1-.147.043,1.613,1.613,0,0,0-.409.113,2.492,2.492,0,0,0-1.177,1,12.671,12.671,0,0,0-1.084,2.11c-.185.413-.372.852-.608,1.294a4.692,4.692,0,0,1-.91,1.276l-.078.072-.074-.077-.449-.467c-1.564-1.637-2.893-3.2-3.82-4.356-.464-.579-.828-1.055-1.075-1.388a3.566,3.566,0,0,1-.363-.533,3.66,3.66,0,0,1,.43.48l1.127,1.342c.956,1.13,2.3,2.67,3.86,4.3l.447.466-.152-.005a4.572,4.572,0,0,0,.869-1.212c.233-.43.425-.865.615-1.276a11.851,11.851,0,0,1,1.144-2.117,2.478,2.478,0,0,1,1.271-.985,1.364,1.364,0,0,1,.432-.077C235.769,303.7,235.82,303.7,235.82,303.7Z" transform="translate(-225.626 -302.785)"/></g><g transform="translate(42.826 4.872)"><path class="f" d="M260.133,303.332a3.484,3.484,0,0,1-.386.508c-.264.314-.654.762-1.163,1.292a30.834,30.834,0,0,1-4.349,3.734c-.342.243-.684.473-1.013.689l-.152.1-.016-.185a10.082,10.082,0,0,0-.641-2.6,6.764,6.764,0,0,0-1.046-1.87,2.644,2.644,0,0,0-1.119-.844c-.314-.106-.5-.117-.5-.14,0-.007.047-.007.137,0a1.444,1.444,0,0,1,.39.065,2.584,2.584,0,0,1,1.2.824,6.6,6.6,0,0,1,1.115,1.893,9.821,9.821,0,0,1,.68,2.656l-.168-.085c.326-.216.665-.445,1.005-.686a35.565,35.565,0,0,0,4.365-3.664c.52-.513.926-.943,1.21-1.239A3.618,3.618,0,0,1,260.133,303.332Z" transform="translate(-249.746 -303.332)"/></g><g transform="translate(42.836 5.924)"><path class="f" d="M252.765,370.909a.909.909,0,0,1-.012-.168c0-.122-.007-.285-.012-.494-.005-.446-.014-1.084-.024-1.9-.02-1.661-.048-4.044-.084-6.984-.086-5.9-.274-14.042-.686-23.03s-.975-17.119-1.43-23c-.235-2.93-.425-5.306-.557-6.962-.065-.812-.115-1.448-.15-1.893-.014-.208-.025-.371-.033-.493a.084.084,0,1,1,.022,0c.014.121.032.284.055.491.045.444.109,1.078.191,1.889.164,1.641.38,4.018.627,6.957.495,5.877,1.079,14.007,1.495,23s.575,17.14.622,23.038c.023,2.949.026,5.336.014,6.985-.008.815-.013,1.453-.017,1.9,0,.208-.008.372-.01.494A.971.971,0,0,1,252.765,370.909Z" transform="translate(-249.771 -305.82)"/></g><g class="k" transform="translate(42.643 5.583)"><path d="M249.314,305.024a3.215,3.215,0,0,1,1.317,2.86c0,1.1-.26,2.2-.164,3.292a1.873,1.873,0,0,0,.733,1.495c.669.4,1.519.026,2.2-.35a18.522,18.522,0,0,0,4.165-2.808,6.015,6.015,0,0,0,1.691-4.5,46.939,46.939,0,0,1-6.293,5.206,9.216,9.216,0,0,0-1.117-3.293c-.576-1-1.39-2.029-2.534-1.9" transform="translate(-249.314 -305.013)"/></g><g class="k" transform="translate(35.395 6.17)"><path d="M232.165,308.312a11.635,11.635,0,0,0,2.821,4,1.754,1.754,0,0,0,2,.371,2.029,2.029,0,0,0,.6-1.59c.1-1.49.541-3.2.642-4.692-1.179,1.33-1.825,3.675-3.071,5.287-1.265-.8-2-2.164-2.91-3.351" transform="translate(-232.165 -306.403)"/></g><g class="k" transform="translate(65.44 32.661)"><path d="M311.6,380.03l5.887-10.948c-1.744.172-2.914,1.817-3.815,3.32s-1.986,3.177-3.713,3.474a5.223,5.223,0,0,1-3.448-.955,11.517,11.517,0,0,0-3.253-1.628Z" transform="translate(-303.254 -369.082)"/></g><g class="k" transform="translate(5.97 40.661)"><path d="M178.64,388.012s-4.1,4.313-6.865,4.947a10.043,10.043,0,0,1-8.081-1.674,1.455,1.455,0,0,0-.612-.323.457.457,0,0,0-.535.327c-.027.2.137.38.289.52q4.236,3.934,8.806,7.488Z" transform="translate(-162.543 -388.012)"/></g><g transform="translate(38.287 6.822)"><g class="k" transform="translate(0 4.418)"><path d="M242.093,318.4q-2.334,18.632-3.045,37.419a14.7,14.7,0,0,0,.571,5.8c.811,2.131,2.539,3.76,4.212,5.31.712.66,1.683,1.368,2.563.957a2.406,2.406,0,0,0,.822-.766,12.086,12.086,0,0,0,2.437-4.514c1.225-5.267-3.743-10.478-2.622-15.769" transform="translate(-239.007 -318.399)"/></g><g transform="translate(1.402)"><path class="l" d="M243.82,308.038l3.733-.093,1,2.007-1.2,3.354h-3.047l-1.615-3.005Z" transform="translate(-242.537 -307.945)"/><path class="l" d="M244.125,320.631l-1.748,42.709,5.074,5.517,4.686-6.661-4.965-41.565Z" transform="translate(-242.355 -315.27)"/><g transform="translate(1.818 5.199)"><path class="f" d="M249.446,320.468a40.476,40.476,0,0,1-2.819-.047,5.174,5.174,0,0,1,2.819.047Z" transform="translate(-246.627 -320.247)"/></g><g transform="translate(1.215 0.719)"><path class="f" d="M249.427,309.647a2.452,2.452,0,0,1-.473.646,10.923,10.923,0,0,1-3.016,2.387,2.46,2.46,0,0,1-.737.312c-.031-.06,1.05-.617,2.215-1.544S249.375,309.6,249.427,309.647Z" transform="translate(-245.2 -309.645)"/></g><g transform="translate(1.472 9.529)"><path class="f" d="M249.615,330.493a32.7,32.7,0,0,1-3.8,3.77,32.675,32.675,0,0,1,3.8-3.77Z" transform="translate(-245.809 -330.491)"/></g><g transform="translate(1.3 12.607)"><path class="a" d="M249.634,337.777a40.38,40.38,0,0,1-4.231,4.193,40.285,40.285,0,0,1,4.231-4.193Z" transform="translate(-245.402 -337.776)"/></g><g transform="translate(1.113 15.446)"><path class="f" d="M249.862,344.494a54.231,54.231,0,0,1-4.9,4.869,54.251,54.251,0,0,1,4.9-4.869Z" transform="translate(-244.959 -344.493)"/></g><g transform="translate(1.013 18.441)"><path class="a" d="M250.059,351.581a64.407,64.407,0,0,1-5.334,5.3,64.217,64.217,0,0,1,5.334-5.3Z" transform="translate(-244.723 -351.579)"/></g><g transform="translate(0.915 21.453)"><path class="f" d="M250.241,358.706a74.727,74.727,0,0,1-5.749,5.714,74.725,74.725,0,0,1,5.749-5.714Z" transform="translate(-244.492 -358.704)"/></g><g transform="translate(0.727 24.4)"><path class="a" d="M250.364,365.68c.043.043-1.336,1.484-3.081,3.219s-3.193,3.106-3.236,3.063,1.336-1.484,3.081-3.219S250.322,365.637,250.364,365.68Z" transform="translate(-244.047 -365.679)"/></g><g transform="translate(0.591 27.41)"><path class="f" d="M250.5,372.8c.043.043-1.438,1.587-3.308,3.447s-3.42,3.334-3.463,3.291,1.438-1.586,3.308-3.447S250.453,372.757,250.5,372.8Z" transform="translate(-243.724 -372.799)"/></g><g transform="translate(0.509 30.366)"><path class="a" d="M250.754,379.8c.043.043-1.54,1.688-3.535,3.673s-3.647,3.56-3.69,3.517,1.54-1.687,3.535-3.673S250.712,379.753,250.754,379.8Z" transform="translate(-243.529 -379.795)"/></g><g transform="translate(0.299 33.461)"><path class="f" d="M250.7,387.117c.043.043-1.639,1.787-3.756,3.9s-3.869,3.782-3.912,3.739,1.639-1.786,3.757-3.9S250.659,387.074,250.7,387.117Z" transform="translate(-243.032 -387.116)"/></g><g transform="translate(0.289 36.376)"><path class="a" d="M251.1,394.016c.043.043-1.734,1.882-3.967,4.105s-4.08,3.993-4.123,3.95,1.733-1.881,3.967-4.106S251.058,393.973,251.1,394.016Z" transform="translate(-243.01 -394.015)"/></g><g transform="translate(0 39.059)"><path class="f" d="M251.35,400.363c.043.043-1.942,2.091-4.434,4.573s-4.547,4.46-4.59,4.417,1.942-2.09,4.435-4.573S251.308,400.32,251.35,400.363Z" transform="translate(-242.325 -400.362)"/></g><g transform="translate(1.611 42.104)"><path class="a" d="M246.139,415.263c-.043-.043,1.637-1.8,3.752-3.925s3.865-3.813,3.908-3.77-1.636,1.8-3.753,3.926S246.182,415.306,246.139,415.263Z" transform="translate(-246.138 -407.567)"/></g><g transform="translate(3.553 45.397)"><path class="f" d="M250.733,421.709a87.3,87.3,0,0,1,6.045-6.348,87.485,87.485,0,0,1-6.045,6.348Z" transform="translate(-250.731 -415.36)"/></g><g transform="translate(1.512 6.668)"><path class="a" d="M249.293,323.724a25.906,25.906,0,0,1-3.387,3.357,25.915,25.915,0,0,1,3.387-3.357Z" transform="translate(-245.904 -323.723)"/></g></g></g><g transform="translate(0 40.63)"><path class="i" d="M149.137,392.154c-.619-.057-.852-.894-.65-1.482s.661-1.062.86-1.651c.115-.336.164-.737.457-.938a.914.914,0,0,1,1.054.045c1.721,1.472,2.989,2.906,4.866,4.5,1.808,1.532,3.759,3.5,5.666,4.905,1.076.793,2.39,1.614,2.535,2.942a2.141,2.141,0,0,1-1.906,2.276,4.185,4.185,0,0,1-2.847-1.426l-10.216-9.107" transform="translate(-148.416 -387.937)"/><g transform="translate(2.472 0.309)"><path class="f" d="M166.6,399.48a4.448,4.448,0,0,1-.523-.378c-.331-.25-.818-.6-1.423-1.03a20.536,20.536,0,0,1-2.053-1.62l-2.361-2.153c-1.672-1.533-3.177-2.929-4.258-3.948l-1.273-1.215a3.614,3.614,0,0,1-.446-.467,3.688,3.688,0,0,1,.5.4l1.32,1.164c1.108.989,2.629,2.366,4.3,3.9l2.348,2.165a23.081,23.081,0,0,0,2.011,1.647c.593.446,1.069.817,1.385,1.089A3.078,3.078,0,0,1,166.6,399.48Z" transform="translate(-154.266 -388.668)"/></g><g transform="translate(1.218 2.124)"><path class="f" d="M163.765,402.945a3.447,3.447,0,0,1-.547-.313c-.345-.213-.836-.533-1.436-.939-1.2-.811-2.825-1.982-4.551-3.363s-3.224-2.713-4.278-3.707c-.527-.5-.947-.905-1.23-1.2a3.416,3.416,0,0,1-.425-.465,3.508,3.508,0,0,1,.484.4l1.276,1.143c1.079.962,2.589,2.27,4.31,3.649s3.328,2.565,4.5,3.407l1.394,1A3.418,3.418,0,0,1,163.765,402.945Z" transform="translate(-151.299 -392.963)"/></g><g class="j" transform="translate(3.304 3.715)"><path class="a" d="M159.089,396.73a18.488,18.488,0,0,1-2.852,2.847,18.491,18.491,0,0,1,2.852-2.847Z" transform="translate(-156.235 -396.728)"/></g><g class="j" transform="translate(9.715 9.649)"><path class="a" d="M174.475,410.77a20.683,20.683,0,0,1-3.069,2.951,20.629,20.629,0,0,1,3.069-2.951Z" transform="translate(-171.403 -410.768)"/></g></g><g class="d" transform="translate(34.935 2.384)"><path class="a" d="M234.141,297.446a36.4,36.4,0,0,1-3.061,4.753,36.3,36.3,0,0,1,3.061-4.753Z" transform="translate(-231.077 -297.445)"/></g><g class="d" transform="translate(48.198 2.205)"><path class="a" d="M264.806,302.11a35.657,35.657,0,0,1-2.344-5.087,35.711,35.711,0,0,1,2.344,5.087Z" transform="translate(-262.457 -297.022)"/></g><g transform="translate(73.671 29.305)"><path class="i" d="M327.174,377.818a1.341,1.341,0,0,1-1.4.8c-.618-.066-1.182-.408-1.8-.472-.353-.036-.755,0-1.016-.237a1.136,1.136,0,0,1-.191-1.038,16.035,16.035,0,0,1,3.023-6.367,35.535,35.535,0,0,0,3.8-5.991c.535-1.225,1.042-2.689,2.305-3.125a2.141,2.141,0,0,1,2.643,1.352,4.185,4.185,0,0,1-.757,3.093l-6.608,11.985" transform="translate(-322.729 -361.226)"/><g transform="translate(1.889 2.342)"><path class="f" d="M333.982,366.685a3.415,3.415,0,0,1-.2.593c-.14.377-.354.917-.626,1.581-.544,1.329-1.334,3.15-2.271,5.131s-1.846,3.747-2.528,5.01c-.342.632-.624,1.139-.826,1.486a3.447,3.447,0,0,1-.333.529,3.4,3.4,0,0,1,.257-.569l.764-1.518c.647-1.281,1.53-3.054,2.467-5.033s1.747-3.786,2.327-5.1l.69-1.553A3.369,3.369,0,0,1,333.982,366.685Z" transform="translate(-327.198 -366.685)"/></g><g transform="translate(0.073)"><path class="f" d="M330.79,361.144a3.7,3.7,0,0,1-.317.568l-.918,1.512c-.773,1.278-1.819,3.056-2.909,5.056s-2.013,3.846-2.666,5.189l-.772,1.592a3.673,3.673,0,0,1-.3.575,3.65,3.65,0,0,1,.226-.61c.158-.387.4-.942.709-1.623.618-1.362,1.523-3.222,2.614-5.228s2.162-3.774,2.97-5.033c.4-.63.739-1.133.978-1.477A3.674,3.674,0,0,1,330.79,361.144Z" transform="translate(-322.902 -361.143)"/></g><g class="d" transform="translate(1.563 11.644)"><path class="a" d="M330.781,390.643a10.2,10.2,0,0,1-4.352-1.945c.035-.055.951.5,2.151,1.03S330.8,390.58,330.781,390.643Z" transform="translate(-326.428 -388.694)"/></g><g class="d" transform="translate(6.679 2.185)"><path class="a" d="M342.951,368.988a54.987,54.987,0,0,1-4.418-2.671,20.946,20.946,0,0,1,4.418,2.671Z" transform="translate(-338.533 -366.313)"/></g></g></g></g><g transform="translate(38.425 2.429)"><g transform="translate(133.566 69.47)"><path class="m" d="M432.9,271.3l-.843,1.541-1.541.843,1.541.842.843,1.541.843-1.541,1.541-.842-1.541-.843Z" transform="translate(-430.517 -271.296)"/></g><g transform="translate(123.392 26.873)"><path class="m" d="M407.909,170.509l-.519.947-.946.518.946.519.519.947.519-.947.946-.519-.946-.518Z" transform="translate(-406.445 -170.509)"/></g><g transform="translate(54.675 0)"><path class="m" d="M245.318,106.924l-.519.948-.946.518.946.518.519.947.519-.947.946-.518-.946-.518Z" transform="translate(-243.854 -106.924)"/></g><g transform="translate(25.324 24.38)"><path class="m" d="M175.707,164.61l-.461.842-.841.46.841.46.461.842.461-.842.841-.46-.841-.46Z" transform="translate(-174.405 -164.61)"/></g><g transform="translate(81.073 64.926)"><path class="m" d="M307.615,260.544l-.461.843-.841.46.841.46.461.842.461-.842.841-.46-.841-.46Z" transform="translate(-306.313 -260.544)"/></g><g transform="translate(0 72.863)"><path class="m" d="M115.789,279.326l-.461.842-.841.46.841.46.461.842.461-.842.841-.46-.841-.46Z" transform="translate(-114.487 -279.326)"/></g></g><g transform="translate(10.249)"><g transform="translate(155.552 40.351)"><path class="i" d="M429.643,196.651a9.052,9.052,0,0,1-5.349,7.557c-3.294,1.627-9.2,5.671-8.339,8.344l5.712,5.767a22.161,22.161,0,0,1,7.584-5.832c4.475-1.958,7.913-8.777,7.913-8.777Z" transform="translate(-415.87 -196.651)"/><g transform="translate(7.013 7.76)"><g class="n"><path class="o" d="M438.253,222.077a3.878,3.878,0,0,1-5.613-1.707c-.748-1.879,1.028-4.35,2.906-5.1a3.663,3.663,0,0,1,4.757,2.049C441.051,219.2,439.974,221.013,438.253,222.077Z" transform="translate(-432.465 -215.011)"/></g><g transform="translate(2.028 1.584)"><path class="i" d="M439.7,223.445c-.027-.056.083-.166.283-.332a4.483,4.483,0,0,0,.737-.72,1.617,1.617,0,0,0,.275-.56.778.778,0,0,0-.046-.567.6.6,0,0,0-.451-.3,1.013,1.013,0,0,0-.651.269c-.134.1-.276.207-.441.315a2.034,2.034,0,0,1-.587.278,1.406,1.406,0,0,1-.363.044,1.141,1.141,0,0,1-.373-.067,1.22,1.22,0,0,1-.563-.418,1.27,1.27,0,0,1-.245-.6,1.342,1.342,0,0,1,.058-.578,1.868,1.868,0,0,1,.5-.772,2.493,2.493,0,0,1,.573-.4,2.98,2.98,0,0,1,.461-.2c.261-.084.415-.1.442-.045s-.076.171-.277.341a4.794,4.794,0,0,0-.742.716,1.4,1.4,0,0,0-.258.547.539.539,0,0,0,.12.489.428.428,0,0,0,.2.128.329.329,0,0,0,.11.011.541.541,0,0,0,.133-.024,3.124,3.124,0,0,0,.749-.478,2.551,2.551,0,0,1,.549-.313,1.65,1.65,0,0,1,.346-.093,1.247,1.247,0,0,1,.374,0,1.392,1.392,0,0,1,1.06.8,1.473,1.473,0,0,1,.011,1.147,2.052,2.052,0,0,1-.5.748,2.725,2.725,0,0,1-1.033.6C439.88,223.493,439.723,223.5,439.7,223.445Z" transform="translate(-437.263 -218.76)"/></g><g transform="translate(2.525 1.508)"><path class="i" d="M442.537,222.849a20.227,20.227,0,0,1-4.092-4.264,20.11,20.11,0,0,1,4.092,4.264Z" transform="translate(-438.439 -218.58)"/></g><g transform="translate(2.323 2.251)"><path class="i" d="M441.68,224.215a16.614,16.614,0,0,1-3.713-3.871,16.657,16.657,0,0,1,3.713,3.871Z" transform="translate(-437.961 -220.338)"/></g></g><g class="d" transform="translate(0.644 1.386)"><path class="o" d="M422.57,219.119l-5.177-5.267.022-.073c1.008-3.392,5.735-5.861,8.864-7.5.539-.281,1.048-.548,1.478-.788a6.485,6.485,0,0,0,3.147-5.4l.2-.164,5.678,5.591-.027.077a15.117,15.117,0,0,1-8.5,8.764c-2.7,1.031-5.566,4.607-5.594,4.643Zm-4.885-5.338,4.866,4.95c.522-.635,3.094-3.647,5.612-4.609a14.861,14.861,0,0,0,8.318-8.531l-5.3-5.22a5.1,5.1,0,0,1-.093.716,6.964,6.964,0,0,1-3.2,4.636c-.434.241-.945.508-1.485.79C423.331,208.115,418.708,210.531,417.685,213.781Z" transform="translate(-417.393 -199.931)"/></g></g><g transform="translate(111.631 0)"><g transform="translate(0)"><path class="i" d="M333.99,103.337a9.052,9.052,0,0,1-9.251.363c-3.3-1.621-10.1-3.84-11.7-1.529l-1.092,8.044a22.165,22.165,0,0,1,9.245,2.459c4.28,2.355,11.781.927,11.781.927Z" transform="translate(-311.949 -101.175)"/><g transform="translate(7.149 3.466)"><g class="n"><path class="o" d="M331.41,116.335a3.878,3.878,0,0,1-2.067-5.491c1.034-1.738,4.076-1.836,5.813-.8a3.663,3.663,0,0,1,1.274,5.02C335.4,116.8,333.3,117.051,331.41,116.335Z" transform="translate(-328.865 -109.376)"/></g><g transform="translate(2.364 1.472)"><path class="i" d="M334.462,116.809c.027-.055.183-.035.435.022a4.44,4.44,0,0,0,1.02.145,1.608,1.608,0,0,0,.612-.123.776.776,0,0,0,.421-.382.6.6,0,0,0-.033-.543,1.016,1.016,0,0,0-.61-.352c-.158-.048-.333-.093-.519-.158a2.029,2.029,0,0,1-.578-.3,1.4,1.4,0,0,1-.256-.261,1.137,1.137,0,0,1-.174-.336,1.217,1.217,0,0,1-.012-.7,1.27,1.27,0,0,1,.325-.559,1.342,1.342,0,0,1,.494-.306,1.866,1.866,0,0,1,.916-.075,2.5,2.5,0,0,1,.668.208,2.959,2.959,0,0,1,.436.246c.225.156.33.27.3.323s-.181.044-.438-.012a4.8,4.8,0,0,0-1.02-.153,1.4,1.4,0,0,0-.59.129.54.54,0,0,0-.315.393.422.422,0,0,0,.021.236.321.321,0,0,0,.058.094.533.533,0,0,0,.1.091,3.124,3.124,0,0,0,.836.3,2.591,2.591,0,0,1,.582.244,1.67,1.67,0,0,1,.284.218,1.259,1.259,0,0,1,.228.3,1.394,1.394,0,0,1,.013,1.326,1.471,1.471,0,0,1-.9.707,2.058,2.058,0,0,1-.9.057,2.735,2.735,0,0,1-1.108-.451C334.534,116.983,334.435,116.862,334.462,116.809Z" transform="translate(-334.458 -112.858)"/></g><g transform="translate(4.024 0.993)"><path class="i" d="M338.437,117.568a10.212,10.212,0,0,1,.229-2.953,10.226,10.226,0,0,1,.658-2.89,10.243,10.243,0,0,1-.228,2.954A10.168,10.168,0,0,1,338.437,117.568Z" transform="translate(-338.387 -111.726)"/></g><g transform="translate(3.387 1.286)"><path class="i" d="M336.934,117.723a8.428,8.428,0,0,1,.189-2.683,8.461,8.461,0,0,1,.619-2.62,8.425,8.425,0,0,1-.189,2.684A8.43,8.43,0,0,1,336.934,117.723Z" transform="translate(-336.88 -112.42)"/></g></g><g class="d" transform="translate(0.881 0.678)"><path class="o" d="M314.033,110.494l1.022-7.314.071-.027c3.3-1.267,8.142.975,11.344,2.46.552.256,1.073.5,1.525.692a6.485,6.485,0,0,0,6.2-.8l.25.057-.973,7.908-.077.026a15.116,15.116,0,0,1-12.126-1.4c-2.46-1.51-7.045-1.606-7.091-1.607Zm1.257-7.126-.96,6.874c.822.027,4.777.231,7.075,1.642a14.857,14.857,0,0,0,11.832,1.4l.909-7.385a5.078,5.078,0,0,1-.625.362,6.962,6.962,0,0,1-5.627.286c-.455-.2-.978-.44-1.532-.7C323.222,104.393,318.49,102.2,315.29,103.368Z" transform="translate(-314.033 -102.78)"/></g></g></g><g transform="translate(113.731 43.416)"><g transform="translate(0)"><path class="i" d="M332.774,217.433a7.339,7.339,0,0,1-5.1-5.509c-.739-2.886-2.959-8.25-5.224-8.014l-5.532,3.567a17.974,17.974,0,0,1,3.358,6.993c.8,3.879,5.639,7.748,5.639,7.748Z" transform="translate(-316.918 -203.903)"/><g transform="translate(4.059 6.082)"><g class="n"><path class="o" d="M326.72,222.489a3.144,3.144,0,0,1,2.294-4.168c1.616-.279,3.279,1.543,3.558,3.159a2.97,2.97,0,0,1-2.422,3.431C328.534,225.19,327.276,224.032,326.72,222.489Z" transform="translate(-326.523 -218.293)"/></g><g transform="translate(0.995 1.796)"><path class="i" d="M328.933,224.023c.049-.012.118.094.216.28a3.622,3.622,0,0,0,.448.7,1.309,1.309,0,0,0,.4.312.632.632,0,0,0,.458.058.491.491,0,0,0,.317-.306.824.824,0,0,0-.1-.562c-.054-.122-.119-.254-.177-.4a1.657,1.657,0,0,1-.122-.512,1.141,1.141,0,0,1,.026-.3.921.921,0,0,1,.115-.284.986.986,0,0,1,.426-.377,1.03,1.03,0,0,1,.516-.094,1.086,1.086,0,0,1,.448.142,1.512,1.512,0,0,1,.529.525,2,2,0,0,1,.224.522,2.419,2.419,0,0,1,.078.4c.023.221.007.345-.038.358s-.123-.088-.224-.276a3.907,3.907,0,0,0-.444-.709,1.14,1.14,0,0,0-.391-.3.437.437,0,0,0-.409.013.341.341,0,0,0-.134.137.268.268,0,0,0-.027.085.417.417,0,0,0,0,.109,2.526,2.526,0,0,0,.254.675,2.1,2.1,0,0,1,.156.487,1.344,1.344,0,0,1,.016.29,1.007,1.007,0,0,1-.063.3,1.129,1.129,0,0,1-.81.707,1.192,1.192,0,0,1-.912-.183,1.665,1.665,0,0,1-.51-.524,2.216,2.216,0,0,1-.306-.921C328.864,224.16,328.886,224.034,328.933,224.023Z" transform="translate(-328.877 -222.541)"/></g><g transform="translate(1.077 2.532)"><path class="i" d="M329.074,226.826a16.409,16.409,0,0,1,4.067-2.533,16.313,16.313,0,0,1-4.067,2.533Z" transform="translate(-329.072 -224.284)"/></g><g transform="translate(0.895 2.247)"><path class="i" d="M328.644,225.917a13.487,13.487,0,0,1,3.693-2.3,13.506,13.506,0,0,1-3.693,2.3Z" transform="translate(-328.641 -223.61)"/></g></g><g class="d" transform="translate(0.863 0.551)"><path class="o" d="M318.961,208.432l5.045-3.226.054.029c2.522,1.368,3.69,5.532,4.464,8.287.133.475.259.923.377,1.305a5.258,5.258,0,0,0,3.759,3.4l.1.185-5.386,3.569-.057-.034a12.26,12.26,0,0,1-5.531-8.208c-.366-2.312-2.723-5.187-2.747-5.216Zm5.053-2.982-4.742,3.032c.416.521,2.376,3.065,2.718,5.225a12.05,12.05,0,0,0,5.376,8.027l5.03-3.332a4.23,4.23,0,0,1-.552-.194,5.648,5.648,0,0,1-3.143-3.317c-.118-.385-.245-.835-.378-1.311C327.564,210.878,326.422,206.806,324.014,205.449Z" transform="translate(-318.961 -205.206)"/></g></g></g><g transform="translate(77.916 19.422)"><path class="i" d="M246.8,153.941a5.809,5.809,0,0,1-5.418-2.439c-1.43-1.875-4.7-5.1-6.282-4.226l-2.929,4.308a14.227,14.227,0,0,1,4.606,4.059c1.784,2.578,6.5,3.9,6.5,3.9Z" transform="translate(-232.176 -147.129)"/><g transform="translate(4.494 4.016)"><g class="n"><path class="o" d="M243.487,160.64a2.488,2.488,0,0,1,.385-3.745c1.091-.7,2.866.112,3.568,1.2a2.351,2.351,0,0,1-.7,3.248A2.526,2.526,0,0,1,243.487,160.64Z" transform="translate(-242.809 -156.633)"/></g><g transform="translate(1.003 1.178)"><path class="i" d="M245.2,161.317c.032-.024.115.032.244.137a2.9,2.9,0,0,0,.544.375,1.041,1.041,0,0,0,.387.1.5.5,0,0,0,.352-.1.388.388,0,0,0,.136-.321.651.651,0,0,0-.25-.377c-.076-.073-.165-.148-.253-.239a1.3,1.3,0,0,1-.247-.335.9.9,0,0,1-.072-.224.733.733,0,0,1,0-.243.785.785,0,0,1,.194-.406.814.814,0,0,1,.347-.228.861.861,0,0,1,.371-.035,1.191,1.191,0,0,1,.547.219,1.6,1.6,0,0,1,.325.311,1.925,1.925,0,0,1,.18.266c.085.154.112.249.082.273s-.117-.027-.248-.132a3.078,3.078,0,0,0-.542-.38.9.9,0,0,0-.376-.095.348.348,0,0,0-.294.136.272.272,0,0,0-.055.142.2.2,0,0,0,.006.071.342.342,0,0,0,.031.081,2,2,0,0,0,.394.413,1.663,1.663,0,0,1,.265.307,1.052,1.052,0,0,1,.1.207.8.8,0,0,1,.046.236.894.894,0,0,1-.372.765.945.945,0,0,1-.721.148,1.321,1.321,0,0,1-.533-.224,1.754,1.754,0,0,1-.507-.576C245.187,161.438,245.165,161.34,245.2,161.317Z" transform="translate(-245.182 -159.421)"/></g><g transform="translate(1.586 1.271)"><path class="i" d="M246.567,162.743a12.986,12.986,0,0,1,2.182-3.1,12.906,12.906,0,0,1-2.182,3.1Z" transform="translate(-246.561 -159.639)"/></g><g transform="translate(1.293 1.235)"><path class="i" d="M245.874,162.372a10.669,10.669,0,0,1,1.981-2.815,10.694,10.694,0,0,1-1.981,2.815Z" transform="translate(-245.867 -159.554)"/></g></g><g class="d" transform="translate(0.691 0.426)"><path class="o" d="M233.812,152.046l2.68-3.909.049,0c2.26.218,4.4,2.891,5.812,4.66.244.3.474.593.678.834a4.163,4.163,0,0,0,3.789,1.317l.128.1-2.822,4.264-.052-.008a9.7,9.7,0,0,1-6.566-4.273,11.253,11.253,0,0,0-3.613-2.952Zm2.761-3.734-2.519,3.674a10.9,10.9,0,0,1,3.594,2.968,9.535,9.535,0,0,0,6.4,4.189l2.636-3.982a3.33,3.33,0,0,1-.462.029,4.471,4.471,0,0,1-3.314-1.446c-.205-.244-.436-.533-.681-.838C240.836,151.171,238.746,148.556,236.573,148.312Z" transform="translate(-233.812 -148.137)"/></g></g><g transform="translate(0 76.833)"><path class="i" d="M62.448,289.781a5.809,5.809,0,0,1-5.418-2.439c-1.43-1.875-4.7-5.1-6.282-4.226l-2.929,4.308a14.225,14.225,0,0,1,4.607,4.059c1.784,2.578,6.5,3.9,6.5,3.9Z" transform="translate(-47.819 -282.969)"/><g transform="translate(4.494 4.017)"><g class="n"><path class="o" d="M59.13,296.481a2.488,2.488,0,0,1,.385-3.746c1.091-.7,2.866.112,3.568,1.2a2.351,2.351,0,0,1-.7,3.248A2.526,2.526,0,0,1,59.13,296.481Z" transform="translate(-58.452 -292.473)"/></g><g transform="translate(1.003 1.178)"><path class="i" d="M60.838,297.157c.032-.024.115.032.244.137a2.848,2.848,0,0,0,.544.375,1.021,1.021,0,0,0,.387.1.5.5,0,0,0,.352-.1.388.388,0,0,0,.136-.321.652.652,0,0,0-.25-.377c-.076-.073-.165-.148-.253-.239a1.308,1.308,0,0,1-.247-.336.916.916,0,0,1-.072-.224.73.73,0,0,1,0-.243.783.783,0,0,1,.194-.406.811.811,0,0,1,.347-.228.861.861,0,0,1,.371-.035,1.2,1.2,0,0,1,.547.219,1.6,1.6,0,0,1,.325.311,1.93,1.93,0,0,1,.18.266c.085.154.112.249.082.273s-.117-.026-.249-.132a3.058,3.058,0,0,0-.542-.38.91.91,0,0,0-.376-.095.347.347,0,0,0-.294.136.27.27,0,0,0-.055.141.2.2,0,0,0,.006.071.343.343,0,0,0,.031.081,2.014,2.014,0,0,0,.394.413,1.636,1.636,0,0,1,.265.307,1.063,1.063,0,0,1,.1.206.8.8,0,0,1,.046.236.894.894,0,0,1-.372.765.944.944,0,0,1-.721.148,1.321,1.321,0,0,1-.533-.224,1.749,1.749,0,0,1-.507-.576C60.83,297.278,60.808,297.18,60.838,297.157Z" transform="translate(-60.825 -295.261)"/></g><g transform="translate(1.586 1.27)"><path class="i" d="M62.21,298.583a13,13,0,0,1,2.182-3.1,12.9,12.9,0,0,1-2.182,3.1Z" transform="translate(-62.204 -295.479)"/></g><g transform="translate(1.293 1.235)"><path class="i" d="M61.517,298.212A10.669,10.669,0,0,1,63.5,295.4a10.695,10.695,0,0,1-1.981,2.815Z" transform="translate(-61.51 -295.395)"/></g></g><g class="d" transform="translate(0.691 0.426)"><path class="o" d="M49.455,287.886l2.68-3.909.049,0c2.26.218,4.4,2.891,5.812,4.66.244.3.474.593.678.834a4.162,4.162,0,0,0,3.789,1.317l.128.1-2.822,4.264-.052-.007a9.7,9.7,0,0,1-6.566-4.273,11.257,11.257,0,0,0-3.613-2.953Zm2.761-3.734L49.7,287.826a10.886,10.886,0,0,1,3.594,2.968,9.537,9.537,0,0,0,6.4,4.189L62.323,291a3.273,3.273,0,0,1-.462.029,4.468,4.468,0,0,1-3.314-1.446c-.205-.243-.436-.532-.681-.838C56.479,287.011,54.389,284.4,52.216,284.152Z" transform="translate(-49.455 -283.977)"/></g></g><g transform="translate(46.05 43.812)"><path class="i" d="M170.91,204.838a7.234,7.234,0,0,1-5.831,4.553c-2.9.487-8.345,2.224-8.3,4.468l3.046,5.727a17.709,17.709,0,0,1,7.144-2.72c3.875-.469,8.074-4.9,8.074-4.9Z" transform="translate(-156.778 -204.838)"/><g transform="translate(6.069 5.28)"><g class="n"><path class="o" d="M175.049,223.173a3.1,3.1,0,0,1-3.9-2.6c-.14-1.61,1.786-3.092,3.4-3.233A2.927,2.927,0,0,1,177.71,220C177.85,221.614,176.609,222.754,175.049,223.173Z" transform="translate(-171.138 -217.332)"/></g><g transform="translate(1.821 1.208)"><path class="i" d="M176.705,223.909c-.008-.049.1-.108.293-.189a3.55,3.55,0,0,0,.729-.382,1.28,1.28,0,0,0,.339-.366.622.622,0,0,0,.1-.445.483.483,0,0,0-.275-.336.81.81,0,0,0-.56.056c-.125.042-.259.1-.41.14a1.617,1.617,0,0,1-.513.077,1.129,1.129,0,0,1-.288-.05.9.9,0,0,1-.27-.137.972.972,0,0,1-.335-.449,1.012,1.012,0,0,1-.05-.515,1.072,1.072,0,0,1,.177-.429,1.491,1.491,0,0,1,.559-.476,1.994,1.994,0,0,1,.531-.177,2.4,2.4,0,0,1,.4-.043c.219,0,.34.021.348.067s-.1.114-.29.2a3.834,3.834,0,0,0-.733.377,1.123,1.123,0,0,0-.322.359.432.432,0,0,0-.021.4.339.339,0,0,0,.123.143.26.26,0,0,0,.081.034.429.429,0,0,0,.107.013,2.493,2.493,0,0,0,.683-.194,2.059,2.059,0,0,1,.492-.114,1.3,1.3,0,0,1,.286.009.981.981,0,0,1,.287.086,1.113,1.113,0,0,1,.628.853,1.178,1.178,0,0,1-.256.88,1.644,1.644,0,0,1-.557.457,2.183,2.183,0,0,1-.929.224C176.833,223.988,176.712,223.955,176.705,223.909Z" transform="translate(-175.448 -220.189)"/></g><g transform="translate(2.683 0.843)"><path class="i" d="M179.647,223.53a16.2,16.2,0,0,1-2.151-4.2,16.062,16.062,0,0,1,2.151,4.2Z" transform="translate(-177.485 -219.325)"/></g><g transform="translate(2.357 1.365)"><path class="i" d="M178.677,224.379a13.281,13.281,0,0,1-1.951-3.816,13.305,13.305,0,0,1,1.951,3.816Z" transform="translate(-176.714 -220.561)"/></g></g><g class="d" transform="translate(0.564 1.194)"><path class="o" d="M160.864,220.385l-2.751-5.22.033-.051c1.551-2.364,5.736-3.167,8.506-3.7.477-.091.928-.178,1.312-.262a5.181,5.181,0,0,0,3.65-3.41l.189-.08,3.06,5.583-.038.053a12.078,12.078,0,0,1-8.517,4.753c-2.3.169-5.318,2.245-5.348,2.267Zm-2.511-5.209,2.585,4.907c.546-.366,3.206-2.08,5.355-2.237a11.873,11.873,0,0,0,8.326-4.616l-2.857-5.214a4.13,4.13,0,0,1-.236.527,5.565,5.565,0,0,1-3.516,2.811c-.388.085-.84.172-1.318.264C163.977,212.14,159.883,212.925,158.353,215.177Z" transform="translate(-158.113 -207.663)"/></g></g><g transform="translate(12.924 31.334)"><path class="i" d="M100.31,177.144a9.051,9.051,0,0,1-9.243.533c-3.326-1.56-10.172-3.655-11.724-1.314l-.945,8.063a22.168,22.168,0,0,1,9.289,2.289c4.322,2.277,11.8.711,11.8.711Z" transform="translate(-78.399 -175.316)"/><g transform="translate(7.106 3.337)"><g class="n"><path class="o" d="M97.824,190.191a3.878,3.878,0,0,1-2.167-5.453c1-1.757,4.041-1.91,5.8-.909a3.663,3.663,0,0,1,1.366,5C101.817,190.583,99.729,190.872,97.824,190.191Z" transform="translate(-95.212 -183.211)"/></g><g transform="translate(2.403 1.465)"><path class="i" d="M100.9,190.66c.027-.056.182-.038.436.014a4.464,4.464,0,0,0,1.022.127,1.613,1.613,0,0,0,.609-.135.779.779,0,0,0,.415-.39.605.605,0,0,0-.043-.542,1.016,1.016,0,0,0-.617-.341c-.158-.045-.335-.087-.522-.148a2.035,2.035,0,0,1-.583-.285,1.413,1.413,0,0,1-.261-.257,1.142,1.142,0,0,1-.18-.333,1.218,1.218,0,0,1-.025-.7,1.263,1.263,0,0,1,.315-.565,1.339,1.339,0,0,1,.487-.315,1.862,1.862,0,0,1,.915-.092,2.489,2.489,0,0,1,.672.2,2.922,2.922,0,0,1,.44.238c.228.152.334.264.311.317s-.181.048-.439,0a4.787,4.787,0,0,0-1.023-.134,1.4,1.4,0,0,0-.588.14.539.539,0,0,0-.308.4.422.422,0,0,0,.025.236.324.324,0,0,0,.06.093.526.526,0,0,0,.1.089,3.123,3.123,0,0,0,.841.287,2.575,2.575,0,0,1,.587.233,1.659,1.659,0,0,1,.288.213,1.25,1.25,0,0,1,.233.292,1.394,1.394,0,0,1,.038,1.325,1.473,1.473,0,0,1-.89.724,2.046,2.046,0,0,1-.9.074,2.738,2.738,0,0,1-1.116-.431C100.978,190.832,100.876,190.712,100.9,190.66Z" transform="translate(-100.899 -186.677)"/></g><g transform="translate(4.083 0.971)"><path class="i" d="M104.929,191.366a20.237,20.237,0,0,1,.78-5.858,20.1,20.1,0,0,1-.78,5.858Z" transform="translate(-104.873 -185.508)"/></g><g transform="translate(3.442 1.277)"><path class="i" d="M103.416,191.55a16.621,16.621,0,0,1,.71-5.317,16.679,16.679,0,0,1-.71,5.317Z" transform="translate(-103.355 -186.233)"/></g></g><g class="d" transform="translate(0.869 0.671)"><path class="o" d="M80.455,184.678l.888-7.331.071-.028c3.28-1.328,8.159.827,11.388,2.252.556.246,1.082.478,1.538.665a6.485,6.485,0,0,0,6.184-.91l.251.052-.828,7.925-.077.027a15.118,15.118,0,0,1-12.15-1.174c-2.487-1.464-7.073-1.477-7.119-1.477Zm1.125-7.148-.834,6.891c.822.013,4.781.143,7.1,1.512a14.86,14.86,0,0,0,11.856,1.18l.773-7.4a5.119,5.119,0,0,1-.618.374,6.962,6.962,0,0,1-5.621.389c-.459-.189-.986-.421-1.544-.668C89.531,178.41,84.76,176.3,81.581,177.53Z" transform="translate(-80.455 -176.903)"/></g></g></g><g transform="translate(128.643 132.38)"><g transform="translate(16.227 0)"><g transform="translate(0 4.762)"><g transform="translate(5.4 0)"><rect class="f" width="22.256" height="4.815"/><path class="b" d="M400.031,425.667l.367,4.815h3.142l.163-4.815Z" transform="translate(-391.195 -425.667)"/></g><rect class="l" width="22.256" height="4.815"/><g transform="translate(0.07 0.645)"><path class="f" d="M388.627,427.3c0,.061-4.951.11-11.057.11s-11.059-.049-11.059-.11,4.95-.11,11.059-.11S388.627,427.242,388.627,427.3Z" transform="translate(-366.511 -427.193)"/></g><g transform="translate(0.062 1.747)"><path class="f" d="M388.61,429.909c0,.06-4.951.11-11.057.11s-11.059-.049-11.059-.11,4.95-.11,11.059-.11S388.61,429.849,388.61,429.909Z" transform="translate(-366.494 -429.799)"/></g><g transform="translate(0.062 2.849)"><path class="f" d="M388.61,432.516c0,.061-4.951.11-11.057.11s-11.059-.049-11.059-.11,4.95-.11,11.059-.11S388.61,432.456,388.61,432.516Z" transform="translate(-366.494 -432.406)"/></g><g transform="translate(0.062 3.95)"><path class="f" d="M388.61,435.122c0,.061-4.951.11-11.057.11s-11.059-.049-11.059-.11,4.95-.11,11.059-.11S388.61,435.061,388.61,435.122Z" transform="translate(-366.494 -435.012)"/></g><path class="p" d="M387.253,425.667l.367,4.815h3.142l.163-4.815Z" transform="translate(-378.417 -425.666)"/></g><g transform="translate(2.7)"><g transform="translate(5.4 0)"><rect class="f" width="22.256" height="4.815"/><path class="b" d="M406.42,414.4l.367,4.815h3.142l.163-4.815Z" transform="translate(-397.584 -414.4)"/></g><rect class="l" width="22.256" height="4.815"/><g transform="translate(0.07 0.645)"><path class="f" d="M395.016,416.036c0,.061-4.951.11-11.057.11s-11.059-.049-11.059-.11,4.95-.11,11.059-.11S395.016,415.976,395.016,416.036Z" transform="translate(-372.9 -415.926)"/></g><g transform="translate(0.062 1.747)"><path class="f" d="M395,418.643c0,.061-4.951.11-11.057.11s-11.059-.049-11.059-.11,4.95-.11,11.059-.11S395,418.582,395,418.643Z" transform="translate(-372.883 -418.533)"/></g><g transform="translate(0.062 2.848)"><path class="f" d="M395,421.249c0,.061-4.951.11-11.057.11s-11.059-.049-11.059-.11,4.95-.11,11.059-.11S395,421.188,395,421.249Z" transform="translate(-372.883 -421.139)"/></g><g transform="translate(0.062 3.95)"><path class="f" d="M395,423.856c0,.061-4.951.11-11.057.11s-11.059-.049-11.059-.11,4.95-.11,11.059-.11S395,423.8,395,423.856Z" transform="translate(-372.883 -423.746)"/></g><path class="p" d="M393.642,414.4l.367,4.815h3.142l.163-4.815Z" transform="translate(-384.806 -414.4)"/></g></g><g transform="translate(17.416 9.576)"><g transform="translate(0 4.762)"><g transform="translate(5.4 0)"><rect class="f" width="22.256" height="4.815"/><path class="b" d="M402.844,448.325l.367,4.815h3.142l.163-4.815Z" transform="translate(-394.008 -448.325)"/></g><rect class="l" width="22.256" height="4.815"/><g transform="translate(0.07 0.645)"><path class="f" d="M391.44,449.961c0,.06-4.951.11-11.057.11s-11.059-.049-11.059-.11,4.95-.11,11.059-.11S391.44,449.9,391.44,449.961Z" transform="translate(-369.324 -449.851)"/></g><g transform="translate(0.063 1.747)"><path class="f" d="M391.423,452.568c0,.061-4.952.11-11.058.11s-11.058-.049-11.058-.11,4.95-.11,11.058-.11S391.423,452.507,391.423,452.568Z" transform="translate(-369.307 -452.458)"/></g><g transform="translate(0.063 2.848)"><path class="f" d="M391.423,455.174c0,.061-4.952.11-11.058.11s-11.058-.049-11.058-.11,4.95-.11,11.058-.11S391.423,455.113,391.423,455.174Z" transform="translate(-369.307 -455.064)"/></g><g transform="translate(0.063 3.95)"><path class="f" d="M391.423,457.781c0,.061-4.952.11-11.058.11s-11.058-.049-11.058-.11,4.95-.11,11.058-.11S391.423,457.721,391.423,457.781Z" transform="translate(-369.307 -457.671)"/></g><path class="p" d="M390.066,448.325l.367,4.815h3.142l.163-4.815Z" transform="translate(-381.23 -448.325)"/></g><g transform="translate(2.7)"><g transform="translate(5.4 0)"><rect class="f" width="22.256" height="4.815"/><path class="b" d="M409.233,437.059l.367,4.815h3.142l.163-4.815Z" transform="translate(-400.397 -437.059)"/></g><rect class="l" width="22.256" height="4.815"/><g transform="translate(0.07 0.645)"><path class="f" d="M397.829,438.695c0,.061-4.951.11-11.057.11s-11.059-.049-11.059-.11,4.95-.11,11.059-.11S397.829,438.634,397.829,438.695Z" transform="translate(-375.713 -438.585)"/></g><g transform="translate(0.063 1.747)"><path class="f" d="M397.812,441.3c0,.06-4.951.11-11.057.11s-11.058-.049-11.058-.11,4.95-.11,11.058-.11S397.812,441.241,397.812,441.3Z" transform="translate(-375.696 -441.191)"/></g><g transform="translate(0.063 2.849)"><path class="f" d="M397.812,443.908c0,.061-4.951.11-11.057.11s-11.058-.049-11.058-.11,4.95-.11,11.058-.11S397.812,443.847,397.812,443.908Z" transform="translate(-375.696 -443.798)"/></g><g transform="translate(0.063 3.95)"><path class="f" d="M397.812,446.514c0,.061-4.951.11-11.057.11s-11.058-.049-11.058-.11,4.95-.11,11.058-.11S397.812,446.453,397.812,446.514Z" transform="translate(-375.696 -446.404)"/></g><path class="p" d="M396.455,437.059l.367,4.815h3.142l.163-4.815Z" transform="translate(-387.619 -437.058)"/></g></g><g transform="translate(0 9.525)"><g transform="translate(7.844)"><rect class="i" width="22.256" height="4.815"/><rect class="q" width="22.256" height="4.815"/><path class="b" d="M367.419,436.936l.367,4.815h3.142l.163-4.815Z" transform="translate(-358.583 -436.936)"/></g><g transform="translate(5.4 4.814)"><rect class="i" width="22.256" height="4.815"/><rect class="q" width="22.256" height="4.815"/><path class="b" d="M361.637,448.325,362,453.14h3.142l.163-4.815Z" transform="translate(-352.801 -448.325)"/></g><g transform="translate(0 4.814)"><rect class="i" width="22.256" height="4.815"/><g class="k" transform="translate(0.07 0.645)"><path d="M350.233,449.961c0,.06-4.951.11-11.057.11s-11.059-.049-11.059-.11,4.95-.11,11.059-.11S350.233,449.9,350.233,449.961Z" transform="translate(-328.117 -449.851)"/></g><g class="k" transform="translate(0.063 1.747)"><path d="M350.216,452.568c0,.061-4.951.11-11.057.11s-11.058-.049-11.058-.11,4.95-.11,11.058-.11S350.216,452.507,350.216,452.568Z" transform="translate(-328.1 -452.458)"/></g><g class="k" transform="translate(0.063 2.848)"><path d="M350.216,455.174c0,.061-4.951.11-11.057.11s-11.058-.049-11.058-.11,4.95-.11,11.058-.11S350.216,455.113,350.216,455.174Z" transform="translate(-328.1 -455.064)"/></g><g class="k" transform="translate(0.063 3.95)"><path d="M350.216,457.781c0,.061-4.951.11-11.057.11s-11.058-.049-11.058-.11,4.95-.11,11.058-.11S350.216,457.721,350.216,457.781Z" transform="translate(-328.1 -457.671)"/></g><path class="l" d="M348.859,448.325l.367,4.815h3.142l.163-4.815Z" transform="translate(-340.023 -448.325)"/></g><g transform="translate(3.213)"><rect class="i" width="22.256" height="4.815"/><g class="k" transform="translate(0.07 0.645)"><path d="M357.836,438.572c0,.061-4.952.11-11.058.11s-11.058-.049-11.058-.11,4.95-.11,11.058-.11S357.836,438.511,357.836,438.572Z" transform="translate(-335.72 -438.462)"/></g><g class="k" transform="translate(0.062 1.746)"><path d="M357.818,441.178c0,.061-4.951.11-11.057.11s-11.059-.049-11.059-.11,4.95-.11,11.059-.11S357.818,441.117,357.818,441.178Z" transform="translate(-335.702 -441.068)"/></g><g class="k" transform="translate(0.062 2.848)"><path d="M357.818,443.785c0,.061-4.951.11-11.057.11s-11.059-.049-11.059-.11,4.95-.11,11.059-.11S357.818,443.724,357.818,443.785Z" transform="translate(-335.702 -443.675)"/></g><g class="k" transform="translate(0.062 3.95)"><path d="M357.818,446.392c0,.061-4.951.11-11.057.11s-11.059-.049-11.059-.11,4.95-.11,11.059-.11S357.818,446.331,357.818,446.392Z" transform="translate(-335.702 -446.282)"/></g><path class="l" d="M356.461,436.936l.367,4.815h3.142l.163-4.815Z" transform="translate(-347.625 -436.936)"/></g></g></g><g transform="translate(23.009 141.956)"><g transform="translate(2.707 4.762)"><g transform="translate(5.4 0)"><rect class="f" width="22.256" height="4.815"/><path class="b" d="M118.1,448.325l.367,4.815h3.142l.163-4.815Z" transform="translate(-109.266 -448.325)"/></g><rect class="l" width="22.256" height="4.815"/><g transform="translate(0.07 0.645)"><path class="f" d="M106.7,449.961c0,.06-4.951.11-11.057.11s-11.059-.049-11.059-.11,4.95-.11,11.059-.11S106.7,449.9,106.7,449.961Z" transform="translate(-84.583 -449.851)"/></g><g transform="translate(0.062 1.747)"><path class="f" d="M106.681,452.568c0,.061-4.951.11-11.057.11s-11.059-.049-11.059-.11,4.95-.11,11.059-.11S106.681,452.507,106.681,452.568Z" transform="translate(-84.565 -452.458)"/></g><g transform="translate(0.062 2.848)"><path class="f" d="M106.681,455.174c0,.061-4.951.11-11.057.11s-11.059-.049-11.059-.11,4.95-.11,11.059-.11S106.681,455.113,106.681,455.174Z" transform="translate(-84.565 -455.064)"/></g><g transform="translate(0.062 3.95)"><path class="f" d="M106.681,457.781c0,.061-4.951.11-11.057.11s-11.059-.049-11.059-.11,4.95-.11,11.059-.11S106.681,457.721,106.681,457.781Z" transform="translate(-84.565 -457.671)"/></g><path class="p" d="M105.325,448.325l.367,4.815h3.142l.163-4.815Z" transform="translate(-96.489 -448.325)"/></g><g transform="translate(0 0)"><g transform="translate(5.4 0)"><rect class="f" width="22.256" height="4.815"/><path class="b" d="M111.7,437.059l.367,4.815h3.142l.163-4.815Z" transform="translate(-102.86 -437.059)"/></g><rect class="l" width="22.256" height="4.815"/><g transform="translate(0.07 0.645)"><path class="f" d="M100.293,438.695c0,.061-4.951.11-11.057.11s-11.058-.049-11.058-.11,4.95-.11,11.058-.11S100.293,438.634,100.293,438.695Z" transform="translate(-78.177 -438.585)"/></g><g transform="translate(0.062 1.747)"><path class="f" d="M100.275,441.3c0,.06-4.951.11-11.057.11s-11.059-.049-11.059-.11,4.95-.11,11.059-.11S100.275,441.241,100.275,441.3Z" transform="translate(-78.159 -441.191)"/></g><g transform="translate(0.062 2.849)"><path class="f" d="M100.275,443.908c0,.061-4.951.11-11.057.11s-11.059-.049-11.059-.11,4.95-.11,11.059-.11S100.275,443.847,100.275,443.908Z" transform="translate(-78.159 -443.798)"/></g><g transform="translate(0.062 3.95)"><path class="f" d="M100.275,446.514c0,.061-4.951.11-11.057.11s-11.059-.049-11.059-.11,4.95-.11,11.059-.11S100.275,446.453,100.275,446.514Z" transform="translate(-78.159 -446.404)"/></g><path class="p" d="M98.918,437.059l.367,4.815h3.142l.163-4.815Z" transform="translate(-90.082 -437.058)"/></g></g></svg>