<svg xmlns="http://www.w3.org/2000/svg" width="14.211" height="16.169" viewBox="0 0 14.211 16.169"><defs><style>.a{fill:#808385;}</style></defs><g transform="translate(-31)"><g transform="translate(31)"><path class="a" d="M43.79,1.895H41.421V1.421A1.423,1.423,0,0,0,40,0h-3.79A1.423,1.423,0,0,0,34.79,1.421v.474H32.421a1.421,1.421,0,0,0-.442,2.771l.845,10.2a1.429,1.429,0,0,0,1.416,1.3h7.73a1.429,1.429,0,0,0,1.416-1.3l.845-10.2a1.421,1.421,0,0,0-.442-2.771Zm-8.053-.474a.474.474,0,0,1,.474-.474H40a.474.474,0,0,1,.474.474v.474H35.737Zm6.706,13.366a.476.476,0,0,1-.472.434H34.24a.476.476,0,0,1-.472-.434l-.833-10.05H43.275Zm1.347-11H32.421a.474.474,0,0,1,0-.947H43.79a.474.474,0,1,1,0,.947Z" transform="translate(-31)"/></g><g transform="translate(34.789 5.684)"><path class="a" d="M152.419,188.085l-.474-7.642a.474.474,0,0,0-.946.059l.474,7.642a.474.474,0,0,0,.946-.059Z" transform="translate(-150.999 -179.999)"/></g><g transform="translate(37.632 5.684)"><path class="a" d="M241.474,180a.474.474,0,0,0-.474.474v7.642a.474.474,0,0,0,.947,0v-7.642A.474.474,0,0,0,241.474,180Z" transform="translate(-241 -180)"/></g><g transform="translate(40 5.684)"><path class="a" d="M316.976,180a.474.474,0,0,0-.5.443L316,188.086a.474.474,0,0,0,.946.059l.474-7.642A.474.474,0,0,0,316.976,180Z" transform="translate(-315.999 -180)"/></g></g></svg>