<svg xmlns="http://www.w3.org/2000/svg" width="14.966" height="17.028" viewBox="0 0 14.966 17.028"><defs><style>.a{fill:#808385;}</style></defs><path class="a" d="M3.492,191.042h7.982a1.5,1.5,0,0,0,1.5-1.5V181h1.5a.5.5,0,0,0,0-1H.5a.5.5,0,0,0,0,1H2v8.547A1.5,1.5,0,0,0,3.492,191.042Zm5.987-8.049a.5.5,0,0,1,1,0v5.055a.5.5,0,1,1-1,0Zm-2.494,0a.5.5,0,0,1,1,0v5.055a.5.5,0,1,1-1,0Zm-2.494,0a.5.5,0,0,1,1,0v5.055a.5.5,0,1,1-1,0Zm0,0" transform="translate(0 -174.013)"/><path class="a" d="M40.944,2h-.5V1.5a1.5,1.5,0,0,0-1.5-1.5h-2a1.5,1.5,0,0,0-1.5,1.5V2h-.5a3.487,3.487,0,0,0-3.442,2.993h12.87A3.487,3.487,0,0,0,40.944,2Zm-4.49-.5a.5.5,0,0,1,.5-.5h2a.5.5,0,0,1,.5.5V2H36.454Zm0,0" transform="translate(-30.468)"/></svg>