<svg xmlns="http://www.w3.org/2000/svg" viewBox="0 0 16.28 16.28"><defs><style>.a{fill:#87dcff;}.b{fill:#bee86e;}.c{fill:#00c3ff;}.d{fill:#afd755;}</style></defs><g transform="translate(2537.295 -10558.434)"><path class="a" d="M94.785,15.682a8.14,8.14,0,1,1-8.14,8.14A8.142,8.142,0,0,1,94.785,15.682Z" transform="translate(-2623.94 10542.752)"/><path class="b" d="M120.833,29.249c.56-2.171,1.068-5.308-.543-4.952-1.543.339-3.46.712-4.375.848s-2.018-.78-3.256-1.442c-.17-.7-.187-1.068.78-1.781.984-.729,1.442.7,1.832.271.644-.78.2-1.509,1.035-3.205.831-1.662.916-1.408,1.509-2.713a8.15,8.15,0,0,0-10.294,3.816,7.547,7.547,0,0,0,.95,1.458c1.306,1.577,2.68,2.222,4.833,3.544,2.154,1.306,1.832,1.9,1.306,2.493s-1.34,3.137.2,3.934l.7.424A8.225,8.225,0,0,0,120.833,29.249Z" transform="translate(-2643.916 10542.752)"/><path class="c" d="M95.972,71.1a8.151,8.151,0,0,1-6.326-13.279,8.149,8.149,0,1,0,11.464,11.464A8.139,8.139,0,0,1,95.972,71.1Z" transform="translate(-2623.94 10502.424)"/><path class="d" d="M120.47,69.835a8.044,8.044,0,0,1-4.9,1.645,7.908,7.908,0,0,1-1.916-.237,1.57,1.57,0,0,0,.78.967c.271.17.492.305.7.424h.051l.288-.034.119-.017.288-.051.1-.017a8.674,8.674,0,0,0,.95-.254l.1-.034c.085-.034.17-.051.237-.085l.153-.051.22-.1a1.753,1.753,0,0,1,.17-.068l.2-.1.17-.085.187-.1.2-.119a1.141,1.141,0,0,0,.187-.119,2.762,2.762,0,0,1,.288-.187l.136-.1.2-.153.136-.1a1.8,1.8,0,0,0,.187-.153.783.783,0,0,0,.119-.119l.187-.17a.738.738,0,0,1,.119-.1l.2-.2.085-.085.017-.017a1.409,1.409,0,0,0,.034-.17ZM107.615,61.61a8.3,8.3,0,0,1,1.628-3.392l-.017.017c-.1.085-.187.153-.271.237l-.085.085a2.7,2.7,0,0,0-.22.22l-.1.1-.2.2a.738.738,0,0,0-.1.119l-.2.254a.94.94,0,0,0-.1.136l-.136.17-.136.187-.136.2a1.5,1.5,0,0,0-.1.17l-.1.153-.153.271-.051.085C107.276,61.067,107.428,61.321,107.615,61.61Z" transform="translate(-2643.537 10502.048)"/></g></svg>