<svg xmlns="http://www.w3.org/2000/svg" width="22.155" height="15.341" viewBox="0 0 22.155 15.341"><defs><style>.a{fill:#fff;}</style></defs><g transform="translate(0.001 0)"><path class="a" d="M6.728,8.445a4.866,4.866,0,0,1,2.139-6.49A3.5,3.5,0,1,0,3.248,5.978c.044.044.089.087.135.128a6.172,6.172,0,0,0-.793.388A6.272,6.272,0,0,0,.357,8.71a2.513,2.513,0,0,0-.019,2.553,2.542,2.542,0,0,0,2.232,1.3H4A3.886,3.886,0,0,1,4.545,10.8,7.631,7.631,0,0,1,6.728,8.445Zm0,0" transform="translate(0)"/><path class="a" d="M315.614,8.748a6.271,6.271,0,0,0-2.234-2.216,6.168,6.168,0,0,0-.793-.388c.046-.041.091-.084.135-.128a3.5,3.5,0,1,0-5.617-4.021,4.865,4.865,0,0,1,2.137,6.489,7.63,7.63,0,0,1,2.183,2.354,3.886,3.886,0,0,1,.543,1.763H313.4a2.542,2.542,0,0,0,2.232-1.3,2.513,2.513,0,0,0-.019-2.553Zm0,0" transform="translate(-293.817 -0.038)"/><path class="a" d="M132.557,70.724a6.192,6.192,0,0,0-.793-.388q.069-.062.135-.128a3.5,3.5,0,1,0-4.952,0c.044.044.089.087.135.128a6.172,6.172,0,0,0-.793.388,6.271,6.271,0,0,0-2.234,2.216,2.513,2.513,0,0,0-.019,2.553,2.542,2.542,0,0,0,2.232,1.3h6.308a2.542,2.542,0,0,0,2.232-1.3,2.513,2.513,0,0,0-.019-2.553,6.272,6.272,0,0,0-2.233-2.216Zm0,0" transform="translate(-118.346 -61.451)"/></g></svg>