<svg xmlns="http://www.w3.org/2000/svg" width="24" height="18" viewBox="0 0 24 18"><path d="M20.758,52.6l-1.4-1.4L17.143,53.42a12.051,12.051,0,0,0-5.281-1.229C6.79,52.19,2.373,55.376,0,60.1a15.085,15.085,0,0,0,4.821,5.644L2.966,67.6l1.4,1.4,2.213-2.213L9.14,64.219h0ZM6.92,60.1a4.942,4.942,0,0,1,4.943-4.943,4.892,4.892,0,0,1,2.718.826l-1.447,1.447a2.949,2.949,0,0,0-3.94,3.94L7.746,62.817A4.9,4.9,0,0,1,6.92,60.1Z" transform="translate(0 -51.202)"/><g transform="translate(8.607 4.499)"><path d="M160.448,128.888l-3.716,3.716a4.8,4.8,0,0,1-5.555,5.555l-2.575,2.576a11.955,11.955,0,0,0,3.255.459c5.072,0,9.489-3.185,11.862-7.908A15.53,15.53,0,0,0,160.448,128.888Z" transform="translate(-148.603 -128.888)"/></g></svg>