<svg xmlns="http://www.w3.org/2000/svg" width="229.895" height="138.54" viewBox="0 0 229.895 138.54"><defs><style>.a{fill:#5ab7f6;}.b{fill:#263238;}.c{fill:#465d84;}.d{fill:#e5f4ff;}.e{fill:#fff;}.f{fill:#f89d1f;}.g{fill:#e0e0e0;}.h{fill:#ffbe9d;}.i,.j{opacity:0.2;}.k{fill:#eb996e;}.l{fill:#455a64;}.m{fill:#b78876;}.n{fill:#aa6550;}.o{fill:#fafafa;}.p{opacity:0.3;}.q{fill:#c9e7fb;}</style></defs><g transform="translate(5.969 60.983)"><g transform="translate(0)"><path class="a" d="M99.7,277.133c2.632-1.661,3.591-3.814,4.025-6.9a10.913,10.913,0,0,0-2.622-8.658c-1.726-1.937-4.164-3.269-5.411-5.544-1.329-2.425-1.13-5.636-3.04-7.637-1.312-1.374-3.3-1.818-4.927-2.8a33.553,33.553,0,0,1-3.6-2.938,6.607,6.607,0,0,0-4.194-1.768,5.014,5.014,0,0,0-4.476,4.6,7.8,7.8,0,0,0,2.69,6.215c1.241,1.156,2.792,2.07,3.57,3.577,1.462,2.831-.377,6.584,1.2,9.349,1.155,2.02,3.937,3.09,4.222,5.4a15.924,15.924,0,0,1-.206,2.552c-.1,2.674,2.294,4.943,4.9,5.539s5.332-.1,7.857-.987" transform="translate(-75.437 -240.889)"/><g transform="translate(9.112 9.629)"><path class="b" d="M101,267.9a2.089,2.089,0,0,0,.266.326l.806.889c.357.379.786.849,1.251,1.425s1.033,1.2,1.579,1.952l.882,1.164c.3.406.588.852.9,1.3.637.889,1.228,1.9,1.871,2.945a51.629,51.629,0,0,1,5.848,14.816c.246,1.2.5,2.344.645,3.429.078.541.176,1.061.231,1.565l.151,1.452c.117.924.132,1.766.18,2.5s.061,1.375.06,1.9c.007.495.014.893.018,1.2a2.068,2.068,0,0,0,.029.42,2.045,2.045,0,0,0,.036-.417c.011-.307.025-.706.042-1.2.021-.522.032-1.161,0-1.9s-.03-1.588-.133-2.517q-.063-.7-.131-1.461c-.049-.508-.141-1.031-.214-1.575-.132-1.092-.38-2.241-.619-3.454a49.919,49.919,0,0,0-5.881-14.9c-.653-1.05-1.257-2.058-1.906-2.946-.319-.447-.609-.893-.92-1.3l-.9-1.156c-.559-.749-1.138-1.368-1.622-1.93s-.923-1.026-1.3-1.393l-.851-.849A2.054,2.054,0,0,0,101,267.9Z" transform="translate(-100.996 -267.898)"/></g></g></g><g transform="translate(187.434 36.97)"><path class="a" d="M625.266,173.812s-3.351-2.216-7.436,5.8a104.174,104.174,0,0,0-5.633,12.638s-1.08,1.68-2.233.582-2.734-4.212-4.694-3.651c-2.034.581-2.7,2.851-2.316,6.186s.969,10.673,1.019,11.337-.324,1.611-1.23.99-6.116-6.424-8.721-3.787,0,11.75.267,12.752.07,1.43-.406,1.677-2.044-1.867-3.593-3.457-3.625-3.161-5-1.514-1.816,8.486,4.692,19.592l3.352,4.949,5.995-.333c12.786-1.494,17.98-5.963,18.466-8.053s-2.018-2.8-4.22-3.081-4.835-.257-4.923-.786.135-.943,1.095-1.334,9.805-3.8,10.341-7.466-7.234-4.333-8.276-4.682-.5-1.225.049-1.578,6.768-4.315,9.664-6.014,4.3-3.6,3.544-5.574c-.733-1.9-4.171-1.289-5.742-1.549s-.881-2.133-.881-2.133a104.173,104.173,0,0,0,6.7-12.108c3.939-8.088.05-9.444.05-9.444" transform="translate(-584.448 -173.531)"/><g transform="translate(4.54 7.453)"><path class="b" d="M629.791,194.436s-.022.06-.074.174l-.234.5-.917,1.92c-.8,1.666-1.97,4.069-3.428,7.033-2.916,5.929-7.013,14.085-11.566,23.077S604.9,244.284,601.955,250.2l-3.481,7.006-.948,1.9-.251.493c-.057.111-.091.165-.091.165s.022-.06.074-.173l.234-.5.917-1.92c.8-1.666,1.969-4.069,3.428-7.033,2.916-5.929,7.014-14.086,11.568-23.082s8.669-17.139,11.615-23.052L628.5,197l.948-1.9.251-.493C629.757,194.491,629.791,194.436,629.791,194.436Z" transform="translate(-597.184 -194.436)"/></g><g transform="translate(22.854 20.094)"><path class="b" d="M648.556,229.895a1.94,1.94,0,0,1,.151.406c.087.264.2.65.337,1.127.271.956.611,2.285.96,3.759l.88,3.776.273,1.142a1.955,1.955,0,0,1,.084.424,1.914,1.914,0,0,1-.154-.4c-.086-.265-.2-.65-.331-1.129-.261-.959-.584-2.292-.933-3.766l-.906-3.768c-.111-.452-.2-.834-.279-1.141A1.916,1.916,0,0,1,648.556,229.895Z" transform="translate(-648.553 -229.895)"/></g><g transform="translate(26.091 27.337)"><path class="b" d="M657.633,253.709c-.014-.049,2.7-.872,6.052-1.836s6.09-1.707,6.1-1.658-2.7.871-6.053,1.836S657.647,253.758,657.633,253.709Z" transform="translate(-657.633 -250.213)"/></g><g transform="translate(18.474 43.903)"><path class="b" d="M636.268,297.108a2.026,2.026,0,0,1,.441-.02l1.2,0c1.012,0,2.411,0,3.954-.061s2.939-.156,3.948-.236l1.2-.094a2,2,0,0,1,.441-.013,2.041,2.041,0,0,1-.433.085c-.281.042-.687.1-1.191.153-1.008.114-2.406.235-3.953.291s-2.95.042-3.963.007c-.507-.02-.917-.041-1.2-.063A2.01,2.01,0,0,1,636.268,297.108Z" transform="translate(-636.268 -296.681)"/></g><g transform="translate(13.409 35.26)"><path class="b" d="M622.063,272.437a1.732,1.732,0,0,1,.234.334l.579.947c.481.8,1.135,1.919,1.847,3.158s1.348,2.365,1.8,3.185l.527.976a1.723,1.723,0,0,1,.171.37,1.744,1.744,0,0,1-.234-.334l-.578-.947c-.481-.8-1.135-1.919-1.848-3.158s-1.348-2.365-1.8-3.185l-.527-.976A1.737,1.737,0,0,1,622.063,272.437Z" transform="translate(-622.061 -272.436)"/></g><g transform="translate(5.172 46.322)"><path class="b" d="M598.956,303.464a2.8,2.8,0,0,1,.3.431L600,305.1c.623,1.026,1.472,2.45,2.4,4.028s1.759,3.013,2.353,4.056l.695,1.24a.262.262,0,1,1-.062.036l-.745-1.21c-.623-1.026-1.472-2.45-2.4-4.028s-1.759-3.013-2.353-4.056l-.695-1.24A2.817,2.817,0,0,1,598.956,303.464Z" transform="translate(-598.955 -303.463)"/></g><g transform="translate(11.811 56.512)"><path class="b" d="M617.577,332.97a3.2,3.2,0,0,1,.558-.04l1.521-.05c1.284-.043,3.057-.11,5.013-.239s3.724-.286,5-.411l1.515-.147a3.2,3.2,0,0,1,.558-.033,3.273,3.273,0,0,1-.549.1c-.356.055-.871.127-1.509.206-1.276.159-3.045.34-5.005.466s-3.736.175-5.022.185c-.643,0-1.164,0-1.523-.01A3.191,3.191,0,0,1,617.577,332.97Z" transform="translate(-617.577 -332.046)"/></g></g><g transform="translate(0 138.354)"><line class="b" x2="228.058" transform="translate(0 0.093)"/><g transform="translate(0)"><path class="b" d="M286.753,458.007c0,.051-51.056.093-114.023.093-62.989,0-114.034-.041-114.034-.093s51.046-.093,114.034-.093C235.7,457.914,286.753,457.956,286.753,458.007Z" transform="translate(-58.695 -457.914)"/></g></g><g transform="translate(6.206 113.581)"><path class="c" d="M85.47,388.425a4.934,4.934,0,0,1,3.424,1.791,8.7,8.7,0,0,1,1.72,3.542,15.372,15.372,0,0,1-.518,7.855c-2.671-.981-4.3-3.852-5.034-5.361-1.161-2.385-1.81-7.4.408-7.827" transform="translate(-81.183 -388.425)"/><path class="c" d="M110.673,421.179a4.21,4.21,0,0,1-.161-4.224,5.589,5.589,0,0,1,3.39-2.677,2.354,2.354,0,0,1,1.981.112,1.8,1.8,0,0,1,.678,1.694,3.652,3.652,0,0,1-.786,1.725c-1.318,1.753-2.915,3.207-5.1,3.37" transform="translate(-97.93 -404.957)"/><g transform="translate(12.232 12.139)"><path class="b" d="M111.148,434.83a3.035,3.035,0,0,1-.115-.515l-.264-1.413a14.781,14.781,0,0,1-.252-4.74,9.044,9.044,0,0,1,1.8-4.376,6.129,6.129,0,0,1,1.025-1.019,3.684,3.684,0,0,1,.321-.226c.076-.049.117-.072.12-.066a9.613,9.613,0,0,0-1.363,1.392,9.339,9.339,0,0,0-1.715,4.322,15.9,15.9,0,0,0,.2,4.692c.091.6.164,1.086.205,1.423A2.741,2.741,0,0,1,111.148,434.83Z" transform="translate(-110.413 -422.474)"/></g><g transform="translate(5.118 3.775)"><path class="b" d="M90.46,399.014a1.09,1.09,0,0,1,.106.2l.271.6c.232.522.559,1.28.954,2.221.791,1.882,1.848,4.5,2.95,7.41s2.038,5.575,2.689,7.509c.326.967.583,1.752.753,2.3l.193.628a1.075,1.075,0,0,1,.055.223,1.074,1.074,0,0,1-.091-.211l-.226-.617L97.306,417c-.682-1.923-1.638-4.574-2.739-7.487s-2.137-5.532-2.9-7.425l-.9-2.243-.239-.612A1.054,1.054,0,0,1,90.46,399.014Z" transform="translate(-90.459 -399.014)"/></g><path class="c" d="M85.936,432.992a9.847,9.847,0,0,0-7.6-4.813c-.792-.065-1.745.061-2.105.769a2.04,2.04,0,0,0,.641,2.146,8.413,8.413,0,0,0,9.093,2.112" transform="translate(-76.103 -413.997)"/><g transform="translate(3.42 16.307)"><path class="b" d="M85.7,434.173a2.539,2.539,0,0,1,.5.023,4.754,4.754,0,0,1,.578.072c.223.043.482.07.758.149a8.671,8.671,0,0,1,.9.259,9.625,9.625,0,0,1,1,.391,10.96,10.96,0,0,1,2.11,1.275,10.749,10.749,0,0,1,1.738,1.749,9.353,9.353,0,0,1,.61.888,7.969,7.969,0,0,1,.452.821,7.306,7.306,0,0,1,.309.708,4.463,4.463,0,0,1,.192.55,2.571,2.571,0,0,1,.125.48c-.04.014-.224-.672-.744-1.679a8.51,8.51,0,0,0-.465-.8,9.816,9.816,0,0,0-.614-.864,11.164,11.164,0,0,0-1.718-1.709,11.387,11.387,0,0,0-2.067-1.266,10.124,10.124,0,0,0-.982-.4c-.31-.122-.61-.2-.883-.277C86.4,434.257,85.691,434.213,85.7,434.173Z" transform="translate(-85.696 -434.167)"/></g></g><g transform="translate(28.535)"><path class="b" d="M300.365,69.831H143.629a4.892,4.892,0,0,0-4.893,4.892V185.43a4.893,4.893,0,0,0,4.893,4.893h60.155s3.827,11.832-8.035,17.955H252s-13.393-4.591-9.949-17.955h58.318a4.893,4.893,0,0,0,4.892-4.892V74.724A4.893,4.893,0,0,0,300.365,69.831Z" transform="translate(-138.736 -69.831)"/><g transform="translate(80.167 107.914)"><path class="c" d="M368.792,373.465a3.02,3.02,0,0,1-4.253,4.253,1.084,1.084,0,0,1-.262-.263,3.019,3.019,0,0,1,4.252-4.252A1.076,1.076,0,0,1,368.792,373.465Z" transform="translate(-363.605 -372.531)"/></g><g transform="translate(3.537 6.636)"><path class="d" d="M3.272,0H155.849a3.273,3.273,0,0,1,3.273,3.273V91.112a3.273,3.273,0,0,1-3.273,3.273H3.272A3.272,3.272,0,0,1,0,91.113V3.272A3.272,3.272,0,0,1,3.272,0Z"/></g></g><g transform="translate(144.344 18.824)"><rect class="e" width="41.904" height="70.009"/><g transform="translate(9.664 41.226)"><path class="f" d="M492.14,238.273l.449.91,1,.146-.727.708.172,1-.9-.472-.9.472.172-1-.727-.708,1-.146Z" transform="translate(-490.687 -238.273)"/><path class="f" d="M506.136,238.273l.449.91,1,.146-.727.708.172,1-.9-.472-.9.472.172-1-.727-.708,1-.146Z" transform="translate(-499.693 -238.273)"/><path class="f" d="M520.131,238.273l.449.91,1,.146-.727.708.172,1-.9-.472-.9.472.172-1-.727-.708,1-.146Z" transform="translate(-508.699 -238.273)"/><path class="f" d="M534.126,238.273l.449.91,1,.146-.727.708.172,1-.9-.472-.9.472.172-1-.727-.708,1-.146Z" transform="translate(-517.705 -238.273)"/><path class="f" d="M548.121,238.273l.449.91,1,.146-.727.708.171,1-.9-.472-.9.472.172-1-.727-.708,1-.146Z" transform="translate(-526.711 -238.273)"/></g><g transform="translate(5.032 49.34)"><path class="f" d="M491.9,261.125c0,.051-3.181.093-7.1.093s-7.105-.041-7.105-.093,3.181-.093,7.105-.093S491.9,261.073,491.9,261.125Z" transform="translate(-477.693 -261.032)"/><g transform="translate(0.374 3.085)"><path class="b" d="M510.434,269.778c0,.051-7.1.093-15.845.093s-15.847-.041-15.847-.093,7.094-.093,15.847-.093S510.434,269.727,510.434,269.778Z" transform="translate(-478.742 -269.685)"/></g><g transform="translate(0.374 5.736)"><path class="b" d="M510.434,277.214c0,.051-7.1.093-15.845.093s-15.847-.042-15.847-.093,7.094-.093,15.847-.093S510.434,277.162,510.434,277.214Z" transform="translate(-478.742 -277.121)"/></g><g transform="translate(0.374 8.386)"><path class="b" d="M510.434,284.649c0,.051-7.1.093-15.845.093s-15.847-.041-15.847-.093,7.094-.093,15.847-.093S510.434,284.6,510.434,284.649Z" transform="translate(-478.742 -284.556)"/></g><g transform="translate(0.374 11.037)"><path class="b" d="M510.434,292.085c0,.051-7.1.093-15.845.093s-15.847-.042-15.847-.093,7.094-.093,15.847-.093S510.434,292.033,510.434,292.085Z" transform="translate(-478.742 -291.992)"/></g><g transform="translate(0.374 13.688)"><path class="b" d="M510.434,299.52c0,.051-7.1.093-15.845.093s-15.847-.042-15.847-.093,7.094-.093,15.847-.093S510.434,299.469,510.434,299.52Z" transform="translate(-478.742 -299.427)"/></g></g><g transform="translate(2.757 3.555)"><rect class="g" width="36.096" height="34.654"/><g transform="translate(0.691 3.03)"><path class="h" d="M549.184,212.861l2.348,6.041h-5.684l-1.281-3.29Z" transform="translate(-519.142 -187.279)"/><g transform="translate(4.898 15.096)"><g transform="translate(0 0.212)"><path class="f" d="M490.5,200.358h15.389c.241-2.272.388-4.422.388-4.422l.792,2.147,6.463-3.232s-2.35-6.265-4.316-8.387c-2.486-2.681-6.956-2.415-6.956-2.415l-5.8.094a13.52,13.52,0,0,0-4.3,1.25l-.143.042v.03a70.919,70.919,0,0,0-5.027,6.122l1.391,1.354,2.85,2.654a.078.078,0,0,0-.006.052C491.273,195.928,490.5,200.358,490.5,200.358Z" transform="translate(-486.99 -184.042)"/></g><g transform="translate(9.26)"><path class="b" d="M519.138,183.449c.006,0,.017.034.032.1a2.01,2.01,0,0,1,.04.307,3.024,3.024,0,0,1-.158,1.127,3.21,3.21,0,0,1-.943,1.4,3.183,3.183,0,0,1-3.9.109,3.209,3.209,0,0,1-1.02-1.347,3.033,3.033,0,0,1-.221-1.116,1.992,1.992,0,0,1,.023-.308c.011-.07.019-.106.026-.105a3.943,3.943,0,0,0,.293,1.478,3.173,3.173,0,0,0,1,1.26,3.068,3.068,0,0,0,3.691-.1,3.174,3.174,0,0,0,.929-1.314A3.953,3.953,0,0,0,519.138,183.449Z" transform="translate(-512.965 -183.449)"/></g><g transform="translate(18.714 1.366)"><path class="b" d="M541.7,187.291c0,.019-.155.015-.411.106a2,2,0,0,0-.9.678,3.241,3.241,0,0,0-.583,1.571c-.084.638-.1,1.359-.13,2.109-.04,1.5.017,2.864.086,3.848.035.461.065.851.089,1.165a.216.216,0,1,1-.072.009c-.042-.273-.1-.67-.148-1.162a30.592,30.592,0,0,1-.141-3.864,20.2,20.2,0,0,1,.147-2.129,3.277,3.277,0,0,1,.65-1.628,1.959,1.959,0,0,1,.977-.665,1.307,1.307,0,0,1,.32-.048C541.661,187.281,541.7,187.285,541.7,187.291Z" transform="translate(-539.483 -187.28)"/></g><g transform="translate(4.264 0.726)"><path class="b" d="M501.824,185.487a2.1,2.1,0,0,1-.108.437l-.35,1.172c-.3.989-.694,2.358-1.09,3.882s-.715,2.914-.938,3.922l-.265,1.194a2.125,2.125,0,0,1-.118.434,2.088,2.088,0,0,1,.047-.448c.041-.286.112-.7.207-1.207.19-1.017.49-2.415.887-3.943s.816-2.894,1.145-3.875c.164-.49.3-.885.407-1.155A2.081,2.081,0,0,1,501.824,185.487Z" transform="translate(-498.951 -185.487)"/></g><path class="i" d="M539.622,200.972l2.125,7.579-.854.426-.792-2.147S539.332,202.337,539.622,200.972Z" transform="translate(-520.816 -194.725)"/><g class="j" transform="translate(7.093 0.277)"><path d="M507.176,184.684c-1.236.627,1.8,2.253,3.186,2.238l-.954-2.7A13.848,13.848,0,0,0,507.176,184.684Z" transform="translate(-506.887 -184.225)"/></g></g><g transform="translate(9.594)"><g transform="translate(1.907 2.035)"><path class="h" d="M511.515,163.365h0a3.073,3.073,0,0,1-3.278-3.18c.037-.991.07-1.8.07-1.8a2.915,2.915,0,0,1-2.643-2.634c-.194-2.421-.149-8.014-.149-8.014h0a8.442,8.442,0,0,1,8.534.492l.378.252-.047,11.827A3.073,3.073,0,0,1,511.515,163.365Z" transform="translate(-505.512 -146.811)"/><g transform="translate(0.238 4.098)"><g transform="translate(0.475 0.511)"><path class="b" d="M508.119,160.335a.353.353,0,1,0-.5.009A.353.353,0,0,0,508.119,160.335Z" transform="translate(-507.512 -159.738)"/></g><path class="b" d="M506.185,158.694c.041.039.267-.16.6-.184s.587.132.622.086c.017-.02-.026-.093-.137-.166a.825.825,0,0,0-.975.078C506.2,158.6,506.165,158.676,506.185,158.694Z" transform="translate(-506.179 -158.306)"/></g><g transform="translate(3.77 4.106)"><g transform="translate(0.444 0.503)"><path class="b" d="M517.482,159.8a.353.353,0,1,0,.492.083A.353.353,0,0,0,517.482,159.8Z" transform="translate(-517.333 -159.737)"/></g><path class="b" d="M516.093,158.716c.041.039.266-.16.6-.184s.588.132.621.087c.017-.02-.026-.093-.137-.166a.824.824,0,0,0-.975.077C516.1,158.62,516.073,158.7,516.093,158.716Z" transform="translate(-516.087 -158.328)"/></g><g transform="translate(1.827 4.519)"><path class="b" d="M511.52,162.4a1.623,1.623,0,0,0-.548-.078c-.088,0-.158-.019-.167-.065a.475.475,0,0,1,.046-.254l.218-.7a9.3,9.3,0,0,0,.451-1.821,9.31,9.31,0,0,0-.633,1.766l-.2.7a.557.557,0,0,0-.023.366.229.229,0,0,0,.16.129.575.575,0,0,0,.15.01A1.632,1.632,0,0,0,511.52,162.4Z" transform="translate(-510.636 -159.488)"/></g><g transform="translate(2.79 10.431)"><path class="k" d="M513.337,177.18a5.649,5.649,0,0,0,3.1-1.111,2.992,2.992,0,0,1-3.062,1.739Z" transform="translate(-513.337 -176.069)"/></g><g transform="translate(8.483 4.237)"><path class="h" d="M529.631,158.711c.048-.019,1.983-.229,1.678,1.642a1.433,1.433,0,0,1-2,1.07C529.308,161.368,529.631,158.711,529.631,158.711Z" transform="translate(-529.307 -158.695)"/><g transform="translate(0.676 0.767)"><path class="k" d="M531.206,162.095c.007,0,.026.022.072.047a.282.282,0,0,0,.209.02.694.694,0,0,0,.366-.6.929.929,0,0,0-.049-.406.325.325,0,0,0-.195-.23.143.143,0,0,0-.17.065c-.025.043-.017.076-.026.078s-.032-.03-.015-.095a.18.18,0,0,1,.071-.1.212.212,0,0,1,.158-.03.4.4,0,0,1,.274.271.954.954,0,0,1,.064.455.729.729,0,0,1-.459.663.3.3,0,0,1-.253-.062C531.206,162.134,531.2,162.1,531.206,162.095Z" transform="translate(-531.204 -160.846)"/></g></g></g><path class="b" d="M510.473,149.073a.828.828,0,0,1-1.079-.447,3.15,3.15,0,0,1-.188-1.289,6.672,6.672,0,0,0-.306-1.755,1.228,1.228,0,0,0-1.885-.9,3.011,3.011,0,0,1-1.261.311c-.575-.05-1.049-.5-1.621-.581a3.911,3.911,0,0,0-1.554.33,2.356,2.356,0,0,1-1.576-.035,1.343,1.343,0,0,1-.839-1.253.95.95,0,0,1,1.108-.865.774.774,0,0,1-.13-1.168,1.229,1.229,0,0,1,1.262-.252,3.224,3.224,0,0,1,1.128.74.9.9,0,0,1,.862-.727,1.884,1.884,0,0,1,1.14.388c.339.229.646.506,1,.7a7.681,7.681,0,0,0,2.366.585,2.8,2.8,0,0,1,2.049,1.188,4.017,4.017,0,0,1,.083,2.111c-.031.748-.03.916-.066,1.619C510.974,147.779,511.022,148.756,510.473,149.073Z" transform="translate(-500.163 -141.103)"/><g transform="translate(4.315 9.52)"><path class="e" d="M512.267,168.735c0,.022.092.062.255.059a1.05,1.05,0,0,0,.963-.725c.048-.156.036-.258.014-.261-.048-.013-.132.372-.486.636A2.452,2.452,0,0,1,512.267,168.735Z" transform="translate(-512.267 -167.808)"/></g><g transform="translate(1.385 1.986)"><path class="l" d="M504.192,146.674a.338.338,0,0,0-.145.336.618.618,0,0,0,.2.4.691.691,0,0,0,.568.136,1.86,1.86,0,0,0,.662-.267,2.875,2.875,0,0,1,.718-.354,1.211,1.211,0,0,1,.845.129c.276.136.534.33.818.5a1.578,1.578,0,0,0,.922.3,1.509,1.509,0,0,0,.816-.385,2.062,2.062,0,0,1,.685-.4,1.177,1.177,0,0,1,.68.042,1.308,1.308,0,0,1,.735.656,1.607,1.607,0,0,1,.1.357.855.855,0,0,0-.08-.368,1.316,1.316,0,0,0-.742-.691,1.22,1.22,0,0,0-.712-.052,2.1,2.1,0,0,0-.709.409,1.452,1.452,0,0,1-.782.368,1.519,1.519,0,0,1-.881-.289c-.279-.171-.54-.366-.824-.506a1.275,1.275,0,0,0-.891-.13,2.883,2.883,0,0,0-.732.367,1.827,1.827,0,0,1-.64.267.651.651,0,0,1-.535-.117.6.6,0,0,1-.2-.369A.387.387,0,0,1,504.192,146.674Z" transform="translate(-504.046 -146.673)"/></g><g transform="translate(2.06 0.617)"><path class="l" d="M506.487,142.928a.173.173,0,0,0-.071-.062.313.313,0,0,0-.267,0,.333.333,0,0,0-.2.357.522.522,0,0,0,.354.425,1.057,1.057,0,0,0,.681-.029,3.852,3.852,0,0,1,.736-.222.919.919,0,0,1,.748.292,3.047,3.047,0,0,0,.719.588,1.18,1.18,0,0,0,.921-.055,3.443,3.443,0,0,1,.81-.255,2.007,2.007,0,0,1,1.369.308,2.065,2.065,0,0,1,.655.705c.113.2.147.326.155.323a1.355,1.355,0,0,0-.131-.336A2.011,2.011,0,0,0,510.9,143.9a3.439,3.439,0,0,0-.826.254,1.118,1.118,0,0,1-.869.055,3.045,3.045,0,0,1-.7-.574.983.983,0,0,0-.8-.305,3.8,3.8,0,0,0-.747.231,1.013,1.013,0,0,1-.647.038.481.481,0,0,1-.332-.384.316.316,0,0,1,.427-.337A.537.537,0,0,1,506.487,142.928Z" transform="translate(-505.941 -142.835)"/></g><g transform="translate(9.753 1.839)"><path class="b" d="M527.531,147.027c.047.017.176-.273.492-.465s.627-.192.632-.242c0-.022-.077-.057-.215-.059a1,1,0,0,0-.869.546C527.512,146.933,527.51,147.02,527.531,147.027Z" transform="translate(-527.519 -146.262)"/></g><g transform="translate(9.835 0.812)"><path class="b" d="M527.963,143.381c-.05.013.021.379-.038.822s-.213.781-.168.806a1.521,1.521,0,0,0,.206-1.627Z" transform="translate(-527.749 -143.38)"/></g><g transform="translate(9.14 3.392)"><path class="l" d="M527.277,154.536a.838.838,0,0,0,.1-.69,1.575,1.575,0,0,0-.386-.663.827.827,0,0,1-.187-.386,1.229,1.229,0,0,1,.056-.465,1.833,1.833,0,0,0,.054-.939,1.011,1.011,0,0,0-.431-.633.816.816,0,0,0-.5-.139.475.475,0,0,0-.185.047c0,.007.066-.017.186-.02a.825.825,0,0,1,.471.153.974.974,0,0,1,.4.607,1.81,1.81,0,0,1-.059.908,1.268,1.268,0,0,0-.056.491.878.878,0,0,0,.2.416,1.576,1.576,0,0,1,.388.635,1.136,1.136,0,0,1,.006.5A1.332,1.332,0,0,1,527.277,154.536Z" transform="translate(-525.8 -150.619)"/></g></g><g transform="translate(18.363 24.48)"><path class="b" d="M524.838,209.854a1.476,1.476,0,0,1,.017.229c.005.169.012.373.02.616.014.527.032,1.269.04,2.162l-.024-.056,1.1,1.025-.093-.017,1.89-.764-.057.07.032-.178.571-3.1.081.1c-1.05-.008-1.934-.026-2.564-.041l-.739-.022a1.888,1.888,0,0,1-.276-.019,1.068,1.068,0,0,1,.241-.019l.72-.022c.625-.015,1.531-.034,2.617-.041h.1l-.017.1c-.163.921-.351,1.98-.55,3.1l-.032.178-.009.051-.048.019-1.893.754-.052.021-.04-.039-1.087-1.04-.025-.024v-.033c.008-.927.026-1.689.04-2.211.008-.236.015-.434.02-.6A.793.793,0,0,1,524.838,209.854Z" transform="translate(-524.76 -209.771)"/><g transform="translate(0.073 0.965)"><path class="b" d="M528.333,212.525a10.541,10.541,0,0,1-3.369.012,28.236,28.236,0,0,1,3.369-.012Z" transform="translate(-524.964 -212.479)"/></g></g><path class="h" d="M478.96,207.393c.076.074-5.709,7.991-5.709,7.991h5.666l3.473-4.762Z" transform="translate(-473.251 -183.76)"/></g></g></g><g transform="translate(82.296 5.802)"><rect class="e" width="59.728" height="99.789"/><g transform="translate(13.775 58.763)"><path class="f" d="M330.246,250.936l.64,1.3,1.431.208-1.036,1.01.244,1.425-1.28-.673-1.28.673.244-1.425-1.036-1.01,1.431-.208Z" transform="translate(-328.175 -250.936)"/><path class="f" d="M350.194,250.936l.64,1.3,1.431.208-1.036,1.01.244,1.425-1.28-.673-1.28.673.245-1.425-1.036-1.01,1.431-.208Z" transform="translate(-341.011 -250.936)"/><path class="f" d="M370.143,250.936l.64,1.3,1.431.208-1.036,1.01.245,1.425-1.28-.673-1.28.673.245-1.425-1.036-1.01,1.431-.208Z" transform="translate(-353.848 -250.936)"/><path class="f" d="M390.091,250.936l.64,1.3,1.431.208-1.036,1.01.244,1.425-1.28-.673-1.28.673.244-1.425-1.036-1.01,1.431-.208Z" transform="translate(-366.685 -250.936)"/><path class="f" d="M410.039,250.936l.64,1.3,1.431.208-1.036,1.01.244,1.425-1.28-.673-1.28.673.244-1.425-1.036-1.01,1.431-.208Z" transform="translate(-379.521 -250.936)"/></g><g transform="translate(7.172 70.367)"><path class="f" d="M329.908,283.579c0,.051-4.535.093-10.127.093s-10.128-.042-10.128-.093,4.534-.093,10.128-.093S329.908,283.528,329.908,283.579Z" transform="translate(-309.653 -283.486)"/><g transform="translate(0.533 4.398)"><path class="b" d="M356.322,295.914c0,.051-10.113.093-22.586.093s-22.588-.042-22.588-.093,10.111-.093,22.588-.093S356.322,295.863,356.322,295.914Z" transform="translate(-311.148 -295.821)"/></g><g transform="translate(0.533 8.176)"><path class="b" d="M356.322,306.512c0,.051-10.113.093-22.586.093s-22.588-.041-22.588-.093,10.111-.093,22.588-.093S356.322,306.461,356.322,306.512Z" transform="translate(-311.148 -306.419)"/></g><g transform="translate(0.533 11.954)"><path class="b" d="M356.322,317.111c0,.051-10.113.093-22.586.093s-22.588-.041-22.588-.093,10.111-.093,22.588-.093S356.322,317.059,356.322,317.111Z" transform="translate(-311.148 -317.018)"/></g><g transform="translate(0.533 15.733)"><path class="b" d="M356.322,327.709c0,.051-10.113.093-22.586.093s-22.588-.042-22.588-.093,10.111-.093,22.588-.093S356.322,327.658,356.322,327.709Z" transform="translate(-311.148 -327.616)"/></g><g transform="translate(0.533 19.511)"><path class="b" d="M356.322,338.307c0,.051-10.113.093-22.586.093s-22.588-.042-22.588-.093,10.111-.093,22.588-.093S356.322,338.256,356.322,338.307Z" transform="translate(-311.148 -338.214)"/></g></g><g transform="translate(3.93 5.067)"><rect class="g" width="51.45" height="49.394"/><g transform="translate(10.522 3.973)"><path class="b" d="M361.455,115.674a5.511,5.511,0,0,1,4.025-3.6c1.832-.438,4.107-1.037,5.785-.181a4.823,4.823,0,0,1,2.466,2.413c.488,1.308-.263,3.748-.638,5.092s-.657,2.878.084,4.061c.721,1.152,2.189,1.6,3.1,2.606a3.63,3.63,0,0,1-.378,5.039,3.051,3.051,0,0,1,2.933,3.18,4.667,4.667,0,0,1-2.691,3.781,10.451,10.451,0,0,1-4.742.891,28.755,28.755,0,0,1-5.992-.621,7.481,7.481,0,0,1-4.372-2.169,6.716,6.716,0,0,1-1.242-4.306c-.01-5.395,2.821-10.742,1.594-15.995" transform="translate(-349.199 -111.461)"/><path class="b" d="M343.646,118.141a5.336,5.336,0,0,0-8.327,5.046c.13,1.059.577,2.127.305,3.158-.509,1.933-3.236,2.688-3.6,4.655a5.313,5.313,0,0,0,.342,2.318,3.044,3.044,0,0,1-.053,2.3,6.639,6.639,0,0,1-1.23,1.236,4.1,4.1,0,0,0-.192,5.167,5.919,5.919,0,0,0,4.957,2.178,10.943,10.943,0,0,0,5.271-1.8" transform="translate(-330.075 -115.167)"/><g transform="translate(9.63 4.251)"><path class="m" d="M357.087,124.274l.025,1.283.257,19.2a4.119,4.119,0,0,0,4.358,3.929h0a4.352,4.352,0,0,0,4.376-4.169c.007-2.365.058-4.854.058-4.854s3.046-.506,3.677-4.48a42.441,42.441,0,0,0,.048-7.866,4.2,4.2,0,0,0-4.629-3.912Z" transform="translate(-357.087 -123.387)"/><g transform="translate(10.082 5.086)"><g transform="translate(0.171 0.646)"><path class="b" d="M386.863,139.924a.509.509,0,0,1-.491.514.487.487,0,0,1-.525-.459.51.51,0,0,1,.491-.515A.488.488,0,0,1,386.863,139.924Z" transform="translate(-385.846 -139.464)"/></g><path class="b" d="M387.381,138.188c-.063.067-.449-.219-1-.218s-.95.276-1.01.209c-.029-.03.035-.149.21-.277a1.4,1.4,0,0,1,.809-.249,1.342,1.342,0,0,1,.794.256C387.355,138.039,387.413,138.159,387.381,138.188Z" transform="translate(-385.367 -137.653)"/></g><g transform="translate(4.691 5.188)"><g transform="translate(0.279 0.543)"><path class="b" d="M372.045,139.924a.51.51,0,0,1-.492.514.487.487,0,0,1-.526-.459.51.51,0,0,1,.491-.515A.488.488,0,0,1,372.045,139.924Z" transform="translate(-371.027 -139.464)"/></g><path class="b" d="M372.259,138.475c-.063.067-.45-.219-1-.217s-.95.276-1.01.208c-.029-.03.035-.149.211-.277a1.4,1.4,0,0,1,.808-.249,1.342,1.342,0,0,1,.794.256C372.232,138.326,372.29,138.446,372.259,138.475Z" transform="translate(-370.244 -137.94)"/></g><g transform="translate(8.439 5.222)"><path class="b" d="M381.015,142.6a3.653,3.653,0,0,1,.891-.16c.14-.015.273-.042.3-.138a.712.712,0,0,0-.093-.415l-.414-1.067a18.356,18.356,0,0,1-.93-2.789,18.38,18.38,0,0,1,1.153,2.708l.4,1.073a.812.812,0,0,1,.072.55.351.351,0,0,1-.23.2.951.951,0,0,1-.238.033A3.55,3.55,0,0,1,381.015,142.6Z" transform="translate(-380.758 -138.033)"/></g><g transform="translate(3.752 14.862)"><path class="n" d="M372.934,166.494a10.109,10.109,0,0,1-5.322-1.42s1.291,2.73,5.269,2.358Z" transform="translate(-367.612 -165.074)"/></g><g transform="translate(6.828 10.741)"><path class="n" d="M377.875,153.886a.987.987,0,0,0-.886-.367.9.9,0,0,0-.623.334.573.573,0,0,0-.044.654.664.664,0,0,0,.719.182,2.072,2.072,0,0,0,.7-.419.605.605,0,0,0,.157-.162.183.183,0,0,0,0-.2" transform="translate(-376.239 -153.514)"/></g><g transform="translate(6.993 10.171)"><path class="b" d="M376.79,151.916c.089-.005.09.59.6,1.012s1.143.357,1.148.44c.008.037-.142.116-.409.123a1.484,1.484,0,0,1-.958-.334,1.29,1.29,0,0,1-.465-.849C376.683,152.06,376.749,151.912,376.79,151.916Z" transform="translate(-376.701 -151.916)"/></g></g><g transform="translate(12.853 3.215)"><path class="b" d="M366.137,120.543c.021-.047.065-.073.1-.058a.083.083,0,0,1,.024.112c-.021.047-.065.073-.1.058A.083.083,0,0,1,366.137,120.543Z" transform="translate(-366.127 -120.481)"/></g><path class="b" d="M354.224,141.319a4.33,4.33,0,0,0,2.538-2.567,5.874,5.874,0,0,0,.085-3.662,2.456,2.456,0,0,1-.136-1.679,3.172,3.172,0,0,1,.867-.889,3.705,3.705,0,0,0,1.128-2.506,6.432,6.432,0,0,0-.5-2.749,2.2,2.2,0,0,1-.243-1.495,2.32,2.32,0,0,1,.691-.837,6.521,6.521,0,0,0,1.38-1.848,1.842,1.842,0,0,0,.189-1.575,1.941,1.941,0,0,0-1.7-.834,5.026,5.026,0,0,0-4.314,1.447,6.683,6.683,0,0,0-1.065,4.029,61.275,61.275,0,0,0,.372,13.336" transform="translate(-344.802 -117.378)"/><g transform="translate(14.274 2.946)"><path class="b" d="M379.776,121.476a6.29,6.29,0,0,1-.68.369,4.383,4.383,0,0,0-.574.5c-.1.1-.214.208-.313.322-.026.029-.043.057-.073.088l-.112.113-.276.262a6.841,6.841,0,0,1-.851.671,4.5,4.5,0,0,1-1.478.646,4.6,4.6,0,0,1-3.015-.368,4.677,4.677,0,0,1-1.654-1.328c-.677-.9-.781-1.631-.47-2.028s1.1-.34,1.973-.125a11.648,11.648,0,0,0,1.3.257,3.078,3.078,0,0,0,1.034-.028,2.336,2.336,0,0,0,.481-.172c.221-.1.5-.247.821-.4.16-.076.33-.152.512-.222.088-.035.184-.069.276-.1s.212-.07.315-.1a3.5,3.5,0,0,1,1.19-.1,2.154,2.154,0,0,1,1.626.848A.65.65,0,0,1,379.776,121.476Z" transform="translate(-370.114 -119.726)"/></g><g transform="translate(3.12 3.79)"><path class="l" d="M339.558,144.981s-.022-.017-.058-.056a1.647,1.647,0,0,1-.15-.184,2.61,2.61,0,0,1-.4-.818,3.1,3.1,0,0,1-.071-1.44,2.88,2.88,0,0,1,.962-1.64c.529-.484,1.226-.846,1.865-1.352a3.608,3.608,0,0,0,.839-.925,1.847,1.847,0,0,0,.268-1.248c-.12-.9-.861-1.684-.925-2.761a2.821,2.821,0,0,1,1.533-2.652,7.135,7.135,0,0,0,1.359-.776,1.62,1.62,0,0,0,.542-1.308,3.54,3.54,0,0,0-.365-1.4c-.206-.433-.457-.841-.669-1.26a4.115,4.115,0,0,1-.451-1.306,2.606,2.606,0,0,1,.161-1.3,3.663,3.663,0,0,1,1.51-1.747,4.935,4.935,0,0,1,1.8-.628,8.453,8.453,0,0,1,1.437-.092c.395.006.7.027.907.045l.235.024a.259.259,0,0,1,.08.015,2.178,2.178,0,0,1-.317,0c-.207-.006-.512-.015-.9-.01a8.883,8.883,0,0,0-1.42.123,4.885,4.885,0,0,0-1.753.637,3.542,3.542,0,0,0-1.435,1.69,2.453,2.453,0,0,0-.143,1.221,3.979,3.979,0,0,0,.441,1.25c.21.411.462.816.677,1.262a3.7,3.7,0,0,1,.387,1.468,1.8,1.8,0,0,1-.6,1.45,7.169,7.169,0,0,1-1.393.8,2.64,2.64,0,0,0-1.439,2.479c.045.992.775,1.779.912,2.747a2.013,2.013,0,0,1-.3,1.356,3.765,3.765,0,0,1-.882.961c-.663.516-1.355.866-1.874,1.33a2.782,2.782,0,0,0-.948,1.563,3.078,3.078,0,0,0,.039,1.4A3.294,3.294,0,0,0,339.558,144.981Z" transform="translate(-338.825 -122.093)"/></g><g transform="translate(23.027 13.6)"><path class="l" d="M397.664,161.924a.733.733,0,0,0,.343-.435,1,1,0,0,0-.044-.645,1.579,1.579,0,0,0-.591-.635c-.273-.188-.613-.338-.949-.57a1.5,1.5,0,0,1-.72-1.076,2.128,2.128,0,0,1,.45-1.362c.288-.411.657-.757.942-1.173a1.836,1.836,0,0,0,.363-1.353,2.884,2.884,0,0,0-.545-1.232c-.511-.716-1.149-1.233-1.553-1.788a3.08,3.08,0,0,1-.681-1.457,1.721,1.721,0,0,1,0-.441.469.469,0,0,1,.035-.149,4.68,4.68,0,0,0,.033.579,3.176,3.176,0,0,0,.713,1.387c.406.532,1.049,1.032,1.589,1.77a3.021,3.021,0,0,1,.586,1.306,1.933,1.933,0,0,1-.043.773,2.344,2.344,0,0,1-.346.711c-.3.436-.674.785-.946,1.172a1.975,1.975,0,0,0-.429,1.242,1.344,1.344,0,0,0,.638.966c.315.226.655.385.935.588a1.654,1.654,0,0,1,.613.7,1.05,1.05,0,0,1,.017.706.671.671,0,0,1-.267.355A.315.315,0,0,1,397.664,161.924Z" transform="translate(-394.664 -149.608)"/></g><g transform="translate(14.492 2.481)"><path class="l" d="M380.437,119.013c.006,0,.011.042.013.124a1.868,1.868,0,0,1-.036.355,2.3,2.3,0,0,1-.617,1.153,2.246,2.246,0,0,1-1.811.653,2.309,2.309,0,0,1-1.1-.383,4.7,4.7,0,0,1-.884-.868,4.412,4.412,0,0,0-.861-.825,3.631,3.631,0,0,0-.991-.487,3.508,3.508,0,0,0-1.858-.067,3.808,3.808,0,0,0-1.172.493c-.255.164-.384.276-.394.264a1.466,1.466,0,0,1,.353-.323,3.505,3.505,0,0,1,1.181-.561,3.551,3.551,0,0,1,1.939.031,3.726,3.726,0,0,1,1.045.5,4.5,4.5,0,0,1,.9.854,4.652,4.652,0,0,0,.846.839,2.159,2.159,0,0,0,1.016.363,2.132,2.132,0,0,0,1.7-.576,2.349,2.349,0,0,0,.639-1.076C380.421,119.184,380.419,119.012,380.437,119.013Z" transform="translate(-370.724 -118.421)"/></g><g transform="translate(13.974 7.415)"><path class="b" d="M371.775,132.672c-.054.149-.6.078-1.245.156s-1.164.253-1.249.119c-.038-.064.052-.2.262-.349a2.181,2.181,0,0,1,1.9-.21C371.679,132.483,371.8,132.6,371.775,132.672Z" transform="translate(-369.272 -132.26)"/></g><g transform="translate(19.657 7.718)"><path class="b" d="M387.081,133.677c-.1.124-.475,0-.929-.011-.454-.022-.839.083-.928-.047-.039-.063.022-.188.19-.306a1.344,1.344,0,0,1,1.5.046C387.071,133.488,387.123,133.617,387.081,133.677Z" transform="translate(-385.213 -133.109)"/></g></g><g transform="translate(5.373 26.885)"><g transform="translate(0 1.129)"><path class="f" d="M326.78,200.437c.191.331-1.218-4.411-1.218-4.411l-1.18,4.334-8.752.065s4.946-16.166,7.295-18.423c3.066-2.945,8.813-3.106,8.813-3.106l3.439,2.935,5.435-2.791s.069.006.2.022a10.88,10.88,0,0,1,8.406,5.946l5.893,15.27h-7.781l-1.659-4.506.554,4.506" transform="translate(-315.631 -178.896)"/></g><path class="o" d="M352.962,179.148l7.884,17.937,3.985-18.124s-1.1-.064-2.683-.123c-.873-.033-1.892,3.42-2.949,3.4-.676-.012-1.366-3.5-2.045-3.5-.859,0-1.7.019-2.461.056C354.05,178.826,353.463,179.1,352.962,179.148Z" transform="translate(-339.653 -177.667)"/><path class="o" d="M357.158,177.377V175.73s4.7.063,4.78,3.824a4.725,4.725,0,0,1,4.46-3.824l.243,1.261-1.07,4.325-2.737,1.823h-3.691l-1.527-2.008Z" transform="translate(-342.353 -175.73)"/><g transform="translate(21.14 1.537)"><path class="b" d="M374.929,198.4a.878.878,0,0,1,.047-.2,3.224,3.224,0,0,1,.227-.548,3.618,3.618,0,0,1,.557-.758c.248-.27.548-.555.852-.895a13.185,13.185,0,0,0,1.96-2.525,4.208,4.208,0,0,0,.5-1.785,2.8,2.8,0,0,0-.545-1.868l-.126-.161.206.011a1.117,1.117,0,0,0,.24-.01,1.364,1.364,0,0,0,.822-.522,1.844,1.844,0,0,0,.375-.9,6.3,6.3,0,0,0-.145-1.913l-.543-3.266c-.145-.913-.264-1.66-.351-2.2l-.086-.6a.917.917,0,0,1-.017-.212.9.9,0,0,1,.055.205l.12.6c.1.543.24,1.286.409,2.195.167.935.364,2.039.583,3.26a6.349,6.349,0,0,1,.156,1.969,2.024,2.024,0,0,1-.41.988,1.543,1.543,0,0,1-.937.591,1.319,1.319,0,0,1-.284.012l.08-.15a2.968,2.968,0,0,1,.581,1.991,4.349,4.349,0,0,1-.535,1.856,12.773,12.773,0,0,1-2.014,2.534c-.314.338-.622.619-.873.877a3.747,3.747,0,0,0-.57.723C375.014,198.126,374.948,198.407,374.929,198.4Z" transform="translate(-374.928 -180.04)"/></g><g transform="translate(12.585 1.47)"><path class="b" d="M359.486,198.125a.976.976,0,0,1-.147-.162l-.4-.482c-.349-.417-.868-1.008-1.52-1.73s-1.436-1.579-2.22-2.606a8.926,8.926,0,0,1-1.1-1.711,2.84,2.84,0,0,1-.133-2.178,2.174,2.174,0,0,1,.137-.277l.049.135a4.2,4.2,0,0,1-1.757-1.222,5.629,5.629,0,0,1-1.011-1.711,8.057,8.057,0,0,1-.437-3.3,19,19,0,0,1,.268-2.223l.111-.6a.106.106,0,1,1,.036.006l-.077.6c-.065.522-.174,1.278-.209,2.218a8.109,8.109,0,0,0,.466,3.235,5.517,5.517,0,0,0,.99,1.653,4.043,4.043,0,0,0,1.682,1.166l.105.038-.056.1a1.983,1.983,0,0,0-.124.251,2.671,2.671,0,0,0,.127,2.036,8.94,8.94,0,0,0,1.071,1.681c.77,1.025,1.545,1.886,2.182,2.622S358.664,197,359,197.435c.165.217.292.386.373.5A.964.964,0,0,1,359.486,198.125Z" transform="translate(-350.931 -179.854)"/></g><g transform="translate(20.993 19.424)"><path class="b" d="M374.577,233.419a13.885,13.885,0,0,1,.083-3.206,13.89,13.89,0,0,1-.083,3.206Z" transform="translate(-374.517 -230.213)"/></g><g transform="translate(7.279 4.627)"><path class="b" d="M338.474,203.409a4.5,4.5,0,0,1,.153-.618c.1-.4.251-.968.394-1.684a23.4,23.4,0,0,0,.429-5.669,14.939,14.939,0,0,0-.419-3.1,5.979,5.979,0,0,0-1.108-2.265,4.388,4.388,0,0,0-1.3-1.1c-.359-.19-.579-.252-.573-.268a.559.559,0,0,1,.162.034,3.07,3.07,0,0,1,.444.17,4.191,4.191,0,0,1,1.369,1.078,5.95,5.95,0,0,1,1.172,2.3,14.428,14.428,0,0,1,.44,3.133,21.639,21.639,0,0,1-.486,5.705c-.16.717-.328,1.287-.453,1.678-.063.195-.118.345-.155.446A.552.552,0,0,1,338.474,203.409Z" transform="translate(-336.048 -188.71)"/></g><g transform="translate(28.049 1.854)"><path class="b" d="M396.364,195.5a3.664,3.664,0,0,1-.026-.6c0-.383-.013-.937-.037-1.621a49.138,49.138,0,0,0-.467-5.322,53.322,53.322,0,0,0-1.5-6.935l-.025-.093.073.058a2.44,2.44,0,0,1,.351.3,2.454,2.454,0,0,1-.388-.251l.048-.034a38.9,38.9,0,0,1,1.624,6.927,40.594,40.594,0,0,1,.415,5.345c.007.686,0,1.242-.022,1.625A3.664,3.664,0,0,1,396.364,195.5Z" transform="translate(-394.309 -180.931)"/></g><g transform="translate(14.778 1.39)"><path class="b" d="M361.018,179.933c0,.016-.089.011-.21.094a1.31,1.31,0,0,0-.375.506,5.774,5.774,0,0,0-.624,2.079l-.023.234-.143-.188-.259-.341c-.594-.774-1.177-1.437-1.609-1.909a7.6,7.6,0,0,1-.689-.777,4.643,4.643,0,0,1,.784.686,18.677,18.677,0,0,1,1.662,1.887l.26.345-.166.045a5.262,5.262,0,0,1,.7-2.12,1.228,1.228,0,0,1,.448-.5C360.924,179.894,361.021,179.927,361.018,179.933Z" transform="translate(-357.084 -179.629)"/></g><g transform="translate(20.435 1.338)"><path class="b" d="M376.744,179.485a6.253,6.253,0,0,1-.63.877c-.408.527-.981,1.246-1.623,2.033l-.339.415-.159.194,0-.25a7.563,7.563,0,0,0-.09-1.223,2.539,2.539,0,0,0-.334-.9,2.391,2.391,0,0,0-.614-.63c0-.009.089.012.227.094a1.643,1.643,0,0,1,.489.468,2.5,2.5,0,0,1,.392.939,6.864,6.864,0,0,1,.114,1.25l-.163-.056.338-.416c.642-.787,1.231-1.493,1.665-2A6.184,6.184,0,0,1,376.744,179.485Z" transform="translate(-372.95 -179.484)"/></g><g transform="translate(19.64 3.798)"><path class="b" d="M372.066,201.589a3.67,3.67,0,0,1-.089-.594c-.044-.416-.1-.964-.173-1.627-.138-1.374-.316-3.275-.5-5.374s-.342-4-.446-5.38c-.047-.665-.085-1.215-.114-1.632a3.711,3.711,0,0,1-.017-.6,3.747,3.747,0,0,1,.089.595c.044.415.1.964.173,1.627.138,1.374.316,3.274.5,5.374s.342,4,.446,5.378c.046.665.085,1.215.114,1.632A3.725,3.725,0,0,1,372.066,201.589Z" transform="translate(-370.72 -186.383)"/></g><g transform="translate(20.671 7.012)"><path class="b" d="M373.935,195.445c-.017-.018.132-.106.324.022a.421.421,0,0,1,.185.338.431.431,0,0,1-.758.247.42.42,0,0,1-.05-.382c.08-.216.252-.233.249-.209.012.025-.1.081-.122.243a.31.31,0,0,0,.058.243.273.273,0,0,0,.452-.147.308.308,0,0,0-.1-.231C374.061,195.453,373.94,195.472,373.935,195.445Z" transform="translate(-373.612 -195.398)"/></g><g transform="translate(21.277 11.463)"><path class="b" d="M375.716,207.909c-.014-.021.155-.078.318.093a.421.421,0,0,1,.1.379.432.432,0,0,1-.8.036.421.421,0,0,1,.071-.386c.147-.185.32-.143.308-.121,0,.028-.122.044-.2.193a.307.307,0,0,0-.02.254.272.272,0,0,0,.48-.021.308.308,0,0,0-.042-.251C375.841,207.942,375.715,207.937,375.716,207.909Z" transform="translate(-375.313 -207.883)"/></g><g class="p" transform="translate(12.092 1.692)"><path d="M350.317,180.477c-.666,2.373-1.3,5.056-.058,7.186.374.641.9,1.187,1.25,1.841a19.672,19.672,0,0,1,1.014,3.674,8.181,8.181,0,0,0,5.989,5.234c-1.316-1.6-3.351-3.686-4.563-5.5a4.505,4.505,0,0,1-.832-1.606,2.078,2.078,0,0,1,.178-1.876c-1.7-.264-2.672-2.027-2.982-3.722a12.6,12.6,0,0,1,.213-5.131" transform="translate(-349.55 -180.477)"/></g><g class="p" transform="translate(29.997 13.498)"><path d="M399.95,214.4c-.422,2.545-.137,5.883,1.423,7.938.574-2.795.287-6.451-1.414-8.742" transform="translate(-399.774 -213.593)"/></g></g></g></g><g transform="translate(38.209 20.843)"><rect class="e" width="41.904" height="70.009"/><g transform="translate(9.664 41.226)"><path class="f" d="M194.431,243.937l.449.91,1,.146-.727.708.172,1-.9-.472-.9.472.172-1-.727-.708,1-.146Z" transform="translate(-192.978 -243.937)"/><path class="f" d="M208.426,243.937l.449.91,1,.146-.727.708.172,1-.9-.472-.9.472.171-1-.727-.708,1-.146Z" transform="translate(-201.983 -243.937)"/><path class="f" d="M222.421,243.937l.449.91,1,.146-.727.708.172,1-.9-.472-.9.472.172-1-.727-.708,1-.146Z" transform="translate(-210.989 -243.937)"/><path class="f" d="M236.416,243.937l.449.91,1,.146-.727.708.172,1-.9-.472-.9.472.172-1-.727-.708,1-.146Z" transform="translate(-219.995 -243.937)"/><path class="f" d="M250.412,243.937l.449.91,1,.146-.727.708.172,1-.9-.472-.9.472.172-1-.727-.708,1-.146Z" transform="translate(-229.001 -243.937)"/></g><g transform="translate(5.031 49.34)"><path class="f" d="M194.193,266.788c0,.051-3.181.093-7.1.093s-7.106-.041-7.106-.093,3.181-.093,7.106-.093S194.193,266.737,194.193,266.788Z" transform="translate(-179.983 -266.695)"/><g transform="translate(0.374 3.085)"><path class="b" d="M212.725,275.442c0,.051-7.1.093-15.846.093s-15.847-.042-15.847-.093,7.094-.093,15.847-.093S212.725,275.391,212.725,275.442Z" transform="translate(-181.032 -275.349)"/></g><g transform="translate(0.374 5.736)"><path class="b" d="M212.725,282.878c0,.051-7.1.093-15.846.093s-15.847-.042-15.847-.093,7.094-.093,15.847-.093S212.725,282.826,212.725,282.878Z" transform="translate(-181.032 -282.785)"/></g><g transform="translate(0.374 8.387)"><path class="b" d="M212.725,290.313c0,.051-7.1.093-15.846.093s-15.847-.042-15.847-.093,7.094-.093,15.847-.093S212.725,290.262,212.725,290.313Z" transform="translate(-181.032 -290.22)"/></g><g transform="translate(0.374 11.038)"><path class="b" d="M212.725,297.749c0,.051-7.1.093-15.846.093s-15.847-.041-15.847-.093,7.094-.093,15.847-.093S212.725,297.7,212.725,297.749Z" transform="translate(-181.032 -297.656)"/></g><g transform="translate(0.374 13.688)"><path class="b" d="M212.725,305.184c0,.051-7.1.093-15.846.093s-15.847-.042-15.847-.093,7.094-.093,15.847-.093S212.725,305.133,212.725,305.184Z" transform="translate(-181.032 -305.091)"/></g></g><g transform="translate(2.691 3.555)"><rect class="g" width="36.096" height="34.654"/><g transform="translate(3.836 2.933)"><g transform="translate(10.369 2.837)"><path class="b" d="M230.261,182.455c.009.9.082,1.433.09,2.334a.78.78,0,0,0,.195.624.513.513,0,0,0,.539.026,1.341,1.341,0,0,0,.42-.378,7.845,7.845,0,0,0,1.73-4.321.527.527,0,0,0-.077-.39c-.141-.164-.405-.1-.6-.015a4.9,4.9,0,0,0-2.295,2.12" transform="translate(-224.2 -171.051)"/><path class="h" d="M213.261,155.074l.018.9.181,13.473a2.89,2.89,0,0,0,3.057,2.757h0a3.053,3.053,0,0,0,3.07-2.925c0-1.659.041-3.405.041-3.405a3.473,3.473,0,0,0,2.58-3.143,29.82,29.82,0,0,0,.033-5.518,2.944,2.944,0,0,0-3.247-2.745Z" transform="translate(-213.261 -154.451)"/><g transform="translate(7.073 3.568)"><g transform="translate(0.12 0.453)"><path class="b" d="M234.152,166.054a.357.357,0,0,1-.345.361.342.342,0,0,1-.369-.322.357.357,0,0,1,.344-.361A.342.342,0,0,1,234.152,166.054Z" transform="translate(-233.438 -165.731)"/></g><path class="b" d="M234.515,164.836c-.044.047-.315-.154-.7-.153s-.667.194-.709.146c-.02-.021.025-.1.148-.195a.982.982,0,0,1,.567-.175.941.941,0,0,1,.557.18C234.5,164.731,234.537,164.815,234.515,164.836Z" transform="translate(-233.102 -164.46)"/></g><g transform="translate(3.291 3.64)"><g transform="translate(0.196 0.381)"><path class="b" d="M223.756,166.054a.358.358,0,0,1-.345.361.342.342,0,0,1-.369-.322.357.357,0,0,1,.344-.361A.342.342,0,0,1,223.756,166.054Z" transform="translate(-223.042 -165.731)"/></g><path class="b" d="M223.906,165.038c-.044.047-.316-.154-.7-.153s-.667.194-.708.147c-.02-.021.024-.105.148-.195a.981.981,0,0,1,.567-.175.942.942,0,0,1,.557.18C223.887,164.933,223.928,165.017,223.906,165.038Z" transform="translate(-222.493 -164.662)"/></g><g transform="translate(5.921 3.663)"><path class="b" d="M230.049,167.933a2.558,2.558,0,0,1,.625-.113c.1-.01.191-.03.208-.1a.5.5,0,0,0-.066-.291l-.291-.748a12.909,12.909,0,0,1-.653-1.957,12.821,12.821,0,0,1,.809,1.9l.278.753a.569.569,0,0,1,.051.386.246.246,0,0,1-.161.144.682.682,0,0,1-.167.023A2.525,2.525,0,0,1,230.049,167.933Z" transform="translate(-229.868 -164.727)"/></g><g transform="translate(2.633 10.427)"><path class="k" d="M224.38,184.694a7.094,7.094,0,0,1-3.734-1,3.535,3.535,0,0,0,3.7,1.655Z" transform="translate(-220.646 -183.698)"/></g><g transform="translate(4.79 7.535)"><path class="k" d="M227.846,175.849a.693.693,0,0,0-.622-.257.632.632,0,0,0-.437.235.4.4,0,0,0-.03.458.465.465,0,0,0,.5.128,1.453,1.453,0,0,0,.492-.293.422.422,0,0,0,.11-.114.128.128,0,0,0,0-.143" transform="translate(-226.698 -175.588)"/></g><g transform="translate(4.906 7.136)"><path class="b" d="M227.085,174.467c.062,0,.063.414.421.711s.8.25.805.309c.006.026-.1.081-.287.086a1.039,1.039,0,0,1-.672-.234.906.906,0,0,1-.326-.6C227.01,174.568,227.057,174.464,227.085,174.467Z" transform="translate(-227.023 -174.467)"/></g><path class="b" d="M224.536,154.981a1.267,1.267,0,0,1,.705.538,6.314,6.314,0,0,0,.533.733,1.617,1.617,0,0,0,1.873.284c.226.217.522.451.817.35a.533.533,0,0,0,.329-.408.926.926,0,0,0-.078-.535,2.325,2.325,0,0,0-1.768-1.185,5,5,0,0,0-2.655.206" transform="translate(-220.36 -154.59)"/></g><g transform="translate(0 16.72)"><path class="c" d="M192,208.508c.134.232-.854-3.095-.854-3.095l-.827,3.041-6.14.046s3.47-11.342,5.118-12.925c2.151-2.066,6.183-2.179,6.183-2.179l6.226.1.138.015a7.633,7.633,0,0,1,5.9,4.171l4.134,10.713h-5.459l-1.164-3.161.388,3.161" transform="translate(-184.177 -193.395)"/></g><g transform="translate(6.512)"><path class="f" d="M216.271,162.949c-.19-.447-.872-.431-1.174-.813-.329-.416-.038-1.014.207-1.485,1.18-2.276,1.062-4.982.847-7.537a9.122,9.122,0,0,0-.678-3.2,6.355,6.355,0,0,0-6.075-3.41c-2.314.09-4.073,2.178-5.327,4.125a11.2,11.2,0,0,0-1.507,7.287c.206,1.141,1.436,2.02,1.211,3.158-.142.717-.892,1.576-.745,2.292.2.977,1.619,1.318,2.449,1.871a18.769,18.769,0,0,1,2.314,2.026,7.276,7.276,0,0,0,2.542,1.7,3.1,3.1,0,0,0,2.924-.384c1.293-1.063,1.169-3.183,2.346-4.374C215.96,163.839,216.468,163.413,216.271,162.949Zm-1.826-12.328a5.753,5.753,0,0,1,.625,2.489,14.8,14.8,0,0,1,.05,4.34,6.821,6.821,0,0,1-1.894,3.839,4.466,4.466,0,0,1-4,1.21c-1.587-.375-2.1-1.766-2.545-3.334s.552-2.992,1-4.56c.344-1.208.473-2.912,1.253-3.9a3.106,3.106,0,0,1,2.458-1.034S213.493,149.186,214.445,150.621Z" transform="translate(-202.443 -146.495)"/><g class="p" transform="translate(0.744 14.378)"><path d="M204.529,188.162a11.639,11.639,0,0,1,2.445,2.07,6.211,6.211,0,0,0,2.657,1.743,2.513,2.513,0,0,0,2.817-.989,6.624,6.624,0,0,1-7.113-4.163" transform="translate(-204.529 -186.824)"/></g><g class="p" transform="translate(10.495 15.051)"><path d="M233.886,188.712a2.739,2.739,0,0,1-1.394,1.736,1.853,1.853,0,0,0-.449.264.436.436,0,0,0-.137.47.422.422,0,0,0,.5.185,1.234,1.234,0,0,0,.477-.332,3.6,3.6,0,0,0,1.193-1.731" transform="translate(-231.881 -188.712)"/></g></g></g></g></g><g transform="translate(29.388 51.75)"><g transform="translate(153.466 0)"><circle class="q" cx="5.223" cy="5.223" r="5.223" transform="translate(0 10.163) rotate(-76.632)"/><g transform="translate(5.496 4.063)"><path class="b" d="M587.016,230.837a5.386,5.386,0,0,1,.734-.679c.468-.4,1.124-.947,1.858-1.542l0,.142-.036-.032c-.722-.626-1.368-1.2-1.83-1.625a5.539,5.539,0,0,1-.722-.714,5.483,5.483,0,0,1,.808.615c.484.4,1.144.957,1.866,1.584l.037.032.083.072-.086.07c-.734.595-1.4,1.124-1.893,1.5A5.39,5.39,0,0,1,587.016,230.837Z" transform="translate(-587.015 -226.387)"/></g></g><g transform="translate(0 0.006)"><circle class="q" cx="5.223" cy="5.223" r="5.223" transform="translate(0 10.166) rotate(-76.718)"/><g transform="translate(4.282 4.058)"><path class="b" d="M155.933,226.388a5.388,5.388,0,0,1-.734.679c-.468.4-1.124.947-1.858,1.542l0-.142.036.032c.722.627,1.368,1.2,1.83,1.625a5.528,5.528,0,0,1,.722.714,5.535,5.535,0,0,1-.809-.615c-.484-.4-1.144-.957-1.866-1.583l-.037-.032-.083-.073.086-.07c.734-.595,1.4-1.124,1.893-1.5A5.353,5.353,0,0,1,155.933,226.388Z" transform="translate(-153.139 -226.387)"/></g></g></g><g transform="translate(71.358 2.222)"><path class="c" d="M280.136,80.764a40.077,40.077,0,0,0,7.065,73.714h0a40.049,40.049,0,0,0,36.389-6.756l33.773,42.247,5.167-4.13-34.058-42.6a39.837,39.837,0,0,0,8.783-15.344,40.809,40.809,0,0,0,1.049-4.213,40.081,40.081,0,0,0-58.169-42.915Zm28.6,3.4a33.461,33.461,0,1,1-25.494,2.443A33.241,33.241,0,0,1,308.733,84.163Z" transform="translate(-258.855 -76.063)"/></g></svg>