<svg xmlns="http://www.w3.org/2000/svg" viewBox="0 0 25.206 20"><g transform="translate(0 -4.07)"><path class="a" d="M21.493,14.871v7.92a1.279,1.279,0,0,1-1.279,1.279H4.991a1.279,1.279,0,0,1-1.279-1.279v-7.92a1.277,1.277,0,0,1,.6-1.085l7.611-4.754a1.279,1.279,0,0,1,1.355,0l7.611,4.754A1.275,1.275,0,0,1,21.493,14.871Zm3.112-3.535L13.281,4.265a1.279,1.279,0,0,0-1.355,0L.6,11.336a1.279,1.279,0,0,0,1.355,2.171L12.6,6.857l10.645,6.648a1.279,1.279,0,0,0,1.357-2.169Z" transform="translate(0)"/></g></svg>