<svg xmlns="http://www.w3.org/2000/svg" width="16.813" height="16.15" viewBox="0 0 16.813 16.15"><defs><style>.a{fill:#808385;}</style></defs><g transform="translate(0 -0.271)"><g transform="translate(0 0.271)"><path class="a" d="M16.244,5.6a1.618,1.618,0,0,0-.838-.386L11.573,4.66,9.859,1.187a1.622,1.622,0,0,0-2.911,0L5.234,4.66,1.4,5.217A1.622,1.622,0,0,0,.5,7.985l2.773,2.7-.655,3.817a1.622,1.622,0,0,0,2.355,1.711l3.428-1.8,3.428,1.8a1.623,1.623,0,0,0,2.355-1.711l-.655-3.817,2.773-2.7A1.625,1.625,0,0,0,16.244,5.6ZM15.47,7.129l-3.063,2.985a.427.427,0,0,0-.123.378l.723,4.215a.426.426,0,0,1-.62.45L8.6,13.168a.427.427,0,0,0-.4,0l-3.786,1.99a.426.426,0,0,1-.62-.45l.723-4.215a.427.427,0,0,0-.123-.378L1.337,7.129A.427.427,0,0,1,1.574,6.4l4.232-.615a.427.427,0,0,0,.322-.234L8.021,1.716a.427.427,0,0,1,.766,0L10.68,5.552A.427.427,0,0,0,11,5.785l4.232.615A.427.427,0,0,1,15.47,7.129Z" transform="translate(0.003 -0.268)"/><path class="a" d="M12.589,16.421a1.644,1.644,0,0,1-.762-.189l-3.421-1.8-3.421,1.8a1.637,1.637,0,0,1-2.376-1.726l.653-3.81L.495,8A1.636,1.636,0,0,1,1.4,5.205L5.227,4.65,6.938,1.183a1.636,1.636,0,0,1,2.936,0L11.585,4.65l3.825.556A1.636,1.636,0,0,1,16.318,8L13.55,10.7l.653,3.81a1.638,1.638,0,0,1-1.614,1.915ZM8.406,14.4l.007,0,3.428,1.8a1.609,1.609,0,0,0,2.335-1.7l-.656-3.824L16.3,7.978a1.608,1.608,0,0,0-.892-2.745l-3.84-.558,0-.007L9.849,1.2a1.608,1.608,0,0,0-2.886,0L5.246,4.675H5.239l-3.832.557A1.608,1.608,0,0,0,.514,7.978l2.778,2.708v.007L2.637,14.51a1.608,1.608,0,0,0,2.335,1.7Zm4.183.823a.437.437,0,0,1-.205-.052L8.6,13.183a.42.42,0,0,0-.385,0l-3.786,1.99a.437.437,0,0,1-.205.052.443.443,0,0,1-.339-.159.432.432,0,0,1-.1-.358l.723-4.215a.413.413,0,0,0-.119-.366L1.33,7.141a.441.441,0,0,1,.245-.752l4.232-.615a.413.413,0,0,0,.311-.226L8.011,1.713a.441.441,0,0,1,.791,0l1.893,3.835a.413.413,0,0,0,.311.226l4.232.615a.441.441,0,0,1,.245.752L12.42,10.127a.413.413,0,0,0-.119.366l.723,4.215a.432.432,0,0,1-.1.357A.443.443,0,0,1,12.589,15.224ZM8.406,13.107a.443.443,0,0,1,.205.051l3.786,1.99a.41.41,0,0,0,.192.048.415.415,0,0,0,.317-.149.4.4,0,0,0,.09-.335L12.274,10.5a.441.441,0,0,1,.127-.39l3.063-2.985a.413.413,0,0,0-.229-.7L11,5.8a.441.441,0,0,1-.332-.241L8.777,1.725a.413.413,0,0,0-.741,0L6.143,5.56a.441.441,0,0,1-.332.241l-4.232.615a.413.413,0,0,0-.229.7l3.063,2.985a.441.441,0,0,1,.127.39l-.723,4.215a.4.4,0,0,0,.09.335.415.415,0,0,0,.317.149.41.41,0,0,0,.192-.048L8.2,13.158A.443.443,0,0,1,8.406,13.107Z" transform="translate(0 -0.271)"/></g></g></svg>