<svg xmlns="http://www.w3.org/2000/svg" width="173.731" height="132.775" viewBox="0 0 173.731 132.775"><defs><style>.a{fill:#e5f4ff;}.a,.h{stroke:rgba(0,0,0,0);stroke-miterlimit:10;}.b{fill:#ffbe9d;}.c,.h{fill:#263238;}.d{fill:#fff;}.e{fill:#eb996e;}.f{fill:#455a64;}.g{fill:#465d84;}.i{fill:#f89d1f;}.j{fill:#5ab7f6;}.k{opacity:0.2;}</style></defs><path class="a" d="M123.114,107.725H14.392A58.134,58.134,0,0,1,5.908,95.9,48.362,48.362,0,0,1,.656,81.083L.64,81.069l-.019-.016a36.017,36.017,0,0,1-.53-4.1l0-.03c0-.018,0-.033-.005-.049h0a35.96,35.96,0,0,1,.471-8.788L.55,68.076l-.018-.015A23.016,23.016,0,0,1,3.6,60.1a18.254,18.254,0,0,1,13.632-8.382,21.587,21.587,0,0,0,8.316-3.193A51.833,51.833,0,0,0,39.5,32.971l0-.018v0l0-.009c.837-1.374,1.6-2.609,2.272-3.669l.076-.127.011-.019.01-.016.106-.177c.369-.588.768-1.2,1.188-1.82l.016-.024.029-.044h0A61.737,61.737,0,0,1,151.618,38.873l0,0c.02.051.04.1.06.154l.051.133c.069.176.141.361.218.565l0,.01v0c.074.193.15.394.223.591l.02.052,0,0,.024.063h0a61.7,61.7,0,0,1,3.593,16.345l0,0v.017c0,.025,0,.047,0,.071a40.881,40.881,0,0,1-1.649,15.42,44.849,44.849,0,0,1-2.839,7.046,52.178,52.178,0,0,1-3.978,6.6,69.35,69.35,0,0,1-10.762,11.822,101.745,101.745,0,0,1-13.481,9.958Z" transform="translate(17.265 24.55)"/><g transform="translate(94.993)"><g transform="translate(3.057 6.236)"><g transform="translate(0 1.558)"><path class="b" d="M488.606,167.467l-15.346-1.226c-.1-1.792.033-8.723.033-8.723s-6.385-.993-6.463-7.377,1.028-21.042,1.028-21.042h0a22.189,22.189,0,0,1,22.293,2.8l.945.728Z" transform="translate(-466.825 -127.298)"/><g transform="translate(0.941 10.409)"><g transform="translate(0.01 0.75)"><path class="c" d="M469.441,141.412a.927.927,0,1,0-1.31-.063A.926.926,0,0,0,469.441,141.412Z" transform="translate(-467.891 -139.799)"/></g><path class="c" d="M467.891,139.865c.1.111.727-.372,1.606-.376s1.518.45,1.615.337c.047-.05-.053-.249-.331-.461a2.167,2.167,0,0,0-2.57.03C467.938,139.614,467.843,139.816,467.891,139.865Z" transform="translate(-467.879 -138.958)"/></g><g transform="translate(10.49 11.183)"><g transform="translate(0.151 0.762)"><path class="c" d="M479.187,140.816a.927.927,0,1,0,1.275.3A.927.927,0,0,0,479.187,140.816Z" transform="translate(-478.745 -140.679)"/></g><path class="c" d="M478.589,140.732c.1.111.728-.371,1.606-.376s1.518.45,1.615.337c.047-.051-.053-.25-.33-.462a2.166,2.166,0,0,0-2.571.031C478.635,140.482,478.54,140.683,478.589,140.732Z" transform="translate(-478.577 -139.825)"/></g><g transform="translate(4.694 11.7)"><path class="c" d="M474.367,148.047a4.266,4.266,0,0,0-1.421-.3c-.23-.025-.411-.078-.428-.2a1.256,1.256,0,0,1,.165-.659c.226-.581.455-1.169.695-1.786a24.44,24.44,0,0,0,1.505-4.7,24.542,24.542,0,0,0-1.973,4.52l-.658,1.8a1.465,1.465,0,0,0-.126.956.6.6,0,0,0,.4.367,1.432,1.432,0,0,0,.392.051A4.271,4.271,0,0,0,474.367,148.047Z" transform="translate(-472.083 -140.403)"/></g><g transform="translate(5.522 20.315)"><path class="d" d="M477.323,150.054a16.438,16.438,0,0,1-4.312,1.252,2.431,2.431,0,0,0,2.867.968C477.789,151.575,477.323,150.054,477.323,150.054Z" transform="translate(-473.011 -150.054)"/></g><g transform="translate(6.442 27.764)"><path class="e" d="M474.056,160.763a14.841,14.841,0,0,0,8.322-2.365s-1.967,4.594-8.336,4.019Z" transform="translate(-474.042 -158.398)"/></g></g><g transform="translate(0.9)"><path class="c" d="M467.834,130.519a10.639,10.639,0,0,0,8.962.019c3.43-1.406,7.346-1.927,8.147-1.2s.728,4.149,3.932,5.388c0,0-.707,6.487,1.9,6.446s1.735-10.232,1.735-10.232l-6.114-3.567-6.826-1.82-6.59.437L467.834,127Z" transform="translate(-467.834 -125.553)"/></g><g transform="translate(23.235 13.302)"><path class="b" d="M493.1,140.655c.109-.047,4.386-1.3,4.247,3.067s-4.492,3.324-4.5,3.2S493.1,140.655,493.1,140.655Z" transform="translate(-492.852 -140.453)"/><g transform="translate(1.382 1.429)"><path class="e" d="M494.4,145.481c.02-.013.074.055.2.119a.764.764,0,0,0,.568.03,1.883,1.883,0,0,0,.924-1.66,2.516,2.516,0,0,0-.178-1.1.88.88,0,0,0-.554-.6.387.387,0,0,0-.455.195c-.062.12-.037.208-.061.214s-.091-.076-.051-.254a.492.492,0,0,1,.181-.269.578.578,0,0,1,.424-.1,1.069,1.069,0,0,1,.772.7,2.581,2.581,0,0,1,.225,1.226,1.976,1.976,0,0,1-1.17,1.849.815.815,0,0,1-.692-.138C494.409,145.587,494.388,145.488,494.4,145.481Z" transform="translate(-494.4 -142.054)"/></g></g><g transform="translate(1.269 10.423)"><path class="c" d="M472.206,138.245c-.142.254-.979.048-1.977.014-1-.055-1.85.076-1.969-.19-.13-.244.744-.9,2.015-.836S472.358,138.014,472.206,138.245Z" transform="translate(-468.247 -137.229)"/></g><g transform="translate(11.062 10.423)"><path class="c" d="M483.176,138.245c-.142.254-.978.048-1.977.014-1-.055-1.85.076-1.969-.19-.13-.244.744-.9,2.015-.836S483.328,138.014,483.176,138.245Z" transform="translate(-479.217 -137.229)"/></g></g><path class="c" d="M486.222,129.5a14.918,14.918,0,0,0,2.535,2.94,5.034,5.034,0,0,0,3.58,1.257,3.073,3.073,0,0,0,2.759-2.347,2.234,2.234,0,0,0-2.169-2.585,1.354,1.354,0,1,0-.479-2.512c1.119-.063,1.467-1.781.686-2.584a3.255,3.255,0,0,0-3.159-.534,19.462,19.462,0,0,1-3.23.9,7.227,7.227,0,0,1-4.8-1.861,20.6,20.6,0,0,0-4.3-3.009,9.787,9.787,0,0,0-6.348-.137,10.186,10.186,0,0,0-4.654,2.55,5.977,5.977,0,0,0-1.768,4.875,4.265,4.265,0,0,0,3.434,3.636,11.552,11.552,0,0,0,7.5-1.07c3.559-1.99,10.365-.783,10.365-.783Z" transform="translate(-463.554 -118.568)"/><g transform="translate(3.229 4.321)"><path class="f" d="M493.113,125.781c.007.015-.087.072-.274.167a9.162,9.162,0,0,1-.836.374,14.242,14.242,0,0,1-3.267.832,15.1,15.1,0,0,1-5.005-.171,36.678,36.678,0,0,1-5.771-2.007,12.709,12.709,0,0,0-5.822-1.085,5.667,5.667,0,0,0-4.113,2.193,4.31,4.31,0,0,0-.731,3.086,6.959,6.959,0,0,0,.356,1.155c-.013.009-.08-.079-.2-.256a3.186,3.186,0,0,1-.337-.864,4.36,4.36,0,0,1,.636-3.3,5.934,5.934,0,0,1,4.337-2.437,12.816,12.816,0,0,1,6.037,1.076,39.322,39.322,0,0,0,5.694,2.022,15.494,15.494,0,0,0,4.878.264A22.3,22.3,0,0,0,493.113,125.781Z" transform="translate(-467.018 -123.408)"/></g><g transform="translate(23.665 13.601)"><path class="f" d="M496.64,133.807c.045.03-.15.434-.685.908a4.431,4.431,0,0,1-5.216.439c-.606-.379-.865-.744-.826-.782.048-.054.38.214.982.492a4.793,4.793,0,0,0,4.858-.408C496.3,134.082,496.583,133.762,496.64,133.807Z" transform="translate(-489.91 -133.803)"/></g><g transform="translate(26.336 11.292)"><path class="f" d="M495.894,131.226c.1.066-.329.806-1.238,1.27s-1.76.395-1.753.272.738-.263,1.54-.685S495.789,131.141,495.894,131.226Z" transform="translate(-492.902 -131.217)"/></g><g transform="translate(1.33 10.968)"><path class="c" d="M465.029,133.687c-.059.006-.154-.221-.136-.612a2.406,2.406,0,0,1,1.86-2.183c.383-.079.622-.022.626.037.021.129-.9.261-1.563,1.049S465.159,133.687,465.029,133.687Z" transform="translate(-464.891 -130.853)"/></g><g transform="translate(0 7.33)"><path class="f" d="M463.437,126.78a17.378,17.378,0,0,0,1.466,2.253,17.336,17.336,0,0,0,2.1,1.677,4.387,4.387,0,0,1-3.566-3.931Z" transform="translate(-463.401 -126.779)"/></g></g><path class="b" d="M398.688,214.428s18.987,24.134,28.209,19.666,25.762-19.666,25.762-19.666l-9.152-9.2L424.95,221.542l-22.858-13.02Z" transform="translate(-361.466 -127.864)"/><path class="g" d="M500.221,246.783l-48.411-2.3c-.127-5.29,2.1-42.775,2.1-42.775l-2.654,4.98-13.794-12.3,12.053-16.291a23.871,23.871,0,0,1,15.967-9.443c1.872-.254,3.294-.379,4.218-.495a27.146,27.146,0,0,0,16.362-.01h0a22.307,22.307,0,0,1,6.775,1.3,27.9,27.9,0,0,1,10.809,7l0,0,14.435,24.26L500.58,211.71l-2.525-7.631Z" transform="translate(-365.625 -123.886)"/><path class="h" d="M50.349,11.361H.511L0,0H48.2l2.145,11.361Z" transform="translate(86.391 120.598)"/><g transform="translate(0 0.195)"><g transform="translate(32.35 24.801)"><path class="i" d="M406.787,155.007s-18.09,13.412-12.476,33.686,18.4,22.458,24.641,24.954,21.209,6.862,28.383,16.219l24.017-18.4A80.476,80.476,0,0,1,462,181.52c-1.871-17.467-9.357-25.577-15.283-29.32S424.567,140.347,406.787,155.007Z" transform="translate(-393.23 -146.568)"/><g transform="translate(18.399 21.611)"><path class="c" d="M464.622,219.763s-.126-.1-.354-.322l-1.008-.978-3.833-3.8c-3.3-3.328-8.1-8.132-13.623-14.454-1.372-1.586-2.8-3.261-4.226-5.051s-2.921-3.649-4.289-5.718a19.987,19.987,0,0,1-3.1-7.012,11.337,11.337,0,0,1,1.182-7.984,7.635,7.635,0,0,1,7.462-3.6,5.685,5.685,0,0,1,3.839,2.25,7.277,7.277,0,0,1,1.322,4.351,9.758,9.758,0,0,1-1.16,4.477,19.013,19.013,0,0,1-2.692,3.83,53.524,53.524,0,0,1-6.927,6.5,55.049,55.049,0,0,1-7.9,5.285,17.836,17.836,0,0,1-4.389,1.636,11.623,11.623,0,0,1-4.623.091,8.721,8.721,0,0,1-4.125-1.921,6.762,6.762,0,0,1-2.209-3.874,6.026,6.026,0,0,1,.7-4.308,5.4,5.4,0,0,1,3.537-2.376,8.048,8.048,0,0,1,4.159.279,11.03,11.03,0,0,1,3.494,2.046A45.05,45.05,0,0,1,431,194.785l8.729,10.577L452.345,220.7l3.411,4.184.878,1.1c.2.249.287.384.287.384s-.116-.115-.323-.354l-.914-1.066-3.478-4.129-12.728-15.241-8.772-10.54a44.881,44.881,0,0,0-5.115-5.61,10.615,10.615,0,0,0-3.364-1.962,7.621,7.621,0,0,0-3.938-.257,4.967,4.967,0,0,0-3.256,2.186,5.6,5.6,0,0,0-.634,3.994A6.312,6.312,0,0,0,416.468,197a8.269,8.269,0,0,0,3.914,1.813,13.482,13.482,0,0,0,8.717-1.69,54.694,54.694,0,0,0,7.827-5.239,53.259,53.259,0,0,0,6.868-6.444,18.564,18.564,0,0,0,2.629-3.734,9.3,9.3,0,0,0,1.114-4.269,6.835,6.835,0,0,0-1.229-4.083,5.238,5.238,0,0,0-3.539-2.077,7.2,7.2,0,0,0-7.035,3.387,10.929,10.929,0,0,0-1.145,7.682,19.643,19.643,0,0,0,3.022,6.879c1.345,2.049,2.835,3.909,4.248,5.7s2.833,3.469,4.195,5.06c5.478,6.339,10.242,11.176,13.5,14.543l3.772,3.864.974,1.011C464.518,219.637,464.622,219.763,464.622,219.763Z" transform="translate(-413.841 -170.776)"/></g><path class="j" d="M453.534,237.245l23.928-18.692,11.824,15.1-.678,13.71-8.986,7.423-14.968-3.447Z" transform="translate(-399.699 -154.29)"/><path class="j" d="M491.726,250.81a8.189,8.189,0,0,0-6.34,1.707,8.009,8.009,0,0,0-2.787,5.861Z" transform="translate(-402.817 -157.741)"/><g transform="translate(65.186 78.587)"><path class="c" d="M489.058,234.609a6.678,6.678,0,0,1-1.164.283c-.752.161-1.833.423-3.139.838a29.427,29.427,0,0,0-16.415,12.962c-.707,1.174-1.212,2.164-1.544,2.858a6.758,6.758,0,0,1-.545,1.067,5.25,5.25,0,0,1,.379-1.14,24.352,24.352,0,0,1,1.425-2.95,27.938,27.938,0,0,1,16.6-13.111,24.328,24.328,0,0,1,3.2-.7A5.313,5.313,0,0,1,489.058,234.609Z" transform="translate(-466.249 -234.598)"/></g><g transform="translate(62.409 74.848)"><path class="c" d="M485.948,230.421a6.661,6.661,0,0,1-1.165.283c-.751.161-1.832.423-3.138.838A29.426,29.426,0,0,0,465.231,244.5c-.707,1.174-1.212,2.165-1.544,2.858a6.7,6.7,0,0,1-.545,1.068,5.376,5.376,0,0,1,.379-1.141,24.389,24.389,0,0,1,1.426-2.95,27.938,27.938,0,0,1,16.6-13.111,24.443,24.443,0,0,1,3.2-.7A5.362,5.362,0,0,1,485.948,230.421Z" transform="translate(-463.138 -230.41)"/></g><g transform="translate(59.552 71.455)"><path class="c" d="M482.748,226.62a6.7,6.7,0,0,1-1.165.283c-.751.162-1.832.423-3.138.838A29.431,29.431,0,0,0,462.03,240.7c-.706,1.174-1.211,2.165-1.543,2.858a6.684,6.684,0,0,1-.545,1.068,5.356,5.356,0,0,1,.379-1.14,24.416,24.416,0,0,1,1.425-2.951,27.947,27.947,0,0,1,16.6-13.11,24.31,24.31,0,0,1,3.2-.7A5.366,5.366,0,0,1,482.748,226.62Z" transform="translate(-459.938 -226.609)"/></g><g class="k" transform="translate(3.116 17.006)"><path class="d" d="M426.686,210.179c-.05.624-.94,1.186-2.615,1.473a17.192,17.192,0,0,1-7.04-.555,26.422,26.422,0,0,1-9.474-4.81,28.056,28.056,0,0,1-10.809-23.448,26.427,26.427,0,0,1,2.5-10.328,17.193,17.193,0,0,1,4.15-5.713c1.306-1.086,2.311-1.4,2.818-1.031,1.094.8-.072,3.955-.7,8.724a35.9,35.9,0,0,0-.2,8.209,27.312,27.312,0,0,0,7.913,17.166,35.9,35.9,0,0,0,6.37,5.18C423.631,207.665,426.788,208.827,426.686,210.179Z" transform="translate(-396.721 -165.618)"/></g><g class="k" transform="translate(39.513 62.263)"><path class="d" d="M445.285,218.312a4.252,4.252,0,1,1-6.164-1.236A4.457,4.457,0,0,1,445.285,218.312Z" transform="translate(-437.491 -216.313)"/></g></g><g transform="translate(0 60.571)"><path class="c" d="M378.218,186.868c0,.129-4.752.233-10.613.233s-10.613-.1-10.613-.233,4.75-.232,10.613-.232S378.218,186.74,378.218,186.868Z" transform="translate(-356.993 -186.636)"/></g><g transform="translate(10.622 47.568)"><path class="c" d="M379.483,174.739a64.128,64.128,0,0,1-10.591-2.65,64.315,64.315,0,0,1,10.591,2.65Z" transform="translate(-368.892 -172.07)"/></g><g transform="translate(14.342 28.859)"><path class="c" d="M389.806,162.588c-.073.105-3.881-2.376-8.505-5.544s-8.315-5.821-8.243-5.928,3.88,2.376,8.505,5.544S389.879,162.482,389.806,162.588Z" transform="translate(-373.058 -151.113)"/></g><g transform="translate(35.494 20.178)"><path class="c" d="M403.709,148.346a26.1,26.1,0,0,1-3.641-3.312,26.261,26.261,0,0,1-3.313-3.641,26.141,26.141,0,0,1,3.641,3.312A26.288,26.288,0,0,1,403.709,148.346Z" transform="translate(-396.752 -141.39)"/></g><g transform="translate(50.631)"><path class="c" d="M422.315,140.452c-.12.047-2.142-4.764-4.516-10.746s-4.2-10.872-4.085-10.919,2.142,4.764,4.517,10.747S422.433,140.4,422.315,140.452Z" transform="translate(-413.708 -118.787)"/></g><g transform="translate(73.856 7.739)"><path class="c" d="M440.523,138.435a32.868,32.868,0,0,1-.6-5.474,32.85,32.85,0,0,1-.134-5.5,32.609,32.609,0,0,1,.6,5.474A32.723,32.723,0,0,1,440.523,138.435Z" transform="translate(-439.724 -127.456)"/></g><g transform="translate(84.238 2.956)"><path class="c" d="M457.79,122.1c.123.037-1.217,4.749-2.991,10.523s-3.314,10.423-3.437,10.386,1.217-4.748,2.992-10.523S457.667,122.06,457.79,122.1Z" transform="translate(-451.353 -122.098)"/></g></g><path class="b" d="M518.334,206.009l-14.282,8.984,2.313,6.07L474.4,234.215l-8.749.4-6.453-1.2s-.569.751.518,1.908a9.183,9.183,0,0,0,3.4,1.594l-4.822,4.366,6.263,7.936,21.43-5.18c11.861-2.015,40.115-7.678,40.221-15.927C526.3,220.67,518.334,206.009,518.334,206.009Z" transform="translate(-367.86 -127.948)"/><path class="b" d="M396.766,189.492c.329-.977,1.133-1.671,2.009-1.213h0a1.566,1.566,0,0,1,.288,1.507l-2.8,9.109,0,.007,2.65-6.438c.33-.977,1.214-1.564,1.824-1.035a1.617,1.617,0,0,1,.213,1.477l-2.417,7.561,1.967-4.727c.411-1.079.894-1.367,1.442-1.132s.564,1.037.429,1.461l-1.664,5.583c.357,1.071,1.591,4.447.405,6.347-.06.1.118.409.114.515l.562.644-3.632,3.435c-1.879-1.673-3.616-8.689-4.161-11.351a8.422,8.422,0,0,1,.2-4.55Z" transform="translate(-360.94 -126.03)"/></svg>