<svg xmlns="http://www.w3.org/2000/svg" width="21.39" height="21.39" viewBox="0 0 21.39 21.39"><defs><style>.a{fill:#6a80f7;}</style></defs><path class="a" d="M9.093,152.8a.964.964,0,0,1,1.361,0l1.842,1.842a.34.34,0,0,0,.481,0l1.842-1.842a.34.34,0,0,0,0-.481l-1.842-1.842a4.247,4.247,0,0,0-6.007,0L1.244,156a4.246,4.246,0,0,0,0,6.007l1.842,1.842a4.246,4.246,0,0,0,6.007,0l3.114-3.114a.34.34,0,0,0-.24-.58h-.023c-.11.007-.221.011-.33.011a4.878,4.878,0,0,1-2.46-.665.34.34,0,0,0-.412.053l-1.972,1.972a.963.963,0,0,1-1.361,0l-1.842-1.842a.962.962,0,0,1,0-1.361Z" transform="translate(0 -143.702)"/><path class="a" d="M193.6,3.086,191.76,1.244a4.247,4.247,0,0,0-6.007,0l-3.114,3.115a.34.34,0,0,0,.24.58h.023c.111-.007.223-.011.333-.011a4.842,4.842,0,0,1,2.454.665.34.34,0,0,0,.413-.053l1.973-1.973a.964.964,0,0,1,1.361,0l1.842,1.842a.965.965,0,0,1,0,1.362L185.753,12.3a.963.963,0,0,1-1.362,0l-1.842-1.842a.34.34,0,0,0-.481,0L180.227,12.3a.34.34,0,0,0,0,.481l1.842,1.842a4.246,4.246,0,0,0,6.007,0L193.6,9.093a4.247,4.247,0,0,0,0-6.007Z" transform="translate(-173.456 0)"/></svg>