<svg xmlns="http://www.w3.org/2000/svg" width="50" height="50.024" viewBox="0 0 50 50.024"><defs><style>.a{fill:#d5d5d5;}</style></defs><g transform="translate(0)"><ellipse class="a" cx="4.505" cy="4.505" rx="4.505" ry="4.505" transform="translate(20.566 14.082)"/><path class="a" d="M25,0A25.012,25.012,0,1,0,50,25.012,25.006,25.006,0,0,0,25,0Zm-.052,11.452.052,0,.052,0a7.8,7.8,0,0,1,7.639,7.765c0,5.154-5.5,10.373-7.691,12.242-.146-.125-.308-.266-.482-.42l-.008-.007c-2.421-2.152-7.2-7.011-7.2-11.815A7.8,7.8,0,0,1,24.949,11.452Zm.161,27.275c-4.611,0-9.278-1.323-9.278-3.852,0-1.774,2.3-2.954,5.262-3.5.573.576,1.116,1.085,1.592,1.509-3.228.361-5.124,1.383-5.124,1.991,0,.748,2.866,2.122,7.549,2.122s7.55-1.374,7.55-2.122c0-.621-1.976-1.669-5.321-2.01.48-.429,1.027-.942,1.6-1.524,3.052.532,5.446,1.723,5.446,3.535C34.388,37.4,29.72,38.727,25.11,38.727Z" transform="translate(-0.001)"/></g></svg>