<svg xmlns="http://www.w3.org/2000/svg" viewBox="0 0 20.235 20.235"><defs></defs><g transform="translate(0 -0.008)"><path class="a" d="M285.974,209.273h-8.01a.632.632,0,1,1,0-1.265h8.01a.632.632,0,1,1,0,1.265Zm0,0" transform="translate(-266.372 -199.78)"/><path class="a" d="M400.636,135.56a.633.633,0,0,1-.447-1.08l2.715-2.715-2.715-2.715a.633.633,0,1,1,.895-.895l3.162,3.162a.633.633,0,0,1,0,.894l-3.162,3.162A.628.628,0,0,1,400.636,135.56Zm0,0" transform="translate(-384.196 -122.905)"/><path class="a" d="M6.745,20.243a1.737,1.737,0,0,1-.523-.078l-5.074-1.69A1.7,1.7,0,0,1,0,16.87V1.694A1.688,1.688,0,0,1,1.686.008a1.739,1.739,0,0,1,.523.078l5.074,1.69a1.7,1.7,0,0,1,1.148,1.6V18.556a1.688,1.688,0,0,1-1.686,1.686ZM1.686,1.273a.423.423,0,0,0-.422.422V16.87a.438.438,0,0,0,.293.406l5.05,1.683a.458.458,0,0,0,.138.019.423.423,0,0,0,.421-.422V3.38a.438.438,0,0,0-.293-.406L1.823,1.291a.458.458,0,0,0-.137-.019Zm0,0" transform="translate(0 0)"/><path class="a" d="M38.471,6.753a.633.633,0,0,1-.632-.632V2.327a1.055,1.055,0,0,0-1.054-1.054H27.3a.632.632,0,0,1,0-1.265h9.485A2.32,2.32,0,0,1,39.1,2.327V6.121A.633.633,0,0,1,38.471,6.753Zm0,0" transform="translate(-25.614)"/><path class="a" d="M185.337,284.085h-3.373a.632.632,0,0,1,0-1.265h3.373a1.055,1.055,0,0,0,1.054-1.054v-3.794a.632.632,0,0,1,1.265,0v3.794A2.32,2.32,0,0,1,185.337,284.085Zm0,0" transform="translate(-174.166 -266.372)"/></g></svg>