<svg xmlns="http://www.w3.org/2000/svg" viewBox="0 0 156.985 157.679"><defs><style>.a{fill:#dfdfe0;}.b{fill:#3c56f0;}.c,.d{fill:#efb8a3;}.d{opacity:0.3;}.e{fill:#3e3e3e;}.f{fill:#c1c7ca;}.g{fill:#5ab7f6;}.h{fill:#fff;}.i{fill:#f77d0c;}.j{fill:#f89d1f;}.k{fill:none;stroke:#f0d9ca;stroke-miterlimit:10;stroke-width:0.5px;}.l{fill:#808385;}</style></defs><g transform="translate(0 0)"><path class="a" d="M85.827,73.6h-.355l3.151,4.128s5.637.888,17,6.746c0,0,11.14,31.468,12.827,40.433,0,0-2.663,6.436-8.211,4.305S92,122.2,92,122.2,86,131.609,84.628,135.071s-3.373,13.537-4.128,15.49c0,0-23.878.8-38.347-3.506L26.042,130.588s-10.164-.8-3.906-19L47.923,77.017l19.351-1.642L70.426,73.2s.133,6.791.843,8.788A4.379,4.379,0,0,0,74.2,83.142a8.833,8.833,0,0,0,4.838-1.465C79.036,81.722,87.247,76.8,85.827,73.6Z" transform="translate(38.536 -40.727)"/><path class="b" d="M91.222,52.328H69.1L54.761,27.473c-.1.071-13.3,9.766-20.506,15.269a129.421,129.421,0,0,0-10.846,9.585H0L36.075,0l.036.013a39.692,39.692,0,0,0,7.532,1.653A180.3,180.3,0,0,0,69.127,3.152c2.465,0,5.053-.03,7.692-.089.006.018.039.13.1.331,2.161,7.307,9.578,32.432,14.3,48.933Z" transform="translate(42.706 105.351)"/><path class="c" d="M97.583,11.078s-5.681,7.456-5.814,11.14-2.929,8.033-.71,9.587,3.995,2.929,5.814,2.4l-.4,11.984s4.172,7.057,15.667-6.081l-3.151-11.273s5.814-.932,3.995-7.812C111.209,14.229,100.823,5.707,97.583,11.078Z" transform="translate(12.533 -5.235)"/><path class="d" d="M121.037,60.9s2.485,14.691-3.107,15.445a2.359,2.359,0,0,1-1.864-2.4c.133-1.953.533-11.1.533-11.1Z" transform="translate(-7.193 -33.886)"/><path class="e" d="M96.048,23.676a6.462,6.462,0,0,0,7.1-3.728c2.264-4.838.044-9.631-1.42-10.608,0,0-1.376-7.767-8.255-9.054S84.553,3.215,82.822.6c0,0-2.264,2.485-.311,8.255,0,0,1.553-2.929,3.24-3.107,1.642-.178,4.971-.533,9.631,5.459,0,0,.71.71,1.154.71,0,0-2.308,3.062-2,6.214,0,0,2.619-2.929,4.793-1.065C101.152,18.572,98.667,23.054,96.048,23.676Z" transform="translate(25.518 -0.035)"/><path class="f" d="M88.375,89.2,86.6,83.253S96.941,80.9,97.829,73.4l3.506,4.128Z" transform="translate(26.134 -40.838)"/><path class="f" d="M123.975,86.513l4.793-4.572s-2.663-.621-1.953-10.341l-2.974,2.574C123.886,74.219,122.289,82.785,123.975,86.513Z" transform="translate(-17.543 -39.837)"/><path class="g" d="M80.641,163.365l-3.861,5.681-7.634-3.817s3.284-4.971-10.563-18.02-15.49-31.157-16.333-41.543l3.462-.266s2.441,19.839,8.078,27.34C66.749,150.006,81.839,154.222,80.641,163.365Z" transform="translate(66.446 -58.635)"/><path class="f" d="M45.354,160.4,20.1,149.478s1.376-5.06.133-7.678c0,0,32.267,4.571,36.883,6.569,0,0,11.1,2.13,12.339,6.125l2.352,8.566s-2.441,4.927-5.459,4.749C63.418,167.676,45.354,160.4,45.354,160.4Z" transform="translate(85.178 -78.879)"/><path class="h" d="M131.658,142.166s1.687,5.637-.932,8.033l-2.441-.755s1.6-5.237-.089-7.945Z" transform="translate(-23.184 -78.713)"/><path class="h" d="M226.24,177.863s-3.506-2.929-8.566,4.572c0,0-1.154,4.793-2.974,1.287,0,0,2.219-8.788,7.767-7.9Z" transform="translate(-155.626 -97.766)"/><path class="g" d="M123.325,99.072l-3.018,2.619-2.042-1.864L117.6,98.14l3.24-3.24,1.509.355Z" transform="translate(-9.615 -52.796)"/><path class="i" d="M279.456,169.118s-9.942,26.364-66.442-3.418l-5.193,16.821,1.021,4.927C208.8,187.448,294.9,210.661,279.456,169.118Z" transform="translate(-207.644 -92.172)"/><path class="j" d="M163.673,51.834l-2.485,20.993s27.429-5.06,48.378,10.7c21.748,16.333,9.764,55.746-55.7,21.659l-5.5,18.863s91.3,46.115,98.487-16.378C254.127,45.088,163.673,51.834,163.673,51.834Z" transform="translate(-147.207 -28.726)"/><path class="c" d="M149.484,137.55a9.653,9.653,0,0,1-2.574-2.441l-1.154-1.6-5.637-.311-4.527,4.971.355,5.726s1.154.71,1.509-.4l.577,3.995s1.6.488,1.642-.888a19.421,19.421,0,0,1,.533-3.6l2.974-2.264s2.929,5.237,5.681,4.083A10.992,10.992,0,0,0,149.484,137.55Z" transform="translate(-44.117 -74.096)"/><path class="k" d="M158.128,142.408,154,146.713l.089-3.861,2.841-2.752" transform="translate(-60.573 -77.934)"/><path class="c" d="M203,180.6l5.148,1.553.932,7.368s-2,.577-2.485-3.773Z" transform="translate(-133.273 -100.459)"/><path class="c" d="M215.145,179.8l3.906,2.707-.843,4.172-.888,3.994s-1.509.178-1.243-2.8l.089-3.728-2.13,5.637s-2.264.311-.621-5.1l-2.663-.533s-2.707.843-3.151.133C207.644,184.287,212.083,177.763,215.145,179.8Z" transform="translate(-145.286 -99.796)"/><path class="a" d="M287.385,51.364,284.9,72.491a86.827,86.827,0,0,1,21.526.089l4.083-20.772A146.544,146.544,0,0,0,287.385,51.364Z" transform="translate(-271.052 -28.433)"/><path class="a" d="M332.892,172.2s11.229,5.37,13.981,6.48l-6.214,18.33L327.3,191.2Z" transform="translate(-326.235 -95.787)"/><path class="l" d="M332.582,165.5,327.3,182.41l1.11,5.06,5.681-18.73,13.848,6.3-.71-2.752Z" transform="translate(-327.3 -92.06)"/></g></svg>