<svg xmlns="http://www.w3.org/2000/svg" width="58.398" height="58.398" viewBox="0 0 58.398 58.398"><defs><style>.a{fill:#fff;}.b{fill:#d5d5d5;}</style></defs><g transform="translate(0 0)"><g transform="translate(0 0)"><path class="a" d="M6.968,118.343a23.5,23.5,0,0,0,8.323,5.384,24.332,24.332,0,0,0,8.684,1.583q.383,0,.768-.012a25.587,25.587,0,0,0,9.382-2.091,26.4,26.4,0,0,0,8.263-5.617l8.952-8.952-5.2-5.2-3.7-3.7-1.5-1.5L32,107.2c-4.243,4.243-10.808,4.58-14.636.753s-3.49-10.393.753-14.636l8.952-8.952-5.2-5.2-5.2-5.2L7.72,82.923A26.407,26.407,0,0,0,2.1,91.186a25.586,25.586,0,0,0-2.091,9.382,24.4,24.4,0,0,0,1.572,9.452A23.5,23.5,0,0,0,6.968,118.343Z" transform="translate(0 -66.913)"/><path class="b" d="M202,.62l-4.148,4.148,10.475,10.475L212.48,11.1a2.117,2.117,0,0,0,0-2.994L205,.62A2.117,2.117,0,0,0,202,.62Z" transform="translate(-178.977 0)"/><path class="b" d="M456.406,255.021l-4.148,4.148,10.475,10.475,4.148-4.148a2.117,2.117,0,0,0,0-2.994l-7.481-7.481A2.117,2.117,0,0,0,456.406,255.021Z" transform="translate(-409.103 -230.126)"/></g></g></svg>