<svg xmlns="http://www.w3.org/2000/svg" viewBox="0 0 27.688 27.688"><g transform="translate(17.963 -4.119) rotate(45)"><path class="a" d="M155.031,26.529,152.48,29.08l4.081,4.081,2.551-2.551a.721.721,0,0,0,0-1.02l-3.061-3.061A.721.721,0,0,0,155.031,26.529Z" transform="translate(-145.146 -24.275)"/><path class="a" d="M350.031,221.529a.721.721,0,0,0,0-1.02l-3.061-3.061a.721.721,0,0,0-1.02,0L343.4,220l4.081,4.081Z" transform="translate(-326.882 -206.01)"/><path class="a" d="M16.007,121.8l3.571-3.571L15.5,114.143l-3.571,3.571a3.607,3.607,0,0,1-5.1-5.1l3.571-3.571L6.314,104.96l-3.571,3.571A9.379,9.379,0,0,0,16.007,121.8Z" transform="translate(0 -99.135)"/></g></svg>