<svg xmlns="http://www.w3.org/2000/svg" width="16.19" height="12.143" viewBox="0 0 16.19 12.143"><g transform="translate(0 3.219)"><g transform="translate(0 0)"><path class="a" d="M8.572,134.371a.909.909,0,0,1-.955,0L0,129.536v6.439a2.431,2.431,0,0,0,2.387,2.485H13.8a2.431,2.431,0,0,0,2.387-2.485v-6.439Z" transform="translate(0 -129.536)"/></g></g><g transform="translate(0.062 0)"><path d="M15.278,50.176H3.859a2.373,2.373,0,0,0-2.323,1.786l8.033,4.693L17.6,51.962A2.373,2.373,0,0,0,15.278,50.176Z" transform="translate(-1.536 -50.176)"/></g></svg>