<svg xmlns="http://www.w3.org/2000/svg" width="16.589" height="20" viewBox="0 0 16.589 20"><defs><style>.a{fill:#fff;}</style></defs><g transform="translate(-36.238 0)"><g transform="translate(36.238 0)"><g transform="translate(8.712 12.853)"><path class="a" d="M222.3,273.541a.951.951,0,0,0-.267-.194,3.22,3.22,0,0,0-.676-.239V274.9a1.271,1.271,0,0,0,1-.528h0a.817.817,0,0,0,.074-.558A.562.562,0,0,0,222.3,273.541Z" transform="translate(-221.36 -273.108)"/></g><g transform="translate(9.712 14.114)"><path class="a" d="M242.6,299.9l0,0h0Z" transform="translate(-242.604 -299.9)"/></g><g transform="translate(6.833 9.982)"><path class="a" d="M181.562,212.55a.671.671,0,0,0-.116.315.754.754,0,0,0,.038.348.558.558,0,0,0,.216.238,1.69,1.69,0,0,0,.322.166c.094.038.2.074.313.109v-1.619A1.235,1.235,0,0,0,181.562,212.55Z" transform="translate(-181.441 -212.106)"/></g><g transform="translate(9.714 14.1)"><path class="a" d="M242.654,299.619l-.007.013h0Z" transform="translate(-242.647 -299.619)"/></g><g transform="translate(9.731 14.083)"><path class="a" d="M243,299.245Z" transform="translate(-243.004 -299.244)"/></g><g transform="translate(0)"><path class="a" d="M45.58,4.352C47.1,3.074,48.118.194,47.493.069c-.831-.167-2.636.567-3.509.7C42.746.914,41.4-.577,40.642.254c-.615.676.441,3.134,2.093,4.2-4.93,2.423-11.859,14.586.229,15.469C59.691,21.148,51.315,6.713,45.58,4.352Zm1.436,9.592a1.758,1.758,0,0,1-.678,1.194,2.593,2.593,0,0,1-1.388.49v.524a.492.492,0,1,1-.984,0V15.58c-.085-.016-.169-.035-.252-.058a2.415,2.415,0,0,1-1.2-.74,2.169,2.169,0,0,1-.371-.613c-.023-.058-.043-.118-.061-.178a.913.913,0,0,1-.039-.167.492.492,0,0,1,.956-.2c.019.057.031.115.052.171a1.1,1.1,0,0,0,.076.161,1.254,1.254,0,0,0,.216.276,1.464,1.464,0,0,0,.626.341V12.623a3.5,3.5,0,0,1-1.29-.558,1.5,1.5,0,0,1-.436-.523,1.637,1.637,0,0,1-.152-.7,1.678,1.678,0,0,1,.147-.713,1.739,1.739,0,0,1,.4-.554,2.464,2.464,0,0,1,1.327-.588V8.44a.492.492,0,1,1,.984,0V8.98q.1.012.192.029a2.43,2.43,0,0,1,1.284.623,1.877,1.877,0,0,1,.393.565,1.8,1.8,0,0,1,.07.18,1.093,1.093,0,0,1,.046.175.492.492,0,0,1-.946.249c-.021-.054-.031-.111-.052-.164a.866.866,0,0,0-.08-.155.938.938,0,0,0-.232-.244,1.6,1.6,0,0,0-.675-.264v1.863a6.246,6.246,0,0,1,.84.249,1.964,1.964,0,0,1,1.025.8c-.035-.061-.069-.121,0,0s.036.063,0,0A1.755,1.755,0,0,1,47.017,13.944Z" transform="translate(-36.238 0)"/></g><g transform="translate(9.699 14.126)"><path class="a" d="M242.344,300.169l-.007.013Z" transform="translate(-242.337 -300.169)"/></g></g></g></svg>