<svg xmlns="http://www.w3.org/2000/svg" width="21.276" height="20.39" viewBox="0 0 21.276 20.39"><defs><style>.a{fill:#fff;}</style></defs><path class="a" d="M8.75,17.612v4.112a.665.665,0,0,0,1.2.394l2.405-3.273Z" transform="translate(-0.993 -1.999)"/><path class="a" d="M21,.123A.665.665,0,0,0,20.3.075L.357,10.492a.665.665,0,0,0,.092,1.219l5.545,1.9L17.8,3.509,8.666,14.518l9.293,3.176a.68.68,0,0,0,.215.035.664.664,0,0,0,.658-.566L21.269.763A.666.666,0,0,0,21,.123Z" transform="translate(0 0)"/></svg>