<svg xmlns="http://www.w3.org/2000/svg" xmlns:xlink="http://www.w3.org/1999/xlink" width="154.015" height="160.525" viewBox="0 0 154.015 160.525"><defs><linearGradient id="a" x1="0.5" y1="1" x2="0.5" gradientUnits="objectBoundingBox"><stop offset="0" stop-color="gray" stop-opacity="0.251"/><stop offset="0.54" stop-color="gray" stop-opacity="0.122"/><stop offset="1" stop-color="gray" stop-opacity="0.102"/></linearGradient><linearGradient id="b" x1="0.5" y1="1" x2="0.5" y2="0" xlink:href="#a"/><linearGradient id="c" x1="1.241" y1="1.124" x2="1.241" y2="0.124" xlink:href="#a"/><linearGradient id="d" x1="0.5" y1="1" x2="0.5" y2="0" xlink:href="#a"/><linearGradient id="e" x1="1.307" y1="2.047" x2="1.307" y2="1.047" xlink:href="#a"/><linearGradient id="f" x1="0.5" y1="1" x2="0.5" y2="0" xlink:href="#a"/><linearGradient id="g" x1="0.5" y1="1" x2="0.5" y2="0" xlink:href="#a"/><linearGradient id="h" x1="0.5" y1="1" x2="0.5" y2="0" xlink:href="#a"/><linearGradient id="i" x1="0.5" y1="1" x2="0.5" y2="0" xlink:href="#a"/></defs><circle style="fill:none;stroke:#3ad29f;stroke-miterlimit:10;stroke-width:2px;stroke-dasharray:12;" cx="62.706" cy="62.706" r="62.706" transform="translate(14.301 20.811)"/><circle style="fill:none;stroke:#3ad29f;stroke-miterlimit:10;stroke-width:2px;stroke-dasharray:12;" cx="76.008" cy="76.008" r="76.008" transform="translate(1 7.51)"/><path style="fill:url(#a)" d="M517.039,518.386a17.146,17.146,0,0,0-33.992-3.2l-52.7-1.429.578,9.053s-7.514,17.338,31.978,21.958v17.524h45.655V533.159A17.135,17.135,0,0,0,517.039,518.386Z" transform="translate(-389.161 -410.654)"/><path style="fill:#be7c5e;" d="M439.562,572.841s-7.2,16.6,30.625,21.033v16.789H513.91V566.2L439,564.17Z" transform="translate(-395.985 -460.302)"/><path style="fill:url(#b)" d="M402.03,173.279h0a8.061,8.061,0,0,1-11.084,2.519l-23.476-15.47a8.061,8.061,0,0,1-2.519-11.084h0a8.061,8.061,0,0,1,11.076-2.519l23.476,15.47A8.061,8.061,0,0,1,402.03,173.279Z" transform="translate(-336.601 -130.026)"/><path style="fill:#be7c5e;" d="M405.928,176.538h0a7.493,7.493,0,0,1-10.3,2.341L373.8,164.489a7.493,7.493,0,0,1-2.341-10.3h0a7.493,7.493,0,0,1,10.3-2.341l21.825,14.382A7.493,7.493,0,0,1,405.928,176.538Z" transform="translate(-341.8 -134.13)"/><circle style="fill:#be7c5e;" cx="16.42" cy="16.42" r="16.42" transform="translate(93.206 91.878)"/><rect style="fill:url(#c)" width="68.073" height="122.87" rx="12.25" transform="translate(41.183)"/><rect style="fill:#fff" width="66.232" height="119.551" rx="13.64" transform="translate(42.101 1.662)"/><path style="fill:#d5d5d5" d="M490.634,94.28a5.369,5.369,0,0,1-5.293,4.567H462.467a5.369,5.369,0,0,1-5.291-4.567H445.057a2.515,2.515,0,0,0-2.517,2.515V205.316a2.515,2.515,0,0,0,2.515,2.517h57.88a2.515,2.515,0,0,0,2.517-2.515V96.8a2.515,2.515,0,0,0-2.515-2.517Z" transform="translate(-398.777 -89.62)"/><rect style="fill:#dbdbdb" width="14.76" height="0.923" rx="0.461" transform="translate(67.931 6.089)"/><circle style="fill:#dbdbdb" cx="0.553" cy="0.553" r="0.553" transform="translate(85.273 5.905)"/><path style="fill:url(#d)" d="M728.867,380.981h0c-4.765,1.1-8.036-2.006-9.138-6.769L708.78,333.555a8.918,8.918,0,0,1,6.661-10.664h0a8.918,8.918,0,0,1,10.664,6.661l8.935,41.707C736.143,376.024,733.63,379.879,728.867,380.981Z" transform="translate(-608.628 -269.786)"/><rect style="fill:#be7c5e;" width="14.944" height="59.668" rx="7.472" transform="translate(100.006 56.845) rotate(-13.01)"/><rect style="fill:url(#e)" width="62.495" height="14.568" transform="translate(63.48 144.868)"/><rect style="fill:#4d8af0;" width="59.117" height="11.401" transform="translate(65.169 146.557)"/><path style="fill:url(#f);" d="M388.421,400.134h0a7.964,7.964,0,0,1-10.951,2.489l-15.744-10.187a7.964,7.964,0,0,1-2.489-10.951h0A7.964,7.964,0,0,1,370.187,379l15.744,10.187a7.964,7.964,0,0,1,2.489,10.951Z" transform="translate(-332.104 -313.266)"/><path style="fill:url(#g);" d="M391.59,513.346h0a8.036,8.036,0,0,1-11.051,2.513l-9.752-7.111a8.036,8.036,0,0,1-2.512-11.051h0a8.036,8.036,0,0,1,11.051-2.513l9.752,7.113A8.036,8.036,0,0,1,391.59,513.346Z" transform="translate(-339.226 -404.915)"/><g style="opacity:0.5;" transform="translate(56.228 42.448)"><circle style="fill:url(#h);" cx="18.989" cy="18.989" r="18.989"/></g><circle style="fill:#69f0ae" cx="17.872" cy="17.872" r="17.872" transform="translate(57.345 43.565)"/><path style="fill:#fff" d="M305.343,250.478l6.7,6.144,9.495-13.962,3.353,2.793-12.847,16.755L302.55,251.6Z" transform="translate(-237.883 -191.427)"/><path style="fill:#be7c5e;" d="M394.055,515.769h0a7.493,7.493,0,0,1-10.3,2.341l-9.1-6.621a7.493,7.493,0,0,1-2.341-10.3h0a7.493,7.493,0,0,1,10.3-2.341l9.093,6.634a7.493,7.493,0,0,1,2.344,10.291Z" transform="translate(-342.478 -407.868)"/><path style="fill:#be7c5e;" d="M391.042,402.423h0a7.493,7.493,0,0,1-10.3,2.341l-14.813-9.585a7.493,7.493,0,0,1-2.341-10.3h0a7.493,7.493,0,0,1,10.3-2.341L388.7,392.12A7.493,7.493,0,0,1,391.042,402.423Z" transform="translate(-335.591 -316.114)"/><path style="fill:url(#i);" d="M391.729,287.8h0a8,8,0,0,1-11,2.5l-19.952-12.991a8,8,0,0,1-2.5-11h0a8,8,0,0,1,11-2.5L389.23,276.8A8,8,0,0,1,391.729,287.8Z" transform="translate(-331.342 -222.392)"/><path style="fill:#be7c5e;" d="M394.926,290.575h0a7.493,7.493,0,0,1-10.3,2.341l-18.687-12.168a7.493,7.493,0,0,1-2.341-10.3h0a7.493,7.493,0,0,1,10.3-2.341l18.685,12.168A7.493,7.493,0,0,1,394.926,290.575Z" transform="translate(-335.599 -225.844)"/></svg>