<svg xmlns="http://www.w3.org/2000/svg" width="50" height="50.023" viewBox="0 0 50 50.023"><defs><style>.a{fill:#d5d5d5;}</style></defs><g transform="translate(0 0)"><path class="a" d="M25,0A25.012,25.012,0,1,0,50,25.013,25.006,25.006,0,0,0,25,0ZM35.158,36.207v1.73a1.73,1.73,0,0,1-1.729,1.73H16.138a3.459,3.459,0,0,1-3.458-3.46V14.44a3.459,3.459,0,0,1,3.458-3.46H33.429a1.73,1.73,0,0,1,1.729,1.73v1.73h0V36.207ZM38.616,14.44v23.5a1.73,1.73,0,0,1-1.729,1.73H36.42a3.435,3.435,0,0,0,.468-1.73V12.71a3.435,3.435,0,0,0-.468-1.73h.468a1.73,1.73,0,0,1,1.729,1.73Z" transform="translate(0 -0.001)"/><path class="a" d="M109.281,114.1s-.729-.875-1.537-.271c-.6.45-1.683,1.451-1.943,1.694a21.625,21.625,0,0,1-2.878-1.844,15.128,15.128,0,0,1-3.2-3.827l-.415-.782c.145-.156,1.252-1.341,1.731-1.985.6-.807-.271-1.536-.271-1.536s-2.459-2.46-3.019-2.947a1.205,1.205,0,0,0-1.205-.218c-1.178.762-2.4,1.423-2.472,4.606,0,2.979,2.259,6.052,4.7,8.431,2.45,2.687,5.814,5.379,9.065,5.376,3.182-.072,3.843-1.293,4.6-2.471a1.2,1.2,0,0,0-.216-1.2C111.74,116.561,109.281,114.1,109.281,114.1Z" transform="translate(-79.313 -86.251)"/></g></svg>