<svg xmlns="http://www.w3.org/2000/svg" width="19.596" height="15.241" viewBox="0 0 19.596 15.241"><defs><style>.a{fill:white;}</style></defs><g transform="translate(0 -61.201)"><path class="a" d="M18.351,61.2H1.244A1.244,1.244,0,0,0,0,62.445V75.2a1.244,1.244,0,0,0,1.244,1.244H18.351A1.244,1.244,0,0,0,19.6,75.2V62.445A1.244,1.244,0,0,0,18.351,61.2Zm0,1.244v9.049L15.9,69.264a.933.933,0,0,0-1.287.031l-2.482,2.481L7.238,65.932a.933.933,0,0,0-1.423-.01L1.244,71.234V62.445Zm-5.288,3.266a1.711,1.711,0,1,1,1.711,1.711A1.71,1.71,0,0,1,13.064,65.711Z" transform="translate(0 0)"/></g></svg>