<svg xmlns="http://www.w3.org/2000/svg" viewBox="0 0 22.544 22.544"><defs></defs><g transform="translate(0 0)"><path class="a" d="M22.544,11.272A11.272,11.272,0,1,0,11.272,22.544,11.285,11.285,0,0,0,22.544,11.272Zm-21.417,0A10.146,10.146,0,1,1,11.272,21.417,10.157,10.157,0,0,1,1.126,11.272Z" transform="translate(0 0)"/><g transform="translate(6.57 6.57)"><path class="a" d="M132.565,127.767H129v-3.561a.618.618,0,1,0-1.237,0v3.561h-3.561a.618.618,0,0,0,0,1.237h3.561v3.561a.618.618,0,0,0,1.237,0V129h3.561a.618.618,0,1,0,0-1.237Z" transform="translate(-123.588 -123.588)"/></g></g></svg>