<svg xmlns="http://www.w3.org/2000/svg" width="20.112" height="14.833" viewBox="0 0 20.112 14.833"><defs><style>.a{fill:#808385;}</style></defs><g transform="translate(0 -64.168)"><path class="a" d="M17.66,72.017c-1.456-1.773-4.2-3.882-9.036-4.063V64.672a.5.5,0,0,0-.823-.391L.185,70.561A.506.506,0,0,0,0,70.948a.5.5,0,0,0,.181.387L7.8,77.64a.5.5,0,0,0,.823-.391v-3.27c3.159.012,7.987.247,10.549,4.767a.5.5,0,0,0,.44.255.453.453,0,0,0,.127-.016.5.5,0,0,0,.374-.485A10.7,10.7,0,0,0,17.66,72.017Zm-9.542.954h0a.506.506,0,0,0-.506.506v2.7L1.3,70.952l6.317-5.211v2.7a.506.506,0,0,0,.5.506c7.238.07,9.936,4.483,10.722,7.584C15.719,72.976,11.051,72.972,8.119,72.972Z" transform="translate(0 0)"/></g></svg>