<svg xmlns="http://www.w3.org/2000/svg" width="26.84" height="26.841" viewBox="0 0 26.84 26.841"><defs><style>.a{fill:#f89d1f;}</style></defs><path class="a" d="M20.138,26.841H6.7a6.711,6.711,0,0,1-6.7-6.7V6.7A6.711,6.711,0,0,1,6.7,0H20.138a6.711,6.711,0,0,1,6.7,6.7V20.137A6.711,6.711,0,0,1,20.138,26.841Zm-7.2-8.924a1.343,1.343,0,0,0,0,2.687,1.343,1.343,0,1,0,0-2.687Zm.176-8.229c.973,0,1.578.458,1.578,1.194,0,.775-.643,1.27-1.211,1.707-.125.1-.243.187-.349.277a3.227,3.227,0,0,0-1.174,2.669c0,.89.234,1.176.964,1.176.686,0,1.034-.242,1.034-.72a2.2,2.2,0,0,1,.981-2.2A4.228,4.228,0,0,0,16.9,10.583c0-1.706-1.536-2.9-3.734-2.9-2.355,0-3.452,1.4-3.452,2.353a1.007,1.007,0,0,0,1.051,1c.4,0,.561-.24.749-.517A1.62,1.62,0,0,1,13.11,9.688Z" transform="translate(0 0)"/></svg>