<svg xmlns="http://www.w3.org/2000/svg" width="18.593" height="21.155" viewBox="0 0 18.593 21.155"><defs><style>.a{fill:#fff;}</style></defs><path class="a" d="M155.338,14.916a4.343,4.343,0,0,0,4.338-4.338V4.338a4.338,4.338,0,0,0-8.677,0v6.239A4.343,4.343,0,0,0,155.338,14.916Z" transform="translate(-146.042 0)"/><path class="a" d="M104.015,211a.62.62,0,0,0-.62.62v1.24a5.578,5.578,0,1,1-11.156,0v-1.24a.62.62,0,0,0-1.24,0v1.24a6.826,6.826,0,0,0,6.2,6.789V222.2H94.1a.62.62,0,1,0,0,1.24h7.437a.62.62,0,0,0,0-1.24h-3.1v-2.549a6.826,6.826,0,0,0,6.2-6.789v-1.24A.62.62,0,0,0,104.015,211Z" transform="translate(-88.521 -202.282)"/><path class="a" d="M91.62,50.338a.62.62,0,0,0,.62-.62v-3.1a.62.62,0,1,0-1.24,0v3.1A.62.62,0,0,0,91.62,50.338Z" transform="translate(-88.521 -44.099)"/><path class="a" d="M31.62,0A.62.62,0,0,0,31,.62V7.478a.62.62,0,0,0,1.24,0V.62A.62.62,0,0,0,31.62,0Z" transform="translate(-31 0)"/><path class="a" d="M391.62,46a.62.62,0,0,0-.62.62v3.1a.62.62,0,0,0,1.24,0v-3.1A.62.62,0,0,0,391.62,46Z" transform="translate(-376.126 -44.099)"/><path class="a" d="M451.62,0a.62.62,0,0,0-.62.62V7.478a.62.62,0,1,0,1.24,0V.62A.62.62,0,0,0,451.62,0Z" transform="translate(-433.647 0)"/></svg>