<svg xmlns="http://www.w3.org/2000/svg" width="18.8" height="18.041" viewBox="0 0 18.8 18.041"><defs><style>.a{fill:#fff;}</style></defs><g transform="translate(0 -10.345)"><g transform="translate(0 10.345)"><path class="a" d="M18.717,17.114a1.619,1.619,0,0,0-1.563-1.136H12.819A.541.541,0,0,1,12.3,15.6l-1.34-4.123a1.643,1.643,0,0,0-3.126,0L6.5,15.6a.541.541,0,0,1-.515.374H1.647a1.643,1.643,0,0,0-.966,2.973L4.189,21.5a.541.541,0,0,1,.2.606l-1.34,4.123a1.619,1.619,0,0,0,.6,1.837,1.619,1.619,0,0,0,1.932,0l3.507-2.548a.541.541,0,0,1,.637,0l3.507,2.548a1.643,1.643,0,0,0,2.529-1.837l-1.34-4.123a.541.541,0,0,1,.2-.606l3.507-2.548A1.619,1.619,0,0,0,18.717,17.114Z" transform="translate(0 -10.345)"/></g></g></svg>