<svg xmlns="http://www.w3.org/2000/svg" viewBox="0 0 195.656 160.881"><defs><style>.a{fill:#f89d1f;}.b{fill:#f77d0c;}.c,.j{fill:#efb8a3;}.d{fill:#3c56f0;}.e{fill:#6a80f7;}.f{fill:#dfdfe0;}.g{fill:#c1c7ca;}.h{fill:#5ab7f6;}.i{fill:#3e3e3e;}.j{fill-rule:evenodd;}</style></defs><g transform="translate(0)"><g transform="translate(0 61.229)"><path class="a" d="M538.82,197.717,530.7,183.425l5.592-3.2a1.932,1.932,0,0,0,.621-2.574l-9.986-17.576a1.839,1.839,0,0,0-2.485-.8l-5.592,3.2-8.122-14.292a1.9,1.9,0,0,0-2.619-.71l-33.021,18.774a1.9,1.9,0,0,0-.71,2.619L502.469,218.4a1.9,1.9,0,0,0,2.619.71l33.021-18.774A1.9,1.9,0,0,0,538.82,197.717Zm-15.756-33.776a1.6,1.6,0,0,1,2.219.311l7.234,12.694a1.6,1.6,0,0,1-.843,2.086l-2.619,1.465-8.566-15.09Z" transform="translate(-474.07 -147.215)"/><path class="b" d="M510.758,150.626c1.021,1.465,7.323,13,7.323,13l6.125-3.6s1.509-.843,2.264.222c.311.444,1.021,1.376,1.775,2.308l-1.42-2.486a1.84,1.84,0,0,0-2.486-.8l-5.592,3.2-8.122-14.292a1.9,1.9,0,0,0-2.619-.71l-33.021,18.774a1.9,1.9,0,0,0-.71,2.619l.666,1.154s-.666-1.553,1.642-2.885c2.263-1.332,30.048-17.221,30.536-17.443C508.494,149.117,509.515,148.85,510.758,150.626Z" transform="translate(-474.015 -147.215)"/></g><path class="c" d="M597.336,174.7a53.9,53.9,0,0,0-5.859,2.8c-1.465.932-3.595,4.261-3.595,4.261s-.533,1.864.266,2.53c.755.666,3.018,6.258,4.971,6.7,2,.444,5.1-1.287,5.1-1.287l.8,1.42a6.439,6.439,0,0,0,2.308-3.773,45.253,45.253,0,0,1,.976-4.749,9.283,9.283,0,0,0-.932-4.35A17.045,17.045,0,0,0,597.336,174.7Z" transform="translate(-537.247 -101.272)"/><path class="c" d="M894.656,153.341s-.044-3.506-1.509-5.148a11.253,11.253,0,0,0-2.4-2.219l-2.485.621s-.4-1.11-1.243-1.2-3.95,1.731-4.7,2.841-1.553,4.793-1.864,5.148a6.384,6.384,0,0,1-1.554.8l2.4,7.945s6.258-1.243,8.877-2.8a18.911,18.911,0,0,0,4.483-3.995A2.734,2.734,0,0,0,894.656,153.341Z" transform="translate(-699.197 -84.973)"/><path class="d" d="M76.207,132.547H24.012c.195-.226.374-.44.532-.639,3.646-4.657,14.669-39.549,14.78-39.9a12.481,12.481,0,0,1-6.058-5.448A11.414,11.414,0,0,1,32,83.174c.223-.286,22.43-28.787,23.568-30.668,1.139-1.927-1.307-26.955-1.332-27.208C54.1,25.32,39.948,27.625,36,29.426S11.041,51.9,10.83,52.106c-.064,0-.126,0-.186,0A5.757,5.757,0,0,1,8.833,51.8L5.77,53.97l-.8-1.021A32.571,32.571,0,0,1,2.086,49.4,44.545,44.545,0,0,1,0,45.094l2.574-2.4a2.5,2.5,0,0,1-.088-1.287c.04-.052,4.021-5.232,9.692-11.662C17.437,23.785,25.3,15.454,32.888,9.631c4.806-3.688,12.235-6.359,22.079-7.939A140.67,140.67,0,0,1,76.547.106c3.359,0,5.474.11,5.563.115h2.885A14.86,14.86,0,0,0,86.681,0l8.167,13.714c.017.027,1.745,2.731,3.6,5.947a19.414,19.414,0,0,1,2.293,7.512,34.492,34.492,0,0,1-.062,7.612,45.445,45.445,0,0,1-1.7,8.266l17.31-3.062.488.887,2.884-.666,0,.006a25.141,25.141,0,0,1,1.9,5.232c.348,1.4.707,4.583.71,4.615l-2.486.888a9.77,9.77,0,0,1,.266,1.553c-.351.658-26.146,9.01-26.362,9.011-.308,1.924-5.76,19.879-5.815,20.06,10.492,4.674,17.947,9.164,22.158,13.343,3.034,3.012,4.424,5.863,4.25,8.716-.2,3.534-4.719,8.386-13.418,14.423a233.959,233.959,0,0,1-24.662,14.488Zm-9.72-31.174L55.391,123.3l29.56-18.02-.049-.006c-2.1-.318-12.838-2-18.415-3.9Z" transform="translate(60.133 28.334)"/><path class="e" d="M37.055,56.384H18.522a31.183,31.183,0,0,1-2.411-9.293l29.6-18.02-.049-.006c-2.1-.318-12.838-2-18.415-3.9-.059-.013-5.95-1.31-12.211-3.1C9.254,20.42,1.948,18,0,15.845A68.1,68.1,0,0,0,19.27,18.982a38.681,38.681,0,0,0,7.8-.74l8.788-14.07L37.636,0,43.1,2.707l5.5,2.752C59.091,10.134,66.547,14.623,70.758,18.8c3.034,3.011,4.425,5.862,4.25,8.715-.2,3.541-4.7,8.39-13.352,14.41a238.819,238.819,0,0,1-24.6,14.456Z" transform="translate(99.369 104.496)"/><path class="e" d="M795.954,88.694,794.4,76.4V88.694l3.284,2.929-2.308,2.308,5.06,26.9c.311-3.861-3.151-27.651-3.151-27.651l1.509-1.553Z" transform="translate(-652.202 -46.601)"/><g transform="translate(60.089 28.423)"><path class="f" d="M797.347,110.449C796.1,119.9,782.7,149.462,782.7,149.462l5.459,2.707s12.96-23.967,15.667-36.084c0,0,3.151-11.407-.976-22.68-1.243-3.462-2.175-6.391-2.175-6.391L792.509,73.3h0a14.651,14.651,0,0,1-1.687.222S800.232,88.213,797.347,110.449Z" transform="translate(-705.783 -73.3)"/><path class="g" d="M815.2,110.672l3.24-4.172,2.086,4.172-2.086-2.352Z" transform="translate(-723.859 -91.765)"/><path class="h" d="M772.684,109.107l.444,3.018s-1.775,9.9-5.326,13.4c-6.08,6.081-21.837,9.942-25.654,13-3.551,2.841-5.548,10.341-5.548,10.341s8.522-.666,10.652-1.11,16.866-10.918,21.26-16.2c4.793-5.725,6.347-14.869,6.436-19.262l1.11-3.062-1.42-2.841Z" transform="translate(-680.144 -91.709)"/><path class="f" d="M614.371,179.653l.8,1.021,3.063-2.175c-4.261-2.574-6.258-9.1-6.258-9.1l-2.574,2.4a44.257,44.257,0,0,0,2.086,4.305A37.42,37.42,0,0,0,614.371,179.653Z" transform="translate(-609.4 -126.747)"/><path class="f" d="M878,173.653s-.355-3.2-.71-4.616a24.671,24.671,0,0,0-1.909-5.237l-2.885.666s2.485,7.323,3.018,10.075Z" transform="translate(-755.727 -123.633)"/></g><g transform="translate(62.535 28.511)"><path class="d" d="M686.275,73.5c-11.185.178-30.758,1.731-40.922,9.5-14.691,11.273-30.4,31.779-30.4,31.779a2.464,2.464,0,0,0,.089,1.287s2,6.524,6.258,9.1a5.626,5.626,0,0,0,2,.311s21.171-20.86,25.165-22.68S666.7,98.665,666.7,98.665s13-1.6,13.981-1.642C681.659,96.935,695.063,89.656,686.275,73.5Z" transform="translate(-614.911 -73.5)"/><path class="d" d="M843.624,164.188l-.488-.888-17.31,3.062L820.5,184.87s26.009-8.433,26.408-9.1a9.777,9.777,0,0,0-.266-1.553C846.109,171.511,843.624,164.188,843.624,164.188Z" transform="translate(-729.252 -123.443)"/></g><path class="i" d="M11.121,9.2H.893L0,4.3,8.743,0A31,31,0,0,0,11.12,9.2Z" transform="translate(106.736 151.676)"/><g transform="translate(146.814)"><path class="j" d="M804.8,40.3c1.509-2.441,2.086-2.308,3.063-5.015,1.864-4.971,2.352-17.709,4.927-19.129,11.939-6.436,18.286,3.906,18.286,3.906a51.184,51.184,0,0,1-.266,6.258c-.044.488-.888,1.908-.888,2.441-.089,2.4,1.465,6.169,1.864,8.477.222,1.2-3.551.888-3.551.888s-.71,7.456-1.376,7.723C824.373,47,819.58,45.8,819.58,45.8l-6.569,8.211Z" transform="translate(-804.8 -11.923)"/><path class="i" d="M811.606,32.624l4.749-.71s-.222-6.569,2.53-6.835c2.8-.266,2.53,6.214,2.53,6.214l1.731-.355a42.328,42.328,0,0,1-.177-6.835,5.194,5.194,0,0,1,1.909-2.885s-.089-3.329,1.686-4.039,6.169-.4,8.255.178,3.861-2.175,3.861-2.175a14.17,14.17,0,0,1-4.66-1.287C832.2,12.918,823.812,7.1,818,10.122,810.363,14.116,811.606,32.624,811.606,32.624Z" transform="translate(-808.544 -9.261)"/></g></g></svg>