<svg xmlns="http://www.w3.org/2000/svg" width="199.362" height="143.484" viewBox="0 0 199.362 143.484"><defs><style>.a{fill:#5ab7f6;}.b{fill:#a9d9f9;}.c{fill:#263238;}.d{fill:#f89d1f;}.e{fill:#455a64;}.f{fill:#fff;}.g{opacity:0.3;}.h{fill:#b78876;}.i{fill:#a36957;}.j{fill:#e5f4ff;}.k{opacity:0.2;}.l{opacity:0.4;}.m{opacity:0.5;}.n{fill:#465d84;}.o{fill:#8296b7;}.p{fill:#aa6550;}.q{fill:#a0b2d1;}</style></defs><g transform="translate(0 70.796)"><g transform="translate(0 24.521)"><path class="a" d="M7.253,348.646,8.8,354.07l147.186,42.743L206.61,363.4v-4.557Z" transform="translate(-7.253 -348.646)"/></g><path class="b" d="M60.054,289.385l146.556,34.72-50.628,33.036L7.253,313.907Z" transform="translate(-7.253 -289.385)"/><g transform="translate(148.644 65.471)"><path class="b" d="M370.384,447.612a75.042,75.042,0,0,1-3.9,7.03,74.9,74.9,0,0,1,3.9-7.03Z" transform="translate(-366.485 -447.611)"/></g><g transform="translate(153.482 62.317)"><path class="b" d="M382.074,439.987a74.859,74.859,0,0,1-3.9,7.03,74.916,74.916,0,0,1,3.9-7.03Z" transform="translate(-378.175 -439.987)"/></g><g transform="translate(158.319 59.162)"><path class="b" d="M393.764,432.363a74.9,74.9,0,0,1-3.9,7.03,74.916,74.916,0,0,1,3.9-7.03Z" transform="translate(-389.865 -432.363)"/></g><g transform="translate(163.156 56.008)"><path class="b" d="M405.454,424.74a74.942,74.942,0,0,1-3.9,7.029,74.819,74.819,0,0,1,3.9-7.029Z" transform="translate(-401.555 -424.74)"/></g><g transform="translate(167.993 52.853)"><path class="b" d="M417.143,417.116a74.853,74.853,0,0,1-3.9,7.029,74.931,74.931,0,0,1,3.9-7.029Z" transform="translate(-413.245 -417.116)"/></g><g transform="translate(172.83 49.698)"><path class="b" d="M428.833,409.492a74.855,74.855,0,0,1-3.9,7.029,75.094,75.094,0,0,1,3.9-7.029Z" transform="translate(-424.934 -409.492)"/></g><g transform="translate(177.667 46.544)"><path class="b" d="M440.523,401.868a75.174,75.174,0,0,1-3.9,7.03,75.013,75.013,0,0,1,3.9-7.03Z" transform="translate(-436.624 -401.868)"/></g><g transform="translate(182.504 43.389)"><path class="b" d="M452.213,394.244a75.136,75.136,0,0,1-3.9,7.03,75.05,75.05,0,0,1,3.9-7.03Z" transform="translate(-448.314 -394.244)"/></g><g transform="translate(187.341 40.234)"><path class="b" d="M463.9,386.62a75.03,75.03,0,0,1-3.9,7.03,75.146,75.146,0,0,1,3.9-7.03Z" transform="translate(-460.005 -386.62)"/></g><g transform="translate(192.178 37.079)"><path class="b" d="M475.593,379a75.042,75.042,0,0,1-3.9,7.03,75.137,75.137,0,0,1,3.9-7.03Z" transform="translate(-471.694 -378.996)"/></g><g transform="translate(197.014 36.731)"><path class="b" d="M485.725,378.155a27.127,27.127,0,0,1-2.341,4.223,27.141,27.141,0,0,1,2.341-4.223Z" transform="translate(-483.381 -378.155)"/></g><g transform="translate(142.237 65.915)"><path class="b" d="M356.2,455a6.174,6.174,0,0,1-.858-.841c-.506-.542-1.185-1.308-1.9-2.182s-1.34-1.688-1.773-2.289a6.189,6.189,0,0,1-.66-1,7.158,7.158,0,0,1,.781.911l1.819,2.245,1.852,2.217A7.137,7.137,0,0,1,356.2,455Z" transform="translate(-351.001 -448.684)"/></g><g transform="translate(135.414 63.976)"><path class="b" d="M339.708,450.313a6.189,6.189,0,0,1-.858-.841c-.506-.541-1.185-1.308-1.9-2.181s-1.34-1.688-1.774-2.289a6.208,6.208,0,0,1-.66-1,7.134,7.134,0,0,1,.781.912l1.819,2.245,1.852,2.217A7.137,7.137,0,0,1,339.708,450.313Z" transform="translate(-334.511 -443.997)"/></g><g transform="translate(128.591 62.037)"><path class="b" d="M323.218,445.627a6.145,6.145,0,0,1-.858-.84c-.506-.542-1.185-1.308-1.9-2.181s-1.34-1.688-1.774-2.289a6.216,6.216,0,0,1-.66-1,7.112,7.112,0,0,1,.781.911l1.819,2.245,1.852,2.217A7.1,7.1,0,0,1,323.218,445.627Z" transform="translate(-318.021 -439.311)"/></g><g transform="translate(121.768 60.098)"><path class="b" d="M306.729,440.94a6.211,6.211,0,0,1-.857-.841c-.506-.541-1.185-1.308-1.9-2.181s-1.34-1.688-1.774-2.289a6.154,6.154,0,0,1-.659-1,7.177,7.177,0,0,1,.78.911l1.819,2.245L305.985,440A7.145,7.145,0,0,1,306.729,440.94Z" transform="translate(-301.532 -434.624)"/></g><g transform="translate(114.945 58.159)"><path class="b" d="M290.239,436.254a6.181,6.181,0,0,1-.858-.84c-.506-.542-1.186-1.308-1.9-2.182s-1.34-1.688-1.773-2.289a6.19,6.19,0,0,1-.66-1,7.126,7.126,0,0,1,.78.911l1.819,2.245,1.852,2.217A7.161,7.161,0,0,1,290.239,436.254Z" transform="translate(-285.042 -429.938)"/></g><g transform="translate(108.121 56.219)"><path class="b" d="M273.749,431.567a6.184,6.184,0,0,1-.858-.841c-.506-.541-1.185-1.308-1.9-2.182s-1.34-1.688-1.774-2.289a6.166,6.166,0,0,1-.66-1,7.147,7.147,0,0,1,.781.911l1.819,2.245,1.852,2.217A7.161,7.161,0,0,1,273.749,431.567Z" transform="translate(-268.552 -425.251)"/></g><g transform="translate(101.298 54.28)"><path class="b" d="M257.259,426.881a6.206,6.206,0,0,1-.858-.84c-.506-.542-1.185-1.308-1.9-2.182s-1.34-1.688-1.774-2.289a6.212,6.212,0,0,1-.66-1,7.074,7.074,0,0,1,.781.911l1.819,2.245,1.852,2.217A7.13,7.13,0,0,1,257.259,426.881Z" transform="translate(-252.062 -420.565)"/></g><g transform="translate(94.475 51.957)"><path class="b" d="M240.769,421.266a6.2,6.2,0,0,1-.858-.841c-.506-.541-1.185-1.308-1.9-2.182s-1.34-1.688-1.774-2.289a6.142,6.142,0,0,1-.659-1,7.182,7.182,0,0,1,.78.911l1.819,2.245,1.852,2.217A7.127,7.127,0,0,1,240.769,421.266Z" transform="translate(-235.573 -414.95)"/></g><g transform="translate(86.88 49.846)"><path class="b" d="M222.414,416.164a6.2,6.2,0,0,1-.858-.841c-.506-.541-1.185-1.308-1.9-2.181s-1.34-1.688-1.774-2.289a6.223,6.223,0,0,1-.66-1,7.113,7.113,0,0,1,.781.911l1.819,2.245,1.852,2.217A7.1,7.1,0,0,1,222.414,416.164Z" transform="translate(-217.217 -409.848)"/></g><g transform="translate(79.285 47.735)"><path class="b" d="M204.059,411.062a6.124,6.124,0,0,1-.858-.84c-.506-.542-1.185-1.308-1.9-2.181s-1.34-1.688-1.773-2.289a6.178,6.178,0,0,1-.66-1,7.126,7.126,0,0,1,.78.911l1.819,2.245,1.852,2.217A7.186,7.186,0,0,1,204.059,411.062Z" transform="translate(-198.862 -404.746)"/></g><g transform="translate(71.643 45.282)"><path class="b" d="M185.59,405.135a6.168,6.168,0,0,1-.858-.841c-.506-.541-1.185-1.308-1.9-2.181s-1.34-1.688-1.773-2.289a6.17,6.17,0,0,1-.66-1,7.174,7.174,0,0,1,.78.911l1.819,2.245,1.852,2.217A7.207,7.207,0,0,1,185.59,405.135Z" transform="translate(-180.393 -398.819)"/></g><g transform="translate(64 43.143)"><path class="b" d="M167.12,399.965a6.226,6.226,0,0,1-.858-.841c-.506-.542-1.185-1.308-1.9-2.181s-1.34-1.688-1.774-2.289a6.165,6.165,0,0,1-.659-1,7.179,7.179,0,0,1,.78.911l1.819,2.245,1.852,2.217A7.1,7.1,0,0,1,167.12,399.965Z" transform="translate(-161.924 -393.649)"/></g><g transform="translate(56.311 40.895)"><path class="b" d="M148.537,394.532a6.2,6.2,0,0,1-.858-.841c-.506-.541-1.185-1.308-1.9-2.182s-1.34-1.688-1.774-2.289a6.2,6.2,0,0,1-.66-1,7.126,7.126,0,0,1,.781.911l1.819,2.245,1.852,2.217A7.133,7.133,0,0,1,148.537,394.532Z" transform="translate(-143.34 -388.216)"/></g><g transform="translate(48.904 38.813)"><path class="b" d="M130.638,389.5a6.169,6.169,0,0,1-.858-.841c-.506-.541-1.185-1.308-1.9-2.181s-1.34-1.688-1.773-2.289a6.174,6.174,0,0,1-.66-1,7.129,7.129,0,0,1,.78.911l1.819,2.245,1.852,2.218A7.14,7.14,0,0,1,130.638,389.5Z" transform="translate(-125.441 -383.186)"/></g><g transform="translate(41.309 36.828)"><g transform="translate(0)"><path class="b" d="M112.283,384.7a6.173,6.173,0,0,1-.858-.841c-.506-.541-1.185-1.308-1.9-2.181s-1.34-1.688-1.773-2.289a6.148,6.148,0,0,1-.66-1,7.162,7.162,0,0,1,.78.912l1.819,2.244,1.852,2.217A7.2,7.2,0,0,1,112.283,384.7Z" transform="translate(-107.086 -378.387)"/></g></g><g transform="translate(34.635 34.601)"><path class="b" d="M96.153,379.322a6.169,6.169,0,0,1-.858-.841c-.506-.541-1.185-1.308-1.9-2.181s-1.34-1.688-1.773-2.289a6.167,6.167,0,0,1-.66-1,7.173,7.173,0,0,1,.78.911l1.819,2.245,1.851,2.217A7.136,7.136,0,0,1,96.153,379.322Z" transform="translate(-90.956 -373.006)"/></g><g transform="translate(27.961 32.374)"><g transform="translate(0)"><path class="b" d="M80.023,373.941a6.155,6.155,0,0,1-.858-.84c-.506-.542-1.185-1.308-1.9-2.182s-1.34-1.688-1.774-2.289a6.18,6.18,0,0,1-.66-1,7.119,7.119,0,0,1,.781.911l1.819,2.245L79.279,373A7.1,7.1,0,0,1,80.023,373.941Z" transform="translate(-74.826 -367.625)"/></g></g><g transform="translate(21.909 30.72)"><path class="b" d="M65.4,369.942a6.21,6.21,0,0,1-.858-.84c-.506-.542-1.185-1.308-1.9-2.181s-1.34-1.688-1.774-2.289a6.213,6.213,0,0,1-.66-1,7.079,7.079,0,0,1,.781.911l1.819,2.245L64.654,369A7.129,7.129,0,0,1,65.4,369.942Z" transform="translate(-60.201 -363.626)"/></g><g transform="translate(14.974 28.824)"><path class="b" d="M48.639,365.361a6.149,6.149,0,0,1-.858-.84c-.506-.542-1.185-1.308-1.9-2.181s-1.34-1.688-1.773-2.289a6.179,6.179,0,0,1-.66-1,7.17,7.17,0,0,1,.78.911l1.819,2.245,1.851,2.218A7.134,7.134,0,0,1,48.639,365.361Z" transform="translate(-43.442 -359.045)"/></g><g transform="translate(8.663 26.99)"><path class="b" d="M33.384,360.929a6.206,6.206,0,0,1-.858-.84c-.506-.542-1.185-1.308-1.9-2.182s-1.34-1.688-1.774-2.289a6.153,6.153,0,0,1-.659-1,7.142,7.142,0,0,1,.78.911l1.819,2.245,1.852,2.217A7.113,7.113,0,0,1,33.384,360.929Z" transform="translate(-28.188 -354.613)"/></g><g transform="translate(1.529 24.763)"><path class="b" d="M16.146,355.547a6.2,6.2,0,0,1-.858-.841c-.506-.541-1.185-1.308-1.9-2.181s-1.34-1.688-1.774-2.289a6.184,6.184,0,0,1-.66-1,7.135,7.135,0,0,1,.781.912l1.819,2.245,1.852,2.217A7.13,7.13,0,0,1,16.146,355.547Z" transform="translate(-10.949 -349.231)"/></g></g><g transform="translate(27.935 12.971)"><g transform="translate(0 76.625)"><path class="c" d="M77.164,343.917a3.929,3.929,0,0,1-.55-6.95,14.743,14.743,0,0,1,6.569-2.093,13.734,13.734,0,0,1,7.3,1.33c2.851,1.392,2.92,5.915-.3,7.494C85.559,345.966,81.652,345.841,77.164,343.917Z" transform="translate(-74.765 -334.819)"/></g><g transform="translate(7.17 29.957)"><path class="c" d="M92.1,222.213s.132-.018.422-.047l1.352-.127.029,0v.029c.124,5.424.439,25.011.774,48.311,0,.049,0,.1,0,.142l0,.1-.1.008-1.515.125-.114.01,0-.115c-.249-13.473-.473-25.592-.635-34.351-.072-4.361-.131-7.885-.171-10.328-.017-1.207-.03-2.147-.039-2.793,0-.312,0-.552-.007-.722s0-.241,0-.241.007.089.013.255.013.418.022.735c.017.651.041,1.6.072,2.817.056,2.448.137,5.98.237,10.35.184,8.739.438,20.83.72,34.273l-.117-.105,1.515-.125-.1.109,0-.142c-.334-23.3-.581-42.888-.613-48.313l.029.027-1.34.1C92.242,222.208,92.1,222.213,92.1,222.213Z" transform="translate(-92.093 -222.036)"/></g><g transform="translate(4.246 5.211)"><path class="c" d="M85.026,191.739s.07-.053.218-.153l.663-.444,2.571-1.707L98,183.146l31.683-20.855.092-.061.058.094.96,1.55.1.161.056.09-.089.058c-21.9,14.146-40.238,25.954-44.992,28.969l-.022.014-.013-.022-.616-1.065c-.132-.231-.189-.339-.189-.339s.074.113.214.34l.633,1.038-.035-.008c4.7-3.094,23-14.961,44.9-29.108l-.034.147-.1-.161-.96-1.55.151.034L98.133,183.21l-9.575,6.248-2.609,1.694-.683.439C85.111,191.689,85.026,191.739,85.026,191.739Z" transform="translate(-85.026 -162.23)"/></g><g transform="translate(5.579 31.405)"><path class="c" d="M92.86,227.767a2.307,2.307,0,1,1-2.38-2.232A2.307,2.307,0,0,1,92.86,227.767Z" transform="translate(-88.247 -225.534)"/></g><g transform="translate(44.175 6.317)"><path class="d" d="M184.574,167.574s-5.532,3.143-1.7,16.362c0,0,15.115-.19,20.767-8.821,0,0-5.4-11.241-12.186-10.134Z" transform="translate(-181.523 -164.904)"/></g><g transform="translate(46.021)"><path class="d" d="M187.362,156.278l-1.21-3.171a2.558,2.558,0,0,1,1.732-3.384h0a2.557,2.557,0,0,1,3.043,1.546l1.358,3.5Z" transform="translate(-185.984 -149.637)"/></g><g transform="translate(47.226 4.446)"><path class="c" d="M188.9,164.923l.1-2.545,4.733-2,2.054,1.948Z" transform="translate(-188.897 -160.381)"/></g><g transform="translate(0.21 79.522)"><path class="e" d="M92.413,341.821a.9.9,0,0,1,0,.229,4.564,4.564,0,0,1-.082.652,5.335,5.335,0,0,1-1,2.19,7.02,7.02,0,0,1-2.865,2.128,12.272,12.272,0,0,1-4.288.873c-.778.03-1.538.017-2.269-.023a15.27,15.27,0,0,1-2.1-.238,6.308,6.308,0,0,1-3.222-1.521,4.145,4.145,0,0,1-1.232-2.062,3.082,3.082,0,0,1-.075-.654.919.919,0,0,1,.018-.229,6.61,6.61,0,0,0,.139.863A4.2,4.2,0,0,0,76.683,346a6.25,6.25,0,0,0,3.156,1.438,15.538,15.538,0,0,0,2.077.223c.727.036,1.48.048,2.249.019a12.349,12.349,0,0,0,4.221-.841,7,7,0,0,0,2.821-2.039,5.513,5.513,0,0,0,1.041-2.114C92.377,342.135,92.39,341.819,92.413,341.821Z" transform="translate(-75.272 -341.821)"/></g><g transform="translate(45.054 13.796)"><path class="f" d="M202.555,182.979a.8.8,0,0,1-.143.16l-.44.428c-.191.187-.429.41-.72.652s-.61.535-.992.82-.789.614-1.254.93c-.453.332-.964.646-1.5.985A29.36,29.36,0,0,1,190,190.22c-.612.158-1.19.317-1.742.422-.547.125-1.063.209-1.535.282s-.9.121-1.277.166-.7.07-.968.082l-.613.029a.108.108,0,1,1,0-.043l.609-.07c.264-.025.588-.06.961-.118s.8-.1,1.266-.2.979-.175,1.521-.307c.547-.112,1.12-.276,1.726-.439a30.985,30.985,0,0,0,7.463-3.244c.532-.332,1.043-.639,1.5-.962.466-.307.883-.618,1.262-.9s.712-.557,1.008-.792.543-.446.742-.622l.466-.4A.818.818,0,0,1,202.555,182.979Z" transform="translate(-183.649 -182.979)"/></g></g><g transform="translate(107.73 94.128)"><g transform="translate(16.996 19.904)"><path class="a" d="M309.367,411.465a8.534,8.534,0,0,0,6.877-3.651c.7-1.021,1.228-2.253,2.311-2.848,1.747-.96,3.835.209,5.627,1.082,3.682,1.794,8.219,2.316,11.823.371,1.863-1.005,3.4-2.613,5.392-3.322a13.042,13.042,0,0,1,5.718-.276,14.423,14.423,0,0,0,5.731-.154c1.84-.566,3.519-2.139,3.562-4.063a4.624,4.624,0,0,0-2.961-4.056,11.687,11.687,0,0,0-5.241-.639c-9.9.468-19.62,3.587-29.52,3.148-1.936-.086-4.03-.27-5.66.778-2.126,1.366-2.6,4.241-2.672,6.767s-.046,5.3-1.674,7.237" transform="translate(-308.681 -393.874)"/></g><g transform="translate(15.435 6.303)"><path class="d" d="M306.726,368.6a16.291,16.291,0,0,0-.919,1.824c-.387,1.308-1.814,5.959.008,8.39,2.056,2.742,13.654,2.665,14.585,2.655.04,0,.079,0,.118,0l16.858-1.189a2.057,2.057,0,0,0,.523-.106l14.46-4.976a2.049,2.049,0,0,0,.9-.617h0a2.053,2.053,0,0,0-.276-2.92l-10.823-8.769a2.038,2.038,0,0,0-.761-.388,50.809,50.809,0,0,0-20.971-.724C313.586,363.041,310.15,364.026,306.726,368.6Z" transform="translate(-304.91 -361.003)"/></g><g transform="translate(59.899 17.128)"><path class="d" d="M414.777,390.22a2,2,0,0,0-.522,2.7,2.455,2.455,0,0,0,3.216.485,4.413,4.413,0,0,0,1.826-2.969,2.515,2.515,0,0,0-.477-2.365,2.858,2.858,0,0,0-1.593-.569,37.582,37.582,0,0,0-4.86-.334" transform="translate(-412.367 -387.165)"/></g><g class="g" transform="translate(57.095 17.005)"><path d="M405.589,387.478a21.954,21.954,0,0,0,4.726,1.177,4,4,0,0,0,3.221-1.262,1.952,1.952,0,0,1,.412-.434.464.464,0,0,1,.557.005c.186.178.1.49-.017.719a4.245,4.245,0,0,1-3.59,2.244c-1.48.036-4.565-1.169-5.31-2.449" transform="translate(-405.589 -386.868)"/></g><g transform="translate(52.052)"><path class="d" d="M398.668,349.723s-6.82.966-4.938,8.4,9.427,7.1,10.772,6.9a3.669,3.669,0,0,0,1.223-.491,7.5,7.5,0,0,0,3.613-5.706l.038-.356,3.969-3.731s-1.146-.624-5.213-.16l-4.967-3.822s.577-4.627-.029-4.973S398.668,349.723,398.668,349.723Z" transform="translate(-393.402 -345.771)"/></g><g transform="translate(0 16.75)"><path class="d" d="M283.839,386.25c-1.227,2.174-.776,4.867-.312,7.32s.858,5.171-.453,7.295a5.241,5.241,0,0,1-4.687,2.425,15.036,15.036,0,0,1-4.476-1.5c-1.469-.587-3.205-.938-4.579-.155a3.909,3.909,0,0,0-1.564,4.419,6.462,6.462,0,0,0,3.253,3.7,10.979,10.979,0,0,0,10.182-.125,14.1,14.1,0,0,0,6.561-8.007,19.832,19.832,0,0,0,.389-10.471" transform="translate(-267.607 -386.25)"/></g><g transform="translate(59.985 11.154)"><path class="c" d="M412.574,372.728l.144,2.042,1.667-.657A2.606,2.606,0,0,0,412.574,372.728Z" transform="translate(-412.574 -372.728)"/></g><g class="g" transform="translate(31.295 17.5)"><path d="M350.446,396.906a3.328,3.328,0,0,0,2.078-2.713,4.91,4.91,0,0,0-.934-3.39,6.625,6.625,0,0,0-7.2-2.47,1.513,1.513,0,0,0-1.131.919,1.171,1.171,0,0,0,.424,1.1,4.517,4.517,0,0,0,1.063.619,9.872,9.872,0,0,1,5.2,6.612" transform="translate(-343.238 -388.064)"/></g><g transform="translate(26.631 17.051)"><path class="d" d="M334.749,387.086a8.034,8.034,0,0,1,9.231,9.461,6.845,6.845,0,0,0,3.255-.122,4.914,4.914,0,0,1,3.221.189c.966.521,1.486,1.958.727,2.75a2.747,2.747,0,0,1-1.529.634c-3.045.576-6.2,1.149-9.212.4a21.676,21.676,0,0,1-5.049-2.215c-1.794-.977-1.631-.617-3.425-1.594" transform="translate(-331.968 -386.978)"/></g><g class="g" transform="translate(53.221 17.033)"><path d="M401.568,391.588l-1.65-.4a8.249,8.249,0,0,1-2.25-.775,2.787,2.787,0,0,1-1.418-1.828,1.4,1.4,0,0,1,.842-1.619,2.037,2.037,0,0,1,1.487.416l3.863,2.293a1.6,1.6,0,0,1,.714.656,1.028,1.028,0,0,1-.372,1.167,2.072,2.072,0,0,1-1.246.359" transform="translate(-396.227 -386.936)"/></g><g transform="translate(46.372 17.534)"><path class="d" d="M379.675,390.183a6.243,6.243,0,0,0,2.545,4.521,8.5,8.5,0,0,0,5.022,1.583c1.788.014,3.627-.428,5.332.109,1.1.348,2.052,1.082,3.144,1.461a2.654,2.654,0,0,0,3.13-.709,2.343,2.343,0,0,0-.675-2.852,6.838,6.838,0,0,0-2.906-1.236l-4.709-1.183a7.384,7.384,0,0,1-2.763-1.11,2.516,2.516,0,0,1-1.028-2.62" transform="translate(-379.675 -388.146)"/></g><g transform="translate(58.268 11.508)"><path class="c" d="M412.163,376.5a1.212,1.212,0,0,1-.863.062,1.58,1.58,0,0,1-.848-.471.815.815,0,0,1-.21-.577.634.634,0,0,1,.379-.561l.086.2c-.041.018-.084.041-.13.057a1.639,1.639,0,0,1-1.241-.029,1.532,1.532,0,0,1-.738-.693,1.124,1.124,0,0,1-.134-.9,2.486,2.486,0,0,0,.266.823,1.44,1.44,0,0,0,.682.586A1.492,1.492,0,0,0,410.5,375c.04-.014.076-.034.112-.049l.086.2a.43.43,0,0,0-.246.375.624.624,0,0,0,.152.437,1.512,1.512,0,0,0,.734.451A3.539,3.539,0,0,0,412.163,376.5Z" transform="translate(-408.425 -373.582)"/></g><g transform="translate(63.085 13.159)"><path class="c" d="M422.567,378.555c.01.024-.134.122-.407.184a1.912,1.912,0,0,1-1.078-.077,1.769,1.769,0,0,1-.851-.669c-.153-.236-.181-.411-.157-.42s.108.134.278.327a2.04,2.04,0,0,0,.806.56A3.42,3.42,0,0,0,422.567,378.555Z" transform="translate(-420.066 -377.572)"/></g><g transform="translate(52.459 4.732)"><path class="c" d="M394.387,357.208c.018-.016,1.338,1.486,2.949,3.353s2.9,3.393,2.884,3.409-1.338-1.485-2.949-3.353S394.369,357.223,394.387,357.208Z" transform="translate(-394.387 -357.208)"/></g><g transform="translate(54.307 2.497)"><path class="c" d="M398.852,351.8c.021-.01.942,1.857,2.055,4.17s2,4.2,1.978,4.208-.941-1.857-2.056-4.171S398.83,351.815,398.852,351.8Z" transform="translate(-398.851 -351.805)"/></g><g transform="translate(42.99 28.092)"><path class="c" d="M374.343,415.117a1.839,1.839,0,0,0-.158-.487,1.689,1.689,0,0,0-.933-.759,3.289,3.289,0,0,0-1.23-.125,4.814,4.814,0,0,1-.521.03.437.437,0,0,1,.136-.036c.089-.017.218-.038.379-.055a3,3,0,0,1,1.262.1,1.666,1.666,0,0,1,.96.813,1.084,1.084,0,0,1,.107.373A.352.352,0,0,1,374.343,415.117Z" transform="translate(-371.502 -413.663)"/></g><g transform="translate(43.351 26.807)"><path class="c" d="M375.037,411.844c-.016.005-.061-.177-.224-.422a1.723,1.723,0,0,0-2-.7c-.28.091-.429.206-.438.192s.031-.036.1-.085a1.45,1.45,0,0,1,.318-.164,1.7,1.7,0,0,1,2.072.722,1.494,1.494,0,0,1,.147.326A.341.341,0,0,1,375.037,411.844Z" transform="translate(-372.375 -410.556)"/></g><g transform="translate(20.336 17.723)"><path class="c" d="M317.51,388.6a2.777,2.777,0,0,0-.568,1.1,3.932,3.932,0,0,0-.094,1.339,8.7,8.7,0,0,0,.35,1.619c.166.566.334,1.107.429,1.614a4.975,4.975,0,0,1,.085,1.364,3,3,0,0,1-.215.9,1.612,1.612,0,0,1-.159.3c-.008,0,.052-.109.127-.311a3.226,3.226,0,0,0,.185-.888,5.116,5.116,0,0,0-.1-1.344c-.1-.5-.268-1.037-.434-1.606a8.4,8.4,0,0,1-.346-1.636,3.88,3.88,0,0,1,.114-1.362,2.541,2.541,0,0,1,.4-.831A1.45,1.45,0,0,1,317.51,388.6Z" transform="translate(-316.753 -388.603)"/></g><g transform="translate(47.269 17.219)"><path class="c" d="M382.007,387.384a.342.342,0,0,1,0,.088c-.01.079-.02.162-.031.25a7.138,7.138,0,0,0-.062.92,8.074,8.074,0,0,0,.1,1.362,8.229,8.229,0,0,0,1.175,3.11,8.11,8.11,0,0,0,.826,1.088,7.194,7.194,0,0,0,.655.649l.188.167c.043.039.064.06.062.063a5.949,5.949,0,0,1-.95-.838,7.618,7.618,0,0,1-.848-1.086,8,8,0,0,1-1.186-3.14,7.666,7.666,0,0,1-.082-1.375A5.95,5.95,0,0,1,382.007,387.384Z" transform="translate(-381.843 -387.384)"/></g><g transform="translate(53.508 17.473)"><path class="c" d="M404.349,392.761c0,.007-.127-.049-.357-.132a8.963,8.963,0,0,0-.994-.293c-.848-.221-2.068-.326-3.351-.751a4.883,4.883,0,0,1-1.657-.919,3.334,3.334,0,0,1-.892-1.262,2.455,2.455,0,0,1-.172-1.028,1.494,1.494,0,0,1,.064-.377,2.576,2.576,0,0,0,.165,1.383,3.335,3.335,0,0,0,.888,1.225,4.894,4.894,0,0,0,1.632.9c1.267.42,2.489.536,3.338.773a7.627,7.627,0,0,1,.992.321A2.923,2.923,0,0,1,404.349,392.761Z" transform="translate(-396.921 -387.998)"/></g><g transform="translate(62.575 25.475)"><path class="c" d="M421.37,409.033c-.013.007-.1-.15-.271-.375a3.42,3.42,0,0,0-1.814-1.21c-.275-.074-.453-.091-.451-.106a.362.362,0,0,1,.126,0,2.15,2.15,0,0,1,.34.049,3.078,3.078,0,0,1,1.848,1.233,2.115,2.115,0,0,1,.176.294C421.359,408.989,421.376,409.03,421.37,409.033Z" transform="translate(-418.834 -407.337)"/></g><g transform="translate(63.556 24.554)"><path class="c" d="M423.646,406.46c-.015,0-.06-.162-.2-.393a1.848,1.848,0,0,0-1.8-.87c-.271.031-.43.1-.435.084s.035-.027.108-.057a1.528,1.528,0,0,1,.319-.088,1.786,1.786,0,0,1,1.863.9,1.542,1.542,0,0,1,.13.3A.308.308,0,0,1,423.646,406.46Z" transform="translate(-421.204 -405.112)"/></g><g transform="translate(61.463 19.773)"><path class="c" d="M419.487,393.711a4.764,4.764,0,0,0-.723-.09,2.8,2.8,0,0,0-1.645.5,2.269,2.269,0,0,0-.667.677,1.748,1.748,0,0,0-.241.735,3.7,3.7,0,0,0,.035.726,1.692,1.692,0,0,1-.1-.731,1.744,1.744,0,0,1,.234-.771,2.274,2.274,0,0,1,.687-.708,2.736,2.736,0,0,1,1.7-.493,2.336,2.336,0,0,1,.535.084A.683.683,0,0,1,419.487,393.711Z" transform="translate(-416.146 -393.556)"/></g><g transform="translate(62.414 20.33)"><path class="c" d="M420.363,395.678a.689.689,0,0,1-.3.227,1.135,1.135,0,0,1-1.547-.629.683.683,0,0,1-.06-.374,3.545,3.545,0,0,0,.116.351,1.132,1.132,0,0,0,1.467.6C420.247,395.767,420.353,395.666,420.363,395.678Z" transform="translate(-418.445 -394.902)"/></g><g transform="translate(61.578 21.443)"><path class="c" d="M418.874,398.276a.958.958,0,0,1-.372.192,1.735,1.735,0,0,1-1.859-.518.942.942,0,0,1-.219-.356c.013-.007.089.133.264.315a1.812,1.812,0,0,0,1.8.5C418.729,398.344,418.867,398.262,418.874,398.276Z" transform="translate(-416.423 -397.593)"/></g><g transform="translate(60.725 22.173)"><path class="c" d="M419.39,402.039a2.967,2.967,0,0,0-.512-.672,5.7,5.7,0,0,0-1.774-1.006c-.749-.294-1.441-.528-1.939-.706l-.589-.21a1.172,1.172,0,0,1-.213-.087,1.138,1.138,0,0,1,.223.055l.6.184c.5.163,1.2.388,1.951.683a5.354,5.354,0,0,1,1.784,1.042,2.079,2.079,0,0,1,.379.5A1.124,1.124,0,0,1,419.39,402.039Z" transform="translate(-414.363 -399.358)"/></g><g transform="translate(53.097 10.914)"><path class="c" d="M402.67,379.829a6.577,6.577,0,0,1-1.19-.75,8.456,8.456,0,0,1-2.31-2.732l.075-.029a4.883,4.883,0,0,0,.922,1.82l.143.177-.2-.112-.239-.136a8.154,8.154,0,0,1-3.392-3.844,7.622,7.622,0,0,1-.47-1.5c-.069-.366-.085-.571-.085-.571s.014.05.034.146.039.239.084.419a8.261,8.261,0,0,0,3.872,5.281l.236.135-.053.065a4.934,4.934,0,0,1-.934-1.854l-.087-.339.163.31a8.625,8.625,0,0,0,2.269,2.73,9.091,9.091,0,0,0,.844.594l.235.143A.479.479,0,0,1,402.67,379.829Z" transform="translate(-395.927 -372.147)"/></g><g transform="translate(35.357 12.884)"><path class="c" d="M356.434,379.486a.653.653,0,0,1-.163-.05c-.1-.036-.249-.1-.425-.181a7.319,7.319,0,0,1-2.412-1.841c-.127-.149-.224-.274-.287-.363a.665.665,0,0,1-.091-.144c.012-.009.16.181.423.466a8.634,8.634,0,0,0,2.394,1.827C356.217,379.379,356.439,379.473,356.434,379.486Z" transform="translate(-353.055 -376.907)"/></g><g transform="translate(36.804 13.254)"><path class="c" d="M358.482,379.449a9.3,9.3,0,0,1-.993-.79,9.479,9.479,0,0,1-.936-.856,18.57,18.57,0,0,1,1.929,1.646Z" transform="translate(-356.553 -377.802)"/></g><g transform="translate(38.282 13.66)"><path class="c" d="M361.374,379.808a3.142,3.142,0,0,1-1.248-1.023c.019-.017.268.246.612.526S361.387,379.786,361.374,379.808Z" transform="translate(-360.125 -378.784)"/></g><g class="g" transform="translate(22.048 6.317)"><path class="f" d="M338.1,361.037c1.246-.025.381,2.076-.146,3.054a3.632,3.632,0,0,1-2.617,1.855c-1.068.158-2.169-.174-3.232.021-2.213.407-3.443,2.867-5.5,3.782a4.378,4.378,0,0,1-4.349-.515c-1.217-.932-1.526-3.41-1.289-4.924C320.964,364.309,325.1,361.3,338.1,361.037Z" transform="translate(-320.891 -361.036)"/></g><g class="g" transform="translate(47.48 19.27)"><path class="f" d="M382.508,392.643a2.61,2.61,0,0,1,2.04-.194,4.53,4.53,0,0,1,1.838.86,2.5,2.5,0,0,1,1.139,1.563,2.929,2.929,0,0,1-.876,2.064,3.26,3.26,0,0,1-.652.676,1.113,1.113,0,0,1-.89.208,1.573,1.573,0,0,1-.787-.634,13.9,13.9,0,0,1-1.622-2.655,2.14,2.14,0,0,1-.19-1.889" transform="translate(-382.353 -392.34)"/></g><g transform="translate(29.882 16.71)"><path class="c" d="M348.586,396.064s0-.053.021-.152.049-.244.071-.433a7.337,7.337,0,0,0,.059-1.608,7.03,7.03,0,0,0-.609-2.3,11.467,11.467,0,0,0-1.537-2.478,7.266,7.266,0,0,0-2.355-1.692,13.5,13.5,0,0,0-2.251-.8c-.659-.173-1.2-.278-1.577-.346l-.433-.075c-.1-.017-.15-.031-.15-.031a14.98,14.98,0,0,1,2.176.393,13.123,13.123,0,0,1,2.27.786,7.258,7.258,0,0,1,2.386,1.708,11.325,11.325,0,0,1,1.545,2.5,6.616,6.616,0,0,1,.511,3.94C348.644,395.861,348.586,396.064,348.586,396.064Z" transform="translate(-339.824 -386.155)"/></g><g transform="translate(57.526 7.681)"><path class="c" d="M408.814,366.4c0,.026-.189.066-.495.014a2.068,2.068,0,0,1-1.651-1.591c-.063-.3-.031-.495,0-.495s.056.182.151.454a2.307,2.307,0,0,0,1.54,1.483C408.63,366.355,408.814,366.371,408.814,366.4Z" transform="translate(-406.631 -364.333)"/></g><g transform="translate(61.05 13.555)"><path class="c" d="M415.283,378.835c-.059.01-.117-.051-.131-.135s.023-.16.082-.169.117.051.131.135S415.342,378.825,415.283,378.835Z" transform="translate(-415.149 -378.53)"/></g><g transform="translate(61.592 13.419)"><path class="c" d="M416.658,378.453a.149.149,0,1,1,.008-.179A.129.129,0,0,1,416.658,378.453Z" transform="translate(-416.458 -378.202)"/></g><g transform="translate(61.607 13.929)"><path class="c" d="M416.67,379.6a.1.1,0,1,1,0-.146A.1.1,0,0,1,416.67,379.6Z" transform="translate(-416.493 -379.434)"/></g><g transform="translate(58.908 11.979)"><path class="c" d="M410.279,374.957c-.034.049-.127.044-.208-.012s-.12-.141-.086-.19.127-.043.208.012S410.312,374.907,410.279,374.957Z" transform="translate(-409.972 -374.721)"/></g><g transform="translate(59.365 11.326)"><path class="c" d="M411.194,373.421a.144.144,0,0,1-.02-.278c.06,0,.112.055.118.132A.127.127,0,0,1,411.194,373.421Z" transform="translate(-411.076 -373.142)"/></g><g transform="translate(59.502 12.265)"><path class="c" d="M411.507,375.555c-.059-.007-.1-.045-.1-.084s.057-.065.116-.057.1.045.1.084S411.565,375.563,411.507,375.555Z" transform="translate(-411.408 -375.413)"/></g><g transform="translate(62.564 14.636)"><path class="c" d="M426.555,386.246c-.013.02-1.758-1.106-3.9-2.515s-3.863-2.567-3.85-2.587,1.758,1.106,3.9,2.515S426.568,386.226,426.555,386.246Z" transform="translate(-418.808 -381.143)"/></g><g transform="translate(63.15 14.547)"><path class="c" d="M430.064,384.584a.521.521,0,0,1-.106-.012c-.069-.012-.171-.027-.3-.055-.262-.051-.637-.14-1.094-.273a36.352,36.352,0,0,1-3.487-1.293l-3.437-1.414L420.6,381.1l-.281-.123a.478.478,0,0,1-.1-.048.546.546,0,0,1,.1.032l.287.108,1.048.412,3.447,1.392c1.342.553,2.562,1.038,3.472,1.314.453.141.826.238,1.084.3l.3.071A.478.478,0,0,1,430.064,384.584Z" transform="translate(-420.223 -380.926)"/></g><g class="g" transform="translate(58.433 0.516)"><path d="M409.3,350.487a2.581,2.581,0,0,0,1.4-.655,2.5,2.5,0,0,0,.672-1.318,7.467,7.467,0,0,0,.1-1.5l-1.409,1.338c-.3.284-.6.569-.871.879a1.531,1.531,0,0,0-.339.535.611.611,0,0,0,.106.6.389.389,0,0,0,.563,0" transform="translate(-408.823 -347.017)"/></g><g class="g" transform="translate(68.153 9.102)"><path d="M432.314,371.063a3.4,3.4,0,0,1,3.31-3.294c-.674,1.4-2.358,2-3.312,3.225" transform="translate(-432.313 -367.769)"/></g></g><g transform="translate(140.987 57.756)"><path class="c" d="M349.5,259.632l-.535.278q-.443,10.413-.884,20.826c-.163,3.828-.314,7.728,1.113,11.484l22.908,6.1a12.009,12.009,0,0,0,1.617-5.089,177.008,177.008,0,0,0,.692-23.132c-.065-2.416.15-8.02-2.084-9.52-3.753-2.52-7.223-1.672-11.018-2.508s-7.695,1.2-11.592,1.156" transform="translate(-347.979 -257.871)"/></g><g transform="translate(48.906)"><g transform="translate(37.374 73.314)"><path class="h" d="M260.96,306.163l-6.754-10.693c-.281,0-19.923,3.94-19.923,3.94s-13.676,1.182-14.014,1.407-4.5,7.935-4.5,7.935c2.758.45,3.883-3.1,3.883-3.1l2.758-1.576,3.377.394a7.162,7.162,0,0,0-2.026,1.182c-.732.9-1.125,2.645-.675,2.7s1.272-1.238,3.394-1.52,7.5-1.407,7.5-1.407h0l1.933.226Z" transform="translate(-215.767 -295.47)"/><g transform="translate(9.564 7.616)"><path class="i" d="M242.716,313.885a336.22,336.22,0,0,1-3.835,1.643,10.507,10.507,0,0,1,3.835-1.643Z" transform="translate(-238.88 -313.877)"/></g></g><g transform="translate(63.318 8.219)"><path class="c" d="M280.816,148.931c.662,7.593,1.231,15.678-2.349,22.408a3.246,3.246,0,0,0,1.984-1.294,27.121,27.121,0,0,0-.177,7.571,9.147,9.147,0,0,0,3.778,6.334q.047-.47.093-.941a12.785,12.785,0,0,0,10.922,10.456c2.328.254,5-.344,6.233-2.333.939-1.512.821-3.427.671-5.2q-1.459-17.294-2.917-34.588c-.271-3.216-.6-6.6-2.445-9.247a9.234,9.234,0,0,0-16.676,3.7" transform="translate(-278.467 -138.155)"/></g><g transform="translate(71.599 38.027)"><path class="d" d="M308.035,213.394s-5.6,3.242-7.309,5.932-1.07,10.234-1.07,10.234a35.5,35.5,0,0,0-1.176,8.061c-.013,4.358,3.372,7.55,4.234,9.891s.269,13.015.269,13.015l31.878.78V239.35l4.236.385s1.378-21.433-5.027-24.143-14.113-5.4-14.113-5.4Z" transform="translate(-298.48 -210.192)"/><g transform="translate(1.218 20.172)"><path class="j" d="M340.98,262.025a2,2,0,0,1-.252.355,3.376,3.376,0,0,1-.972.782,4.709,4.709,0,0,1-1.9.545,6.36,6.36,0,0,1-2.586-.381,17.934,17.934,0,0,1-2.858-1.365,18.5,18.5,0,0,0-3.249-1.547,7.208,7.208,0,0,0-3.9-.131,22.618,22.618,0,0,0-4,1.5,21.7,21.7,0,0,1-4.045,1.5,7.2,7.2,0,0,1-4-.193A15.761,15.761,0,0,1,310,261.4a25.05,25.05,0,0,0-2.713-1.591,7.384,7.384,0,0,0-2.462-.731,5.234,5.234,0,0,0-1.93.153,4.429,4.429,0,0,0-1.474.752,2.156,2.156,0,0,1,.331-.283,3.758,3.758,0,0,1,1.12-.55,5.211,5.211,0,0,1,1.965-.193,7.416,7.416,0,0,1,2.516.712,24.6,24.6,0,0,1,2.744,1.579,15.755,15.755,0,0,0,3.189,1.656,6.179,6.179,0,0,0,1.89.359,6.691,6.691,0,0,0,1-.022c.334-.037.669-.1,1.006-.162a21.732,21.732,0,0,0,4-1.492,22.543,22.543,0,0,1,4.039-1.514,7.389,7.389,0,0,1,4,.148,18.461,18.461,0,0,1,3.276,1.58,18.047,18.047,0,0,0,2.821,1.377,6.289,6.289,0,0,0,2.528.4,4.694,4.694,0,0,0,1.866-.5,3.54,3.54,0,0,0,.979-.737C340.888,262.145,340.969,262.018,340.98,262.025Z" transform="translate(-301.424 -258.942)"/></g><g transform="translate(1.556 11.304)"><path class="j" d="M340.432,241.476s-.024.027-.077.072-.132.115-.244.192a3.728,3.728,0,0,1-1.082.5,6.627,6.627,0,0,1-4.3-.472c-.857-.358-1.742-.856-2.7-1.353a11.114,11.114,0,0,0-3.2-1.194,10.36,10.36,0,0,0-3.767.092,25,25,0,0,0-3.92,1.152c-1.32.482-2.6.982-3.886,1.353a13.862,13.862,0,0,1-3.792.618,13.7,13.7,0,0,1-6.256-1.6,25.565,25.565,0,0,1-3.707-2.321c-.412-.312-.729-.556-.938-.73l-.238-.2a.4.4,0,0,1-.077-.073.373.373,0,0,1,.09.055l.251.18.961.7a27.619,27.619,0,0,0,3.725,2.253,12.514,12.514,0,0,0,9.922.92c1.269-.37,2.549-.869,3.872-1.353a24.877,24.877,0,0,1,3.955-1.157,10.513,10.513,0,0,1,3.841-.08,11.212,11.212,0,0,1,3.252,1.231c.961.507,1.836,1.009,2.68,1.371a6.643,6.643,0,0,0,4.219.532A4.321,4.321,0,0,0,340.432,241.476Z" transform="translate(-302.24 -237.511)"/></g><g transform="translate(2.643 32.683)"><path class="j" d="M327.671,292.509a1.063,1.063,0,0,1-.221.115c-.147.069-.366.167-.651.287a15.743,15.743,0,0,1-2.481.845,6.719,6.719,0,0,1-3.869-.121,20.052,20.052,0,0,1-4.1-2.4,10.74,10.74,0,0,0-4.329-1.74,12,12,0,0,0-2.047-.128,11.391,11.391,0,0,0-1.777.206,10.349,10.349,0,0,0-2.463.805c-.557.259-.848.441-.86.42a1.05,1.05,0,0,1,.2-.142,6.15,6.15,0,0,1,.619-.354,9.621,9.621,0,0,1,2.469-.879,11.132,11.132,0,0,1,1.8-.235,11.875,11.875,0,0,1,2.084.11,10.769,10.769,0,0,1,4.416,1.755,20.555,20.555,0,0,0,4.054,2.4,6.65,6.65,0,0,0,3.769.16,18.092,18.092,0,0,0,2.484-.774l.665-.25A1.111,1.111,0,0,1,327.671,292.509Z" transform="translate(-304.868 -289.177)"/></g><g transform="translate(5.032 43.478)"><path class="j" d="M330.995,315.645c-.005.021-.3-.06-.829-.137a10.428,10.428,0,0,0-2.276-.058,18.359,18.359,0,0,0-3.325.622c-1.233.332-2.568.787-4,1.176a15.624,15.624,0,0,1-4.136.634,8.7,8.7,0,0,1-3.351-.668,6,6,0,0,1-1.913-1.284,4.255,4.255,0,0,1-.405-.48.808.808,0,0,1-.12-.183c.02-.016.192.233.583.6a6.284,6.284,0,0,0,1.913,1.2,8.781,8.781,0,0,0,3.293.61,15.9,15.9,0,0,0,4.079-.643c1.423-.387,2.76-.836,4-1.159a17.435,17.435,0,0,1,3.365-.582,9.477,9.477,0,0,1,2.3.127,5.91,5.91,0,0,1,.609.146A.84.84,0,0,1,330.995,315.645Z" transform="translate(-310.642 -315.267)"/></g><g transform="translate(25.239 20.729)"><path class="c" d="M359.583,273.689c-.06,0-.108-3-.108-6.7s.048-6.7.108-6.7.108,3,.108,6.7S359.642,273.689,359.583,273.689Z" transform="translate(-359.475 -260.288)"/></g><g transform="translate(11.695 27.379)"><path class="c" d="M337.386,287.163a.536.536,0,0,1-.173.025c-.114.006-.282.026-.5.022a9.183,9.183,0,0,1-1.827-.177,9.995,9.995,0,0,1-8-8.173,9.179,9.179,0,0,1-.138-1.83c0-.217.024-.384.032-.5a.529.529,0,0,1,.029-.172,15.57,15.57,0,0,0,.227,2.472,10.143,10.143,0,0,0,7.884,8.053A15.57,15.57,0,0,0,337.386,287.163Z" transform="translate(-326.743 -276.36)"/></g><g class="g" transform="translate(5.473 28.831)"><path d="M311.749,299.4c4.631-2.757,10.838-2.287,15.006-5.7a13.238,13.238,0,0,0,4-6.346,39.457,39.457,0,0,0,1.338-7.478q.4,7.017.793,14.035a2.869,2.869,0,0,1-2.719,3.755l-10.151,2.258c-2.747.611-5.685,1.21-8.311.2" transform="translate(-311.707 -279.868)"/></g><g class="k" transform="translate(16.205 5.461)"><path d="M340.2,231.407a12.584,12.584,0,0,0-2.238,3.478,4.259,4.259,0,0,0,.36,3.969,4.128,4.128,0,0,0,4.092,1.31,9.522,9.522,0,0,0,3.96-2.114,3.269,3.269,0,0,1,1.978-.972,8.851,8.851,0,0,1,1.3.291,3.312,3.312,0,0,0,3.121-1.6,13.683,13.683,0,0,0,1.4-3.421,6.189,6.189,0,0,1,1.924-3.1c.921-.686,2.208-.966,2.781-1.961.719-1.247-.222-2.922-1.539-3.5a7.789,7.789,0,0,0-4.255-.182" transform="translate(-337.642 -223.391)"/></g><g class="k" transform="translate(10.82 29.829)"><path d="M334.771,290.473c.077.119-.02.369-.352.66a3.585,3.585,0,0,1-1.683.74,5.464,5.464,0,0,1-2.749-.246,6.958,6.958,0,0,1-2.768-1.878,9.365,9.365,0,0,1-1.716-2.713,11.876,11.876,0,0,1-.716-2.407c-.246-1.384-.2-2.258.083-2.342s.767.664,1.363,1.86a17.707,17.707,0,0,0,2.572,4.142,6.837,6.837,0,0,0,1.936,1.5,5.784,5.784,0,0,0,1.911.561C333.811,290.487,334.6,290.209,334.771,290.473Z" transform="translate(-324.629 -282.28)"/></g><g transform="translate(25.346 28.146)"><path class="c" d="M375.006,279.609c-.005.059-3.429-.2-7.645-.587s-7.631-.742-7.626-.8,3.428.2,7.646.587S375.011,279.55,375.006,279.609Z" transform="translate(-359.735 -278.213)"/></g></g><g transform="translate(61.818)"><g transform="translate(24.799 7.627)"><path class="c" d="M335.082,136.722a41.82,41.82,0,0,0,5.336,4.212c2,1.258,4.059,2.761,4.8,5,.538,1.629.341,3.559,1.42,4.891.922,1.139,2.486,1.473,3.779,2.163a7.248,7.248,0,0,1,3.753,6.323c-.015,1.646-.578,3.413.2,4.864.68,1.267,2.2,1.886,2.954,3.11a5.74,5.74,0,0,1,.374,4c-.361,2.063-1.125,4.3-2.971,5.285a5.048,5.048,0,0,1-4.132.113,10,10,0,0,1-3.456-2.439,20.024,20.024,0,0,1-4.413-6.847,50.985,50.985,0,0,1-2.146-9.565,92.485,92.485,0,0,0-4.819-17.308c-.528-1.366-1.473-2.575-.676-3.8" transform="translate(-334.775 -136.722)"/></g><g transform="translate(24.807 7.341)"><path class="c" d="M350.683,162.225a3.037,3.037,0,0,1,.326-.212,9.632,9.632,0,0,0,.9-.645,6.82,6.82,0,0,0,1.212-1.254,4.572,4.572,0,0,0,.876-2.1,3.776,3.776,0,0,0-.66-2.622,2.707,2.707,0,0,0-1.173-.941,5.032,5.032,0,0,0-1.61-.271,3.584,3.584,0,0,1-1.73-.441,2.658,2.658,0,0,1-1.076-1.522,5.112,5.112,0,0,1-.168-1.92c.06-.648.19-1.289.278-1.939a5.917,5.917,0,0,0,.009-1.912,4.344,4.344,0,0,0-.743-1.682,7.769,7.769,0,0,0-2.7-2.239c-1-.544-2-.967-2.906-1.445a26.479,26.479,0,0,1-2.441-1.445,25.54,25.54,0,0,1-3.222-2.539c-.355-.33-.621-.6-.8-.78l-.2-.211a.368.368,0,0,1-.062-.077.349.349,0,0,1,.078.062l.213.2c.186.174.461.43.823.749a27.966,27.966,0,0,0,3.249,2.474,27.453,27.453,0,0,0,2.439,1.413c.9.468,1.9.884,2.918,1.429a7.926,7.926,0,0,1,2.781,2.292,4.545,4.545,0,0,1,.782,1.764,6.106,6.106,0,0,1-.006,1.981c-.089.659-.219,1.3-.278,1.929a4.9,4.9,0,0,0,.156,1.839,2.453,2.453,0,0,0,.984,1.409,3.4,3.4,0,0,0,1.635.417,5.193,5.193,0,0,1,1.667.294,2.885,2.885,0,0,1,1.246,1.011,3.92,3.92,0,0,1,.667,2.745,4.658,4.658,0,0,1-.931,2.151,6.677,6.677,0,0,1-1.257,1.248,7.859,7.859,0,0,1-.931.617c-.111.064-.2.106-.257.136A.348.348,0,0,1,350.683,162.225Z" transform="translate(-334.796 -136.032)"/></g><g transform="translate(0 26.206)"><g transform="translate(1.188)"><path class="d" d="M277.713,186.062l7.19-4.348a.624.624,0,0,1,.857.211h0a.624.624,0,0,1-.211.857l-7.19,4.348Z" transform="translate(-277.713 -181.624)"/></g><g class="l" transform="translate(8.378)"><path d="M295.735,182.782l-.646-1.068h0a.624.624,0,0,1,.857.211h0a.624.624,0,0,1-.211.857Z" transform="translate(-295.089 -181.624)"/></g><g class="l" transform="translate(1.451 0.517)"><rect width="8.397" height="0.348" transform="translate(7.365 0.298) rotate(148.838)"/></g><g transform="translate(0 4.438)"><path class="d" d="M276.676,193.418l-1.833.38,1.188-1.447Z" transform="translate(-274.843 -192.35)"/></g><g class="m" transform="translate(0 4.438)"><path class="f" d="M276.676,193.418l-1.833.38,1.188-1.447Z" transform="translate(-274.843 -192.35)"/></g><g transform="translate(0 5.415)"><path class="c" d="M275.439,195.057l-.21-.347-.386.471Z" transform="translate(-274.843 -194.71)"/></g></g><g transform="translate(1.766 4.102)"><g transform="translate(3.813 5.619)"><path class="h" d="M295.306,142.3a10.166,10.166,0,0,0-6.609,12.375c1.123,4.051,2.415,8.437,3.4,10.978,2.295,5.91,7.154,5.675,7.154,5.675s.907,3.816,1.705,7.455a6.857,6.857,0,0,0,8.127,4.964h0a6.491,6.491,0,0,0,5.4-7.5l-6.094-26.565a10.162,10.162,0,0,0-13.087-7.379Z" transform="translate(-288.325 -141.785)"/><g transform="translate(2.16 12.75)"><g transform="translate(0.551 1.267)"><path class="c" d="M294.888,176.553a.8.8,0,0,0,.928.628.768.768,0,0,0,.656-.883.8.8,0,0,0-.927-.629A.769.769,0,0,0,294.888,176.553Z" transform="translate(-294.876 -175.659)"/></g><path class="c" d="M293.567,173.8c.12.081.619-.487,1.464-.668s1.555.108,1.625-.015c.035-.055-.1-.219-.416-.357a2.205,2.205,0,0,0-1.328-.115,2.115,2.115,0,0,0-1.137.659C293.557,173.564,293.51,173.768,293.567,173.8Z" transform="translate(-293.545 -172.597)"/></g><g transform="translate(11.039 11.151)"><g transform="translate(0.316 1.323)"><path class="c" d="M315.78,172.826a.8.8,0,0,0,.928.629.768.768,0,0,0,.656-.883.8.8,0,0,0-.927-.629A.768.768,0,0,0,315.78,172.826Z" transform="translate(-315.769 -171.932)"/></g><path class="c" d="M315.026,169.941c.119.081.619-.487,1.464-.668s1.555.108,1.625-.015c.035-.055-.1-.219-.417-.357a2.2,2.2,0,0,0-1.328-.115,2.115,2.115,0,0,0-1.137.659C315.017,169.7,314.969,169.905,315.026,169.941Z" transform="translate(-315.004 -168.734)"/></g><g transform="translate(7.046 12.164)"><path class="c" d="M307.657,178.3a5.7,5.7,0,0,0-1.425.049c-.221.024-.434.026-.5-.113a1.123,1.123,0,0,1,.005-.671q.135-.848.283-1.78a28.821,28.821,0,0,0,.5-4.605,28.99,28.99,0,0,0-.873,4.554q-.133.934-.254,1.784a1.275,1.275,0,0,0,.071.871.554.554,0,0,0,.422.239,1.519,1.519,0,0,0,.377-.028A5.645,5.645,0,0,0,307.657,178.3Z" transform="translate(-305.353 -171.181)"/></g><g transform="translate(10.928 25.447)"><path class="i" d="M314.735,207.241a15.929,15.929,0,0,0,7.723-3.959s-1.08,4.634-7.329,5.386Z" transform="translate(-314.735 -203.282)"/></g><g transform="translate(10.077 8.77)"><path class="c" d="M315.76,163.492c-.06.174-.733.091-1.534.137s-1.464.185-1.54.017.564-.618,1.508-.663S315.826,163.331,315.76,163.492Z" transform="translate(-312.678 -162.979)"/></g><g transform="translate(1.43 9.897)"><path class="c" d="M294.863,165.888c.006.182-.683.348-1.5.59s-1.485.467-1.578.31.493-.668,1.4-.93S294.862,165.713,294.863,165.888Z" transform="translate(-291.78 -165.702)"/></g></g><path class="c" d="M319.016,166.017s-3.326-3.648-3.057-7.835-1.04-6.9-3.382-7.866a4.727,4.727,0,0,1-2.55-3.778,28.2,28.2,0,0,0-2.081-6.872c-1.457-3.147-3.4-6.385-6.1-8.423-3.513-2.649-9.03-4.421-12.423-1.62-1.574,1.3-2.5,1.5-3.909,3.717,0,0-1.694.593-2.565.989-3.007,1.368-4.106,5.29-3.788,7.849.737,5.924,4.324,6.672,5.726,10.449,0,0-1.683-8.219-1.551-10.484a7.141,7.141,0,0,1,2.1-4.41c2.383-.431,3.645.7,5.016,2.7s2.263,3.635,4.507,4.545c2.114.858,4,2.772,6.863.745a7.01,7.01,0,0,1,1.708,3.653c.2,2.058-1.823,3.206-.338,6.379s4.266,5.325,4.555,6.588" transform="translate(-279.11 -128.204)"/><g transform="translate(14.379 25.047)"><g transform="translate(0.292 0.861)"><path class="d" d="M314.613,191.519a1.292,1.292,0,0,1,1.042-.7,1.182,1.182,0,0,1,.885.269.748.748,0,0,1,.223.827.867.867,0,0,1-.875.418,2.707,2.707,0,0,1-1.006-.357.787.787,0,0,1-.242-.168.24.24,0,0,1-.051-.262" transform="translate(-314.567 -190.815)"/></g><path class="c" d="M315.73,188.737c-.115.016.036.78-.509,1.452s-1.374.751-1.358.859c0,.05.211.112.556.053a1.937,1.937,0,0,0,1.143-.674,1.688,1.688,0,0,0,.378-1.208C315.9,188.894,315.781,188.722,315.73,188.737Z" transform="translate(-313.862 -188.736)"/></g><g transform="translate(24.091 27.363)"><path class="c" d="M337.331,194.332a6.547,6.547,0,0,1,1.653,6.336c-.418,1.449-1.344,2.743-1.555,4.236-.257,1.82.58,3.591,1.282,5.29s1.283,3.65.542,5.332c-.31.7-.83,1.3-1.148,2a1.976,1.976,0,0,0,.151,2.163,2.286,2.286,0,0,0,1.473.54,10,10,0,0,0,9.709-5.628l.807,1.8a14.276,14.276,0,0,0-1.674-17.855" transform="translate(-337.331 -194.332)"/></g><g transform="translate(21.638 17.161)"><path class="h" d="M331.41,171.309c-.09-.405.739-1.429,1.141-1.533.928-.24,2.543-.221,3.279,2.325,1.052,3.637-2.7,3.533-2.74,3.43A28.363,28.363,0,0,1,331.41,171.309Z" transform="translate(-331.404 -169.678)"/><g transform="translate(1.674 1.117)"><path class="i" d="M335.942,175.479c.012-.016.076.026.2.044a.661.661,0,0,0,.477-.127,1.633,1.633,0,0,0,.318-1.617,2.172,2.172,0,0,0-.439-.856.763.763,0,0,0-.617-.348.336.336,0,0,0-.324.282c-.019.116.024.182.007.194s-.1-.038-.11-.2a.423.423,0,0,1,.077-.269.5.5,0,0,1,.324-.194.927.927,0,0,1,.825.372,2.242,2.242,0,0,1,.513.95,1.712,1.712,0,0,1-.47,1.838.708.708,0,0,1-.607.072C335.974,175.565,335.931,175.489,335.942,175.479Z" transform="translate(-335.45 -172.378)"/></g></g></g><g transform="translate(7.993 10.922)"><path class="e" d="M329.148,167.061c-.042-.014-.007-.174,0-.468a2.956,2.956,0,0,0-.235-1.233,3.907,3.907,0,0,0-1.2-1.551,8.428,8.428,0,0,0-2.4-1.2,17.4,17.4,0,0,1-3.212-1.325,5.152,5.152,0,0,1-1.537-1.369,7.049,7.049,0,0,1-.947-1.921c-.234-.668-.423-1.34-.677-1.97a4.162,4.162,0,0,0-1.064-1.618,5.4,5.4,0,0,0-3.984-.925,28.565,28.565,0,0,1-4.687.366,6.283,6.283,0,0,1-2.3-.625,8.53,8.53,0,0,1-1.848-1.258,23.925,23.925,0,0,1-2.665-2.945,16.552,16.552,0,0,0-2.277-2.4,5.566,5.566,0,0,0-4.315-1.383,3.838,3.838,0,0,0-1.216.385c-.265.133-.406.218-.434.185s.072-.164.316-.368a3.184,3.184,0,0,1,1.249-.613,5.032,5.032,0,0,1,2.211-.036,6.568,6.568,0,0,1,2.656,1.228,16.119,16.119,0,0,1,2.491,2.425,24.943,24.943,0,0,0,2.631,2.769A6.079,6.079,0,0,0,309.3,152.8a30.5,30.5,0,0,0,4.523-.389,9.022,9.022,0,0,1,2.485.12,4.815,4.815,0,0,1,2.281,1.089,5.145,5.145,0,0,1,1.321,2.029c.272.709.452,1.4.66,2.03a6.23,6.23,0,0,0,.776,1.687,4.291,4.291,0,0,0,1.241,1.164,18.27,18.27,0,0,0,3.012,1.372,8.518,8.518,0,0,1,2.514,1.448,4.114,4.114,0,0,1,1.2,1.875,2.653,2.653,0,0,1,.053,1.4C329.282,166.935,329.175,167.072,329.148,167.061Z" transform="translate(-294.161 -144.685)"/></g><g transform="translate(20.082)"><path class="c" d="M324.6,124.218a3.951,3.951,0,0,1-1.223-2.823,3.2,3.2,0,0,1,1.456-2.658,3.257,3.257,0,0,1,2.043-.425,3.717,3.717,0,1,1-3.151,6.2" transform="translate(-323.375 -118.291)"/></g><g transform="translate(20.428 4.813)"><path class="d" d="M328.7,132.042a1.859,1.859,0,0,1-.763.053,5,5,0,0,1-3.284-1.549,1.857,1.857,0,0,1-.444-.622,6.42,6.42,0,0,0,4.491,2.119Z" transform="translate(-324.211 -129.922)"/></g><g transform="translate(3.214 11.889)"><path class="e" d="M285.087,161.456a4.6,4.6,0,0,1,.025-.665,7.105,7.105,0,0,0-.252-1.779,18.687,18.687,0,0,0-.957-2.507,17.292,17.292,0,0,1-1.137-3.118,6.425,6.425,0,0,1-.15-1.729,4.729,4.729,0,0,1,.385-1.574,5.353,5.353,0,0,1,1.678-2.133,4.92,4.92,0,0,1,1.64-.814,2.955,2.955,0,0,1,.488-.1.546.546,0,0,1,.173-.012c0,.024-.234.053-.637.191a5.254,5.254,0,0,0-1.571.854,5.33,5.33,0,0,0-1.588,2.09,4.6,4.6,0,0,0-.357,1.509,6.337,6.337,0,0,0,.15,1.669,18.172,18.172,0,0,0,1.108,3.086,17.1,17.1,0,0,1,.922,2.547,6.438,6.438,0,0,1,.188,1.821c-.021.216-.052.382-.069.494A.521.521,0,0,1,285.087,161.456Z" transform="translate(-282.611 -147.024)"/></g><g transform="translate(5.137 29.714)"><path class="e" d="M291.627,216.263a1.367,1.367,0,0,1-.244-.142,6.086,6.086,0,0,1-.655-.476,8.522,8.522,0,0,1-1.9-2.286,11.864,11.864,0,0,1-1.414-4.173,19.5,19.5,0,0,1,.068-5.4c.257-1.9.647-3.683.953-5.308a38.735,38.735,0,0,0,.619-4.343,19.33,19.33,0,0,0,0-2.954c-.057-.7-.126-1.078-.1-1.082a1.365,1.365,0,0,1,.065.275c.039.181.079.45.123.8a17.217,17.217,0,0,1,.067,2.972,36.273,36.273,0,0,1-.576,4.369c-.3,1.631-.679,3.412-.934,5.3a19.758,19.758,0,0,0-.085,5.341,11.967,11.967,0,0,0,1.35,4.126,8.9,8.9,0,0,0,1.821,2.3C291.305,216.043,291.642,216.24,291.627,216.263Z" transform="translate(-287.258 -190.102)"/></g><g transform="translate(24.643 21.017)"><path class="e" d="M337.712,203.077s.024-.028.076-.073l.237-.2c.208-.173.515-.429.9-.768a19.532,19.532,0,0,0,2.927-3.2,11.833,11.833,0,0,0,2.273-5.917,8.89,8.89,0,0,0-.446-3.72,21.618,21.618,0,0,0-1.958-3.571,7.249,7.249,0,0,1-.8-1.946,7.7,7.7,0,0,1-.161-2.036c.054-1.336.3-2.6.317-3.8a11.7,11.7,0,0,0-.379-3.395,8.146,8.146,0,0,0-1.269-2.678,6.594,6.594,0,0,0-3.461-2.452,6.689,6.689,0,0,0-1.573-.212.431.431,0,0,1,.105-.012l.309-.013a5.381,5.381,0,0,1,1.18.156,6.585,6.585,0,0,1,3.562,2.442,8.228,8.228,0,0,1,1.318,2.721,11.769,11.769,0,0,1,.406,3.447c-.018,1.229-.255,2.494-.3,3.807a7.518,7.518,0,0,0,.159,1.98,7.055,7.055,0,0,0,.777,1.889,21.463,21.463,0,0,1,1.969,3.607,9.041,9.041,0,0,1,.445,3.806,11.883,11.883,0,0,1-2.347,5.99,18.532,18.532,0,0,1-3,3.174c-.4.33-.711.577-.929.739l-.25.181A.391.391,0,0,1,337.712,203.077Z" transform="translate(-334.398 -169.084)"/></g><g transform="translate(24.982 25.994)"><path class="d" d="M338.253,181.146a1.032,1.032,0,0,1,.317.248,2.021,2.021,0,0,1,.559.953,1.831,1.831,0,0,1-.413,1.578,2.071,2.071,0,0,1-1.842.753,1.989,1.989,0,0,1-1.545-1.25,1.665,1.665,0,0,1-.083-.9,1.833,1.833,0,0,1,.311-.715,1.729,1.729,0,0,1,.89-.654.787.787,0,0,1,.4-.044c0,.02-.142.03-.374.123a1.752,1.752,0,0,0-.792.661,1.56,1.56,0,0,0-.169,1.453,1.814,1.814,0,0,0,1.391,1.109,1.9,1.9,0,0,0,1.66-.669,1.7,1.7,0,0,0,.415-1.418,2.116,2.116,0,0,0-.472-.929A2.4,2.4,0,0,1,338.253,181.146Z" transform="translate(-335.218 -181.11)"/></g><g transform="translate(9.867 8.994)"><path class="e" d="M314.793,140.026a.65.65,0,0,1-.029.189l-.051.227-.1.3a4.77,4.77,0,0,1-1.094,1.692,5.151,5.151,0,0,1-2.61,1.442,4.827,4.827,0,0,1-1.783.03,7.709,7.709,0,0,1-1.821-.566c-1.2-.528-2.228-1.209-3.226-1.7a7.479,7.479,0,0,0-2.789-.868,4.417,4.417,0,0,0-1.943.265c-.433.179-.643.341-.655.323s.046-.048.146-.124a3.085,3.085,0,0,1,.476-.276,4.265,4.265,0,0,1,1.985-.34,7.413,7.413,0,0,1,2.868.841c1.016.49,2.052,1.165,3.225,1.682a7.644,7.644,0,0,0,1.769.555,4.682,4.682,0,0,0,1.709-.017,5.083,5.083,0,0,0,2.542-1.355,4.98,4.98,0,0,0,1.123-1.615l.119-.289.07-.218A.655.655,0,0,1,314.793,140.026Z" transform="translate(-298.689 -140.026)"/></g></g><g transform="translate(0 63.816)"><g transform="translate(6.059 22.289)"><path class="n" d="M213.662,339.581l-25.967,12.551-47.607-12.984,23.371-12.767Z" transform="translate(-140.088 -326.381)"/></g><g transform="translate(47.45 30.357)"><path class="o" d="M243.669,350.48l6.895,2.277,6.382-3.47-10.623-3.408-6.2,3.215Z" transform="translate(-240.119 -345.879)"/></g><path class="n" d="M125.445,272.515c.216.866,6.059,35.056,6.059,35.056l47.607,12.984-6.275-36.571Z" transform="translate(-125.445 -272.515)"/><g transform="translate(50.198 27.848)"><path class="e" d="M246.762,339.817c.059-.01.882,4.5,1.838,10.077s1.685,10.1,1.627,10.115-.882-4.5-1.839-10.078S246.7,339.827,246.762,339.817Z" transform="translate(-246.759 -339.817)"/></g><g transform="translate(20.897 18.678)"><ellipse class="o" cx="2.5" cy="2.904" rx="2.5" ry="2.904" transform="translate(0 1.806) rotate(-21.173)"/></g></g><g transform="translate(51.355 66.225)"><path class="h" d="M272.046,306.355s27.875,2.388,32.492-.955,4.617-25.788,4.617-25.788l-13.814-1.274-.195,15.6c-.955.8-24.992,4.775-27.061,4.616,0,0-12.6,1.346-13.284,1.346s-5.246,5.183-5.246,5.433a1.334,1.334,0,0,0,.5.937,1.048,1.048,0,0,0,.063,1.374s-.187.874.5,1.062.749.5,1.561,0,4.809-3.622,4.809-3.622l3-.25s-7.306,4.184-6.682,5.121,2.061-.125,3.684-1,4.309-2.436,4.808-2.56S272.046,306.355,272.046,306.355Z" transform="translate(-249.555 -278.339)"/><g transform="translate(0.822 24.064)"><path class="i" d="M260.024,336.519c0,.041-.58.035-1.474.269a9.856,9.856,0,0,0-3.218,1.573,22.24,22.24,0,0,0-2.707,2.4,11.811,11.811,0,0,1-1.083,1.051,1.479,1.479,0,0,1,.243-.326c.167-.2.415-.485.729-.83a18.117,18.117,0,0,1,2.692-2.469,9.1,9.1,0,0,1,3.309-1.546,5.946,5.946,0,0,1,1.1-.143A1.326,1.326,0,0,1,260.024,336.519Z" transform="translate(-251.541 -336.496)"/></g><g transform="translate(0.5 23.039)"><path class="i" d="M257.984,334.044c0,.039-.5.033-1.273.242a8.154,8.154,0,0,0-2.755,1.406,18.577,18.577,0,0,0-2.278,2.144,8.723,8.723,0,0,1-.912.936,7.092,7.092,0,0,1,.8-1.037,14.743,14.743,0,0,1,2.262-2.214,7.469,7.469,0,0,1,2.849-1.383,4.823,4.823,0,0,1,.957-.12A1,1,0,0,1,257.984,334.044Z" transform="translate(-250.764 -334.017)"/></g><g transform="translate(45.434 15.577)"><path class="p" d="M363.894,320.746c-.036.009-.13-.367-.379-.93a6.976,6.976,0,0,0-3.248-3.4c-.551-.276-.922-.386-.912-.422a2.826,2.826,0,0,1,.976.284,6.25,6.25,0,0,1,3.324,3.484A2.843,2.843,0,0,1,363.894,320.746Z" transform="translate(-359.355 -315.985)"/></g></g></g><g transform="translate(100.344 104.158)"><g transform="translate(0.505 10.199)"><path class="a" d="M252.458,396.156a2.342,2.342,0,0,0-1.346,3.038,5.226,5.226,0,0,0,2.562,2.613c3.272,1.84,7.617,2.275,10.659.076,1.332-.963,2.375-2.666,1.824-4.214-.482-1.355-1.967-2.055-3.355-2.432a16.936,16.936,0,0,0-11.247.878" transform="translate(-250.977 -394.66)"/></g><g transform="translate(0 1.371)"><path class="o" d="M249.959,373.855s-2.243,14.914,8.179,14.436c9.762-.447,6.342-14.966,6.342-14.966Z" transform="translate(-249.756 -373.325)"/></g><g transform="translate(13.085 2.022)"><path class="o" d="M281.379,385.079a6.088,6.088,0,0,0,5.613.564,5.857,5.857,0,0,0,3.484-4.412,5.643,5.643,0,0,0-2.047-5.214,5.445,5.445,0,0,0-5.545-.633l-.152,1.7a3.4,3.4,0,0,1,3.46.4,3.522,3.522,0,0,1,1.278,3.254,3.654,3.654,0,0,1-2.174,2.753,3.8,3.8,0,0,1-3.5-.352Z" transform="translate(-281.379 -374.898)"/></g><g transform="translate(0.182)"><path class="d" d="M264.737,371.383c.043.924-3.178,1.824-7.194,2.01s-7.305-.413-7.348-1.337,3.178-1.824,7.194-2.009S264.695,370.459,264.737,371.383Z" transform="translate(-250.195 -370.012)"/></g><g transform="translate(13.586 3.984)"><path class="q" d="M284.16,379.64a2.38,2.38,0,0,0-1.556,2.022,5.046,5.046,0,0,0,.612,2.618c.12.248.326.533.6.481s.355-.373.388-.639a14.518,14.518,0,0,0-.045-4.416" transform="translate(-282.59 -379.64)"/></g><g transform="translate(2.109 2.185)"><path class="c" d="M265.245,375.809c3.38-.9-7.023-.53-10.393.408A28.729,28.729,0,0,0,265.245,375.809Z" transform="translate(-254.852 -375.292)"/></g></g></svg>