<svg xmlns="http://www.w3.org/2000/svg" width="18.904" height="18.904" viewBox="0 0 18.904 18.904"><defs><style>.a{}</style></defs><path class="a" d="M18.663,3.918a.592.592,0,0,0-.981-.24l-2.5,2.494-1.91-.547-.547-1.91,2.5-2.5a.592.592,0,0,0-.24-.981A5.32,5.32,0,0,0,13.389,0,5.52,5.52,0,0,0,7.876,5.513,5.4,5.4,0,0,0,8.2,7.366l-7.5,7.5A2.363,2.363,0,0,0,2.362,18.9a2.344,2.344,0,0,0,1.67-.693l7.5-7.5a5.4,5.4,0,0,0,1.853.321A5.52,5.52,0,0,0,18.9,5.513a5.293,5.293,0,0,0-.24-1.6Zm0,0" transform="translate(0.001 0)"/></svg>