<svg xmlns="http://www.w3.org/2000/svg" width="25.266" height="18.266" viewBox="0 0 25.266 18.266"><defs><style>.a{fill:#fff;}</style></defs><path class="a" d="M25.266,70.922V78.57s-1.637.322-1.974.365a2.34,2.34,0,0,1-2.158-.352c-1.181-1.132-5.375-5.3-5.375-5.3a1.594,1.594,0,0,0-1.885-.1c-1.066.562-2.646,1.385-3.306,1.706A1.519,1.519,0,0,1,8.285,73.7a1.553,1.553,0,0,1,.944-1.356c1.505-.912,4.677-2.693,6-3.395.8-.427,1.382-.464,2.484.465,1.358,1.142,2.566,2.183,2.566,2.183a1.256,1.256,0,0,0,1.023.2C22.845,71.464,25.266,70.922,25.266,70.922ZM8.569,83.881a1.336,1.336,0,0,0-1.6-1.847,1.378,1.378,0,0,0-.291-1.361,1.41,1.41,0,0,0-1.348-.341,1.377,1.377,0,0,0-.292-1.359A1.522,1.522,0,0,0,2.9,79.03c-.623.6-1.022,1.681-.466,2.319s1.193.248,1.679.138c-.135.482-.541.931-.041,1.563s1.193.249,1.68.139c-.136.481-.523.975-.043,1.56s1.278.274,1.8.112c-.2.52-.635,1.08-.079,1.708s1.838.34,2.465-.258a1.5,1.5,0,0,0,.135-2.113A1.423,1.423,0,0,0,8.569,83.881ZM20.006,79.9c-4.531-4.531-2.4-2.4-4.838-4.842a1.588,1.588,0,0,0-1.7-.306c-.678.3-1.551.7-2.208,1.011a3.643,3.643,0,0,1-1.485.494A2.519,2.519,0,0,1,8.445,71.6c1.007-.7,3.324-1.929,3.324-1.929a2.909,2.909,0,0,0-2.253-.895c-1.546,0-4.776,2.116-4.776,2.116a2.525,2.525,0,0,1-2.223.058L0,70.07v8.752s.719.208,1.365.472a2.878,2.878,0,0,1,.708-1.118A2.786,2.786,0,0,1,5.9,78.149a2.412,2.412,0,0,1,.6,1.072,2.441,2.441,0,0,1,1.035.631,2.408,2.408,0,0,1,.6,1.07,2.461,2.461,0,0,1,1.674,1.8,2.477,2.477,0,0,1,1.079.647,2.546,2.546,0,0,1,.668,2.206,0,0,0,0,1,0,0c.01.013.363.407.583.629a1.111,1.111,0,0,0,1.571-1.571c-.015-.015-1.558-1.629-1.434-1.755s2.089,1.921,2.126,1.959a1.11,1.11,0,1,0,1.57-1.57c-.021-.02-.11-.1-.143-.139,0,0-1.949-1.736-1.8-1.885s2.571,2.11,2.575,2.11a1.1,1.1,0,0,0,1.579-1.516c-.008-.023-1.845-1.943-1.7-2.088s1.964,1.726,1.967,1.73a1.111,1.111,0,1,0,1.57-1.572Z" transform="translate(0 -68.657)"/></svg>