<svg xmlns="http://www.w3.org/2000/svg" viewBox="0 0 18.355 17.59"><defs></defs><g transform="translate(0 0)"><g transform="translate(0 0)"><path class="a" d="M345.9,123.853c.01-.152.017-.305.017-.416a7.619,7.619,0,0,0-2.84-5.949.765.765,0,1,0-.961,1.189,6.1,6.1,0,0,1,2.272,4.759,3.1,3.1,0,1,0,1.513.416Z" transform="translate(-329.091 -113.494)"/><path class="a" d="M48,19.819a.764.764,0,0,0,.915-.577,6.167,6.167,0,0,1,3.261-4.127,3.049,3.049,0,1,0-.342-1.512,7.7,7.7,0,0,0-4.411,5.3A.765.765,0,0,0,48,19.819Z" transform="translate(-45.704 -10.66)"/><path class="a" d="M11.218,293.771a6.113,6.113,0,0,1-5.718-.887,3.028,3.028,0,0,0,.618-1.824,3.068,3.068,0,1,0-1.842,2.8,7.643,7.643,0,0,0,7.451,1.35.765.765,0,0,0-.509-1.442Z" transform="translate(0 -278.058)"/></g></g></svg>