<svg xmlns="http://www.w3.org/2000/svg" width="16.363" height="15.546" viewBox="0 0 16.363 15.546"><g transform="translate(0 -3.162)"><path d="M15.651,8.462l-4.506-.426a.779.779,0,0,1-.646-.478L8.885,3.646a.772.772,0,0,0-1.433,0l-1.6,3.912a.763.763,0,0,1-.646.478L.7,8.462A.779.779,0,0,0,.26,9.818l3.4,2.983a.772.772,0,0,1,.245.762l-1.02,4.183A.779.779,0,0,0,4.03,18.6L7.788,16.39a.781.781,0,0,1,.788,0L12.333,18.6a.776.776,0,0,0,1.149-.852l-1.007-4.183a.772.772,0,0,1,.245-.762l3.4-2.983A.789.789,0,0,0,15.651,8.462Z" transform="translate(0 0)"/></g></svg>