<svg xmlns="http://www.w3.org/2000/svg" width="16.77" height="16.77" viewBox="0 0 16.77 16.77"><defs><style>.a{fill:#fff;}</style></defs><path class="a" d="M19.34,9.265H17.688A6.829,6.829,0,0,0,12,3.581V1.928h-2.1V3.581A6.829,6.829,0,0,0,4.224,9.265H2.571v2.1H4.224a6.829,6.829,0,0,0,5.684,5.684V18.7H12V17.045a6.829,6.829,0,0,0,5.684-5.684H19.34v-2.1Zm-3.786,0H13.921A3.153,3.153,0,0,0,12,7.348V5.714a4.732,4.732,0,0,1,3.551,3.551Zm-4.6,2.1A1.048,1.048,0,1,1,12,10.313,1.048,1.048,0,0,1,10.956,11.361ZM9.907,5.714V7.348A3.153,3.153,0,0,0,7.99,9.265H6.357A4.732,4.732,0,0,1,9.907,5.714ZM6.357,11.361H7.99a3.153,3.153,0,0,0,1.917,1.917v1.634A4.732,4.732,0,0,1,6.357,11.361ZM12,14.912V13.278a3.153,3.153,0,0,0,1.917-1.917h1.634A4.732,4.732,0,0,1,12,14.912Z" transform="translate(-2.571 -1.928)"/></svg>