<svg xmlns="http://www.w3.org/2000/svg" width="14.382" height="14.38" viewBox="0 0 14.382 14.38"><path d="M23.374,20.323l-2.088-1.459a1.61,1.61,0,0,0-2.244.4l-.485.695a17.956,17.956,0,0,1-2.583-2.17A17.933,17.933,0,0,1,13.8,15.206l.694-.485a1.61,1.61,0,0,0,.4-2.244l-1.459-2.088a1.613,1.613,0,0,0-1.317-.7,1.512,1.512,0,0,0-.525.094,2.891,2.891,0,0,0-.543.267l-.288.2a2.186,2.186,0,0,0-.2.182,2.9,2.9,0,0,0-.742,1.323c-.6,2.253.888,5.66,3.7,8.477,2.366,2.366,5.208,3.835,7.417,3.836h0A4.115,4.115,0,0,0,22,23.941a2.9,2.9,0,0,0,1.323-.742,2.193,2.193,0,0,0,.19-.216l.2-.29a2.9,2.9,0,0,0,.257-.529,1.586,1.586,0,0,0-.6-1.841Z" transform="translate(-9.689 -9.691)"/></svg>