<svg xmlns="http://www.w3.org/2000/svg" width="21.534" height="21.534" viewBox="0 0 21.534 21.534"><defs><style>.a{fill:white;}</style></defs><path class="a" d="M20.637,3.589H15.953l-.3-1.181A3.174,3.174,0,0,0,12.574,0H8.96A3.174,3.174,0,0,0,5.876,2.408l-.3,1.181H.9a.9.9,0,0,0,0,1.794h.946L2.6,18.991a2.7,2.7,0,0,0,2.689,2.543H16.247a2.7,2.7,0,0,0,2.689-2.543l.756-13.608h.946a.9.9,0,0,0,0-1.795ZM7.616,2.843A1.384,1.384,0,0,1,8.96,1.794h3.614a1.384,1.384,0,0,1,1.344,1.049l.186.746H7.43Zm.459,14.2a.9.9,0,0,1-1.794,0V8.075a.9.9,0,0,1,1.794,0Zm3.589,0a.9.9,0,0,1-1.794,0V8.075a.9.9,0,0,1,1.794,0Zm3.589,0a.9.9,0,0,1-1.794,0V8.075a.9.9,0,1,1,1.794,0Z"/></svg>