<svg xmlns="http://www.w3.org/2000/svg" viewBox="0 0 15.749 12.796"><defs></defs><path class="a" d="M15.749,49.515a6.731,6.731,0,0,1-1.86.51,3.211,3.211,0,0,0,1.42-1.785,6.452,6.452,0,0,1-2.047.782A3.228,3.228,0,0,0,7.677,51.23a3.325,3.325,0,0,0,.075.736A9.139,9.139,0,0,1,1.1,48.589,3.23,3.23,0,0,0,2.089,52.9a3.189,3.189,0,0,1-1.459-.4v.035a3.243,3.243,0,0,0,2.587,3.172,3.222,3.222,0,0,1-.846.106,2.854,2.854,0,0,1-.611-.055,3.259,3.259,0,0,0,3.017,2.249,6.487,6.487,0,0,1-4,1.377A6.049,6.049,0,0,1,0,59.347,9.09,9.09,0,0,0,4.953,60.8a9.126,9.126,0,0,0,9.189-9.187c0-.143,0-.281-.012-.417A6.441,6.441,0,0,0,15.749,49.515Z" transform="translate(0 -48)"/></svg>