<svg xmlns="http://www.w3.org/2000/svg" width="30.585" height="34.169" viewBox="0 0 30.585 34.169"><g transform="translate(0)"><path d="M119.663,17.743a8.872,8.872,0,1,0-8.871-8.872A8.9,8.9,0,0,0,119.663,17.743Z" transform="translate(-104.369)"/><path class="a" d="M54.685,254.3a8.274,8.274,0,0,0-.891-1.627,11.027,11.027,0,0,0-7.632-4.8,1.633,1.633,0,0,0-1.123.271,9.456,9.456,0,0,1-11.157,0,1.453,1.453,0,0,0-1.123-.271,10.947,10.947,0,0,0-7.632,4.8,9.541,9.541,0,0,0-.891,1.627.824.824,0,0,0,.039.736,15.455,15.455,0,0,0,1.046,1.55A14.721,14.721,0,0,0,27.1,258.6a23.236,23.236,0,0,0,1.782,1.55,17.667,17.667,0,0,0,21.075,0,17.04,17.04,0,0,0,1.782-1.55,17.891,17.891,0,0,0,1.782-2.014,13.584,13.584,0,0,0,1.046-1.55A.661.661,0,0,0,54.685,254.3Z" transform="translate(-24.165 -229.463)"/></g></svg>