<svg xmlns="http://www.w3.org/2000/svg" width="27.033" height="20.879" viewBox="0 0 27.033 20.879"><defs><style>.a{fill:#fff;}</style></defs><path class="a" d="M7.272,283.895l-.955,4.255H.818a.818.818,0,0,0,0,1.635H6.972a.827.827,0,0,0,.178-.02h0l4.893-1.1Zm0,0" transform="translate(-0.001 -268.906)"/><path class="a" d="M392.233,6.387a3.742,3.742,0,0,0,0-5.292h0a3.742,3.742,0,0,0-5.292,0l-.227.227,5.292,5.292Zm0,0" transform="translate(-366.297 0)"/><path class="a" d="M154.695,58.051l11.094-11.094,5.292,5.292L159.987,63.343Zm0,0" transform="translate(-146.527 -44.478)"/></svg>