<?xml version="1.0" encoding="UTF-8"?>
<svg width="32px" height="32px" viewBox="0 0 32 32" version="1.1" xmlns="http://www.w3.org/2000/svg" xmlns:xlink="http://www.w3.org/1999/xlink">
    <defs>
      <polygon id="path-1" points="0 0 19.979778 0 19.979778 23.659818 0 23.659818"></polygon>
      <polygon id="path-3" points="0.624988 0 7.239778 0 7.239778 6.614608 0.624988 6.614608"></polygon>
    </defs>
    <g>
        <g transform="translate(-524.000000, -316.000000)">
            <g id="audit-icon" transform="translate(524.000000, 316.000000)">
                <rect id="Rectangle" fill="#E2E2E2" x="0" y="0" width="32" height="32" rx="7"></rect>
                <g id="audit-active-icon" transform="translate(6.000000, 4.000000)">
                    <g id="Group-9">
                        <g id="Group-3">
                            <mask id="mask-2" fill="white">
                                <use xlink:href="#path-1"></use>
                            </mask>
                            <path d="M19.979778,6.614608 L19.979778,21.983598 C19.979778,22.909068 19.229028,23.659818 18.303558,23.659818 L1.676038,23.659818 C0.750568,23.659818 -0.000182,22.909068 -0.000182,21.983598 L-0.000182,1.676038 C-0.000182,0.750568 0.750568,-0.000182 1.676038,-0.000182 L13.364988,-0.000182 L19.979778,6.614608 Z" id="Fill-1" mask="url(#mask-2)"></path>
                        </g>
                        <g id="Group-6" transform="translate(9.800000, 0.000000)">
                            <mask id="mask-4" fill="white">
                                <use xlink:href="#path-3"></use>
                            </mask>
                            <g id="Clip-5"></g>
                            <path d="M7.239778,6.614608 L2.311218,6.614608 C1.380288,6.614608 0.624988,5.859308 0.624988,4.927468 L0.624988,-0.000182" id="Fill-4" style="fill:currentColor" mask="url(#mask-4)"></path>
                        </g>
                        <path d="M11.752468,18.937009 C9.318218,18.937009 7.337148,16.956849 7.337148,14.521689 C7.337148,12.088349 9.318218,10.107279 11.752468,10.107279 C14.186718,10.107279 16.166878,12.088349 16.166878,14.521689 C16.166878,16.956849 14.186718,18.937009 11.752468,18.937009 M21.466718,22.627969 L17.212468,18.373719 C17.984148,17.283539 18.441878,15.956759 18.441878,14.521689 C18.441878,10.833459 15.440698,7.832279 11.752468,7.832279 C8.063328,7.832279 5.062148,10.833459 5.062148,14.521689 C5.062148,18.210829 8.063328,21.212009 11.752468,21.212009 C13.186628,21.212009 14.513408,20.754279 15.603588,19.982599 L19.857838,24.236849 C20.079878,24.458889 20.371078,24.569909 20.662278,24.569909 C20.953478,24.569909 21.244678,24.458889 21.466718,24.236849 C21.910798,23.792769 21.910798,23.072049 21.466718,22.627969" id="Fill-7" style="fill:currentColor"></path>
                    </g>
                </g>
            </g>
        </g>
    </g>
</svg>
