<?xml version="1.0" encoding="UTF-8"?>
<svg width="26px" height="26px" viewBox="0 0 26 26" version="1.1" xmlns="http://www.w3.org/2000/svg" xmlns:xlink="http://www.w3.org/1999/xlink">
    <!-- Generator: Sketch 64 (93537) - https://sketch.com -->
    <title>Group 8</title>
    <desc>Created with Sketch.</desc>
    <defs>
        <polygon id="path-1" points="0 0.0002 25.9999 0.0002 25.9999 26 0 26"></polygon>
    </defs>
    <g id="Design-1920" stroke="none" stroke-width="1" fill="none" fill-rule="evenodd">
        <g id="Document-Page-3-Period-Page" transform="translate(-430.000000, -1123.000000)">
            <g id="Group-8" transform="translate(430.000000, 1123.000000)">
                <g id="Group-3">
                    <mask id="mask-2" fill="white">
                        <use xlink:href="#path-1"></use>
                    </mask>
                    <g id="Clip-2"></g>
                    <path d="M25.9999,13.0002 C25.9999,20.1802 20.1799,26.0002 12.9999,26.0002 C5.8199,26.0002 -0.0001,20.1802 -0.0001,13.0002 C-0.0001,5.8202 5.8199,0.0002 12.9999,0.0002 C20.1799,0.0002 25.9999,5.8202 25.9999,13.0002" id="Fill-1" fill="#E3E3E3" mask="url(#mask-2)"></path>
                </g>
                <path d="M18.0487,19.9948 L7.9507,19.9948 C7.5087,19.9948 7.1517,19.6368 7.1517,19.1948 L7.1517,17.0038 C7.1517,16.5618 7.5087,16.2038 7.9507,16.2038 C8.3927,16.2038 8.7507,16.5618 8.7507,17.0038 L8.7507,18.3948 L17.2487,18.3948 L17.2487,17.0038 C17.2487,16.5618 17.6067,16.2038 18.0487,16.2038 C18.4907,16.2038 18.8487,16.5618 18.8487,17.0038 L18.8487,19.1948 C18.8487,19.6368 18.4907,19.9948 18.0487,19.9948" id="Fill-4" fill="#7C7C7C"></path>
                <path d="M16.4476,12.7551 C16.1356,12.4431 15.6276,12.4431 15.3166,12.7551 L13.9306,14.1391 L13.9306,5.3991 C13.9306,4.9571 13.5726,4.5991 13.1316,4.5991 C12.6896,4.5991 12.3316,4.9571 12.3316,5.3991 L12.3316,14.1391 L10.9476,12.7551 C10.6346,12.4431 10.1276,12.4431 9.8156,12.7551 C9.5036,13.0671 9.5036,13.5741 9.8156,13.8861 L12.5656,16.6361 C12.7216,16.7921 12.9266,16.8701 13.1316,16.8701 C13.3356,16.8701 13.5406,16.7921 13.6966,16.6361 L16.4476,13.8861 C16.7596,13.5741 16.7596,13.0671 16.4476,12.7551" id="Fill-6" fill="#7C7C7C"></path>
            </g>
        </g>
    </g>
</svg>