<svg xmlns="http://www.w3.org/2000/svg" xmlns:xlink="http://www.w3.org/1999/xlink" width="21" height="21" viewBox="0 0 21 21">
    <defs>
        <path id="prefix__a" d="M0 0L20.514 0 20.514 20.515 0 20.515z"/>
    </defs>
    <g fill="none" fill-rule="evenodd">
        <mask id="prefix__b" fill="#fff">
            <use xlink:href="#prefix__a"/>
        </mask>
        <path style="fill: currentColor" d="M17.84 7.25l-4.577-4.575.865-.864 4.576 4.575-.865.865zM3.323 13.367l1.912 1.91L7.15 17.19l-5.316 1.493 1.491-5.316zm5.261 3.139l-2.288-2.288-2.288-2.288 8.194-8.194 4.575 4.577-8.193 8.193zm11.71-10.65L14.658.22c-.293-.293-.768-.293-1.06 0l-1.925 1.924s0 .002-.002.002l-9.248 9.248-.005.005c-.083.083-.137.186-.173.296-.004.012-.015.019-.019.032L.027 19.562c-.073.26 0 .542.192.733.143.143.334.22.531.22.068 0 .135-.01.202-.028l7.836-2.2c.011-.003.018-.013.03-.016.107-.036.211-.09.297-.175l.005-.005L20.295 6.917c.14-.141.22-.332.22-.531 0-.198-.08-.39-.22-.53z" mask="url(#prefix__b)"/>
    </g>
</svg>
