<svg xmlns="http://www.w3.org/2000/svg" viewBox="0 0 73.68 73.68">
  <path d="M62.09 36.84c0,-22.43 -27.24,-33.72 -43.11,-17.86 -15.86,15.86 -4.57,43.11 17.86,43.11 13.95,0 25.25,-11.3 25.25,-25.25zm-27.48 -10.08c0,-2.93 4.46,-2.93 4.46,0l0 7.85 7.85 0c2.93,0 2.93,4.46 0,4.46l-7.85 0 0 7.85c0,2.93 -4.46,2.93 -4.46,0l0 -7.85 -7.85 0c-2.93,0 -2.93,-4.46 0,-4.46l7.85 0 0 -7.85zm23.23 -10.92c18.67,18.67 5.37,50.72 -21.01,50.72 -26.38,0 -39.68,-32.05 -21.01,-50.72 11.6,-11.6 30.41,-11.6 42.01,0z"/>
</svg>
